<svg xmlns="http://www.w3.org/2000/svg" version="1" viewBox="0 0 800 800"><g fill="#050404"><path d="M439 59c2-2 4-2 6-2v15l3 2v15c2 1 2 2 2 4l-1 11c2 0 5 0 5 3s1 7-1 10v4h7l1 3c-2 5-4 11-4 16-3 5-4 10-6 16l3 1-4 17 2 8-2 7c2 0 4 0 4 2l-1 5-2 2 1 1c-2 4-4 7-3 11 3-3 7-4 11-3l2 2-4 12h1l-2 9 2 2 3-4c2 1 1 3 0 4h-1l-6 9-2-2 1-10 2-6c1-4 1-9 3-13l-1-1-11 5-3-4 2-6 4-10c-2 0-4-1-5-3l4-7-2-4-3 1-2-3c1-1 2-2 4-1 2-4 1-10 4-13v-4l-2-1-1-2 4-12c1-8 5-14 7-22l-7 5c-4-2-2-7-1-10l1-10-3 5-4-1 1-4 2-12-4-2c1-6 3-11 3-17l-3-2c-2-5-1-10 0-14-3 2-5 5-6 8-2 3-2 7-3 11l-2 3c0 5-1 11 1 16v2l-2 1c-4-1-6-5-9-7 1 6 0 13 5 18 0 2-3 2-4 2l-4-3v14c1 5 2 9 1 14h-4c-3 2-3 6-4 9l3 6c0 2-1 3-3 2-1 6 1 11 1 16l-1 2-8-1 3 19 2 2c0 3-3 4-5 4-2 2-1 4 0 6l4 9 7 12h-2v3l-9-3 1 6 3 5-1 3-3-1c-1-2-2-4-5-5-3 2-7 2-9 6l3 15c1 3 5 4 7 6v13l-4 9c-3 5-1 10-3 14l-1 2-1-1-2-4c2-3-1-5-2-7v-9c-1-5-4-8-7-11l-1-6-1-9c2-5-3-9-4-15v-8l3 1v6l2-1-1 3 3 7 2 3-1 5c-3 0 0 2 0 3 1 2 0 3-1 5 2 1 4 2 3 4s3 2 3 4c1 3 3 7 6 9l-2 4 1 4c-1-4 3-7 5-11-3-4-1-9-1-13l-6-4 1-2c-3-2-2-6-4-9h1c-2 1-5-1-4-3 2-5 4-10 9-11 2-3 5-3 8-2l-1-8c2-2 5-2 7 0h2l-6-10-4-11c0-3 0-8 4-7l-3-24c1-3 4-1 6 0h3c-1-6-2-11-1-17 2-3 0-7 2-10 1-4 4-7 8-7l-2-13a2430 2430 0 0 1 0-17l4 2-1-16 1-4h3l6 7V81l2-8c2-5 4-10 8-14m-61 184c1 1 1 1 0 0z"/><path d="M429 135c4 0 8-2 10 2-2 2-5 2-7 2l1 4c3 1 1 4 1 6l-1 3c-2 0-3-1-3-2l1-6c-1 0-4-1-3-3l1-6zM438 173l1-3c0 2 2 2 4 3v3l-1 2c-1 2 0 5-3 6-2-1-2-3-2-5 2-2 2-4 1-6zM427 202c1-4 0-10 4-13 4 2-2 5-1 8l2-4c1-1 3-2 5-1l1 3-5 2 1 1 3-1v9l-1 3-4-1 2-9-4-1-3 4zM364 226c1 1 3 0 3 2s2 3 4 4l-1 10c1 4 3 7 6 10l1 8h-4v7l-1 4c-2 1-1 3-1 6-2 1 0 3 1 4l4 8-1-10 2-2 2 2 1 18-1 2c2 2 2 6 3 9l6 21v10l-4 2c-1-5 2-9 1-14l-2-9c-2 0-4 0-4-2-1-7-1-15-6-22h-2l1-6c-3-8-10-12-11-20l4 1 2 4 1-2-6-6c1-1 3-3 4-2l3 4 1-8-4-6 2-2c3 1 3 5 6 5l-4-7-4-8 1-4c-1-2-3-3-2-6l-1-5zM462 246l4-11h1c-2 11-9 20-13 31l-3 11c3-2 5-4 9-4l-1 4c-2 8-4 17-4 25l4-7 3 1a313 313 0 0 0-5 9l-2 12h-4l2-10-3-5 2-7 5-19c-3 3-6 7-11 7l2-9c5-9 8-19 14-28z"/><path d="M327 296l3-1 2 4 3-2 2 2 7 13c0-4 0-7 2-11l2-5 4-1 3 2v3c-3 3-4 8-4 13l-3-1c0 3 1 5 3 6h1v-3l2-9h3v9c-1 1-2 3-1 5l-2-1 2 1-4 3 4 8c1-2 2-6 5-5l-2 4v6l8 9 1-2 2 1 1-6c5 1 6 6 10 6 1-2 4-5 6-2l-2 3-4 3h-2l-5-4-2 4-6-2v3c3 1 4 4 5 7v8l6 5 5-4v-3h3l2 3c0 2-2 3-3 4h-2l-2 4h-2a450 450 0 0 0-1 0l-4-4c-1 7-3 13-3 20h4c2 5-3 10-3 15l2-2 5 2v6l4 1v3l4-5c1-2 3 0 4 0l-1 8 4 1c-2 4-2 9-2 13l-1 9v9l-3 2c-2-2 0-5-1-7l1-5-1-2 2-1v-3c-1 2-3 4-5 2l1-7c2-4 1-9 2-13l-7 11h-3l2-10-3-1c-3-1-1-5-1-8l-7 3c-2-6 3-12 4-17h-4c-2-6 1-11 1-17 2-2 2-5 2-7h-4l2-2-1-12-2 1c-2-3-2-6-2-10l-8-11c-1-2-4-2-5-3v-3l-5-6c-1-5-4-9-6-14l-3-2c0 5 3 9 6 13 2 3 3 7 1 10 3 5 10 8 10 14l-3 4-4 3 5 7c2 1 1 4 1 6-2 2-5 2-7 2l4 6 3 7-3 4-7-1v1l12 11c0 3 2 5 0 7-2 3-6 0-8 3 3 4 8 7 12 10 2 1 5 3 4 6-4 3-9-2-13 0 2 4 6 6 10 9l11 8-1 3h-3c4 6 9 11 15 15-2-5-3-11-6-16-1-1-2-4 1-3 4 1 2 6 5 8l11 30 2-2c-2-12-1-25-2-37l2-4v4l2 26c1-2 1-6 5-7l4-8-1-2 4-7 15-24 5-8c-1-1-3-2-4 0l-2-2 4-15 2-2-4 2-1-2c1-3 3-5 3-8l-4 4-4-1c-3 4-4 9-6 14h-3l-1-2c2-3 2-7 3-11l10-16v-4c1-4 2-7 5-9l5-11c2-1 4-5 7-5l-1 2-3 6-3 2v3c-3 2-4 5-6 8l2 4c-3 3-4 7-6 10-1 2-3 4-2 6l3-3 4-3 3 1 3-4 9-15 11-11c3-4 9-8 10-13-5 2-8 5-11 9h-7v-7l1-2-1-10 2-2h3v12l2-3 3 1-1 4c3-3 7-6 11-5 3 0 3 4 1 6-3 3-5 8-7 12l4-3c2-1 2 1 2 2l-7 13-9 7c-5 6-12 13-13 21h-4c-2 6-5 12-5 18h5l-3 11-7 11-9 15-4 8 2 1-1 10c-2 1-3 0-4-1l1-3h-1l-1 4-1 1c-1 3-1 5-3 7l-2 17 1 1 1 2 9-13 11-12 3-9c3-7 7-13 12-19l4-6 5-1c-1-5 2-9 3-13l5 4 1 2c2-3 3-7 7-9 1-4 3-7 2-11l2-2 5 5 4-10h2l1 2v7c3-3 5-7 10-9l5 1 3-6 2 4-2 5h-8l-4 3-4 6-5-2-3 3c-2 0-4-1-5-3l-2 12-2 4c-2 1-3-1-4-2 1 7-6 12-9 18l-6 5-3 4c-5 3-7 8-11 11l-3 5c-2 1-2 3-3 5 5 0 11-1 15-5l2 3-10 4c-4 1-7 1-10 3l1 3h6c1 2-1 4-1 6-6 4-14 3-20 8-3 1-4 4-6 6 0 6 0 12-2 17l-5 25c1 5-1 11-2 16l-2 2 2-1 13-15c0-2-3-5 0-6l3-10c1-2 4-2 5-1l-1 8 10-11 17-14c2 3-2 5-3 7l-5 5 9-1h1c2 2 1-4 4-2 2 0 6 1 7-2 3 0 7 0 10-2v-1l-9-9 2-2 2-1 7 1c4-1 9-1 12-4l-6-5 1-3h10l4-1h2l4-6-2-3-6-3 4-4 5-1 12-8 7-7h-3l-1-2c-5 4-7 10-11 14l-4-2v-3c-2 3-6 5-9 7-2 2-5 3-6 6-3 1-6 3-10 1-2 3-3 7-6 9l-5 1-4-4-5 5c-1-1-3-1-4 1-2 2-5 0-5-2l-3 11c-2 1-4 1-5 4l-3 12h-3l-1-4-2 7-1 7-4 1-2-1v-9l2-2 1 5a94 94 0 0 1 6-17c2-2 3 1 4 2l2-6 4-5c1-2 1-5 3-7 1-3 0-6 2-8h2a415 415 0 0 1 2 8c0-3 4-3 6-2l2-4 3-1c2 2 3 4 6 5l8-9h6c5-5 11-9 17-12 2-1 5-1 5 1 4-4 7-10 13-12 0 2 1 2 1 0 2 1 4 4 6 1h2c1 3-1 4-2 6-3 3-8 4-9 8-4 1-6 4-9 6l-9 4 5 5c1 4-3 7-5 10-4 1-7 3-11 2l3 4c-2 4-6 5-9 6h-1l-12 1c3 4 7 6 11 7l2 2-7 3-3 3 1 3v3l-15 3-1 1c2-1 5 0 6 2l-12 6-4 2v2c-5 2-11 1-16 4v-2 2c-5 1-11 1-15 3s-5 6-8 9l-8 10c-2 3 0 6-1 9 0 9 2 19 1 28-2 0-3 1-4-1-1-3 1-6 1-9l-1-10v-11c-2 5-2 11-3 16 0 3-1 5 1 8l-3 3-2-5c1-3 0-7 2-10-2 1-2 5-5 4-1-3 1-6 2-9l5-30c3-10 4-21 6-31 3-11 5-22 6-34l-3 1c-1-2 0-3 1-5l-7-19-3 1c-8-7-15-14-21-22l2-1-5-5-7-7c-2-1-3-2-3-4v-3h11l-14-10c0-2 0-5 2-6 1-3 4-2 6-3 2 0 0-2-1-3 0-2-2-3-3-3l-9-11 1-3 9 2 1-3-6-9-3-3 9-3v-2l-7-10c2-3 6-3 8-7l-2-3c-3-1-4-3-5-5-2-2-5-4-5-7l2-3-6-12-3-9-4-8m6 5c1 1 1 1 0 0m45 44c1 1 1 1 0 0m64 12l1 1-3 1 1 1-6 9c-2 4-5 8-6 13 5-1 5-6 8-9l10-11 11-13h-3l-2-3-11 11m-70 36c1 1 1 1 0 0m74 25c0 5 0 11-2 15l8-8-2-4-4-3m-59 13c1 1 1 1 0 0m52 3c-3 4-7 9-9 14 2 0 2-2 3-3l9-11h-3m-57 20c1 1 1 1 0 0m33 19l-6 8c5-1 11-1 14-5h-4l-4-3m58 14c1 1 1 1 0 0m-82 30l-1 1-1 9-1 1-4 30 3-2c-2-6 2-12 2-19l2-11c0-3-1-6 1-9l4-13v-4l-1-3-4 20m49-1l-6 4c-3-1-7 0-7-4l-11 11-4 6c-2 2-5 3-6 6 6-1 11-1 16-3 5-6 13-4 19-9l-3-1 1-4c5-2 11-2 16-3l1-1-4-2c-4 0-8 2-12 0m-33 17c1 0 3-2 2-3-1 0-3 2-2 3zM416 303c3-2 5-1 8 1-1 4-6 3-9 1l1-2z"/><path d="M418 310c1-2 3-2 5-2l5 4v4l-3 5h-3l2-6-1-3c-2 0-4 1-5-2zM465 309v5l-1 8h-3l-2-3 4-8 2-2zM289 353h4l-1 6 1 3 5 2h-7l2 10 1 10-3 2-2-3c1-6 1-13-1-18-2-4 0-8 1-12zM515 356c1-1 0-3 2-3 1-1 2 1 1 2l-3 9c2 0 3 2 3 4l-4 7h2c0 3-2 5-3 7l-3 7c2-1 3 1 5 2 0 2 1 5-1 7l-6 5-20 9-8 4c-1 0-3-1-1-3l11-6c1-2 2-5 5-5l3 2c3-2 7-3 10-6l2-2c1-1 3-2 2-4-3 0-7 3-8-1l3-4-4-2 5-9-10 6c1-4 4-6 7-8 3-1 4-3 6-5l-1-3c1-4 2-7 5-10m-6 43c1 1 1 1 0 0zM358 360h3l-1 4c1 3 4 4 5 6-2 2-5 0-7-1l-3-3 3-6z"/><path d="M296 371h3l2 4 3 3h-2c2 0 2 1 3 3 2 0 1 3 2 5 4 0 6 5 5 9l3 1c2 1 3 4 5 3 4 0 5 4 6 7 2 5-1 12 4 16v3 10l4-3 5-2 2 3-1 5-1 7 7-3 3 4-2 14c2-3 3-7 7-8 1 2 3 2 4 2l-1 5h-4l-6 7-3 3-2-2 1-10c2-3 2-7 2-10l-3 1-3 2 1 1h-5c0-6 2-12 3-17l-9 7-3-1v-15c0-2-3-2-3-4 0-6 1-12-2-18l-3 2c-2-1-3-3-4-6-2 1-4 2-7 1l1-9c-1-2-2 1-3 2l-4-3c2-1 2-4 3-6l-9-11 1-2zM361 376h4c-2 3-3 6-6 8-1-3 0-6 2-8z"/><path d="M289 390l3-3 13 13 7 9 1 1 1 3-3 2c-1 3-3 6-2 10l-4-2 3-12h-7l-5-5-6-1-1-6v-9m5 4v1l-1 6 4 2c0-2 2-2 3-2-2-4-6-6-5-10l-1 3m7 8l4 5c0-2-2-4-4-5m0 6c1 1 1 1 0 0zM368 411c2 2 0 6 2 8l3 9 2 5c-2 1-3 2-5 1l-1-10-3-1c-1-4-1-9 2-12zM475 423l3-3c2 1 5 3 3 5-3 0-5 2-7 4-2 4-7 4-10 3v3c-3 1-6 1-9-1l2-2c3-3 8-3 12-4l6-5zM308 430l6-3 1 5c3 4 4 12-2 15 3 6 7 12 8 20 3 2 2 5 2 8l2 6c-3 3-5-2-7-3l2-7c-4-3-3-9-5-13l-2 1-4-1c-3-4-7-8-8-13v-9l1-4 6-2m3 7l-2 2 2 3 2-1 2-5-2 1v-3c-2 0-2 2-2 3m-6 5c1 3 1 6 3 8l4 2c-3-3-3-8-7-10m14 26c1 1 1 1 0 0zM468 436c2 0 5 0 6 2 2 1 0 2 0 4-2-3-5-1-7 0l-5 1c-2 1-3 4-5 4h-8l-8 7c-2 2-5 2-7 3v-4c4 0 8-3 11-6 4-4 10 0 14-4l3-4h4l2-3z"/><path d="M354 464c1-2 3-5 6-4-1 3-3 5-1 7 0 2 3 7-1 6v5l7-3h3l4-3 2 3-3 15 3-3 3 2-5 15-6 1-2 4-3 15c-1 3-2 7-4 9 1 8 4 15 7 22v4l1 1 2 8c2 2 1 5 3 8l6 24c4 0 4 4 5 6 2 3 1 6 2 9a105 105 0 0 0 0 1l1 5 1 10-2 6-2-2v-7c-3 6-8 11-12 16v9l-3 18-2 18 1 30c-1 2 0 4 1 6 0 2-2 3-4 4l-1-2v-36c0-6 2-11 1-16l1-7 2 1c-3-5 2-11 0-17h1l-1-2 1-4-12 6-5 2-8 4-16 7c-6 3-11 7-16 12-3 2-3 6-6 6l-3-1c2-5 2-11 3-17 1-4 3-7 2-11 0-8 5-15 6-23 2-5 2-10 5-15l11-13c7-4 16-7 23-3h12l-1-7c-4-8-10-14-16-20-4-3-7-7-11-8-5-1-10 1-15 1h-10v-2l-1 2-15 1 1-3-1 3-8-2c-5-3-10-7-16-9l-18-3-10 1c-6-1-11 2-16 2 0-3-1-1-2 0h-11c-4 1-8 2-12 0l-5 2-2 1v9c0-2-2-2-4-2-2-6-1-13 1-19 4-6 6-14 13-17 8-3 16-5 25-4l28 3c10 0 20 1 30 4 6 1 12 2 17 5 6 3 12 9 19 12l18 6c2 1 5 2 6 4l10 13 7 7-3-12h1c0-2-3-3-2-5-1-6-5-11-6-17l-3-2 1-2-4-8 2-2-14-5-4-4-10-5 1 6c0 2-2 3-4 3v-1l-2 1-1-1c-5-2-9-5-11-10l-9-7v-3l9-5 2 1 3 6c0 2 3 3 5 3l25 14 3 1 5 1 5 4-3-8-7-15v3c-5 2-12 0-15-3-4-1-5-5-7-7a263 263 0 0 0-1-1l3-5c5 1 8 5 12 6-6-6-15-8-21-14-3 0-1 5-4 6 2 2 3 4 3 7-5 0-6-6-9-9l-7-5-4-3-1-3 1-3 8-1c3 3 7 2 10 4l2-1-2-6-2-3h-5c-3 2-6 4-9 4v-4c4 0 7-4 11-4l7 2 2 4 2 6-1 7 6 4c1-2 2-3 4-3 0 2 2 4 3 5 3 0 6 2 9 1 1-1 3 0 4 1l1 3 1 7c2 3 4 5 7 6l2 3-2 2 5 15 3-6c-1-1-3-2-2-4 0-3 2-5 4-7l1-4c1-1 6-4 2-5-2 2-5 2-5 5h-4v2l-1-2c2-5 8-6 10-11l-1-3h4l4-15c-3 1-3 3-4 4l-2 4h-4l1-6h-7c-1-4 2-7 3-11l-3-6m-58 17l1 1v3l2-1c2 1 6 1 8 3 0-1 3-3 1-4l-11-3-1 1m36 14l7 6-1-5c-2 1-4 0-6-1m36 0c-2 3 3 1 0 0m-44 5c1 2 1 4 3 4 3 3 7 4 11 4-1-2-3-2-5-3-3-1-5-5-9-5m-21 7h-3c1 3 3 4 5 6l2-1-2-7-2 2m6 10c2 4 6 6 10 7 0-4-1-7-5-8-1 0-5-1-5 1m-91 12c-7 1-15 3-19 10-1 2-2 4-1 6 1 3 5 3 8 4 4 3 10 4 15 4l19-3c7-1 13 0 20 1l12 2c6 3 11 7 17 9l14 1 22-2h3c-2-3-6-5-9-7l-2 1-3-3-2-3c-4-2-10-2-14-1-5 1-9-1-14-2l-13-4-14-3-15-3-1 1c-5 1-10 3-15 2l1-3 8-1c5-1 10-3 16-2 6 3 12 3 18 4 4 1 7 3 11 3l-3 2c7-2 13 3 19 3l5-1-2-4-10-3v-2l-1 2-11-3-14-2h-7l-13-1c-8-1-17-3-25-2m138 17l1-2-2-3c-1 1 1 3 1 5m-164 3l-1 5h15c-4-3-9-3-12-7l-2 2m52 2c1 1 1 1 0 0m115 2c1 1 1 1 0 0m-32 2l6 5 2-1-6-3-2-1m-49 4c1 1 1 1 0 0m3 1c1 1 1 1 0 0m58 0l-1 3c5 3 8 8 13 10l-8-9-4-4m22 1l1 2h-1c2 5 3 11 6 15l-3-11c-1-2-2-4-1-6h-2m-4 18c4 6 9 12 9 20 2-2 1-5 1-8l-4-7-2-1-4-4m10 3l3 6c-1-2-1-5-3-6m3 17l2 1v-4l-2 3m-39 5l-10 10c-4 6-5 13-6 19-2 6-6 12-6 19l-2 15-1 6 4-3v-5l8-14 14-18c3-4 8-7 9-13s4-11 7-16l-3-3c-5 0-10 1-14 3m16 10l-5 12-7 8-13 18c-4 5-7 10-9 16l20-11c5-1 9-5 14-6l15-7c4-2 6-5 9-8 5-5 8-12 8-19 0-4 1-9-2-13h-4l-1-2-9 1-2-1-2 2-4 14-1 9-3-1c1-8 1-16 4-24-4 3-5 8-8 12m17 60c1 1 1 1 0 0zM384 475c0-2-3-5-1-7l3 1 1 6 1 21-2 2-1-3c1-6 0-13-1-20zM424 521l3 1-2 3h-3l2-4z"/><path d="M215 539c0-4 5-3 8-4 2 0 4 2 2 4h-3c-6 2-13 4-18 8l-4-2c3-3 7-5 10-6l5-2v2zM463 631c11-2 21-4 32-4l17 2 30 5 19 6-2 2 3-1 2 1 12 8 12 7-1 3-8-4h-1l-14-8c-4-3-9-6-13-7v-3l-2 2-30-6c-5 0-11-2-17-1l-1 1v-2h-7l1-1c-2 0-4 2-5 1-3-1-6 1-9-1l1 2c-6-1-11 1-16 2-12 1-25 5-35 12-3 3-3 8-7 10l-15 7-8 4-12 9-7 6c-2 0-2-3-1-4l14-10 11-7 6-4c2-1 4-3 7-2 4-3 6-9 10-12 10-7 22-11 34-13m75 4c1 1 1 1 0 0zM340 635l3 1-2 9v4c-1-1-3-1-2-2 0-4-2-9 1-12z"/><path d="M381 641l4 1c-3 10-4 22-5 33l-1 13 8-6 11-6c3-2 6-5 10-6 2-3 6-5 10-6l7-3-1 3c-10 4-19 9-27 15l-13 10-5 2c-2 6-2 12-2 18l-1 1 2 14-2 1 2-1c-1 5 1 9-1 13l-2-1-1-13 2-1h-2l-1-9 1-7 1-1c0-7 2-15 1-22l1-16c2-6 1-13 3-20l1-6zM472 642l6 2-4 1-6 2-2-1c0-3 4-4 6-4z"/><path d="M440 651l11-5h6l-6 3-4 1 2 2c7-3 14-3 21-4l19-2h12c2-1 3-1 4 1l-1-2 12 1v2l1-2 3 1c3 0 6-1 9 1l1-1h9l13 2c2 0 3 2 4 3v-3c1 2 4 1 6 3-7 2-15 0-22-1l1-2-1 1h-14l-19-1h-17c-4 2-9 0-13 2-3-1-7 1-11 1-7 0-13 3-20 2-3 3-6 4-9 5l1-3-3 2c-1-3 3-5 5-7m-2 6c2 0 3-2 4-4-2 1-4 2-4 4zM427 663c-1-2 0-3 1-4 12 2 24 4 35 8l8 2 9 3h2v2-2l7 2c5 3 13 5 18-1 1-3 4-5 7-7 2-1 4-4 6-2v4c-8 2-10 11-17 13-6 0-12-1-17-3l-25-8-10-2-24-5m20 1c-2 3 3 1 0 0zM547 659l7 1 9 2 3 1c6 0 12 4 17 7 4 2 6 6 7 11l5-8c-2-3-4-6-7-6l-6-3c5-2 11 1 15 4 2 2 2 5 1 7l-5 8c-2 5-8 6-13 8-2 1-4-2-3-4l9-3c-1-4-2-8-6-11l-13-5-9-2h-32l-6 2v-5l7-2v0c3 0 7 1 10-1l1 1 9-1v-1m27 8c1 1 1 1 0 0z"/></g><g fill="#cf2059"><path d="M441 231c4-2 7-3 11-3l2 1-1 10c-1-3-3-5-6-7l-8 4 2 2-1 4-4-3-1 3-3-1v4c-2 0-5 1-7 3l-1-1 6-5-1-5c3-5 8-6 12-6zM462 232c2-2 5 0 7 0 3 2 5 6 7 10l-8-1c0-2 1-4 3-5l-4-1h-1l-5-3h1zM472 246l4-4 2 6-6-2zM415 248c2 0 2 2 0 3v-3zM474 252l7-1 1 4 1 2v4l-3 1 2 2v2l-2 5-2 1-2 4c-2 2-4 1-6 0l4 5-7-1 1-5c-1 1-3 3-5 3l-4-1 1-4c-4 0-6 2-9 4l3-11h7l-3-1 2-2c3 1 2 4 3 7l1-3 5 1 6-8 5-1-6-1 2-1-3-2 4-1-3-2z"/><path d="M439 272c2-1 4-3 5 0l4 2-2 9c5 0 8-4 11-7l-5 19-2-4a601 601 0 0 1-5-1v-2l1-1-9 2 2-1-2-2-1 3-7-2 2-2-5-2 2-2-7-4 8-4 10-1zM506 285l3-5c3 5 4 10 5 16v11c-1 4-6 6-7 11l-7-5 2-2-14 4-8-1-1-1c-4 0-8-2-12-4l-2 5v-5l-2 2-4-1-2-5 3-6c3 0 7 0 9 2l4-1 5 1 16-5 1-6h6l-4-2 7-1 1 2 2 1-2-3a503 503 0 0 1 1-2zM497 321l1 3h3l-4 4c-3 2-5 5-10 7l3 1c-8 5-17 7-26 8 0-1 0-3-2-2l-4 3c2-4 4-9 7-12h6l-2-3 11 2-3-3v-3l4 3 1-2-3-2h2v-3l5 2 7 1 4-4zM451 339c3-4 6-7 11-9-1 5-7 9-10 13-6 0-10-6-15-9l7-2v7h7z"/></g><g fill="#e1376e"><path d="M447 232a371 371 0 0 1 8 9l6-9 5 3-4 11c-6 9-9 19-14 28l-4-2c-1-3-3-1-5 0l-10 1-8 4 7 4-2 2c-2 0-3 2-4 0l1-2c-3 0-4-2-5-3l-6-4-1 3h-5l3-6-1-6c1 0 4-1 3-3l-3-9 2-2 1-3 4-4 9 3 1 1c2-2 5-3 7-3v-4l3 1 1-3 4 3 1-4-2-2 8-4m-32 16v3c2-1 2-3 0-3zM467 235l4 1c-2 1-3 3-3 5l8 1-4 4 6 2 1 2 6 1a121 121 0 0 0-11 1l3 2-4 1 3 2-2 1 6 1-5 1-6 8-5-1-1 3c-1-3 0-6-3-7l-2 2 3 1h-7c4-11 11-20 13-31zM482 266c3 2 4 5 3 8l1 2-2 2 3 1-2 1 3 2-4 2c3 1 8 1 11-1l-3-1 1-2-2-2c2-1 4-3 4-6h3l7-3 5 11h-1l-3 5h3l-4 2 2 3-2-1-1-2-7 1 4 2h-6l-1 6-16 5-5-1-4 1c-2-2-6-2-9-2l2-3-3-1-4 7c0-8 2-17 4-25l4 1c2 0 4-2 5-3l-1 5 7 1-4-5c2 1 4 2 6 0l2-4 2-1 2-5z"/><path d="M426 283l5 2-2 2 7 2 1-3 2 2-2 1 9-2-1 1v2l-1 1h6l2 4-2 7 3 5-2 10h4l2-12 2 5 4 1-4 8 2 3h3l1-8 2-5c4 2 8 4 12 4l1 1 8 1 14-4-2 2 7 5c-2 8-9 15-17 18l-3-1c5-2 7-5 10-7l4-4h-3l-1-3-4 4-7-1-5-2v3h-2l3 2-1 2-4-3v3l3 3-11-2 2 3h-6c2-2 2-6-1-6-4-1-8 2-11 5l1-4-3-1-2 3v-12h-3l-2 2-4-4 3-2-7-1 4-2-3-4 2-2v1l-1-6c-2-2-5-3-5-5l-5-1 3-2-4-2h2c-1-2-3-4-3-7zM422 325h4c2 1 4 4 7 3 4 0 8 0 12 2l-1 2-7 2c-3-3-8 0-12-3l-4-3 1-3z"/></g><g fill="#585556"><path d="M378 243c1 1 1 1 0 0zM378 345c1 1 1 1 0 0zM372 393c1 1 1 1 0 0zM509 399c1 1 1 1 0 0zM301 408c1 1 1 1 0 0zM387 431c1 1 1 1 0 0zM382 454c1 1 1 1 0 0zM319 468c1 1 1 1 0 0zM473 487c1 1 1 1 0 0zM368 495c3 1-2 3 0 0zM407 533c-1-1 1-3 2-3 1 1-1 3-2 3zM244 551c1 1 1 1 0 0zM359 553c1 1 1 1 0 0zM278 559c1 1 1 1 0 0zM281 560c1 1 1 1 0 0zM538 635c1 1 1 1 0 0zM447 664c3 1-2 3 0 0zM574 667c1 1 1 1 0 0zM364 674c1 1 1 1 0 0z"/></g><g fill="#e65684"><path d="M481 251h4l-1 3 4-1v4c4 1 8 4 13 4l4 8-7 3h-3c0 3-2 5-4 6l2 2-1 2 3 1c-3 2-8 2-11 1l4-2-3-2 2-1-3-1 2-2-1-2c1-3 0-6-3-8v-2l-2-2 3-1v-4l-1-2-1-4zM403 286c-3-7-1-16 5-21l1 6-3 6h5l1-3 6 4c1 1 2 3 5 3l-1 2c1 2 2 0 4 0 0 3 2 5 3 7h-2l4 2-3 2 5 1c0 2 3 3 5 5l1 6v-1l-2 2 3 4-4 2 7 1-3 2 4 4 1 10c-4-2-8-2-12-2-3 1-5-2-7-3h-4l-1 3c-6-5-11-11-14-19 2-1 3 0 4 2l4-1-5-8-4-2 1-2-3-1-1-3v-8m13 17l-1 2c3 2 8 3 9-1-3-2-5-3-8-1m2 7c1 3 3 2 5 2l1 3-2 6h3l3-5v-4l-5-4c-2 0-4 0-5 2z"/></g><g fill="#b4b0b2"><path d="M485 251c6 3 12 4 16 10-5 0-9-3-13-4v-4l-4 1 1-3zM404 297l3 1-1 2 4 2 5 8-4 1c-1-2-2-3-4-2l-3-12zM333 301c1 1 1 1 0 0z"/></g></svg>