<svg width="1067" height="1067" viewBox="0 0 800 800" xmlns="http://www.w3.org/2000/svg"><g fill="#040404"><path d="M440 185c-6-8 12-7 12 1 1 7 11 11 6 18l-3-2c-6 11-18 15-23 25 34-3 67 17 89 41l1 2c17 14 30 33 39 54 14 41 15 86 1 127-8 34-24 65-40 96-11 21-33 36-58 34-22-2-45 5-67 2-15-3-30 0-45-4-24-9-48-22-64-43-34-35-49-82-60-128-8-31-12-67 5-95 21-26 48-47 79-60 13-10 31-7 45-16 17-6 35-7 53-8 8-14 12-31 25-40l-1-2 6-2m2-3l7 11c2-6-2-10-7-11m-17 35c8-6 12-15 18-23-9 5-15 14-18 23m13-6c2-4 13-7 9-12-3 4-8 7-9 12m-21 16c4-5 6-12 9-18-6 4-7 12-9 18m11 6c-17 26-24 56-26 86 18 5 33-10 49-16l-1-2 4 1c-1 4-4 7-8 8-11 9-25 15-39 18-27 4-47-29-74-17 11-11 28-6 38 2l4-2c3 3 7 5 12 7 3-29 14-57 21-85-22 3-46 0-65 14-43 7-81 36-107 70-16 28-10 62-2 92 9 41 23 82 50 115 20 26 49 46 82 52 20-1 41 5 61 1 21-4 43 2 63-5 22-11 33-34 43-55 9-21 18-41 23-63 4-17 9-33 11-50v-10c0-11 0-22-2-33-2-14-6-27-10-39v-2h-1c-21-39-54-72-97-86-10-2-20-4-29-1m-23 25c2-4 5-8 5-13-4 2-4 9-5 13m-14 61c5-17 11-35 13-53-9 16-11 35-13 53m5 1h2l2-15c-5 3-2 10-4 15z"/><path d="M428 277c-1-5 4-13 10-10l-10 10zM345 268c11 4 26 12 25 25-5-3-5-10-10-13-5-4-14-5-15-12zM371 269c6 1 6 9 6 13-4-3-5-8-6-13zM416 297c8-9 19-15 30-21 0 4-4 5-7 7-6 5-14 15-23 14zM277 362c-2-22 18-40 38-47l-1 4h-2c-17 8-31 24-35 43zM489 321c5 0 11 2 13 7l6 9 3 9 3 8-3-2a84 84 0 0 0-11-22c-3-4-9-4-11-9zM275 398c-6-5-1-14 6-12 2 4 0 13-6 12zM506 411l2-1 2 4c1 3 3 7-1 9l-3-12zM269 433c-7-4 1-7 6-7 5 4-1 13-6 7zM365 438l6 2-2 4c-2-1-3-4-4-6zM510 461c3 19-3 43-16 59-12 11-17 29-33 36-2-5 3-5 6-7 10-9 14-23 24-30l1-2c12-15 16-38 18-56zM303 476l5 1-1 3-5-1 1-3zM337 508c-11-4 7-10 0 0zM333 530c10-9 17 9 7 13-5 4-13-5-6-7v5c10 0 10-15 0-8l-1-3zM371 536l4-1 2 6c-4 1-5-2-6-5z"/></g><g fill="#f1aa9e"><path d="M502 328c17-7 35-8 52-8h1v2h-5l2 4-19 4-1-1-1 2c-8-1-16 3-23 6l-6-9zM500 330l4 6c-2 1-3 3-3 6l2-1 2 8-2-1v2c-5 9-14 15-22 22l3 2c-1 3-4 5-6 1l-4-1-2-7c1-18 15-29 28-37zM556 409l11-5c-2 17-7 33-11 50-8-1-16 4-23 9-13-1-26-4-38-7 12-9 29-6 42-15l-1 3c3 3 7 3 11 1l-5-1c0-6 5-10 10-13l-1-4h8v-9l-6 4c0-4 1-8 4-10l-1-3z"/><path d="M524 420l6-1c3 4 5 7-1 9 3 5 4 13-4 13l-5 4-1-2-5 5-3-2c-2 2-5 2-8 2l-2 1c-3-3-7-1-10 0l-4 1c-4-7 5-11 11-12l1-1 16-5-3-3c5-2 8-9 14-6l-2-3z"/></g><g fill="#ee8478"><path d="M550 322h5c4 12 8 25 10 39h-5l-2 3-3-1-1 6-2-2-6 6-1-2-3 3 2-4-5 1 1-3-3 1 1-6-3 1 2-5c9-3 14-11 23-14-7-1-13 2-19 4l2-3 9-4 7 1-5-4c-8 4-16-7-22 1l-1-6c-6 1-12 4-12 10l-3-2v1c-3-1-4 1-4 3h-1l-3-9c7-3 15-7 23-6l1-2 1 1 19-4-2-4z"/><path d="M562 451c14-41 13-86-1-127 15 6 39 13 37 33 10 34-4 77-36 94zM501 342c0-3 1-5 3-6l7 16c-1 3-2 5-1 7h5l1 5c-5 2-7 7-10 11-4 3-10 5-10 11l-5-3 3 6c-4-2-8-5-12-2l2 3c-7 4-7 9-4 15l-4-2-1 4-4 2 2-3-3-2c4-7 5-14 2-22a1299 1299 0 0 0 0-15l2 7 4 1c2 4 5 2 6-1l-3-2c8-7 17-13 22-22v-2l2 1-2-8-2 1z"/></g><g fill="#e95c4f"><path d="M519 344c0-6 6-9 12-10l1 6c6-8 14 3 22-1l5 4-7-1-9 4-2 3c6-2 12-5 19-4-9 3-14 11-23 14l-2 5 3-1-1 6 3-1-1 3 5-1-2 4 3-3 1 2 6-6 2 2 1-6 3 1 2-3h4c-5 2-7 7-10 12-4 2-9 5-8 10-4 0-9-2-11 3l-2 1-1 2c-4 2-7 8-12 5-8-3-19 10-22-3l-12-2-2 1-2-3c4-3 8 0 12 2l-3-6 5 3c0-6 6-8 10-11 3-4 5-9 10-11l-1-5h-5c-1-2 0-4 1-7l3 2-3-8h1c0-2 1-4 4-3v-1l3 2zM554 401c2-6 7-5 11-9l2 2v10l-11 5 1 3c-3 2-4 6-4 10l6-4v9h-8l1 4c-5 3-10 7-10 13l5 1c-4 2-8 2-11-1l1-3c-13 9-30 6-42 15l-13-6h3l-7-3c10-8 21-13 33-16l-3-5 9-5 2-1-1-6h-2v-2l-2 5v-5l-4 2-2-4-2-3 5 3c3-3 2-7 3-11l7 4 2-4-1 7 4-2-2 5 1 2 8-3v3l12-3 4-3c1-3 3-6 6-8l-1 4m-30 19l2 3c-6-3-9 4-14 6l3 3-16 5-1 1c-6 1-15 5-11 12l4-1c3-1 7-3 10 0l2-1c3 0 6 0 8-2l3 2 5-5 1 2 5-4c8 0 7-8 4-13 6-2 4-5 1-9l-6 1z"/></g><path fill="#e42f28" d="M564 361h1c2 11 2 22 2 33l-2-2c-4 4-9 3-11 9l1-4c-3 2-5 5-6 8l-4 3-12 3v-3l-8 3-1-2 2-5-4 2 1-7-2 4-7-4c-1 4 0 8-3 11l-5-3 2 3-2 1 3 12c4-2 2-6 1-9l4-2v5l2-5v2h2l1 6-2 1-9 5 3 5c-12 3-23 8-33 16l7 3h-3c-9-1-13-9-18-16-6-14 4-27 7-41l1-11c3 8 2 15-2 22l3 2-2 3 4-2 1-4 4 2c-3-6-3-11 4-15l2-1 12 2c3 13 14 0 22 3 5 3 8-3 12-5l1-2 2-1c2-5 7-3 11-3-1-5 4-8 8-10 3-5 5-10 10-12z"/></svg>