<svg width="1067" height="1067" viewBox="0 0 800 800" xmlns="http://www.w3.org/2000/svg"><g fill="#090908"><path d="M315 263c35-24 79-19 118-10 19 1 34 12 51 16 20 9 35 27 46 46 16 28 25 59 26 91-4 30-9 60-21 87-17 43-64 50-101 69-16 6-33 7-49 8-30-3-64-11-79-40-2-7-10-6-16-8-27-10-44-37-55-62-10-22-5-47-4-71-1-54 37-103 84-126m26-5c-51 17-96 60-104 114 0 25-5 51 0 76 8 31 30 62 62 72-11-35-22-72-15-109 1-37 26-70 58-86 14 1 28-1 42-1 17-11 1-35-14-39 16-2 26 16 26 30 7-3 14-5 22-2 4-16 20-29 36-27v4c-15 2-33 11-32 28-9 11-29 29-42 12-16 2-33-1-47 9-43 23-51 79-44 123 8 29 13 62 36 83 35 24 83 26 121 6 28-14 63-21 79-50h1c16-31 23-66 24-100-3-48-23-99-66-125-16-2-28-15-44-15-32-7-68-17-99-3m67 57l1 4 5-1-6-3m-17 10c4-2 9-2 14-3-4-5-12-3-14 3m-3 6c4 0 12 3 14-3-5 0-10 1-14 3z"/><path d="M352 277c3-1 6-1 6 3l-4 1-2-4z"/></g><path fill="#fecc1a" d="M476 387c20-1 41 2 60 8l3 9 6-2 1 4-4-2 1 4h-3l1-2h-4c-1 3-2 6-6 3a925 925 0 0 0-1 5c0 5-1 9-3 13l2 6 3-4h2v3h-1l-4 3-2-4-1 5-3-2-1 3 3 1-1 5-3-3-3 2v-4l-4 9-2-2-3 12-6-7-3 3 2 2-4 2c0-6-4-4-7-2 2 2 5 4 4 7l-3-5c-4 1-7 3-10 7v-5h-4l-2 2h-6l-2-1v6l-2 1-2-3-4 5c-4-15-27-18-24-36 5-6 6-14 11-19-2-16 16-24 29-27z"/><g fill="#feda68"><path d="M536 395l14 6c-1 34-8 69-24 100h-1c-17 1-35 3-50-6-9-5-12-16-15-26l4-5 2 3 2-1v-6l2 1h6l2-2h4v5c3-4 6-6 10-7l3 5c1-3-2-5-4-7 3-2 7-4 7 2l4-2-2-2 3-3 6 7 3-12 2 2 4-9v4l3-2 3 3 1-5-3-1 1-3 3 2 1-5 2 4a341 341 0 0 0 5-3v-3h-2l-3 4-2-6c2-4 3-8 3-13l2 2-1-7c4 3 5 0 6-3h4l-1 2h3l-1-4 4 2-1-4-6 2-3-9z"/><path d="M556 406v-1c29 27 5 70-21 88 12-27 17-57 21-87z"/></g></svg>