<svg width="1067" height="1067" viewBox="0 0 800 800" xmlns="http://www.w3.org/2000/svg"><g fill="#0a0a0a"><path d="M583 237c10-4 26 1 32 11-11-1-21-9-32-11zM500 237c15-6 27 8 28 22-5 5-8 13-14 17-5-6 7-13 8-20-1-7-6-17-15-15-5 2-20 3-12 10-11-2-22-5-30 5 1 11 0 28-15 26-6-3 5-4 7-6 2-5 1-10 4-14l-3-3c-4 3-12 5-13 11-17 8-35 11-49 24-10 4-18 12-28 15-19 7-38 15-55 26-18 10-35 22-54 31l-11 5c-26 17-50 35-77 51 9-17 31-22 46-34 5-8 15-11 23-16h1l4-4 39-21 16-11 2 1c8-9 21-13 31-19l31-13c15-6 29-14 42-24 11-8 30-6 36-20 6-4 14-5 18-11l4 1c11-9 24-10 36-14zM540 250c14-3 26-11 41-13v2l-4 3 11 2c-1 9-9 23-20 16 3-4 16-3 13-14-14-6-25 3-37 7h-3l-1-2v-1z"/><path d="M611 265c1-5-1-9-1-13 9 4 10 22-1 24-5 2-8 6-14 7-7 4-18-1-25 6-6 6-17 1-20 9-2 1-5 2-6 4 7 8 18 1 27 2a13890 13890 0 0 0 6-3l3-2 1 3 4-1c1 2 3 5 1 7-9 7 0 21-8 29 7-1 15-1 21 3v3c-8-2-20 3-24-5-5 3-11 6-13 12-17 12-41 13-57 27-2 2-4 0-5-2-29 21-65 26-98 39-16 12-34 23-53 30-30 20-52 52-86 66l-1-3c7-2 12-8 19-10 3-4 7-10 13-11 5-7 11-12 18-17 14-8 21-26 38-29l2-2 3 1 1-3c4-1 7-3 10-6l3 2 1-5c18-5 30-24 50-23 8-3 17-7 26-9l3-1c11-9 28-6 38-16l25-11c4-3 9-6 15-7 9-4 20-7 29-12 6-8-8-14-7-22 6 0 10 6 11 12 14-1 20-13 16-25-2 3-5 7-9 9-8-6 8-9 5-16-9 3-25 9-31-3-5 7-5-2-3-6-2 2-2 6-6 7-15-4-33 2-43 14-4-4 0-9 4-11 11-9 26-9 40-6 6-14 26-8 32-22-7-2-15-3-18-10 9 3 20 3 26 11 7 1 14 0 21-1 5-6 16-6 17-14z"/><path d="M583 262c2-4 9-5 12-8l4 4c-5 1-11 8-16 4zM597 268c2-5 2-11 7-14 3 7-5 26-10 13l3 1zM501 257c8-7 8 12 8 17-2 9-11 15-16 22-9 10-25 13-32 26l18-5 3-1c-33 22-74 22-108 42-32 12-58 34-86 53l-43 23c-15 10-27 25-44 32v-3c24-22 51-40 80-55 20-10 35-27 55-36 12-8 26-13 39-20 9-3 17-9 26-10l2-1h1c14-9 33-4 44-17 4-3 8-5 10-9-4-1-8-2-13-1-3-2-6-1-9 0v-4c10-4 20 1 29-1 16-11 34-23 41-41l-5-11z"/><path d="M468 265c3-6 13-8 20-9 9 4 5 19-3 22-1-6 5-12 2-19-6 1-12 8-19 6zM539 315l11-1 2 6c-4-1-8-2-12-1l-1-4zM499 329c7 4 14-6 22-2 3 5 10 8 12 13-9 3-15 17-25 14 6-6 26-20 7-24-6 2-12 3-19 3l3-4zM597 330c10-4 30 5 24 18l-4 19c-5 7-14 6-20 10-5 5-9 13-18 12 1-7 10-8 13-14 4-3 9-14 13-6 9-3 8-13 11-19 4-10-10-18-18-14-1-2-3-5-1-6zM321 352c5-4 12-14 20-12-2 9-13 10-20 12zM571 344c5 3 18-2 19 5-8 4-18 4-26 2 0-4 3-6 7-7zM464 357c9-3 19-3 28-5l2 5c-9-1-23 7-30 0z"/><path d="M594 352c5 1 7 6 5 11l-3-1-2-10zM485 364c3-2 7-7 10-2-8 7-16 16-27 18 3-8 12-9 17-16zM555 366h15c-2 4-5 5-9 6l-1-2-3 1-2-5zM549 396c4-4 3-13 10-12 2 6-2 11-7 14l-3-2zM538 386c3-3 5 1 6 3-8 5-20 4-27 12-11 10-25 13-38 19-12 2-26 12-38 20-3-3 3-4 5-6 11-8 23-14 35-20 20-7 36-22 57-28zM246 395c1-2 3-3 6-3-6 8-15 12-24 16-2 2-3 4-6 3 7-7 15-12 24-16zM204 421c5-4 10-9 17-11-12 12-26 23-41 30 6-8 15-14 24-19zM170 483c2-4 8-6 13-7-11 8-22 18-25 32l5 4-2 2c6 7 11 14 14 22 9 13 25 8 37 3l9-3c-11 14-35 20-48 3-5-11-12-21-18-32l1-1c0-9 3-22 14-23zM254 514c-1-4 3-6 7-7l-1 4-4-1c1 2 0 4-2 4zM276 544c5-6 12-12 20-13-3 7-13 8-16 15l-4-2z"/></g><g fill="#323231"><path d="M531 258c-1-5 4-6 7-8v3l2-2 1 2h3c-3 5-10 1-13 5zM576 367h3l1 2c5 1 4 7 4 11-10 9-17 23-32 25l-2 3c-16 8-33 14-50 21-23 17-49 32-77 39-8 9-22 9-30 18-32 24-65 48-102 64-13 7-19 23-34 27l-2 3h-3v-5l-6-2c-16-2-29-32-14-39v16c8 7 8 22 22 20l1 3c10-6 18-14 25-22 8-4 15-10 24-13 27-15 53-32 78-51 23-21 55-25 81-41l3 1c9-9 21-14 30-23 14-4 27-10 41-15 15-10 43-19 39-42zM160 425c3-2 6-5 10-6-1 5-3 9-7 12-10 15 4 31 16 38-8 3-19 2-22-7l11 7c-2-6-8-11-12-16l2 7h-3l-2-12c-3-3-3-8-4-12 3 1 2 5 4 8 0-7 4-13 7-19z"/></g><g fill="#d9d792"><path d="M283 276c4 1 9-1 12 2l3 3-1 3 18 1c3 6 9 5 14 6l-1 4h3l1 2 6 3c-6 5-7 12-5 18-10 6-23 10-31 19l-2-1-16 11c-1-3 1-5 2-7l-2-3h5l-4-5 3-3-9 4-1-4-6 3-1-5-5 7-3-13-3 1-4-1h-3v-3l3-2c-1-7-3-15 5-19l5-5-3-2c5-5 14-4 20-9v-5zM259 366c19-9 36-21 54-31-3 2-2 5-2 8v2l-3 3 4 1 1 2c-6 2-18 0-17 9 1 5-4 4-7 4-3-3-6-1-6 3-6-2-12 0-19 1l1-2h-6z"/></g><g fill="#f5efc3"><path d="M295 278c14-2 26 8 39 11l1-3c10 6 23 7 29 19l-31 13c-2-6-1-13 5-18l-6-3-1-2h-3l1-4c-5-1-11 0-14-6l-18-1 1-3-3-3zM313 335c17-11 36-19 55-26 4 14 8 29 7 43-13 7-27 12-39 20-20 9-35 26-55 36a93 93 0 0 1-33-37l11-5h6l-1 2c7-1 13-3 19-1 0-4 3-6 6-3 3 0 8 1 7-4-1-9 11-7 17-9l-1-2-4-1 3-3v-1-1c0-3-1-6 2-8m8 17c7-2 18-3 20-12-8-2-15 8-20 12zM256 321l4 1 3-1 3 13 5-7 1 5 6-3 1 4 9-4-3 3 4 5h-5l2 3c-1 2-3 4-2 7l-39 21c-1-6-4-11-2-17l-2-1v-12h8l1-4 1-1 5-12zM288 411c28-19 54-41 86-53-4 13-17 20-22 33-14 19-42 31-64 20z"/></g></svg>