<svg width="1067" height="1067" viewBox="0 0 800 800" xmlns="http://www.w3.org/2000/svg"><g fill="#010101"><path d="M509 161c29-7 48-39 79-38 8 0 12 9 20 8-17 15-46 22-55 46 0 24-4 47-7 71-3 27-18 50-33 71-8 21-15 43-18 66v1c0 14-4 27-6 40 14 8 23 26 18 41-4 11 8 20 4 31l-2-13h-3l-1 3-3 3 4 1-4 2-1-2-6 8v1l-9 1 1-3-3 1-1 4c-10 6-7 19-11 29l-1 3-2 4 1 2c-21 35-38 77-76 97-55 34-131 22-175-24-17-21-33-44-32-72l-2-1c-1-30-1-61 14-88 18-32 40-62 69-86 37-34 67-75 99-113 17-19 27-43 44-62 11-8 24-22 40-17 0 8-11 2-15 6-24 11-40 34-52 57a1335 1335 0 0 1-120 137c-32 29-56 65-72 105-3 30-6 62 5 91 14 28 35 52 63 66 40 19 89 22 128-1 37-18 55-57 74-91l2-5a116 116 0 0 0 8-29c-6 2-3-2 1-4l-9 3c2-3 5-5 8-5l3-12 2-15c3-17 3-35 8-52l-6-1 1-2 4 1 3-2c3-37 7-76 25-110 8-15 19-28 25-44 4-17 7-34 8-52-4-8 11-21 2-28-1-8-2 1-5 1-3-17 12-28 21-39 6-8 15-13 24-18-19 2-35 18-47 33-7 5-3 16-11 19-1-9 5-16 9-24l-2 1c-5 4-16 18-20 10 10-7 21-15 29-25-14 8-26 19-43 20-11 6-30 2-40 12 14 5 26-6 40-5l-1 4c-15 0-24 22-23 36 1-8 3-17 11-20-2 5-5 9-6 14l-2 10-2-1c2 6-2 11-3 17l15-11c-1 8-9 14-17 15l-3 8h-4c1-11 11-20 7-31-2-10 2-21 11-27v-6c-10 4-20 1-30 3l-2-7c13-11 31-17 48-14l8-3m75-35c-5 1-9 3-13 6 7 0 13-4 20-2l-2 6c-9 5-18 10-24 19 12-7 22-17 35-21-4-4-9-5-13-7l-2-2-1 1m-96 303l-6 44c0 9-4 19-2 29v-3l4-1c-3-4-4-14 3-12l2-8c3 2 2 4 1 7l7-3 1 2 4-7h1l-3-8h3c-1-5 2-9 3-14-5-10-5-23-18-26z"/><path d="M532 193c3-3 6 3 4 6-3 0-7-3-4-6zM518 196c11 0 12 16 22 19l-7 4c-7-4-7-15-15-17-9 5-12 16-22 20 5-9 14-18 22-26zM541 212c-11-6 7-10 0 0zM487 219c1-5 5-14 11-11-4 3-6 10-11 11zM470 273l3 1c-1 5-3 11-8 13 1-5 2-10 5-14zM428 335c-7-7 7-18 11-25l1 2c-5 8-7 16-12 23zM357 349c-6-2-1-11 3-11 0 4-2 8-3 11zM390 392h3l-6 18-3-1c-1-6 3-12 6-17zM305 434c-6-5 6-17 10-22-1 8-6 15-10 22zM260 441h4c-2 4-3 11-8 13-3-4 2-8 5-11l-1-2zM277 487c1-5 1-12 6-13l-2 13h-4zM233 486h3l-1 6-1 12c-7-3-2-13-1-18zM267 516c4 2 0 9-1 12-3-3-3-9 1-12zM262 545l3-1c0 7-1 15 1 22-9-3-3-15-4-21zM372 585c-5-7 7-15 13-19-3 7-7 14-13 19zM244 615c3-13 23 2 27 8-3 7-6-3-11-3l-1 4-4 1c-4-3-1-6 2-8l-2 1c-3-2-7-4-11-3zM320 621c8-2 15-7 23-10-4 6-20 20-26 11l3-1z"/></g><g fill="#362a47"><path d="M409 431c15-7 33-13 49-7 7 4 14-4 22 0l-1 2c-17 3-33-3-50 0l1 2-11 4 1 6-2-1 1 4c-4 1-7 4-10 8 2 2 4 4 4 7l-8 2-1 9a674 674 0 0 1 2 3l-5 4 3 4-1 3-2 2-1 7 6 1 1 4c6 0 11-2 15-5 8 1 3 17 11 13l4 6 3-3v4c7-1 12-5 15-11h3l1 8 7-4 3-8c2 2 5 3 6-1l-3 12c-3 0-6 2-8 5l9-3c-4 2-7 6-1 4l-1 4-3 1c-4 2-9 3-13 6l-6-1-2 1-2-1-4-1v-3h-5l-3-1 2-3c-5 1-9-1-9-6l-11 1 1-5-7 3-1-1-3 1a4183 4183 0 0 0-6-5l-2-3c-4-4-1-11-6-14l3-7-3-1 1-3c1-5 10-10 3-14 6 0 10-3 10-8h-3c2-6 4-11 8-15l3-1c0-2-2-3-4-4v-1zM485 469c2 1 3 3 2 5 2 3 6 3 7 0l3 2 5 1-4 7-1-2-7 3c1-3 2-5-1-7l-2 8c-7-2-6 8-3 12l-4 1v3c-2-10 2-20 2-29h3v-4zM506 485h3l2 13c0 10-6 18-12 24 0-3 1-7 3-10l-1-6-5 1h-2l-4 2 1-5-6 5 2-6-4 1 1-4 3-1-1 3 9-1v-1l6-8 1 2 4-2-4-1 3-3 1-3z"/></g><g fill="#866aab"><path d="M429 426c17-3 33 3 50 0l6 1c-5 17-5 35-8 52-3 2-5 5-6 8l-1 2-3 1 1 5-5 3v-3l-6 1 2-1 1-6c-6 0-7 7-9 12l-3-1c-1 6-6 5-7-1l-1 2-1-2-7 1 2-8h-3l-1-11-1-2a980 980 0 0 0-14 9l-5 2-1-7c-2-1-4-3-3-5h-2l-3-4 5-4 2-1-4-2 1-9 8-2c0-3-2-5-4-7 3-4 6-7 10-8l-1-4 2 1-1-6 11-4-1-2m1 6v4l5-1v2l-6 6 2-6-4-5-2 3 2 1-7 8c0 3-2 4-5 5 2 1 2 4 1 5v5l-7 3 2 4 5-1-3 2-7 7h3l-1 5h3l-1-3 3-1 1 2 3-4c2-3 6-5 9-7l2 2 4 5c7 1 7-7 10-11l3 1 2-6-8 4-1-4c6-3 5-9 3-14 2-3 5-6 4-10-3 4-10 8-7 0-3-4-5 3-8-1zM397 499l2 3 2-2 4 7 3-1 1 1 7-3-1 5 11-1c0 5 4 7 9 6l-2 3 3 1-7 2-5-4h-4v-3l-3 4c-4-3-10-8-12-2l4 2v2l-5-2 5 9c8 5 16 12 22 20l-17-14c-11-9-27-6-38-15 6 1 11 5 17 5l-1-4c2 1 4 0 6-2l-5-1 7-4c3-5-10-8-3-12zM468 517l3-1c-1 9-4 17-7 25l-2-7-2-1-1-7-7 2-3-6 6 1c4-3 9-4 13-6z"/></g><g fill="#685087"><path d="M488 429c13 3 13 16 18 26-1 5-4 9-3 14h-3l3 8h-1l-5-1-3-2c-1 3-5 3-7 0 1-2 0-4-2-5v4h-3l6-44zM404 478h2c-1 2 1 4 3 5l1 7 5-2v-2l14-7 1 2 1 11h3l-2 8 7-1 1 2 1-2c1 6 6 7 7 1l3 1c2-5 3-12 9-12a723 723 0 0 0-3 7l6-1v3l5-3-1-5 3-1 1-2c1-3 3-6 6-8l-2 15c-1 4-4 3-6 1l-3 8-7 4-1-8h-3c-3 6-8 10-15 11v-4l-3 3-4-6c-8 4-3-12-11-13-4 3-9 5-15 5l-1-4-6-1 1-7 2-2 1-3zM483 504l4-1-2 6 6-5-1 5 4-2h2l5-1 1 6c-2 3-3 7-3 10v1c-8 8-18 15-29 19l-1-2 2-4c7 4 12-5 19-8l1-2c4-1 5-6 7-10l-4 2 1-6-10 1v5c-2 1-4 3-5 7l-3-1-2 9h-3c4-10 1-23 11-29zM453 538l7 4 4-1-2 5c-10 2-20 5-29 0 5 0 12 1 17-2l2 2 1-8z"/></g><g fill="#9f89bb"><path d="M395 460c-3-11 4-23 14-29v1c2 1 4 2 4 4l-3 1c-4 4-6 9-8 15h3c0 5-4 8-10 8zM430 432c3 4 5-3 8 1-3 8 4 4 7 0 1 4-2 7-4 10 2 5 3 11-3 14l1 4 8-4-2 6-3-1c-3 4-3 12-10 11l-4-5-2-2c-3 2-7 4-9 7l-3 4-1-2-3 1 1 3h-3l1-5h-3l7-7 3-2-5 1-2-4 7-3v-5c1-1 1-4-1-5 3-1 5-2 5-5l7-8-2-1 2-3 4 5-2 6 6-6v-2l-5 1v-4zM485 513l10-1-1 6 4-2c-2 4-3 9-7 10l-1 2c-7 3-12 12-19 8l1-3h3l2-9 3 1c1-4 3-6 5-7v-5zM405 515c2-6 8-1 12 2l3-4v3h4l5 4 7-2h5v3l4 1 2 1 2-1 3 6 7-2 1 7 2 1 2 7-4 1-7-4-1 8-2-2c-5 3-12 2-17 2h-2c-6-8-14-15-22-20l-5-9 5 2v-2l-4-2z"/></g><path fill="#c1b3d2" d="M376 517c-5-18 4-32 16-43l-1 3 3 1-3 7c5 3 2 10 6 14-7 4 6 7 3 12l-7 4 5 1c-2 2-4 3-6 2l1 4c-6 0-11-4-17-5z"/></svg>