<svg width="1067" height="1067" viewBox="0 0 800 800" xmlns="http://www.w3.org/2000/svg"><g fill="#010101"><path d="M352 145l5 1-1 4c14 6 26 15 37 25l3-3c14 2 20 19 29 28 10-2 10 11 14 17 12 17 11 38 15 58 4 27-4 57-25 76 1-9 11-13 13-22 18-40 7-87-12-124h-4c-7 22-11 48-30 62 14-18 22-40 28-62-6-11-15-20-24-28-2-2-3 1-5 3-12-6-22-19-35-25 4 8 9 16 12 25l5-8c-1 7-5 15 2 21 8 38 20 76 22 115l-2 1v19c12 2 15-16 22-24 18-19 25-48 17-73h3c7 25 3 55-16 74-9 8-11 27-26 27 0 13 2 26-4 39 7-6 11-18 22-17 10 1 20-1 28-7l27-38c12-24 37-36 58-51 14 6 26-8 40-8 2 2 2 4 3 7 19-4 39-6 57 2 2 0 0 3-1 4 17 9 39 0 51 16 9 4 19 7 27 12 8 35-25 60-55 69 5 9-5 9-9 15a90 90 0 0 1-40 27l-2-3a64 64 0 0 1-39 18c-13 11-33 12-49 9l-1-3c12-1 24 5 36-1-15-3-29-8-43-13-11-8-23-23-17-37 1 16 10 36 28 39 15 3 32 14 46 3 15 0 27-10 38-19-22-2-38-17-53-31-15 0-29 8-45 7-10-3-23 1-31-3 15-4 31 2 47-1 27-6 54-13 79-24l-61 14c-23 2-46 12-69 4-5 21-24 37-45 35-9 2-17-4-26-4 8 9 18 18 31 19l-8 2c20 21 46 39 52 70 16-1 28 8 41 15 13 4 22 16 23 29-10-19-34-28-55-26l2-4c15 0 29 6 42 13-2-5-8-7-13-9-11-4-20-14-32-14l-4 3c12 29 8 60 16 90 11-1 18 9 21 18 17-24 31-53 32-83 4-31-16-59-33-82-6-5-13-11-20-14-16-3-19-26-36-26 12-8 21 13 29 20 12 6 25 11 33 22 17 23 33 49 31 79-2 41-25 79-51 110-2 5-9 11-12 3-30-20-63-40-82-72-10-22-24-43-28-67-2-6 2-13-3-19-5-19-3-40 4-58-11 9-25 5-38 6-1 10 11 16 6 27-10 18 1 41-8 59-3-2-6-9-7-3-12 29-35 51-61 67-19 9-38 17-56 28-17 20-47 7-65-6-13-13-34-24-34-45-4-33 14-68 41-88l6-6c21-21 40-49 71-57 13-5 27-7 40-6 14 1 27 7 40 10v3c-13-2-25-8-38-10-13 0-27 0-39 5-31 6-49 33-69 54l-10 10c-27 18-38 50-39 82 0 24 24 38 41 51-6-27 0-55 12-80l11-13-15 6c-22 5-41 18-46 41 0-24 24-37 44-44 8-2 16-5 22-11a877 877 0 0 1 52-48c-15 1-31 0-46 4-8 2-15 6-22 11l-5 2 6-6c26-21 66-2 89-28l4 2 26-14 13-5 25-9c-1 7-13 8-18 14-22 5-18 29-9 44 5 24 3 51-9 72 7-26 16-55 3-81-4-8-5-17-3-26-12 6-22 14-33 21-19 8-13 33-10 49 8 19 9 41 1 60l-8 16c1-6 4-11 6-16 18-33-14-67-2-101-15 10-28 22-41 34-12 13-5 33 0 48 6 17 8 38 2 57 1-20 4-40-5-58-4-12-8-25-6-38-9 6-16 15-21 24-8 24-18 50-11 76 9 6 20 8 31 8 9-1 16-10 24-14 28-16 61-25 82-52 19-11 18-36 33-49l2 9 1-38c0-9 8-17 4-27-7-7-2-20-17-18 1-8 10-10 12-17l-22 4v-3l26-6c8-11 20-14 32-14-12-4-24-11-36-16-18-7-25-28-31-45-8-32-7-68 8-99 8-11 12-24 16-37v-2l3-1c-6 17 10 32 22 42 9 6 16 15 26 20v2c-21-11-41-28-52-49-4 16-17 28-19 44-11 38-9 85 19 115 13 9 28 15 43 22 4 3 11-4 15 2 1-10 5-20 3-30 1-9-10-8-16-7-20-1-34-17-50-27-7-9-18-20-15-33 9 36 47 57 82 59 4-31-10-61-8-92-9-30-12-62-28-89-5 4-7 12-15 12-2 3-2 8-7 9 2-6 4-17 12-13 5-6 8-12 9-20m17 42c4 20 13 39 14 60 0 31 11 61 9 93l2 1c-4 9-2 20-4 29 8-6 6-18 6-27-2-19 5-38 0-57-6-33-12-67-23-99h-4m195 67c-9 4-18 6-26 11-4 0-8-2-11 1-11 10-23 19-31 31-9 20-5 42-5 63h-4c-1-20 0-41 4-61 5-12 17-17 25-27-19 9-35 24-44 43-11 12-16 29-30 38 3 3 7 1 10-1 1 7 8 2 12 2-6 10-23-1-26 16 9-2 27 0 25-13l4 1h3c15 6 33 2 49-1 26-4 52-11 78-17-2-29 17-57 43-70-9-1-13-11-22-12-15-3-30-2-45 3-4-1-4-9-9-7m69 23a78 78 0 0 0-34 62c20-3 37-16 56-22 13-8 32-12 37-29-9-4-18-6-23-15-12-1-26-6-36 4m58 21l8-7c-5-3-7 3-8 7m12-5c-16 17-39 24-60 33-28 16-59 25-89 35-8 3 5 8 7 11 13 15 33 22 52 22 15-7 24-20 36-30l-1-5c-13 2-29-3-38-12 13 5 27 14 42 9 27-8 58-31 51-63m-279 64c-4 5-11 10-13 18l23-5c3-4 7-8 9-13-6-3-12 0-19 0m-29 21c16 2 15-18 28-22-14-1-22 12-28 22m63-7c-7 0-14 0-21 3 7 10 25 5 24-7l-3 4m-68 1l-1 4-1 7c3-3 5-7 6-10l-4-1m26 5c3 7 8 12 15 15v-3c4 1 8 2 10-2l9-3c-5-2-12-4-14-11l-20 4m-18 4c4 9 17 14 26 12-5-4-9-9-11-15l-15 3m-54 13c5-1 9 1 13 4 10-3 20-13 30-9-9 3-7 16-17 18 3-5 7-9 8-15-13 1-16 14-25 21 15 4 40-13 33-28-13-6-33-2-42 9m56-5l-6-7c-6 3 3 7 6 7m-8 4c0 3 1 8 5 8-1-3-2-6-5-8m-64 18c12 6 27 2 32-11-9 1-16 8-25 12 1-9 13-9 18-14-11-6-19 6-25 13m61-13c-8 11-16 23-15 36-2 12-5 24 3 34 1 16 2 33 9 48l5-1c8 40 36 71 71 92 4-11 9-21 15-31-3-7-3-15-4-23-3 6-2 13-2 20l-3-1c2-24 3-50-4-74-16 17-34 36-41 58 0-27 27-43 41-63-7-35-30-63-57-85l-13-3 1-2-6-5M172 515c-8 14-13 32-14 48 6-16 7-32 14-47 38-47 89-80 141-109-56 21-108 57-141 108m271-73c11 15 20 32 23 50l5-3c-7-16-12-36-28-47m25 53l5 43c9-11-2-25-1-36-2-5 2-2 3 0l-3-9-4 2m13 32c0-7-2-14-3-20-4 6 1 13 3 20m-2 46l2-1c0 11 4 22 9 31-2-25-8-49-8-73-10 12-5 29-3 43m-15 37l14 7-1 3c2 2 5 3 8 2l5 4c5-14-11-31-12-47-5 10-11 20-14 31m26-26c1 11 3 22 6 32 7-2 11-10 14-15-2-9-10-20-20-17z"/><path d="M343 188c0-6 3-12 9-14-3 4-5 10-9 14zM405 197c2 11-4 27-15 31 8-8 13-19 15-31zM326 233c-3-4-2-10 1-13l-1 13zM315 239c7 6 5 16 11 23 12 13 32 21 50 19 2-3 2-6 5-7 2 4-1 10-6 11-20 2-40-7-52-22l-2 4-4-4v4h-2v-8l6 3-6-23zM527 353c3-42 32-85 75-95-11 8-24 11-34 21-18 11-25 31-34 48-4 8 1 20-7 26z"/><path d="M593 267h24l-1 3c-6-3-20 4-23-3zM658 309c0-5 3-10 7-13-1 5-3 10-7 13zM437 299l3-1c0 6 1 12-4 16l1 1h-3c3-5 4-10 3-16zM666 320c7 5 14 8 22 2-5 8-20 8-22-2zM317 321h3c0 11 7 19 12 28-9-6-15-17-15-28zM598 386c10 0 16-8 24-11-6 7-14 14-24 14v-3zM429 384l10-2 2 1c-3 3-7 5-12 5v-4zM359 388c5-5 15-6 22-2l-22 2zM213 417c13-15 36-9 53-7-16 5-38-7-53 7zM386 442c-3-13 1-28 13-35-10 9-12 22-13 35zM544 410c3-5 11-2 16-1l-16 1zM431 420c28-8 70-3 85 27-9-14-24-19-39-25-15-7-31 2-46-2zM403 495c-6-23 2-53 22-67-22 24-29 62-10 90 4 3 9 3 14 5-18 3-21-16-26-28zM462 452c13-2 28 0 37 10-11-6-24-9-37-7v-3zM521 464c7 0 6 8 7 13-4-3-5-8-7-13zM317 495c3-7 2-20 10-23-3 8-4 17-10 23zM537 528c2 5-1 15-7 16l7-16zM288 540l2 1c-4 7-11 14-20 13 5-3 11-5 15-10l3-4zM130 561c2-7 8-14 15-16-5 5-11 9-12 17l-3-1zM443 576c-6-4-12-17-2-20l2 4-4 1c-1 5 2 10 4 15zM181 580l4 3 7 1c-4 4-11 1-11-4z"/></g><g fill="#85d340"><path d="M214 370c6-3 12-6 20-6 12 10 34 3 37 23-13-1-27 1-40 6-31 8-50 36-71 57-5-6 0-12 4-17l-3-1 1-7 1-1 5-2c-2-3-4-6-4-10-2-3 1-5 4-6l-3-1c2-5 5-10 9-12 10 1 17 3 24-6-5-11 7-17 16-17z"/><path d="M234 395c12-5 26-5 39-5l3 11h4c2 5 5 10 9 13l-26 14-4-2c-23 26-63 7-89 28l-5-5c20-21 38-48 69-54m-21 22c15-14 37-2 53-7-17-2-40-8-53 7zM300 458c-9-15-13-39 9-44 6 8 11 17 14 27-3 0-5 2-6 5l6 5-6-1c-2 5-6 6-11 6l2 2h-8z"/><path d="M169 458c7-5 14-9 22-11l3 4-7-1c2 3 5 5 9 5l3 3h-6l-1 2 8 1-5 1 8 7 2-6 7 2-27 26c-3-2-7-5-12-4l4-7h-5v-2h-2l-4-4 9 2-2-2 2-2h-12l-2-1 10-1-5-4 10-2-6-3-1-3zM204 486c13-12 26-24 41-34-12 34 20 68 2 101-18 2-29-13-43-19-5-15-12-35 0-48z"/></g><g fill="#a6e172"><path d="M280 401c8-1 15 5 22 8l-13 5c-4-3-7-8-9-13zM154 456c-4-10-4-26 8-31l-1 7 3 1c-4 5-9 11-4 17l-6 6zM155 459l10-10 5 5-6 6 5-2 1 3 6 3-10 2 5 4-10 1 2 1h12l-2 2 2 2-9-2 4 4h2v2h5l-4 7c5-1 9 2 12 4-6 6-14 9-22 11-6-14-9-28-8-43zM174 519c5-9 12-18 21-24-2 13 2 26 6 38-11 4-19-8-27-14zM165 505l15-6-11 13-4-7z"/></g><g fill="#6ec223"><path d="M172 515c33-51 85-87 141-108-52 29-103 62-141 109v-1z"/><path d="M258 444c11-7 21-15 33-21-2 9-1 18 3 26 13 26 4 55-3 81 12-21 14-48 9-72h8l-2-2c5 0 9-1 11-6l6 1-6-5c1-3 3-5 6-5 6 15 12 31 10 47-15 13-14 38-33 49l-10 4-2-1-3 4c-12 4-24 8-36 9 8-19 7-41-1-60-3-16-9-41 10-49m59 51c6-6 7-15 10-23-8 3-7 16-10 23zM191 447c15-4 31-3 46-4l-25 22-7-2-2 6-8-7 5-1-8-1 1-2h6l-3-3c-4 0-7-2-9-5l7 1-3-4z"/></g></svg>