<svg width="1067" height="1067" viewBox="0 0 800 800" xmlns="http://www.w3.org/2000/svg"><g fill="#010101"><path d="M323 305c21 4 40-8 61-3 34 17 73 15 110 23 31 6 61 17 92 26 18 5 42 11 48 31 27 0 55-3 81 5 3 3 2 8 3 12-22 1-44-8-66-1-6 4-21-1-22 10-18 28-53 28-83 36-25 13-54 16-81 22-14 8-31-5-44 6-16 1-31-5-46 0l-2 3c-27-4-54 15-81 6-10-6-23-4-34-8-10-8-23-10-35-13l6-2c-14-6-28-9-43-7 10 5 23 4 34 9-27 2-52-17-81-13a91 91 0 0 0-56-17c13-14 28-26 46-33 13-10 32-3 44-13 23-10 35-37 60-45 27-17 58-28 89-34m-8 6c-45 10-89 29-120 64l4-1c-6 5-15 7-21 12-13 11-32 6-46 15-13 8-29 10-37 24 19-3 33 13 51 14 21 1 40 13 61 7v3c18 1 33 13 50 16l25 5c31 7 62-2 92-10 10-13 22-24 31-38l2-4c3-10 6-25 19-27-11 7-14 20-18 32-11 14-21 28-34 39 16 2 32 4 48 3l46-9c43-9 87-15 127-31 11-2 20-6 27-14l-3-2c11-18 35-10 52-18-15-2-29 6-45 5-14 2-27-3-41-5-12 2-17 16-25 23-4 12-18 15-26 25 1-9 13-12 18-18 7-11 16-20 24-31-6-1-13-2-19-1l-1-2c-18-1-38 3-50 17-9 15-15 35-33 41 0-6 9-7 12-11 14-16 18-40 41-46-25-1-50 3-74 0l45-3c-18-7-39-5-57 3-17 3-34 2-51 3l-14-1-7-2c-26 3-52 9-78 8-13-2-26 4-39 2-29-3-56 17-85 16-17 1-33 3-49 9 20-17 52-8 76-17 31-11 64-13 96-14 24 2 48-2 71-6-11-6-22-12-30-21-1-14-14-20-23-28 6 0 11 5 15 9l-5-17c7 11 13 24 17 37 14 11 30 23 49 20 20 3 44 3 63-5-12-10-24-22-34-35-14-14-35-11-53-16 10-1 20 2 30 1-8-5-19-9-27-15 9 2 17 8 26 12 26 10 38 38 62 52 26-10 52 7 79 1 27-1 53 8 80 4-3-3-7-3-10-6l7 1c-7-5-17-3-25-6 11 1 29-2 31 13l20-1c0-6-4-11-8-14-20-19-48-18-73-27-48-19-101-21-152-32-25-20-56-1-84-2m322 75l4 6c23-6 48-6 71-2-10 5-25-4-37 1 12 4 25 3 38 6 2-2 2-5 2-7-25-9-52-5-78-4m-38 4v1c12 4 26 2 38 1-9-8-26 2-38-2m-11 42c3-1 7 0 9-3l-9 3m-454 8c8 7 20 4 30 4l-30-4m308 24c6 2 13 3 19 0 18-6 38-8 57-12v-1c-26 2-51 9-76 13m-128 12c-10 2-21-2-31-2 7 1 13 5 19 7 17-2 34-3 49-10 13 2 26-1 38-4-25-6-50 8-75 9z"/><path d="M443 335c9-2 17 5 23 10l-2-10 3 1c1 4 3 8 0 12 10 11 19 22 31 31-23-8-29-41-55-44zM250 348c18 5 29 21 43 32l10 10-2 1-9-7c-12-13-24-28-41-34l-1-2zM521 349c20 1 26 22 42 30-17-6-24-25-42-30zM199 386c8 2 19 4 23 12-7-5-16-8-23-12zM332 424c11-13 20-34 40-32v3c-22 0-30 22-41 36-8 9-18 17-28 23 5-8 14-12 20-19l9-11zM236 438c15-7 17-27 31-35-9 10-12 25-24 32l-3 9-1-7-3 1zM477 426c4-5 10-8 17-9v3l-9 3-2 1-6 2z"/><path d="M290 444c9-4 19-8 29-10l-1 2c-6 2-12 3-17 6l-11 2zM226 445c2-3 5-3 8-4-2 3-5 3-8 4z"/></g><g fill="#a6b573"><path d="M293 380c7-12 23-17 37-15 8 9 19 15 30 21-23 4-47 8-71 6l1-2 2-6 9 7 2-1-10-10zM334 366c15 12 37 5 49 20-19 3-35-9-49-20zM290 396c26 1 52-5 78-8l7 2 14 1c8 7 12 18 18 27l-2 4c-6-1-12 3-11 9-2-1-3-3-4-6-3 0-6 2-8 3l-3-1 1 4-4-2-7 6 6-1c-1 7-8 2-11 0-7 2-13 3-20 2-4-3-8-4-13-4v-1c11-14 19-36 41-36v-3c-20-2-29 19-40 32-4-2-9 0-9 6l-4-1c-6 4-13 3-20 4l1-3-13 7c-6-2-11 5-18 5l3-4h7l-5-4 2-2h6l-5-1 4-5h-4l3-2-2-3h4l2-8-3-2c2-6 6-10 9-15zM396 508l16-2 3 2c-17 24-51 30-79 28l-9-4h4l-3-3 4-4-1 3 3 1v-4l5 2 3-7 9-2-1 4 9-1h2l-3-2 2-1-1-3 5 5 7-1c2-3 4-6 8-7v3l5 2 7-5 2-2 3 2v-4z"/></g><g fill="#8a9a51"><path d="M257 465c-1-21 16-36 24-54l3 2-2 8h-4l2 3-3 2h4l-4 5 5 1h-6l-2 2 5 4h-7l-3 4c7 0 12-7 18-5l13-7-1 3c7-1 14 0 20-4l4 1c0-6 5-8 9-6l-9 11-1-2-4 3 1-2c-10 2-20 6-29 10l11-2c-1 4-5 5-10 4v3l-2 2 5 1h-7v4l2-1c-3 4-8 9-7 15l-25-5zM374 462c13-11 23-25 34-39 5 14 12 27 14 42-16 1-32-1-48-3zM376 472c15-5 30 1 46 0 0 12-1 25-7 36l-3-2-16 2v4l-3-2-2 2-7 5-5-2v-3c-4 1-6 4-8 7l-7 1-5-5 1 3-2 1 3 2h-2l-9 1 1-4-9 2-3 7-5-2v4l-3-1 1-3-4 4 3 3h-4l9 4c-14-7-29 0-45-3-23-10-41-35-32-60 11 4 24 2 34 8 27 9 54-10 81-6l2-3m29 5h4l-1 3c-3-1-6-2-9 0l3 4v3l-3-3-5 1 6 3-7-1 1 3-9-2c-7-1-16 2-24 0l2 3-6-2 3 4c-4 0-9-4-12-1l-1-2-1 6h3l-1-3c3 0 7 0 9 3l-4-1 2 3c-7-2-13 4-20 2l3-2-8-4 1-2c-3-1-6 0-7 3h-4l2 1v5l-6-7 8-3-7-1-3-2 1 4c-5 0-16-1-6 2-2 1-4 3-4 5h-3l5 4-1-2c5 1 9 0 13-1l-2 4 8 5-4-1 1 3 6-3-1 3 3-1c4 4 9 4 13 3l-3-3c8 0 13 3 20 3l1-2-2-3 4 4 5-1c-6 12 7-6 14-3l-1 3a416 416 0 0 1 2 1l2 1c3-3 7-4 10-5l-6-1 7-4c2 2 4 2 7 2l-2-4 11 1v-3l6-1c0-4-6-3-8 0h-2l1-6 3-2-5 1 1-3c3 0 6-2 9-5l2 2 2-11-7 4 4 4-8-2 1-3-2-2 2-2c-4-1-6 1-6 4z"/></g><g fill="#5e6c30"><path d="M394 431c-1-6 5-10 11-9-9 14-21 25-31 38-30 8-61 17-92 10-1-6 4-11 7-15l-2 1v-4h7l-5-1 2-2v-3c5 1 9 0 10-4 5-3 11-4 17-6l4-3 1 2c-6 7-15 11-20 19 10-6 20-14 28-23v1c5 0 9 1 13 4 7 1 13 0 20-2 3 2 10 7 11 0l-6 1 7-6 4 2-1-4 3 1c2-1 5-3 8-3 1 3 2 5 4 6z"/><path d="M314 476c25-1 50-15 75-9-12 3-25 6-38 4-15 7-32 8-49 10-6-2-12-6-19-7 10 0 21 4 31 2zM405 477c0-3 2-5 6-4l-2 2 2 2-1 3 8 2-4-4 7-4-2 11-2-2c-3 3-6 5-9 5l-1 3 5-1-3 2-1 6h2c2-3 8-4 8 0l-6 1v3l-11-1 2 4c-3 0-5 0-7-2l-7 4 6 1c-3 1-7 2-10 5l-2-1 1-2-3 1 1-3c-7-3-20 15-14 3l-5 1-4-4 2 3-1 2c-7 0-12-3-20-3l3 3c-4 1-9 1-13-3l-3 1 1-3-6 3-1-3 4 1-8-5 2-4c-4 1-8 2-13 1l1 2-5-4h3c0-2 2-4 4-5-10-3 1-2 6-2l-1-4 3 2 7 1-8 3 6 7v-5l-2-1h4c1-3 4-4 7-3l-1 2 8 4-3 2c7 2 13-4 20-2l-2-3 4 1c-2-3-6-3-9-3l1 3h-3l1-6 1 2c3-3 8 1 12 1l-3-4 6 2-2-3c8 2 17-1 24 0l9 2-1-3 7 1-6-3 5-1 3 3v-3l-3-4c3-2 6-1 9 0l1-3h-4z"/></g></svg>