<svg width="1067" height="1067" viewBox="0 0 800 800" xmlns="http://www.w3.org/2000/svg"><g fill="#040404"><path d="M372 126c0-9 15-19 17-6 0 37 1 75-5 112-2 20-4 41-1 61-12-33 2-67 1-100 0-19 5-39 2-58-2 3-4 5-8 5 4 47-7 93-6 139-3 8 11 9 10 18-3 17-25 31-16 49-3 18 4 39 18 52l-1 3c-14-4-34-12-36-29l-3-3c5-9 1-19-1-28-11-26-2-54-7-81-5-9-3-20-6-29-7 52 11 104 14 156 5 8 17 7 21 16l-2 3c-22-14-49 3-60 23-1 16-12 31-11 48 4-2 11-3 12 3l-3-3-10 3-1 14c6-4 13-1 18 3 15 4 30 9 41 19l-53-22-6 3 1 9c5 2 11 3 15 7l-14-4v2c6 26 29 44 51 57-1-10 8-17 3-27 10 2 4 17 0 22 1 14 16 23 14 37-7 24-37 30-42 55 8-22 33-24 46-40l-5-1c1-4 4-2 7-2 7-10-2-24 2-36l-3-6h4c0 10 7-8 7 1-4 8-8 17-4 26 3 13-8 24-17 31-9 6 1 15 1 22-1 9-2 17-5 25-5-4 0-12 0-18l-9 4c2-3 5-6 9-6 2-8-1-15-5-22-13 5-26 16-25 32-4 13-1 29-10 40-3 3-10 1-10-4l11-5c4-19-3-41 10-58 9-15 30-20 35-38-1-13-10-22-20-29l-4 2c1-2 3-6-1-7-13-4-20-15-30-24-20-22-17-56-12-83 9-15 5-36 22-45 9-16 27-13 42-16-12-3-18-14-14-26-12-21-33-36-47-56 6-6 20 4 24-5-5-18-12-35-24-49-5-10-3-21 2-30 8 3 15 17 23 6 2-10-11-14-12-23l-4-27 9 1c6-13-9-28 1-39 20-4 24 23 26 38l-2-1c-11 38 7 76 5 114-2 18 4 36 8 53l15-32c9-9 24-30 4-36-7-6-17 7-24 1 2-26 21-49 14-75-4-8-15-16-10-26 6-11 11-27 0-36-9-4-8 9-12 13-1-7 3-21 13-17 11 8 11 24 4 35-9 13 8 22 9 34 5 24-12 45-14 69 7 2 13-4 21-2 2-17 1-34 2-51 6-34 7-70 1-105m6 10c5-4 12-14 5-19-7 4-10 13-5 19m-65 20c-3 12 4 24 2 36h-9c1 11 1 24 10 32 9 7 3 21-6 24l-14-12c-13 30 31 50 21 81l-19 1c13 15 26 30 41 44-7-57-23-117-7-173 2-12-3-22-7-33-2-4-11-7-12 0m60 237c-10-18-12-38-12-57-14 18-15 51 12 57zM467 131c2-3 5-6 9-6-1 4-5 9-9 6z"/><path d="M471 143c-1-6 9-17 16-12 3 7 0 12-4 17-8 17-16 36-18 56l9-1 1 2c-4 11-14 20-17 32l12 6c0 13-13 20-17 32-3 9-9 16-15 23 8 10 1 19-5 27-3 12-9 22-12 34 0 13-2 25-6 37 11 4 17-8 22-15 9-13 19-31 16-47-1-11-6-23 1-34 23 1 13-25 23-37 15-15 12-39 7-58-2-6 3-11 9-11 5 5 7 12 7 19-6-2-3-22-13-13 5 16 5 33 4 49 5-23 12-46 13-70 0-6 5-12 12-14 6 10-2 21-2 31 8 13 7 28 8 41-4 11-14 18-18 29 12 2 3 19 0 26-6 22-21 41-35 59-9 10-7 25-16 35l-19 25c9 5 20 11 26 20 5 22 17 45 12 68v3c-4 22-19 38-35 52l-10 8c-8 8-19 8-29 12-8 1-17 6-24 2 5-2 9-3 14-3l29-8 22-19c-10-5-22-5-33-6l-1-3 1-1c12 2 26 0 34 9 16-10 25-26 29-43-12-3-24-7-35-12-14-6-29-8-42-15l-6-3h-3l-1-3 10 2c11 7 24 10 37 13 13 6 26 13 41 13 0-4 1-9-4-10v2c-7-8-17-4-24-10h16l6 4 6 2-1-10-8-2 1-4 6 2-12-39c-6-8-16-12-22-20-7 2-15 0-19-5 4-5 9 3 14 3l23-29c7-15 11-31 15-47 13-19 22-41 25-63 2-14 11-29 8-43l-11 43c-4 19-16 34-20 53-9 21-16 44-31 62-5 8-13 17-24 13l-11 14h-2c-1-7 8-9 10-15 10-20 3-44 11-64 0-13 2-25 4-37-1-41 13-81 15-122l-10 10c1 8 0 17-1 26l-2-1c1 20-4 39-5 59-10 42-5 88-25 128-2 6-9 8-15 9v-3l8-4c-14-10-16-29-16-45 1-14-6-35 7-44-7 23-7 50 2 73 17-17 9-42 12-63 4-28-3-56 1-84 1-8-8-17-1-23l3 3c19-2 22-22 27-37-6-14 7-30 22-29 3 0 4-5 8-3 0 4-5 6-8 9 0 5 2 11-2 15-1 26-8 51-12 76-5 29-6 58-9 87 1-9 8-16 13-23l-5-13c5-6 13-12 14-21 2-12 17-19 19-32-5-2-13-4-13-11 5-9 12-16 16-26-14 3-7-18-3-25 3-18 13-33 18-50l-13 10m-40 36c5-4 11-9 9-16l4-1-2-8c-10 3-19 16-11 25m77-3c-1 22-2 43-5 65l-14 53c-3 18-16 33-21 50 19-19 34-45 38-72-16-11 12-24 13-37-3-12-1-24-8-34-6-10 7-21 3-31-2 1-5 3-6 6m-81 13c-4 8-2 20-12 23-10 7-2 21 0 30-1 14 2 27 0 41-4 8-14 12-15 22 1 11 6 21 10 31 7-49 14-98 17-147m-21 39l-1-10c-9-1-7 10 1 10m-6 1c-3 21-3 42 1 62 8-4 15-13 11-22-3-13 4-28-5-39l-7-1m75 54c2 11-8 19-18 21-4 10-3 24 3 33 9-29 26-56 31-87-7 10-17 20-16 33m-89 103l8 11c8-12 13-26 13-40 6-15-4-28-8-42-3 24 5 52-13 71z"/><path d="M463 142c2-3 4-10 9-9-4 9-11 17-18 23l6-10-3-3 5-3 1 2zM446 210c0-3 1-8 6-7 0 4-4 5-6 7zM440 260c-1-6 2-14 6-18-2 6-1 15-6 18zM367 407c0-4 3-6 7-5-1 3-4 5-7 5zM395 413c0-9 10 2 0 0zM409 410h4v4c-3 0-4-1-4-4zM341 416c4 1 8 3 11 6-4 0-9-2-11-6zM354 422c17-4 31 8 44 16-7-1-13-4-19-8-6-8-21 0-25-8zM458 505c2 1 4 3 4 6h-3c-1-2-2-4-1-6zM367 561h4l4 2-9 1 1-3zM301 599c4-12 22-10 32-5 7 5 16 0 22 4-10 3-20-1-30-2l-6 4 4-7c-8-2-16 0-22 6z"/></g><g fill="#ebbfd7"><path d="M404 456c7-10 22-9 31-4 1 4 0 8-4 4-5-1-10 0-16 1l2 3c-5 2-10 0-13-4zM345 470c11-17 34-14 50-11l-7 2 1 3c-13 1-27 23-12 31-7 2 1 9 2 12-6 1-3 6-1 10l-2 3 3 2-2 10 2 2-3 5 5 5-5 5 9 1-2 8-7-5 7 8-5-2h-2l-2-6h-2l1 5-7-4 3-8-10 2 2-2-6-3-3-8-1 1-3-8c10-19-1-39-3-58z"/><path d="M419 468c0-10 8-5 14-4 11-4 24 4 25 15h-16c7 6 17 2 24 10v-2c5 1 4 6 4 10-15 0-28-7-41-13-13-3-26-6-37-13l3-4c2 2 5 2 7 2v-3c6-4 12-1 17 2z"/></g><g fill="#7d5c71"><path d="M435 452c12 7 25 17 29 31l-6-4c-1-11-14-19-25-15-6-1-14-6-14 4-5-3-11-6-17-2v3c-2 0-5 0-7-2l-3 4-10-2 1 3h3c-4 1-7 3-9 5l6 3-6 2c2 7 7 10 13 12l-3 1v4c3 4-2 5-4 6l-1 3 3 2-1 4h-2l1-3-3 1 4 11 6 2a960 960 0 0 1-6 8l3 1c2-4 8-9 12-4 1 3-7 3-7 6l8 2c2 2 4 2 5-1l1 3c11 1 23 1 33 6l-22 19c0-4-2-8-4-12l-8-1v-3c-10 0-21-6-26-15l-2-2 2-10-3-2 2-3c-2-4-5-9 1-10-1-3-9-10-2-12-15-8-1-30 12-31l-1-3 7-2 6 2 3-5c3 4 8 6 13 4l-2-3c6-1 11-2 16-1 4 4 5 0 4-4z"/><path d="M472 499c17 17 7 51-17 55-8 3-11 12-18 17l5-7c-4-4-9 3-11-2h-4l10-8c2 2 4 1 6-1l2 3 2-1 1-3c25 0 43-32 24-50v-3z"/></g><g fill="#b782a3"><path d="M386 472l6 3-8 9 8 2 3 4c4-2 7 3 9 7l-5-1-1 4-3 2 3 3-9 2 5 5-3 2 4 2-5 4 8 2-1 2 11-1-3 4 4 8-4-1 1 2-1 1c-1 3-3 3-5 1l-8-2c0-3 8-3 7-6-4-5-10 0-12 4l-3-1a571 571 0 0 1 6-8l-6-2-4-11 3-1-1 3h2l1-4-3-2 1-3c2-1 7-2 4-6v-4l3-1c-6-2-11-5-13-12l6-2-6-3c2-2 5-4 9-5zM427 562h4c2 5 7-2 11 2l-5 7c-12 8-27 8-39 3 10-4 21-4 29-12z"/></g><g fill="#dca9c7"><path d="M384 484l8-9c13 7 28 9 42 15 11 5 23 9 35 12-4 17-13 33-29 43-8-9-22-7-34-9l-1-2 4 1-4-8 3-4-11 1 1-2-8-2 5-4-4-2 3-2-5-5 9-2-3-3 3-2 1-4 5 1c-2-4-5-9-9-7l-3-4-8-2m74 21c-1 2 0 4 1 6h3c0-3-2-5-4-6z"/><path d="M437 554c16-14 31-30 35-52 19 18 1 50-24 50l-1 3-2 1-2-3c-2 2-4 3-6 1zM379 534c5 9 16 15 26 15v3l8 1c2 4 4 8 4 12l-29 8 1-2-14-8-4-2c-9-6-18-14-20-25l1-1 3 8 6 3-2 2 10-2-3 8 7 4-1-5h2a1101 1101 0 0 1 4 6l5 2-7-8 7 5 2-8-9-1 5-5-5-5 3-5z"/></g></svg>