<svg width="1067" height="1067" viewBox="0 0 800 800" xmlns="http://www.w3.org/2000/svg"><g fill="#020203"><path d="M377 205c2-9 19-9 17 2 7 14 18 25 24 40 14 6 29 11 38 25 6-19 36-19 47-6 6 6-10 9-8 15 20 0 38 14 59 10l4 4-2 6c-18 4-36 5-53 0-6 3-16 7-15 15 0 11-7 22-17 25 2-8 12-11 12-20-4-16 17-28 31-23 13 5 27 1 40 0-18-1-36-8-54-12-3-2-4 1-5 3-8-5-12 6-18 8-18-2-35 13-37 31h3l-1 5 26 4v3l-13-1c19 9 36 38 17 55-10 14-28 16-43 10-13 5-15 25-3 33 12 15 41 10 46-9 1-9-10-22 0-28-2 7 1 14 2 21 6 20 34 25 50 15l6-30c-3-13-12-25-24-31l1-3c9 5 18 14 29 12 9-10 8-30-2-40-12-6-22-20-37-16v-4c13-6 23 6 33 12 18 9 20 38 7 52 3 1 10-2 14-1l1 3-10 2c-5-2-10-1-15-4 8 12 5 26 3 39 2 8-4 13-10 17 5 0 10 0 15-2v3l-14 2c10 2 14 10 13 19-3 14-9 30-25 32-2 13-13 21-20 31-4 7-14 6-21 5 2 4 4 9 9 10v3c-6 0-9-4-12-8-5 11-19 14-27 22-9 7-24-11-12-14-3 7 7 15 13 9 7-9 22-11 25-24-8 2-17 5-22-3l-2 1-5-10c-5 4-15 6-11 14l2-7h2c2 19-18 24-23 39-2-4-7-5-10-9v5h-4v-2h-3v3l-6 2 3-3-12-2-1-1 3-3c-4 1-8 0-12-1l-1 3-5-4-7 2-7-2-1-3-4 4c-1-3-2-6-4-7l-7 1 1-4h-5l-1-3 10 3 3-3 1 2 2-8 5 1-4-3 3-1-2-3 3-3-7 1c-4-3-9-4-11-8l1-2 1-1v3c5-1 9-2 13-5l-6-4-1-14c-18 10-32-11-35-27v-6c0-6 3-11 5-16h-1c-18-6-19-30-7-43-8-1-18 1-21 10h-3c0-13 17-14 26-16-21-11-6-43 12-49-16-10-6-33 3-45 12-15 36-8 50-2-14 5-36-12-48 5-7 12-17 30-2 40 1 8-9 9-13 14-10 9-12 29 3 35 7 8 16 0 23-3 1-11 8-23 19-26-9 11-19 25-15 41 2 13 19 9 27 6 7-14 7-35 25-38-4-2-8-10-3-11 4 10 17 15 28 11 6-9 20-15 16-29 0-14-19-10-28-8 6-9 28-8 32 4 9-2 17-6 26-4l-15-6c-2 3-4 7-7 6-7-8-8-19-9-29h4l1 11h3c7-13-5-27-18-26-17 4-32-6-47-12 11 11 29 12 36 28 2 6 8 9 11 14-14-4-16-21-29-26-11-4-21-11-29-19-3-1-4-3 0-4l-1-2c13 5 27 13 41 17-7-11-9-26-24-30-10-9-30 4-37-11l10 5 1-5c17 2 39-2 52 12 6 8 10 17 12 27-6-3-6-12-10-18-5-13-20-16-32-17 2 4 7 4 11 6 14 6 13 27 28 32 5-1 10 0 15 1-9-22-17-45-27-66-4-7-15-11-12-21l-3-2m9 4l2-1c0-11-13-1-2 1m-1 5c25 26 27 66 49 94 7 10-8 18-3 27l6-2-2-3c3-14 8-29 0-42-15-25-25-53-44-76-2 0-4 0-6 2m38 41c5 18 23 33 20 53 9-14 25-13 38-19-5-9 5-20 13-23-11-6-27-8-33 5-6 7-7 18-14 24 0-6 3-12 6-18-6-11-16-21-30-22m61 30c7-4 10-13 17-19-9 1-14 11-17 19m-58 62c5 14-10 22-12 35-1 10 9 17 18 18 16 9 36-3 44-19 3-15-8-28-19-37-10-3-21 1-31 3m-63 65c-7 6 0 18 9 16 11-1 26 4 35-5 5-8 11-14 17-21-10-3-16-13-15-23l-3 4c-8 0-16-2-24-4-12 5-19 20-19 33m-63-5c-5 4-10 12-9 20 0 19 29 26 38 8l3 1c1-5 5-10 4-14-11-2-13-14-11-23-8 5-16 7-25 8m97 40c4-7 12-12 12-21-10 9-25 5-37 6v11l5 2-4 2c3 6-3 15 3 20l-2-1c-2 3-2 10 3 9 6 15 32 7 33-7 6-8 4-22 15-27-10-5-10-16-11-25-1 11-3 27-17 31m-55-25c-4 6-7 12-8 19h2l2 1-5 3c-2 9 1 19 10 22 4 5 10 6 16 8l2-2 1 2 5-3-1-5 3-1-6-3 5-1 1 2c1-3-1-5-3-7h3c5-18-19-16-30-17 10-3 20 1 30 2 10-14-15-8-14-23-4 1-9 4-13 3m131 9c-4 19-34 26-47 11-8 9-10 22-13 34-2 4-6 7-11 8l5 3-1 3c5 2 10 8 1 5 1 5 0 9-1 14l-2 5c6 0 8 9 14 10l-2-3 5 2 1-6 1 6c10-4 19-12 20-23-8-2-16-5-23-10v-1l-6 1-5-2 1-6c2 3 5 7 7 2 9 4 18 11 28 12 12-3 13-17 19-26 3-6-3-11-5-17 7 1 10 10 10 17-6 11-9 24-22 29-3 7-3 15-11 18 5 5 9 13 17 14 13-4 30-13 25-29-7 1-13-3-18-6 1-2 0-7 3-7 5 14 23 9 32 2 7-13 16-30 6-44-10-4-21-8-28-16m-164 18l1 4-4-1c-12 18 6 53 28 40v-3c3-5 6-11 13-12-5 6-6 14-9 20 1 5-1 11 4 13 6 4 14 2 19-1h-4c8-6 0-26 15-23l-2 5-3-1c-2 6-6 16 1 20h-3l2 4c2-4 7-1 9-3l4 1 1-4-4-1c3-1 4 0 5 3l2-1 2 2c3-2 7-2 10 0l-1 3c3 0 5-2 7-3l-1-2 4-3-2-11-4-7 2 1-1-4c-13 8-21-3-30-11-4 8-14 7-20 3-15-5-26-20-20-35-6 5-13 8-21 7m194-4c13 14 3 31-2 46 20 9 30-18 28-34-2-7-12-3-15-10-2-5-7-3-11-2m-5 47c-3 7-12 7-18 10 6 11-1 21-10 27 4 3 14 3 16-3 5-10 17-16 19-29l-7-5z"/><path d="M448 327c0-11 12-28 23-24-11 4-16 15-23 24zM341 360c-12-20 5-47 26-49-10 9-25 16-25 32-3 12 8 21 18 21h4c-5 7-18 1-23-4zM372 315c8-7 20 5 21 14-7-5-12-13-21-14zM397 322c5 0 6 4 6 8h-3c-2-2-4-5-3-8zM489 333c9-1 10 10 13 16h-3c-3-5-5-10-10-13v-3zM372 361l17-21c1 8-9 19-17 21zM502 350h3c9 14-1 28-17 26 1-8 14-3 16-10 1-5-1-11-2-16zM555 387h5v3h-6l1-3zM478 544c3-1 4 2 5 4-3 2-6 0-5-4z"/></g><g fill="#504664"><path d="M336 441l3-1c11 1 35-1 30 17h-3c2 2 4 4 3 7l-1-2-5 1 6 3-3 1 1 5-5 3-1-2-2 2c-6-2-12-3-16-8 3 0 7-1 9-3l-4-2 5-1-6-1c4-1 7-9 1-6l-1-3 2-3c-5-1-11-1-16-3l5-3-2-1zM288 481c4-3 8-7 10-11 3 16 17 37 35 27l1 14 6 4c-4 3-8 4-13 5v-3l-1 1-1 2-6 2c2 3 3 5 3 8h-9c2-3 7-7 3-11-4 2-11 7-7 13a4207 4207 0 0 0-4 2l3 5-8-3 1 6-3-2c4 5 3 12 6 17l-5 1v3l-4 4c-2-4-7-4-10-3l-1-3c-2 1-5 0-6-3-3-1-5-3-6-6h9l-2-2 2-2h-4l4-3-3-1 3-4c-3-3-7-6-5-10l6-1-1 4 4-1-1 2h3v2c1-5 5-4 7-1l-3-8 9 4-2-8 6 1-4-2c3-4 3-8 2-12l-3-1 1-6h-4l-4-5a757 757 0 0 0 2-2l-5-7 4-3-5-3z"/></g><g fill="#7c738f"><path d="M309 449c8 1 15-2 21-7-6 15 5 30 20 35l1 1-2 3c3 3 8 2 11 4-5 2-11 5-17 6v3l6-2-6 7 9-2-1 5 4-3-1 4c-2 1-5 2-8 0l-1 1-4-2 2 5-1 1 1 3-1-1c-5-2-3-8-4-13 3-6 4-14 9-20-7 1-10 7-13 12v3c-22 13-40-22-28-40l4 1-1-4z"/><path d="M333 445c5 2 11 2 16 3l-2 3 1 3c6-3 3 5-1 6l6 1-5 1 4 2c-2 2-6 3-9 3-9-3-12-13-10-22zM281 464l4-2 1 2h12v6c-2 4-6 8-10 11l5 3-4 3 5 7h2l-4 2 4 5h4l-1 6 3 1c1 4 1 8-2 12l4 2-6-1 2 8-9-4 3 8c-2-3-6-4-7 1v-2h-3l1-2-4 1 1-4-6 1c-2 4 2 7 5 10l-3 4 3 1-4 3a473 473 0 0 0 2 2l2 2h-10l-1-1c-10-17-13-38-12-57 0-8 8-11 8-18 0-5 4-9 9-10h6z"/></g><g fill="#332b46"><path d="M377 445c13 3 25 12 33 23-1 14-27 22-33 7-5 1-5-6-3-9l2 1c-6-5 0-14-3-20l4-2z"/><path d="M350 477c6 4 16 5 20-3 9 8 17 19 30 11l1 4-2-1 4 7 2 11-4 3 1 2c-2 1-4 3-7 3l1-3c-3-2-7-2-10 0l-2-2-2 1c-1-3-2-4-5-3l4 1-1 4-4-1c-2 2-7-1-9 3l-2-4h3c-7-4-3-14-1-20l3 1 2-5c-15-3-7 17-15 23h4c-5 3-13 5-19 1l1 1-1-3 1-1-2-5 4 2 1-1c3 2 6 1 8 0l1-4-4 3 1-5-9 2 6-7-6 2v-3c6-1 12-4 17-6-3-2-8-1-11-4l2-3-1-1z"/><path d="M413 476l4 8c-2 5-5 1-7-2l-1 6 5 2 6-1v1c1 9-1 18 2 27l-1 6-5-2 2 3c-6-1-8-10-14-10l2-5c1-5 2-9 1-14 9 3 4-3-1-5l1-3-5-3c5-1 9-4 11-8zM309 532c-4-6 3-11 7-13 4 4-1 8-3 11h9c0-3-1-5-3-8l6-2c2 4 7 5 11 8l7-1-3 3 2 3-3 1 4 3-5-1-2 8-1-2-3 3-10-3 1 3h5l-1 4 7-1c2 1 3 4 4 7l4-4 1 3 7 2 7-2 5 4 1-3c4 1 8 2 12 1l-3 3 1 1 12 2-3 3 6-2v-3h3v2h4v-5c3 4 8 5 10 9 0 8-11 10-12 18-2 8-12 7-17 7-16 17-43 9-62 5-6-5-6-15-12-20-14-2-24-15-31-26h1c1 3 3 5 6 6 1 3 4 4 6 3l1 3c3-1 8-1 10 3l4-4v-3l5-1c-3-5-2-12-6-17l3 2-1-6 8 3-3-5-4-1c3-2 5-2 8-1z"/></g><path fill="#c4bfd0" d="M302 448h1c-2 5-5 10-5 16h-12l-1-2-4 2h-6c2-3 6-7 10-7l1-2 12-3v-2l4-2z"/></svg>