<svg width="1067" height="1067" viewBox="0 0 800 800" xmlns="http://www.w3.org/2000/svg"><g fill="#262727"><path d="M329 280c17-12 38-19 59-14 44-8 82 39 71 82 17-7 36-12 55-8 34 15 66 48 62 89-8 26-15 61-46 68-29 5-60 6-90 4-18-4-33-16-43-31-23 31-74 38-103 12-8-8-18-14-23-24-3-9-11-16-12-26-9-30 13-65 43-73l-3-6c-5-27 4-60 30-73m-14 16a67 67 0 0 0-11 61c32-12 68 0 87 27 9 2 11-7 15-12 13-15 34-16 50-25 9-40-23-83-65-79-28-4-56 10-76 28m181 47c-23 1-44 13-66 18-15 8-40 24-28 44 6 21 9 44-2 64 13 21 38 32 62 29 29-1 61 4 86-13 22-30 36-77 9-109-16-16-36-38-61-33m-180 15c-38 4-71 53-47 87l6 14c15 17 34 34 57 35 32 3 73-18 73-54-3-25-7-53-29-69-18-11-39-22-60-13z"/><path d="M380 286c10-3 15 14 26 6 3 10-7 12-13 15l1 8-4 2c-5-3-11-9-18-7-1 8-6 4-8-1-6 0-11 8-16 3-3-5 3-8 6-11-4-8 9-16 13-7 5 0 10-4 13-8m-2 8c2-2 8-2 7-6-4-1-6 3-7 6m-21 3l3-1 2 4 5-2c4 3 8 2 13 3l2-6c-3 1-6 2-8 1-7 4-13-8-17 1m29 2c3-1 4-3 4-6-3 1-4 3-4 6zM404 307c0-3 2-4 5-4 0 3-2 4-5 4zM466 390c9-1 15-8 24-10 0 2-3 3-4 4 7 3 12 10 14 18 6 2 20-12 19 1-8 10-5 32-24 26-5 10-14 7-23 3-7 9-8-7-8-12-5-3-14 3-16-4 4-4 9-7 15-9-3-1-8-1-8-5 3-6 16-2 11-12m10 14l9-1c-3-2-7-2-9 1m4 7l7-1c1-6-8-5-7 1m-9 10c-2-4-3-6 0-11-5 2-7 11 0 11m28-10l-2 3h-11l6 4c-4 0-10 11-4 5h3c0-2 2-4 5-4l1-1 4 1 1-8h-3m-26 9h10l-1-6c-3 2-7 3-9 6z"/><path d="M498 387c4-2 7 1 8 4-3-1-8 0-8-4zM469 442c1-5 9-4 10 0h-10z"/></g><g fill="#070812"><path d="M347 295c1 14-9 6 0 0zM372 320c0-3 4-4 6-4 0 3-3 4-6 4zM355 317l8 1v3l-8-1v-3zM515 391c3 0 10 6 5 8-1-2-7-6-5-8zM524 411c-3-13 8-3 0 0zM300 415c5-5 12 0 14 5 4-8 12-8 18-2-2 7-9 8-14 12 6 6 15-1 22 1l1 6-5 11-2 1c-5 1-10-1-14-3 0 5 2 8 6 10 3 10-9 4-11-1-3-6-12-4-18-6 3-11-9-13-17-14 3-7 14-19 21-9 6-3-5-7-1-11zM518 422c1-2 1-6 4-6-1 2-1 6-4 6zM450 425h3l6 12c-6-1-8-7-9-12zM496 438l6-1c0 3-4 3-6 4v-3zM339 455c1-3 2-6 4-7l-1 7h-3z"/></g><g fill="#5e679c"><path d="M248 358c15-11 34-8 51-5l3 6c-30 8-52 43-43 73 1 10 9 17 12 26-8-8-21-5-29-11-21 0-28-21-20-39 9-4 19-16 13-26 4-8 10-16 13-24z"/><path d="M269 445c-24-34 9-83 47-87 12 7 27 9 36 22 20 21 10 58-16 68l5-11 1-1 2-2 1 4h2c-7-10 11-28-3-33l2 8-3-1c-2 2-5 3-8 3 2 5 9 10 5 16-7-2-16 5-22-1 5-4 12-5 14-12l2-3-2 1c3-3 4-5 5-9l5 1-2-2-4-2-1-2 5-1-7-3 2 3-6 7v-3c4-2 1-7 4-11h-4l-1 7-3-2c2-6 8-7 12-12-5-1-9 2-12 7l-1-4 2-4c-4 3-7 6-11 7l1-3-3 1 3-6-18 4v4c-4-2-8 4-12 2l-3 6-3-2 1 4-3-2-4 5 3 2c-3 3-4 6-4 10l3-1-4 8 6-1-7 7 3 4-4 3-1 7z"/></g><g fill="#47518d"><path d="M298 389l18-4-3 6 3-1-1 3c4-1 7-4 11-7l-2 4 1 4c3-5 7-8 12-7-4 5-10 6-12 12l3 2 1-7h4c-3 4 0 9-4 11v3l6-7-2-3 7 3-5 1 1 2 4 2 2 2-5-1c-1 4-2 6-5 9l2-1-2 3c-6-6-14-6-18 2-2-5-9-10-14-5-4 4 7 8 1 11-7-10-18 2-21 9 8 1 20 3 17 14 6 2 15 0 18 6-13 2-26 6-40 4l-6-14 1-7 4-3-3-4 7-7-6 1 4-8-3 1c0-4 1-7 4-10l-3-2 4-5 3 2-1-4 3 2 3-6c4 2 8-4 12-2v-4z"/><path d="M344 405c14 5-4 23 3 33h-2l-1-4-2 2-1 1-1-6c4-6-3-11-5-16 3 0 6-1 8-3l3 1-2-8z"/></g><path fill="#7783ae" d="M320 446c4 2 9 4 14 3-2 3-5 4-9 5l1 2c-4-2-6-5-6-10z"/></svg>