<svg width="1067" height="1067" viewBox="0 0 800 800" xmlns="http://www.w3.org/2000/svg"><g fill="#262625"><path d="M213 277c-2-32 34-51 63-49 10 6 23 12 25 25 8 13 16 28 29 36 20 10 46 11 62 28 15 30-10 63-38 71-66 12-144-39-141-111m5-7c-7 55 43 105 96 111 8 2 16 4 24 4 31 2 64-31 51-63-5-9-16-12-25-17-3 4-7 7-12 8l-1-4c3-1 7-1 9-4l-33-12c-9-4-18-3-27 0v-3c5-3 11-4 17-5-6-11-17-20-21-32-2-11-14-16-22-23-23 3-52 13-56 40z"/><path d="M297 269l5-2 2 1v3l-7 1v-3zM282 282c-2-3-1-8 4-8 0 3-1 7-4 8zM286 299c5 2 12 2 14 7-5 0-11 0-14-4v-3zM309 309c3-6 10-5 15-5 7 1 13 5 20 8-5 2-13 4-14-4h-7c-5-1-9 0-14 1zM478 354c34-22 84-3 94 36 7 21-1 43-10 62-9 17-27 26-42 36-22 13-47 10-72 12-28 6-58-17-57-47-4-30 26-51 53-52 24-4 17-36 34-47m10 0c-18 5-18 25-25 39 8 1 19-3 25 4-19-4-36 5-52 13l-2-4c-22 5-43 24-38 48 1 25 23 43 47 41 27-2 56 2 79-14 31-13 47-46 47-77-2-39-46-68-81-50z"/><path d="M489 377c8 2 11 10 12 17-6-4-8-12-12-17zM488 412c6-3 6-11 11-15-1 16-18 24-33 20 7-4 15-1 22-5zM461 408c5 1 11 0 15 2-4 2-10 2-15 2v-4zM440 418c4-6 12-3 18-4-3 6-12 2-18 4z"/></g><g fill="#cadaa6"><path d="M330 289c6-3 6-14 15-13l6 7 4-5c21-4 48 18 37 39-16-17-42-18-62-28zM327 293l33 12c-2 3-6 3-9 4l1 4c5-1 9-4 12-8 9 5 20 8 25 17a56 56 0 0 1-45 11c-13-3-12-18-21-25h7c1 8 9 6 14 4-7-3-13-7-20-8 3-3 3-7 3-11zM452 445c15-7 31-2 45 4h-3l4 4-3 1-1 2c8-3 15 0 19 7l-1 2-8-2-1 3c-15-4-33 5-47-2l-3 4 1 2c22 8 45-2 67 7l1 4c-23 16-52 12-79 14l-4-12c-3-3-7-7-3-11 8-7 6-22 16-27z"/><path d="M448 500c25-2 50 1 72-12-3 18-34 37-47 19-2 2-5 4-6 8-11 3-12-11-20-15h1z"/></g><path fill="#aac474" d="M494 449h3c12 4 22 15 24 28-22-9-45 1-67-7l-1-2 3-4c14 7 32-2 47 2l1-3 8 2 1-2c-4-7-11-10-19-7l1-2 3-1-4-4z"/></svg>