<svg width="1067" height="1067" viewBox="0 0 800 800" xmlns="http://www.w3.org/2000/svg"><g fill="#010101"><path d="M356 207c6-1 15-2 14 6h-3l-3-4-5 1c-1 3-3 6-6 7 9 2 0 5-5 4 4 8 16 10 13 22h-3c1-7-3-14-10-13-4 6 5 9 8 12-2 4-8 2-12 4l-6-8c-5 0-12 4-8 9 7 4 15 9 24 7 4 3 0 6-4 6l2-3a700 700 0 0 0-11 2c1 3 2 8 6 8 13 0 23 12 26 24h-3c-6-7-18-4-21-13-2-7-13-15-8-22-4-1-7-2-11-1l1 8c4-2 5 2 6 4l-12-1c-9 10 15 18-6 17l-1 4c3 4 7 6 8 11-8-1-13-11-10-17l6-2c-3-6-2-16 6-16-1-4 0-8 2-12-4 0-7 0-10 2 1 1 3 3 3 6h-9l5 13-3 1c-2-5-6-10-6-16l6-2c-1-6 6-7 11-7-1-4-1-8 3-10l-4-8c-12-1-15 14-26 14l-5 10c-15-10-29 9-43 4-6 10-8 22-18 28 2-13 12-20 16-32 6 4 13 2 17-3 8-3 18-3 27-1 0-11 12-8 16-16 3-6 9-7 15-8l-2-9c7-1 14-4 20 0 6-1 12-3 13-10m-28 12c0 3 1 7 4 8l-3 2 3 7c8-4 11 6 16 7-1-5-5-9-4-14l3-2c-3-8-11-11-19-8m21 52c2 8 8 14 16 13-3-7-8-14-16-13zM389 211h9v4l-9-4z"/><path d="M376 214l7-1c2 9 13 20 7 29l-2-5h-3l3 9 3-1c0 5-2 9-7 6l2 3c15-6 17 14 24 23l2-2c2 2 5 5 3 9l4 1c2-8 4-20 14-21 8-4 4 8 5 11 1 8-9 12-14 15 7 8 12 17 15 27 5 12 14 22 19 34l4 11 8 12 3-2c0 9 11 12 16 18 15 13 30 26 42 42l4 4 17 19c10 7 26 13 27 27 3 3 7 8 2 12-8 18-24 44-47 41 19-3 38-23 45-42 6-7-13-9-4-13-5-14-21-16-29-27-3-8-12-10-16-17l-7-8c-7-8-13-17-22-22-11-9-19-22-34-25l2-4c-8-5-12-13-14-22-6-19-21-32-26-51-5-5-9-18-17-17l35 64c-2 5-8 4-12 2l1 3c-24-9-34-34-53-49-1-3-6-7-4-10 20 16 31 41 54 54-3-11-13-17-18-26-11-18-31-29-34-51l-4 5c-3-12-18-4-19-17 2-3 4-7 8-6-8-15 8-23 18-11-3-8-7-18-16-22 1 5 6 9 9 13-8 2-11-9-13-15 2-6 9-1 13 1l-1-8m3 3c-1 7 2 14 9 17-3-5-3-13-9-17m-6 42c9 7 13 19 17 30 12 15 25 29 36 45 8 4 6 18 17 18-1-16-18-25-20-40-6-12-14-24-25-32-5-16-31-17-29-37-2 5-2 13 4 16m0-14c1 6 3 13 9 15-1-6-2-14-9-15m12 13c4 7 8 15 18 14l-9-15-9 1m-22 1c-3 7 4 11 10 11l4 2c0-8-7-13-14-13m62 16c3-1 8-1 8-6-4-3-6 2-8 6m-28-1c1 7 8 9 14 10v-3c-7 1-6-10-14-7m26 9c4 7 12-2 12-8-5 1-14 1-12 8z"/><path d="M392 226c3-6 11-9 17-10 4 4 10 7 11 13-3 2-6 5-5 9l-6 2c-1-6-6-12-13-9v7c-12-12 11-16 16-5 3-3 6-9 0-11-7-8-13 4-20 4zM421 241c7 0 12-4 19-5 2 4 5 9 5 14l-3-1c-1-3-2-7-5-10-2 6-13 5-16 2zM415 271c-13 1-18-21-9-29 8 8 11 20 13 31 0 4-3 0-4-2m0-2l-7-22c-8 2-2 22 7 22zM420 247l3-1 5 3v2l-9 3 2-3-1-4zM288 270c0-7 12-7 16-4-2 3-7 1-11 1-1 4-3 7-7 9l11 3v3c-7 2-24-7-9-12zM261 284c6-1 15-18 19-10-3 3-7 6-12 7 5 4 10 6 15 8v7c-8 1-23 0-22-12m3 0l4 8 2-3 9 6c2-7-10-9-15-11zM348 300c-4-5-17-17-3-17 3 3 9 5 10 10-6 0-8-8-14-7 3 3 7 7 9 12 6 2 18 0 13-9 14 6-7 18-15 11zM244 290c1-4 8-7 9-1l-3 1-2-2-4 2zM295 301c-1-3-7-8-2-11 2 4 5 11 10 8-17-10 7-8 10 0l-18 3zM237 292h3c-2 5-2 12-8 12l5-12zM247 293c3 1 6 3 6 6l-3 1-3-7zM278 315c-11-11 11-21 14-8l-3 1c-5-10-18 1-6 6-9 4 1 9 3 16-5-3-9-11-13-2 2 4 10 12 2 13l-6-15 4-3 1-9 4 1zM331 312c-1-17 20-4 28-2l56 54c6 7 9 17 20 19l2-7c-12-16-30-26-44-40-5-10-13-18-21-26 17 4 20 24 33 33 11 10 24 18 33 30 5 4 3 12-4 13-17-6-23-26-38-36-16-10-26-31-44-38-2 3-3 6-7 6l5-8c-5-2-10-4-16-4-5 13 14 19 20 7 2 13-25 14-23-1zM257 305c2 0 4 1 4 3-2 0-4-1-4-3zM317 316c-8-3 1-11 6-11-2 3-5 7-6 11z"/><path d="M256 317c-11-3 1-14 8-8v3h-9l1 5zM286 311c6-2 11 0 17 1 1 3 2 5-1 6-2-5-8-4-13-4 1 5 5 9 9 11l-2 3c-6-3-11-9-10-17zM224 313l12-2c1 6-8 4-12 5v-3zM237 319c5-6 14-4 19 2-7-3-21-5-16 8-5 10-8-6-3-10zM216 325l7-7c0 6-8 10 1 14-5 6 0 11 1 16 12 5 2 8-6 7-8 6-5 14 2 19-11 10-13 23-14 38 3 4 19 5 11 11 2 13 17 16 25 24 7 7 16-1 24-2-6 8-20 12-28 4-9-8-24-13-25-27l2-3c-17 2-13-17-11-27 0-8 8-11 11-17-8-7-5-23 7-23-4-10-3-18-7-27zM358 318c19 21 39 42 61 60 4 10 15 21 11 32 18 17 35 36 59 44 7 8 19 10 24 18-11-2-20-11-29-17-31-9-46-43-77-53-21-9-30-35-53-40-6-5-16-5-20-12 5-1 2-5 0-8h-3c-4-3-9-2-14-2 0 9 10 11 16 12-8 4-19-3-20-11l6-5c10 2 22 2 24 16v1c10 7 22 8 31 16-5-10-13-19-23-25l1-5-8-5c-9 9-26-1-32-10l8 2 1-7c10 2 19 6 26 13l2-3c8 1 26 6 17 16l-7-3c7 13 18 24 28 36l-3 2c11 13 28 18 42 28 3 1 3-5 1-7-6-9-8-22-18-28a200 200 0 0 1-19-15c1 11-13 3-17 0v-3c5 2 9 6 14 6-2-6-9-10-15-9 2-7 8-2 12-1-9-10-22-19-26-33m-35 5c0 4 3 6 6 7l4-2-2 6h9c-3-6-10-10-17-11m26 10l7 4c0-4-4-6-7-4z"/><path d="M301 334l7 6c-1 5-2 12-8 8l3-3c1-5-5-5-9-6 0 12 13 15 23 14 4 4 8 9 14 9-1 8-9 1-13-1l1 4-9 3c5-3 10-10-1-9 0 5-1 10 5 11-9 5-10-6-8-12l-4 1 1 4-10 1 9 7c-6 8-20-13-4-11-3-4 0-5 3-6-7-2-11-10-11-17 3-3 8 0 12 1l-1-4zM261 359c-10 5-26-20-9-19 7 4 22 3 24 13-10 7-21-1-27-10-6 7 8 11 12 16m-6-15c4 5 10 11 17 7l-17-7zM331 354c18 11 36 24 53 37 3 2 1 6 0 8-22-4-35-21-53-32 20 3 30 26 51 28-13-17-40-24-51-41zM430 355c5 2 10 4 13 8 8 14 19 25 29 37 10 10 26 13 34 25-7-4-13-9-21-12-18-11-31-28-43-45-3-5-8-9-12-13zM238 375c-9-2-10-17 0-18-7 8 0 14 6 19l-2 3c-3-4-5 2-6 5l-2-3c-5 2-6 9 0 10l-5 3c-8-7-1-17 9-19zM264 379c-11-2-4-24 6-13-8-2-10 6-5 10l-1 3zM320 370c15 4 26 14 38 24 9 10 25 7 32 19 15 20 40 27 58 42-22-7-38-25-60-32l-2 2c-2-1-7 1-8-3l11-1c8 1-7-12-10-13-21-4-35-24-54-33-2-1-5-2-5-5zM246 392c-4-7 6-11 11-9 3 4-6 3-9 4 1 3 4 8-1 9-8 2 3 7 5 9-9 5-17-10-6-13zM282 391c8-1 21 6 23 15-5 2-12 3-15-3-5 0-16-7-8-12m0 4c4 3 9 5 14 5-3-5-9-7-14-5m12 7c1 4 5 3 8 3 0-5-6-2-8-3z"/><path d="M309 393c17-6 37 7 51 18 5 4 15 3 17 10-24-7-42-28-68-28zM261 394c3 1 4 4 3 6l5 1 3-4c6 14-19 7-11-3z"/><path d="M306 398c23-1 44 14 63 25-17-2-30-16-46-20-6-1-13 0-17-5zM239 428c-11-2-13-25 0-22-10 5-4 15 0 22zM307 411c24 0 48 9 69 18-21-2-42-14-64-15-1 1-10 0-5-3z"/><path d="M246 422c7-4 18-14 26-5 2 11-10 9-16 8 3-4 14 2 13-6-6-4-17-1-21 6 8 6 18 3 27 3 3 7-3 10-8 11 5 4 35-5 19-8-5-4-7-10-9-16 12-11 35 5 26 19 27 0 54 12 82 16l2-5c-22-12-51-10-75-20 6-4 16 3 24 2 17 10 40 2 54 18 1 7-6 10-12 7-21-7-44-9-65-16l1 3c-4 0-7-1-11-3l-8 4 10 2v4c-7 2-12-2-16-7l-1 2c-9 0-21 4-28-4-3-6-16-6-14-15m34-6c2 7 10 17 16 9 7-8-11-11-16-9m21 8l-3 5h4l-1-5m-40 9c3 3 8 1 12 0l-2-3-10 3m30 5l8-4c-3 0-6 2-8 4z"/><path d="M319 440c27 10 55 20 85 19 15 5 31 10 44 20 6 14 27 17 30 33 13 15 31 28 52 28 0 1 9 0 7 4-27 1-54-15-65-39-11-8-23-15-30-26-16-9-33-19-52-17-25-4-50-9-71-22zM286 460c5-12 19-13 30-16l3 3c-7 11-17 20-30 21-4 1-6-5-3-8m11-6l1 3h-7l-4 9c12-1 23-8 28-19-7 0-12 4-18 7z"/></g><path fill="#2e3a34" d="M493 330c17-5 35-7 49 6 18 6 10 29 23 37 3 9 4 18 0 27l-1 8-2-1-2 4c-10 2-6-9 2-8 0-3-3-7 1-8 6-9-6-10-11-4a739 739 0 0 0 9-16l-5-8v-6l-4-3 2-3c-8-23-35-31-56-23l3 5c-6-1-12 3-18 0v3c-7 1-15 3-17 10-3 3-7 6-2 9l-2 3-4-11 4-2c3-5 5-11 10-13l4 1 2-3 5-2 10-2z"/><path fill="#a7c4b6" d="M472 336c5-6 14-11 21-6l-10 2-5 2-2 3-4-1z"/><g fill="#71b192"><path d="M498 332c21-8 48 0 56 23l-2 3 4 3v6c2 10-12 10-13 1l-2-1v-2l-5 1 4-3-1-11-3 2 3 1-2 6c-2-2-3-4-3-7l-3-1 1-3 6 1v-3l2-3c-5-6-12-6-19-7l-1 5h-1l-9 5 1 4-7 3-4-2-1 5a900 900 0 0 0-6 2c-7 0-13 1-19 4l1-2-4 2-1-2c-4-3-7-7-4-12 2-7 10-9 17-10v-3c6 3 12-1 18 0l-3-5zM442 368c12 17 25 34 43 45l1 2-6-1 1 2-8 1 1-4-6 5-15-6 2 3c-10-6-18-17-21-29 7-1 9-9 4-13l4-5zM564 408l1-8c3 18-11 38-30 36l-4-4-1-4-2-2c9-1 18 3 26-5 1-4 3-7 6-10l2-4 2 1zM485 423l3 1c5 13 25 9 35 4l7 8c-18 3-37 1-53-9h3l-1-3 6 2v-3z"/></g><g fill="#449870"><path d="M521 338c7 1 14 1 19 7l-2 3v3l-6-1-1 3 3 1c0 3 1 5 3 7l2-6-3-1 3-2 1 11-4 3 5-1v2l2 1c1 9 15 9 13-1l5 8-5 10-4 6c5-6 17-5 11 4-4 1-1 5-1 8-8-1-12 10-2 8-3 3-5 6-6 10-8 8-17 4-26 5l2 2 1 4c-12-16-27-29-42-42-5-6-16-9-16-18l-3 2-8-12 2-3c-5-3-1-6 2-9-3 5 0 9 4 12l1 2 4-2-1 2c6-3 12-4 19-4l1-2h5l1-5 4 2 7-3-1-4 9-5h1l1-5z"/><path d="M443 363l12-8c2 9 6 17 14 22l-2 4c15 3 23 16 34 25 9 5 15 14 22 22-10 5-30 9-35-4l-3-1v3l-6-2 1 3h-2c-7-5-16-7-23-12l-2-3 15 6 6-5-1 4 8-1-1-2a746 746 0 0 0 5-1c8 3 14 8 21 12-8-12-24-15-34-25-10-12-21-23-29-37z"/></g></svg>