<svg width="1067" height="1067" viewBox="0 0 800 800" xmlns="http://www.w3.org/2000/svg"><g fill="#0a0c0a"><path d="M300 248c26-24 61-49 98-34 22 2 38 21 59 26 19 14 34 36 37 60 1 14-22 27-9 40l-2 9h34c28 2 57 12 79 30 25 22 27 59 12 87-7 27-27 49-51 64-22 10-47 15-71 9l-11-3c-21-10-46-19-59-40-15-19-13-45-8-67-1-13 9-22 16-32 19-15 43-19 64-29 8-6 19 0 27-5h-27c13-7 30 4 41-8-20-7-44-3-65 1-24 14-51 33-57 61l1-5c-13 6-27 9-41 4 3 8 12 13 13 22 10 21 0 45 10 66 6 27-22 39-41 50a79 79 0 0 1-79 13l1 4c-8-4-19-4-27-11-9 0-21 6-27 2 17-7 36-2 52 5-3-9 5-16 12-21 15-9 34-1 50-9 3-16 20-24 22-39 1-15-11-27-13-41-11-31-39-50-63-70-21-3-41 6-61 13-15 12-32 28-30 49 3 18-3 37 2 55 12 13 24 32 45 30l24 27c-13-1-14-18-25-22-31-4-58-37-52-68 10-11-3-31 7-44 14-20 31-42 56-47 14-4 27-13 42-12-11-19-24-38-18-61-5-5-9-14-3-20 17-8 21-29 36-39m40-25c11-1 22-6 33-1 18 7 40 0 56 15 12 1 22 8 26 20-11-13-28-18-43-27-15 0-30-2-44-7-45-4-79 33-97 70 16-11 21-35 41-42 28-7 59-3 81 16 16 18 46 1 59 22-8 2-8-9-15-10-12-1-23 1-35-2 5 12 17 18 24 28-14-7-23-21-32-33a86 86 0 0 0-82-18c-19 9-24 33-42 43-3 10 11 13 18 15 31-2 63-12 94-1 10 5 19 13 31 13 18 3 35-8 51-15 9-1 20-5 22-15 4-16-11-29-19-41s-23-14-35-20c-25-18-64-29-92-10m-76 73c4-2 5-6 6-10-3 2-6 6-6 10m187 23c-20 10-45 12-64-1-29-17-62-5-93-4 20 18 45 35 73 27-1 6-8 5-12 5-34 3-53-31-85-37-5 22 8 42 20 59 15-9 30 2 45 5 17 11 36-1 53-4 3 0 5-4 7-6 0 12-17 10-24 14 10 6 25 7 35 0-9 12-28 8-40 1-24 12-46-18-70-9 25 8 53 17 66 42 14 6 45 9 48-12 16-21 36-42 63-47l2-5c-31 10-70 18-96-5-5 0-8 4-12 4 2-7 13-10 17-3 21 12 47 15 69 6 12-2 30-5 26-21-6 0-10 4-15 4 5-3 10-8 16-7 7-9 12-20 9-32-3 20-26 15-38 26m24 32c6 0 7-7 8-11-4 2-5 7-8 11m51 11c9 2 18-1 27 2 11 6 21 15 29 25-11-6-19-18-31-22-19-7-38 1-58 1-29 13-65 19-80 50-5 19-7 39-2 58 7 5 18 8 27 6 10-4 18-11 27-17-6-5-7-12-12-17-4 8-3 16 0 24-10-6-5-19-1-27-5-16 3-29 9-42v-11c-10-3-18 1-26 6 10-16 35-8 46 3 11 16 29 27 45 36l1 2c-13-1-23-14-34-20 4 12 11 24 21 32-21-5-18-31-31-42-1-3-4-5-6-7-3-4-8-7-13-9v11c-11 15-16 37-2 52 3 11 15 3 22 2 21-2 42-1 64 2 17 9 38 5 54-6v-1l5-3c5 1 5-6 7-9 6-28-10-59-36-71-13-8-28-13-43-16-3 1-8 4-9 8m-263 14c-14 7-30 8-42 19 18-6 38-15 58-10 25 19 52 39 63 70 3 18 23 35 11 54 9-6 23-8 28-19 0-16 2-34-4-49-5 12 8 37-8 44 10-15 0-33 7-48-15-21-27-47-54-54 2 20 26 25 30 43 9 10 6 23 9 36h-4c0-18-4-37-16-51-12-6-20-16-23-30-16-9-38-14-55-5m340 80c-14 10-31 16-47 10-37-10-81-12-111 16l-7 3c-9 3-17-4-26-4 4 16 20 22 32 30h1l13 1c19 6 51 4 57-20 1-4 0-11 6-12l-3 9c3 11-9 17-15 24 18-2 34-12 50-20 9-3 18 3 28 1 5-6 12-11 18-16l7-18 4-9-7 5m-40 38c-11 1-19 8-28 12-21 13-47 11-70 11l-17-3c-9-2-16-7-23-11 7 9 18 14 28 19 18 10 37 16 57 16 16-1 31-5 45-11l-1-3 3 1-1-3 3 2c17-10 31-24 40-42-11 7-22 23-36 12m-181 8l-1-4c-11 7-25 9-32 20l-4-1c-4 7-8 14-10 21-19 15-57-6-64 26 18 9 40 4 59 0 14-13 32-19 47-31 10-9 12-24 7-36l-2 5z"/><path d="M326 239c23 0 49-5 69 8-16-4-34-9-51-6-11 2-25-3-34 6 1-8 10-7 16-8zM456 258c8 3 16 10 15 19-4-7-9-13-15-19zM305 284c24-8 52-6 70 13-4 3-7-3-10-5-17-12-39-12-58-7-6 10-17 19-29 20 10-6 21-11 27-21zM272 351c-12-10-19-32-8-44-6 16 1 30 8 44zM406 338h13c-2 4-9 2-13 3v-3zM345 376c2-6 10-9 14-14-2 6-8 13-14 14zM493 391c10 1 21-4 31-2 15 1 28 11 42 8 9 0 18-1 25 5-7-2-13-2-20-2h-7c11 5 8 20 19 25l-7 2-7-17c-12-14-34-15-51-19-10 1-21 1-31 6l-7 2 13-8zM598 392c11 16 15 41 1 57l-5 2 4-6c12-14 7-36-2-50l2-3zM244 400l2-1c-8 14-1 28 1 42-8-12-12-28-3-41z"/><path d="M260 429c11-5 14-17 22-25 0 7-6 11-9 17l2 1c-9 8-20 13-25 25-9 18-2 38 2 57 6 15 7 31 16 44-11-2-8-17-12-25l-2 3h-2c-9-25-35-36-48-58-1-2-5-10 1-11 4 27 36 39 49 62-9-28-22-68 6-90z"/><path d="M286 442h3c4 14-9 22-18 28-5 4-6 11-12 14 2-19 32-21 27-42zM171 493c1-7-2-22 8-23-5 7-4 17-8 23zM317 508c14-3 16-19 24-28 0 8-6 14-9 21-9 17-37 6-46 25h-2c3-15 22-14 33-18zM473 498l15-9c-6 6-12 13-20 16l5-7zM170 496c4 26 19 57 48 61-1 4-6 3-9 2-24-10-43-37-39-63zM506 529c26 3 49-12 71-23-17 16-42 24-65 26-4 0-9 0-13-3s-9-4-15-5l-1-2c8 1 16 4 23 7z"/></g><g fill="#76d175"><path d="M493 391c8-10 25-8 36-16 14 4 27 11 37 22-14 3-27-7-42-8-10-2-21 3-31 2z"/><path d="M518 391c17 4 39 5 51 19l-2-1 2 4-4 2 3 2-3 3 11 8h3v3l3 3-2 1h9l-1 3 5-1 5 8-4 6 5-2 3 4v1a55 55 0 0 1-54 6v-2l3-1-2-4-7 4-7 1 1-5-6 1 1-3h-3l4 7-7-7h-11c-10-8-17-20-21-32 11 6 21 19 34 20l-1-2h6l3 2 5-10-1 4 5 2 5-1 2 3 4-7 1 7-4 1-1 3h-2l-6-1-2-2c-4 1-2 3 0 5 2 4 6 7 11 8l1-2c2 1 5 3 5 6l3-2-2-3c3 0 5 1 7 3l-3 2h7l2-5 3 3 3-4c0 3 0 7 4 7l3-4 2 3 5-6-5-3-1-5-4 4-9-3 4-2-5-4-4 4-2-1 4-2-4-2 6-2h-3l1-7h-7l-3 5-3-3c2-2 3-4 3-7l4-5-3-2 2-1v-5c-3-1-6 0-8 1l-4-3c1 3-2 6-4 8l1-4-5-6-11 4c1-6-1-12-5-5l-4-2-2 3c-3-2-5-5-6-8l3-2-2-2 2-1zM469 406l8-4c2 2 5 4 6 7l-4 1 2 2c-5 6-11 6-18 8l1 4h11l-3 3 7 2 1 4 5-2-1 6 5-1-2 7 3 1-1 6 4-4-1 6h-5l1-3-5-2-1 6 8 3-6 2c-7 1-19 9-22-2-14-15-9-37 2-52l5 2z"/><path d="M432 435c7-12 15-26 29-32-6 13-14 26-9 42-4 8-9 21 1 27-3-8-4-16 0-24 5 5 6 12 12 17-9 6-17 13-27 17 0-16-9-31-6-47zM488 489c3-1 7 4 10 5l1 2 4 3h2c-2-4-2-8 1-11 1 4 5 5 9 4-6 24-38 26-57 20l4-5-4 1 2-3-3-2 7 2 1-4 4-1 1-3 3 1-5 7c8-3 14-10 20-16zM577 525c7-9 21-8 28-17-8 23-33 35-55 41l3-1-1-6h2l-1-4 6-3-2-5h3l1 3 5-2-3-3h5l-2-2 11-5v4zM475 536l11 3 6 2 1 3 18 3-1 3c-13 1-27-3-35-14z"/></g><g fill="#57bc56"><path d="M487 397c10-5 21-5 31-6l-2 1 2 2-3 2c1 3 3 6 6 8l2-3 4 2c4-7 6-1 5 5l11-4 5 6-1 4c2-2 5-5 4-8l4 3c2-1 5-2 8-1v5l-2 1 3 2-4 5c0 3-1 5-3 7l-1-1-1 3-4 7-2-3-5 1-5-2 1-4-5 10-3-2h-6c-16-9-34-20-45-36l7-2-1-2z"/><path d="M479 410l4-1c13 11 10 37 31 42h11l7 7-4-7h3l-1 3 6-1-1 5 7-1 7-4 2 4-3 1v2c-22-3-43-4-64-2l6-2-8-3 1-6 5 2-1 3h5l1-6-4 4 1-6-3-1 2-7-5 1 1-6-5 2-1-4-7-2 3-3h-11l-1-4c7-2 13-2 18-8l-2-2z"/><path d="M556 466c16 6 33 0 47-10l3 4-7 18c-6 5-13 10-18 16-10 2-19-4-28-1-16 8-32 18-50 20 6-7 18-13 15-24l10 4 2-6c4 1 5 4 6 7l1-6 3 3 3-4h-3l3-4h-3l-1-2-5 3h-6l1-1-5-2 4-2c-4 0-7-1-11-4l3-4c-6-4-13-5-20-4v8c-2-3-4-4-7-5l-2 2h-4l3 3c-4 1-8 4-10 7 0 2 1 5-1 7-1-3-1-6-4-6 6-3-1-4-5-2l1 3c-4 2-9 4-14 4l-1 5-2 1v-4c-3-2-10-3-9-8 30-28 74-26 111-16z"/><path d="M557 530c24-15 44-37 51-64 5 13 3 29-2 42h-1c-7 9-21 8-28 17v-4l-11 5 2 2h-5l3 3-5 2-1-3h-3z"/><path d="M563 494c14 11 25-5 36-12-9 18-23 32-40 42l-3-2 1 3-3-1 1 3c-14 6-29 10-45 11l-1-6h3c23-2 48-10 65-26-22 11-45 26-71 23-7-3-15-6-23-7l1 2c6 1 11 2 15 5l-1 3-3 1v2c-3-1-7-2-10-1l2-4c-7-4-15-6-23-4l1-6 4 1-4-4c23 0 49 2 70-11 9-4 17-11 28-12z"/><path d="M486 539c24 6 49 1 71-9l2 5-6 3 1 4h-2l1 6-3 1-5 2c-12-3-23 3-35-1l1-3-18-3-1-3-6-2z"/></g><g fill="#b3c3b2"><path d="M564 400h7c6 9 14 15 17 26l-2-1 7 12-5 1 1-3a188 188 0 0 1-7-1 425 425 0 0 0-3-6h-3l-11-8 3-3-3-2 4-2-2-4 2 1 7 17 7-2c-11-5-8-20-19-25zM563 426h7l-1 7h3l-6 2 4 2-4 2 2 1 4-4 5 4-4 2 9 3 4-4 1 5 5 3-5 6-2-3-3 4c-4 0-4-4-4-7l-3 4-3-3-2 5h-7l3-2c-2-2-4-3-7-3l2 3-3 2c0-3-3-5-5-6l-1 2c-5-1-9-4-11-8-2-2-4-4 0-5l2 2 6 1h2l1-3 4-1-1-7 1-3 1 1 3 3 3-5z"/></g><g fill="#29a723"><path d="M500 467c7-1 14 0 20 4l-3 4c4 3 7 4 11 4l-4 2 5 2-1 1h6l5-3 1 2h3l-3 4h3l-3 4-3-3-1 6c-1-3-2-6-6-7l-2 6-10-4 3-9c-6 1-5 8-6 12-4 1-8 0-9-4-3 3-3 7-1 11h-2l-4-3-1-2c-3-1-7-6-10-5l-15 9-3-1-1 3-4 1-1 4-7-2 3 2-2 3 4-1-4 5-13-1h-1c-3-9 1-20-6-26l7-3c-1 5 6 6 9 8v4l2-1 1-5c5 0 10-2 14-4l-1-3c4-2 11-1 5 2 3 0 3 3 4 6 2-2 1-5 1-7 2-3 6-6 10-7a624 624 0 0 1 1-3l2-2c3 1 5 2 7 5v-8zM448 514l17 3 4 4-4-1-1 6c8-2 16 0 23 4l-2 4c3-1 7 0 10 1v-2l3-1 1-3c4 3 9 3 13 3h-3l1 6c-20 0-39-6-57-16h1l-6-8z"/></g></svg>