<svg width="1067" height="1067" viewBox="0 0 800 800" xmlns="http://www.w3.org/2000/svg"><g fill="#020202"><path d="M339 220c12-12 30-3 44-5 10 0 19 6 29 7 31 2 56 21 83 34 15 5 32 8 45 18 28 27 41 66 47 103 9 15-2 30-9 43-4 7 1 15-1 22-4 12-3 27-13 36-12 7-20 19-27 31l-4-1c-4 5-7 11-7 18-5 13-23 13-31 22 3 1 7 1 8 4l-12-3c-9 1-13 11-21 10-8 0-15 4-21 8l4 2c-10 1-19 3-29 3l2-4h11c-7-4-15-5-19-11-5-6-2-15-5-23-8-24-32-36-47-55 12 4 19 17 29 25 13 10 23 24 22 41-1 13 14 21 25 20 13-10 31-10 44-19-8-5-19-8-22-18-2-12 2-25-4-35-10-8-23-10-34-15l-1-2c1-3 3-6 5-3l-3 2c11 5 23 7 33 14 11 10 4 26 7 39 3 9 14 12 22 16l24-13c-1-20-17-31-32-41l-9-33c-8 5-17 8-26 11l-2-2 1-3c10-5 29-5 28-20-4 0-6 4-9 6l-2-2c-33 23-76 20-113 8-28-5-48-27-71-41-22-19-44-40-52-68-5 31 18 59 41 76 15 14 33 25 52 34l-1 5-5-2c8 9 22 19 16 34-6 30 25 47 43 65-15-5-23-19-34-29-12-9-15-25-11-39 2-17-15-26-26-37a210 210 0 0 1-65-56c3 12 5 24 4 36 1 13 5 25 10 37l-3 4c-6-13-10-27-10-42 2-19-6-36-11-54-7-18-7-42 10-54 3-2 3-6 4-9 21-42 65-64 99-95m2 3c4 2 8-3 13-3 22-6 36 20 32 39 5 25 32 33 49 47 3 6 6 13 6 20-2 15 11 28 5 43-4-10-2-22-9-31l-4 11c3 10 5 20 9 29l2-3c4 4 3 9 2 14 3 17 26 23 22 42-6-2-4-9-5-13l-18-21c1 11 4 22 13 29 6 3 9 9 15 12 8 7 0 18 4 27 5 9 2 22 13 27l-1-12c-5-5-6-12-8-18l4-1c1 9 8 17 7 26 5 12 23 12 29 25 0 1 2 6 3 2 2-7 8-11 14-15 11-15 25-30 29-49-1-25 21-48 14-74-8 22-16 47-34 63-11 10-24 26-41 19 37-3 58-41 69-73 10-18 1-39-5-57-4 2-9 0-13-1v-3l12 2c-3-14-14-23-19-35-7-13-24-9-36-10-15 7-14 25-17 39 2 14-6 32-20 36 12-8 20-23 17-38 5-11 1-25 11-33 9-11 22-3 34-5v-3c-17-12-38-13-57-22h-1c-12 4-9 22-7 32 7 18-10 30-21 41 2-11 18-15 19-27-1-16-8-34 4-48l4 1c-10-8-22-14-34-20-12-2-24 13-17 24 4 6 6 17-2 19 4-9 0-18-5-25 3-8 8-17 16-21-24-4-47-16-72-13-9 0-18-3-25 5m-32 26c-21 13-40 29-54 49-3 6-11 10-11 18l-7 14c-8-2-9 10-7 16 21 1 31-19 43-31 7-9 15-18 21-28l2 1c10-20 33-36 55-35-34 6-56 34-73 62-15 12-26 36-48 33 1 7 5 13 9 19 14-4 30 2 42-7 13-10 8-27 14-41 5-11 14-20 24-27 13-8 27-18 42-24 6-5 14 7 21 4 2-3 5-8 0-10v-8l-7 1v-3l7-2c-2-3-5-6-6-10l6 4c0-4-2-9-6-11 0 3 1 8-4 7 4-10-7-18-16-14 3 1 6 1 8 4-3-1-7-1-9-4-7 4-16 2-20 9-4 6-12 15-19 10 11-2 18-13 26-20-14 2-21 17-33 24m51 21c-22 17-57 25-64 56-4 13-2 29-14 38-13 6-28 3-41 5 4 8 10 14 15 21l2-2c9 9 23 10 35 10l10-1c13-3 26-7 39-13 25-12 31-49 60-51-8 4-18 7-23 16a96 96 0 0 1-65 48c-7 3-16 3-24 4-8 0-17-1-25-4l15 14c23 13 42 35 69 39 28 7 60 17 89 3 11-3 21-9 31-13-16-13-31-29-26-52-7-13-10-27-12-41 7-12 4-26-1-38l-30-14c-8 1-7-10-12-13-7-7-18-11-28-12m26 1c-1 6 4 8 7 12 5 14 22 13 32 21-3-7-11-9-17-11l-22-22m200 114l-1 12c5-1 1-8 2-12h-1m-12 47c-7 15-5 33-16 47 14-10 14-31 16-47m-75 66c8 8 14 17 18 27 9-11-8-23-18-27z"/><path d="M524 379c8-19 6-51 32-54-7 7-20 10-20 23-1 25-18 49-43 55-2 0-3-1-4-3 8 1 15-5 22-9l13-12zM403 335c2-4 9-3 13-4l1 3c-5-1-10 0-14 1zM372 438c29 0 53-24 65-49-4 25-29 45-53 51-16 1-32 5-48 4v-3c12 2 24-3 36-3zM254 425l2 2c11 14 21 28 21 47 0 23 18 40 28 59-10-11-19-23-26-36-5-16-4-33-11-48-5-7-11-13-14-21v-3z"/></g><path fill="#e1f99f" d="M196 341c8-14 26-33 44-25l-6 2c-3 4-7 8-11 10v12l-6-1-3-2v-2l-3-2v2l-3 4-4-1c0 6-3 6-8 3z"/><g fill="#b0e03d"><path d="M278 315c6-1 12 1 17 4-6 14-1 31-14 41-12 9-28 3-42 7-4-6-8-12-9-19 22 3 33-21 48-33z"/><path d="M296 326c6 5 6 14 14 19 8 19-5 39-17 53-12 0-26-1-35-10l-2 2c-5-7-11-13-15-21 13-2 28 1 41-5 12-9 10-25 14-38z"/></g><g fill="#d2f077"><path d="M240 316v-1c-1 3-1 7-4 9-17 12-17 36-10 54 5 18 13 35 11 54-22 0-34-21-42-38-5-17-11-38 1-53 5 3 8 3 8-3l4 1 3-4v-2l3 2v2l3 2 6 1v-12c4-2 8-6 11-10l6-2z"/><path d="M244 316c10 3 20 3 29-1-12 12-22 32-43 31-2-6-1-18 7-16l7-14zM226 346c8 28 30 49 52 68l-11 8c-23-17-46-45-41-76zM236 397c8 10 16 20 26 28l-6 2-2-2v3l-14 5c1-12-1-24-4-36z"/><path d="M265 397c8 3 17 4 25 4l-10 10-15-14z"/></g><g fill="#363734"><path d="M319 456c39 19 86 22 126 7l-1 3 2 2-16 5c-2-3-4 0-5 3-36 3-74 3-107-15l1-5zM247 474l3-4c6 25 23 44 41 61 28 19 62 23 94 33 14 0 27 2 41 4l-2 4c-12-1-24-5-37-2-13-5-26-8-39-11-20-5-40-12-57-22-18-18-38-37-44-63z"/></g></svg>