<svg width="1067" height="1067" viewBox="0 0 800 800" xmlns="http://www.w3.org/2000/svg"><g fill="#0f0f0e"><path d="M549 168c3-5 14-11 15-2-12 28-30 54-39 83-8 13-14 28-20 42 14-13 22-33 36-46 14-16 27-34 37-53 6-5 5-19 16-17l-1 3 4 3c-3 23-27 37-38 57-16 18-30 37-41 58 23-16 41-36 60-56 14-15 35-21 48-36 6-4 13 4 8 9-18 10-29 28-45 42 30-15 51-44 84-53 4-2 11-8 15-3 5 6-3 13-9 14-35 24-74 42-109 67 28-8 62-2 86-23 4-10 21 3 12 9-20 16-45 20-69 28-18 3-36 11-55 12-18 3-33 18-44 33 7 8 10 24 1 32-38 38-73 79-114 114-18 13-42 14-59 29-18 13-39 24-61 29-10 1-22 8-31 1-4 4-1 10-5 13-6 7-15-6-21 2-13 16-37 12-53 22-20 9-38 23-49 42h-3c2-8 8-15 14-20l-2-2c8-7 19-9 26-17l-3 1v-3c41-19 83-38 114-71 19-21 39-42 56-65 14-13 21-31 32-46 3-3 6-7 10-8l-8 14c-11 13-18 31-31 43l-5 4 5 14c-5-2-6-6-8-10l-4 6 5 11c-4-2-5-6-7-9l-3 5 2 2-7 10v-6c-17 15-29 34-46 48-20 21-48 32-72 47 12-3 27-3 36-14 6-8 17 2 22-6l-2-10c22 3 44-2 64-11-2-2-4-5-2-8 3 6 9 8 13 3-1-2-4-5-2-8l6 6 21-15c20-14 47-15 64-34 19-15 36-33 52-51-2-2-5-4-4-7l6 6 7-7c-3-2-7-5-8-10 5 3 12 14 15 2-3-2-8-5-8-9l3-1c6 13 17-1 22-7 7-13 28-19 25-36-1-15-17-18-24-28l-3 1-2-3c-3-1-6 0-7-3h11c29-36 35-84 61-122 2-11 13-19 10-31m6 2c3-1 4-3 5-6-3 1-5 3-5 6m0 4c-15 31-34 60-44 93 16-19 17-46 33-65 3-10 9-18 11-28m32 6l1 5c2 0 4-2 4-4l-5-1m-4 9c-24 46-65 81-87 128 18-17 29-41 43-61 19-21 38-43 52-67-2 0-6-3-8 0m42 18l4 7c2-2 4-4 4-8l-8 1m-52 61c-8 7-19 13-27 21 15-3 24-16 37-22 24-13 47-30 72-42 6-6 20-8 20-19-40 9-64 49-102 62m-58 34c-7 4-11 12-15 18 40-34 87-61 119-103-43 18-65 62-104 85m146-46c-1 2 0 5 2 7l-2-7m-5 6c-19 14-43 16-65 17-20 4-39 10-57 19-16 9-28 23-44 32l7 5c8-8 15-17 25-24 12-11 30-9 45-13 31-8 63-15 91-30 4-1 1-7-2-6m-151 20c4-4 5-9 6-14-3 4-5 9-6 14m-24 41l6 5c5-15 17-27 17-43-9 12-14 26-23 38M150 580c4 0 7-2 10-4-4 1-7 1-10 4z"/><path d="M396 339c17-16 41-30 66-26 3 1 7 3 6 7-25-11-52 5-69 22-9 12-28 24-18 40l-8-7c-2 3-3 6-2 10l-4-1-9 8-2-2c16-14 26-35 40-51zM460 339c8 4 11 17 22 17l-1 3c-11 1-18-11-21-20zM456 353c6-4 11 7 15 9-7 2-11-5-15-9zM387 428h3l3 8c1 4 5 7 8 10-5 1-9-3-11-7-2-3-2-7-3-11zM381 431c4 1 3 8 5 12-4-2-8-8-5-12z"/></g><path fill="#fe8b16" d="M338 338c18 3 32-19 50-9 3 3 4 8 8 10-14 16-24 37-40 51l2 2 9-8 4 1c-1-4 0-7 2-10l8 7c-10-16 9-28 18-40l2 7c10 0 13 9 16 17 5 22-8 42-19 60l-2-2 1 4-4 8-3-8h-3c1 4 1 8 3 11-2 2-3 5-6 6-5-1-10 1-13 6v-6h-3l4-2-3-7 3-1-1-1h-5l1-3-12-6 4 7h-3l-1-4c-5 0-8-2-8-7l4 5 6-3-5-1-8-14 4 1-4-3 8-14c-4 1-7 5-10 8l-8-9c7 4 12-6 4-6l-1-4 15 6-4-8-2 3c-2-1-3-4-4-6l-2-1v-7c4-3 5-7 3-11l3-1 2 8c4-4-1-8-3-12l2-2-5-3 5-5 3 1v-3l-12-2m43 93c-3 4 1 10 5 12-2-4-1-11-5-12z"/><path fill="#ffc58a" d="M287 378c5-22 25-47 50-41-8-1-17 6-17 14-9 0-3 13-3 18h-1c0 10-10-5-11 7l-3-7h3v-3l-5 3c2 7-7 10-8 16-1 4-2 8-7 6l3-3-1-2 3-1-3-7z"/><g fill="#fead60"><path d="M337 337l1 1 12 2v3l-3-1-5 5 5 3-2 2c2 4 7 8 3 12l-2-8-3 1c2 4 1 8-3 11v7l2 1c1 2 2 5 4 6l2-3 4 8-15-6 1 4c8 0 3 10-4 6l8 9c-11 15-18 33-32 46-16-17-32-44-23-68l3 7-3 1 1 2-3 3c5 2 6-2 7-6 1-6 10-9 8-16l5-3v3h-3l3 7c1-12 11 3 11-7h1c0-5-6-18 3-18 0-8 9-15 17-14zM313 449c13-12 20-30 31-43l4 3-4-1 8 14 5 1-6 3-4-5c0 5 3 7 8 7l1 4h3l-4-7 12 6-1 3h5l1 1-3 1 3 7-4 2h3v6c3-5 8-7 13-6-17 22-54 28-71 4z"/></g></svg>