<svg width="1067" height="1067" viewBox="0 0 800 800" xmlns="http://www.w3.org/2000/svg"><g fill="#10100e"><path d="M343 235c11-11-25-32 1-27 10 1 18 6 26 11 3-6 7-3 5 3 14 7 39 8 40 28l3 3c-2 5-4 10-4 15-3 0-5-1-7-3l1-3c-5 2-11 0-13-5l-14 4c1 3 0 6-2 9 9-2 16 6 5 9-7-4-14-9-22-9-10 1-19-8-29-5-20 2-41 8-53 25-5 7 10 5 2 11 1 8 4 15-2 22l3 3-1 8 9 9c-13 1-11-14-16-22 3-4 6-8 3-13-9 2-16 8-23 13-9 15 3 32 1 47 1 3 4 6 7 9-11 3-13 23 1 24-2 7-6 12-10 18 4 8 0 17 0 25 2 8 13 7 17 13-3 18 20 26 16 45 13 0 10 10 11 18 16 9 35 9 51 16 0-9-13-13-11-23 6-17 28-22 31-40 0-2 2-4 4-3 14 13 32 20 42 36l4-6 2 2c-4 7-4 15-2 23 3 9-12 9-12 17 12-1 24 3 36 6 11 1 20-9 20-19l20-6c7 1 12-3 18 2 7-6 18-12 17-23 1-12 8-21 19-25 9-3 6-11 3-17 8-1 10-9 17-11l-3 7h3c7-6 10-14 9-24-7-1-20 6-20-5l6 3 13-2c1-4 4-6 7-8-3-13 3-24 2-36-7 10-16 6-26 4 5-5 20 4 22-9l-4-6c9-6 1-17 1-25-7-3-12-9-16-16-9-2-19-2-28 0-6 5-11 12-16 18l-6 1c-10-4-10-14-4-22-4-18 14-29 17-45 1-4-2-7-5-10-12-3-24-8-35-13-15-6-26 7-40 2-6-3-15 8-18-1 9-8 20-3 31-4 8-3 18-3 27-1 14 7 30 7 42 17 13-4 22 8 34 10 17 12 23 32 31 50 2 6-1 12-7 15-2 6 1 11 4 16l-5 9c4 4 7 9 7 15 10-5 14 3 14 12 7-3 13 0 11 8 5 0 9 1 12 4l-1 2c-8 22 20 37 13 60-6 4-15 2-22 4l3 11c-6 3-12 1-18 1 1 5 3 9 3 14-4 9-18 11-22 1-3 5-10 15-15 6-4-13-20-11-31-12v-4c13 0 32 0 36 15 6-8 13-18 19-3 14-1 1-15 7-21l-10-3c-11 10-34 17-44 6 14 0 30 2 41-9 7-10 19-16 25-28 3-18-3-40-21-49l-5 4c2 2 6 4 4 7-2 9 6 16 7 24l-5-1-7-12c2 10 3 22 9 31 6-14 7-31 1-45 7 0 7 8 9 12 4 31-22 68-56 61-13 1-12 18-14 28-6 7-14 11-21 18l-15-4-20 5c1 9-5 15-12 18-15 5-30-5-45-5l-2-1c-7 12-22 6-33 6-5 0-12 2-17-2-4-6 2-13 8-13l-4 10h3c3-6 6-13 7-20-9-4-14-12-19-20 3-4 7-8 12-8l-7 8c5 5 7 13 15 15 7-13-2-26 0-40-6 12-19 19-27 29-10 11 15 21 6 32-19-9-41-9-59-19l1-13c-7-2-18-6-12-15-3-12-20-21-16-36-8-10-28 0-29-19-9 3-19 11-28 4 0-9-13-9-19-15-4-7 5-15 0-21-3-6-9 3-12-2-7-13 18-13 14-25-10-1-10-11-14-19 4-3 7-9 14-8 8 1 8 13 16 14l-1 2c15 0 31-7 45-4-7 5-17 5-26 5 16 6 24 25 17 41l9 2 6-10c-14-4-10-21-2-29l-4-3c4-14-9-26-4-41-2-15 15-20 26-27-5-19 13-25 25-35h1c11-5 23-6 35-7-2-10 0-19 8-26m0-23c7 7 17 11 23 20l4-7c-6-7-18-12-27-13m6 10c1 5 3 9 2 14l9 1c-2 7-7 15 1 21l11 2-1-3 5-1c-4-15-16-25-27-34m25 4c-4 8-2 16 5 22l11-14c-5-4-10-6-16-8m7 26c1 2 2 5 6 4l-3-2c1-6 9-17 16-13-4 5-10 8-12 14 8-3 16 9 23 0-3-10-6-20-18-22-3 7-6 14-12 19m-34-13c-4 6-11 12-6 19 10 9 25 7 37 11l-5-4c-9-1-22-6-22-17l2-3 2-4-8-2m171 41l1 5c0 7 7 5 11 6-2-5-4-13-12-11m16 5c2 3 3 7 6 10 4-1 8-3 11 1l4 1c-3-9-13-11-21-12m-18 8v3c3 0 5 0 7-2l-7-1m26 3c2 8 9 15 18 14l1-3 3 1c-3-9-14-7-22-12m-35 17h15v-7l7-1-2 7c5-1 11-3 16-2-3-4-5-11-11-11-6-2-13 5-17-1-3 5-8 9-8 15m43 0c3 6 9 10 11 17h-3c1 9 10 16 19 13 0-12-9-22-12-33-4 5-10 6-15 3m-47 2c-1 8 1 17-4 24 9-5 19-9 21-21-6 0-11-1-17-3m23 1l-1 8c5-2 9-6 13-9l-12 1m6 10c8 0 17 1 25 4l-13-13-12 9m-31 19c4 0 9-2 8-7-3 2-7 3-8 7m-314 29l8 3c-3-3-7-6-7-11 13 4 16 18 15 30 1 4 7 16 12 10-12-6-8-21-8-32l-7-2c-1-7-6-12-9-17-9 3-7 13-4 19m24 0c1 10-4 27 9 31l-3 3 6 2c0-11 1-21 4-31l-4-2 2-4-14 1m18 3c0 11-4 22 1 33h7c5-11 3-28-8-33m-47 26c7-8 13 1 17 7-3 5-7 14-1 18 7-1 12-8 15-14-11-4-17-15-17-26-5 5-15 6-14 15m400-8v7l6 1v-10l-6 2m10 11c12 11 15 28 14 44 3-3 13-6 9-11-10-4-5-17-4-25-6 3-13-2-11-9l-8 1m-372 8c-4 7-9 13-15 18 8 2 10 14 19 8l-1-3c6-4 9-12 7-19 12 1 4 13 1 19 8-2 14 4 17 12h4c-4-10 1-22-3-33l-29-2m352 29c-3 9-9 17-18 19 3 15 20 12 26 2-4-7-6-14-8-21m12 37c5 3 16 11 20 5-12-20 29-1 20-22-8 3-16 7-24 5v-4h4c6-2 13-3 20-3-4-4-4-11-8-15l-32 34m-35-18c2 7 0 15-7 19 6-1 14 0 18-5-6-3-9-8-11-14m-168 40c-1 10-4 19-1 28l-3 1c-2 5-5 9-5 15l7-1c5 1 11 1 17 4l5-4c-6 1-12 0-17-1 6-2 12-1 18-1-3-8 8-11 12-15l-2-15c-9 6-19 13-25 23l-2-1c-2 5-12 10-7 2v-4c7 7 9-9 11-14l2-1-2-2c1-12-1-26-11-33-2 7 0 13 3 19m9-11c5 8 5 18 4 28h2c3-5 10-5 14-9-3-9-12-14-20-19z"/><path d="M330 282c10 2 20-1 30-1-8 6-18 3-26 6l-4-5zM445 290c1-7 4 1 4 4l5 2c-4 4-13 0-9-6zM379 300c1-4 7-3 10-2-2 4-7 5-10 2zM467 298h3l-2 11a278 278 0 0 1-7-4l6-7zM341 311c-1-5 4-6 8-7v7h-8zM309 309l8 3c-3 3-8 3-8-3zM378 323c4 1 8 3 10 7-4 2-10-2-10-7zM459 324c-1 12-13 0 0 0zM343 333c3 0 6 1 8 4-2 4-8 0-8-4zM354 351c4-6 13-18 20-12-5 4-16 5-14 14l-6-2zM318 337h7l-3 6-4-6zM434 347c-7 1-9-5-2-7l2 7zM426 357c0-6 6-5 9-4-1 4-5 4-9 4zM304 365c8-5 16-11 25-11l3 10c5 1 12 0 12 6l-8-2c-3 0-6 1-9-2l-1-8c-7 1-13 5-17 11-2-1-6-2-5-4zM424 362l5-2-1 5-4-3zM499 368c6-11 18 3 25 7-10 1-15-10-25-7zM479 378c4-2 8-3 11-2-1 5-7 5-11 2zM372 391c3-8 7-5 10 2v2c-4 0-8-1-10-4zM405 391h23c-6 5-16 6-23 3v-3zM336 405c-7 1-5-10 2-7l-2 7zM379 407c9-7 16 6 8 12 4 11 1 25-10 31-7 4-14 15-23 9l2-4 5-2-1 4c12-7 36-22 22-37l5-5-1-5-7-3zM352 413c3-5 9-5 15-6-2 5-2 10 2 14-3 6-11 10-17 5-6 2-14 5-18-1 5-6-5-13 5-17-2 5-1 9 3 12l-3 2c6 6 19 2 26-2-2-1-4-3-5-6-3 1-6 1-8-1zM522 426c-7-2 1-7 5-7 0 4 1 10-5 7zM442 430c-10-3 0-12 0 0zM416 448c2-6 8-9 14-10-2 4-7 4-10 8 0 6 6 8 10 10l-1 3c-5-3-11-5-13-11zM497 452l13-5c0 6-5 8-10 9l-3-4zM473 460c7-4 16-1 24-4-7 2-18 13-24 4zM394 462c8 6 17 2 22-5 1 11-19 18-22 5zM343 466c4-1 9-2 13-1-2 2-6 3-8 6-3-1-5-2-5-5zM302 474l15-2c-4 4-10 8-16 4l1-2zM326 471c3 1 7 0 9 2-3 1-8 3-9-2zM438 483c8-2 17-1 24 3-7-2-19 5-24-3zM471 489c5-1 11-2 16 1v5c-4 3-5 8-3 12-3 2-6 0-8-3l7-12-7 2-5-5zM469 515l11-2c-1 5-6 7-11 5v-3z"/></g><g fill="#ede8bf"><path d="M519 237c19-7 34 10 51 15 12 6 19 19 25 31 7 19-4 37-14 51-8-18-14-38-31-50-12-2-21-14-34-10-12-10-28-10-42-17 15-7 27-20 45-20z"/><path d="M474 261c11 5 23 10 35 13l-4 8-2-4c-7 3-15 1-22-2l2 10-7-1-1 9c-4 6-2 14-3 21l-3-1-2 5c0-4 0-8-2-11l3 1 2-11h-3c9-8 6-21 9-32l-2-5zM518 280c8-2 10 6 12 11-4-1-11 1-11-6l-1-5zM534 285c8 1 18 3 21 12l-4-1c-3-4-7-2-11-1-3-3-4-7-6-10zM542 296c8 5 19 3 22 12l-3-1-1 3c-9 1-16-6-18-14zM550 313c5 3 11 2 15-3 3 11 12 21 12 33-9 3-18-4-19-13h3c-2-7-8-11-11-17z"/></g><g fill="#d2d094"><path d="M505 282l4-8c3 3 6 6 5 10-3 16-21 27-17 45-6 8-6 18 4 22-8 3-12-5-18-8l-2 2c-4-4-6-10-7-16l-2 2-2-4c-4 5-6-6-3-8l2-5 3 1c1-7-1-15 3-21l1-9 7 1-2-10c7 3 15 5 22 2l2 4zM516 293l7 1c-2 2-4 2-7 2v-3zM526 316l12-1c-4 3-8 7-13 9l1-8zM532 326l12-9 13 13c-8-3-17-4-25-4zM523 332c9-2 19-2 28 0 4 7 9 13 16 16-11 6-22 10-35 13l1-5-3-1c-4-3-9-4-14-5l-2-2c-2 3-4 5-7 2 5-6 10-13 16-18z"/><path d="M501 345c1-4 5-5 8-7 1 5-4 7-8 7z"/></g><g fill="#aaa978"><path d="M507 313c0-6 5-10 8-15 4 6 11-1 17 1 6 0 8 7 11 11-5-1-11 1-16 2l2-7-7 1v7h-15zM503 315c6 2 11 3 17 3-2 12-12 16-21 21 5-7 3-16 4-24z"/></g><g fill="#272726"><path d="M397 367c0-6 7-6 11-6l-3 5c6 1 11 2 17 0l-2 1 1 3c-7 5-17 1-24-3zM302 382c-10-1-9-12 1-12l1 4c-8 1-3 6 2 8-1 5-7 8-10 12-5-4 4-8 6-12zM352 387c1-9 14-8 20-4l-20 4zM474 402c-6-5-9-19 3-17-3 5-4 11-3 17zM433 390c1-6 7-2 11-2 0 5-9 7-11 2zM529 390l3 1-3 7 2 2c-3 2-6 2-8 0l6-10zM495 410c3-3 6-6 10-6-2 5-5 8-9 12-7 1-14-4-16-10 5-2 9 6 14 7l2-1-1-2zM278 419l7-8-2 6c7 3 5 11 10 15 6 4 15 3 18 10 9 0 16 5 23 9 6-2 12-3 16 2 2-2 5-3 7-2-4 5-12 9-14 1-8 4-16 1-22-4-14-4-28-9-38-20l1-6-6-3zM447 426c8-4 12 8 20 7 11 2-9 14-9 4l4-1c-6-1-9-8-15-10zM468 452c-6 8-27-2-12-6l-1 5 13 1zM317 489h5v3c-10 8 0 27 12 22v2c-15 11-27-17-17-27zM450 500c3-4 8-7 14-9l-13 15c-5-1-6-7-8-11l7 5zM451 524c2-2 5-3 8-3-1 3-5 8-8 3z"/></g></svg>