<svg width="1067" height="1067" viewBox="0 0 800 800" xmlns="http://www.w3.org/2000/svg"><path d="M351 132c8-4 11 8 10 14l3 1v4c1 8-8 17-14 23l4-1 1 3c-7 13-30 20-22 38 4-5 11-24 17-11l10-7 3 5c2-3 2-8 7-8-1 6-9 21-13 9l-5 6-8-6-5 13c2-3 5-5 8-6 0 7-8 11-14 10l-4-4-1-2-2 1c-8-13 6-26 6-40 2-8 5-17 3-26 3-2 5 0 6 3 2-7 4-15 10-19m-7 29c-3 0-4-2-5-4v13l-3 1 3 1c-3 8-8 16-9 25 6-7 12-13 19-18l-6 1c0-9 10-14 15-20-3-2-1-5 0-8h-7l2-4 3-13c-11 1-12 17-12 26z"/><path d="M315 164c3-3 9-7 9 1l3 2-3 8c7 7 1 19-7 23-1-7 8-10 6-17-7 0 1-13-10-12l1 11h-3c3 7 0 24-7 12v15h-7v-4h-5c1 3 0 5-1 7 1 17-23 4-30 16 13 3 11 17 22 22-1 3-1 6 1 9l-1 13c-1 7 2 13 9 15 5 9 4 20 4 29l3 3c-1 31-3 63-15 93 6-2 11-6 16-9 0-33 0-69 14-99-6 31-14 63-10 95 16-31 9-70 24-102 7-2 14-2 15-11l6 3c-1-3-3-6-3-10 5-1 9 6 12 1 6 0 11-3 17 0 3-9 12-24-4-25l-6 4 1-6c-9 4-10-7-3-11v8c5 0 9 2 14 3 13 4 6 18 2 26-2 6-7 10-11 3-5 0-10 1-14 4-1 5-5 6-9 7-3 6-12 4-16 7-10 33-11 69-20 102-10 5-18 13-28 16l-3 8h-3l1-5c-2 2-5 4-9 5-17 9-36 20-55 20-5 11-21 10-22 23-10 11 3 27-8 38 6 3 8 11 4 17-5 0-7-5-11-7l-1 13c-4-11-2-23 8-30-1-18 1-44 22-50 2-8 9-9 17-7 19-8 40-14 57-27 15-28 15-61 18-91-4-12-3-24-6-35-6-3-15-6-10-14-10-2 2-8 1-15l-6 1c3-10-5-16-5-24-4-4-15-4-11-12 4-7 15-7 22-8 11-3-1-9 2-15l5 2-1-6 11 2v3l4-16h3l4 5-2-16 3-2v-10l4-1 1 2M175 511l7 6c-1-4-3-11-7-6zM413 174c9 1 11 8 11 16 10-4 19 0 19 12h39c0 9 1 19 6 28 7 1 13 0 20-1l4 9c7-5 14-11 23-12l-1 7 12-3c4 3 8 3 13 3v3c-4 4-9 8-8 14-4 3-9 6-10 11h3l3-4c9 4 19 0 29 3 2-9 9-16 13-24 3-1 3 3 4 4l5-10h4v9l7-10c6 3 3 11 0 15 3 7 7-9 12-9 6 3 10-3 15-4 1 8 7-2 11-1-2 6-1 13 1 19-6 6 13 7 11 17-5-1-10-4-15-4 9 12-13 5-18 5 0 4 4 7 7 9 1 11 23 1 27 12l3 1 2 3 6 2-3 15c-3-1-6 1-9 3l-10-4-1 5c-4 0-9 0-14-2-5 9-15 0-19-6l-3 2c-8-1-13-8-18-14-4 2-9 2-14 2-2 3-5 5-8 5 2 17-20 4-25-4l-23 5-2 9h-3c0-17 19-14 30-17 5 5 11 10 19 11-2-3-4-7-4-11l10 4c1-11 16 0 21-10 3 4 8 5 12 8l3-2 3 5h4c-1 7 6 12 12 14 0-2 1-5 3-7 3 3 8 4 13 5-3-10 3-9 9-4-1-5 3-4 6-2-1-3 1-6 3-9-4-1-6-4-9-7-8-5-23 1-27-9l-3-2c-7-12 5-16 15-12 1-5 6-6 10-7l-9-3c3-6 4-11 0-17-2 3-5 7-9 7l1-8c-3 4-7 5-11 2-7 9-12 27-26 25 3-7 9-13 10-21l-5 4c-2-3-2-7-1-11-3 4-6 10-7 15h-3l-1-5c-6 4-8 12-8 19-11-4-22 0-33-3-3 5-9 7-12 1 5-10 13-17 18-27h-3c-3 4-7 9-13 9l3-9c-8 0-11 9-19 10 1-6 7-10 10-15-9 1-15 9-21 15-1-11-9-14-20-10-11-6-11-20-11-31l-31 2c-4 7-10-1-16-1-3 0-6 8-9 2 5-5 11-5 17-4l-5-13c-5 1-9 4-14 2l-2-11-6-3c-4 2-8 4-12 1-3 3-6 3-9 0-10 0-12 12-19 15-3-5 4-9 7-12 8-11 23 0 33-9m190 123c1 3 4 5 7 6-1-3-4-5-7-6z"/><path d="M390 203c4-10 14-9 21-14l-2 6 1 5 3 5-7 13c-4 1-13 10-15 2 6 0 13-3 14-10l2-1-3-2 2-3-2-6-4 5c-6-16-9 23-15 3l-2 11c-6 0-3-7-5-10l-5 25c-3-11 1-22 6-31l4 4 3-7h3l1 5zM459 216c11 0 20 9 20 19-6-6-9-17-20-16v-3zM415 228h4l-1 8c3-3 5-7 10-8v4l3-1c1 5 0 9-2 13l3-1 1 6c9 8-16 25-18 14l-6 13-5-4-1 8c-6 1-5-5-6-8-6 9-9 23-21 26-9 29-18 59-30 87 0 5-3 20-6 8 0 8 1 15 3 23h-3c-8-40-1-83 14-119-5 30-18 61-13 92 13-32 24-67 35-99l3 3c9-7 12-19 19-28 2 1 3 4 3 7 1-3 3-6 6-7l2 4c1-6 8-15 10-5 5-3 9-6 12-10-4 0-11-2-8-7v-4l3-1-3-2-2-3c-2 3-5 4-7 1l-2 4c-3-2-3-6-4-9-5 4-4 15-11 17 2-7 6-25 16-19l2-3zM303 230h4l-1 5h-3v-5zM450 237h3c-1 5 1 8 5 9l-4 13c12 0 2 14 2 20-9 2-16 9-25 12v-4c11-4 26-11 26-25-5 0-6 4-8 7h-4c2-7 8-13 10-21-6 0-5-6-5-11zM303 239c5 6 13 14 7 22 5 6 12 11 20 12v3c-11-1-21-9-25-19l4 1c3-8-10-10-6-19zM521 273c-4-3 0-5 3-6v8l-3-2zM488 290c2-3 4-6 8-6-2 10 7 18 15 22v3c-11-1-16-12-23-19z"/><path d="M463 291c3-2 6-5 10-5l-2 11c3-3 7-5 10-6l1 9c4-1 8-6 11-2-3 8-6 16-12 22 2 5 8 6 10 11l13-4c0-5-2-11 3-15 5 0 9 4 13 7l4-11c8 0 7 9 12 12 3-2 4-6 7-9 8 2 9 15 18 12 2-7 7 0 10 3-5 6 2 10 5 15l-7 7c4 3 8 6 7 12 6 1 0 9 0 14l7-3c1 5 0 10-2 15 5 1 10 0 14 2 0 6 2 11 7 16l-9 6-3-2-4 6-5-1v4c-5-1-8-7-14-4-8-7-13-24-25-23l1 4-4 2c7 6 11 18 0 22l-4-3-2 2c-3-1-6-4-8-7l-4 1c-4-4-2-15-10-10-1-6-1-12 1-18l-7-6c-9 10-9-7-4-13-7-4-13-11-21-14l-3 23c4 4 7 10 13 11-6 14 19 16 11 28-3 5 7 8 6 15l-5-1 3 9c-2 3-6 3-10 2l1 4-2 2c-7 0-12-2-14-10-9 1-6-13-8-18l-6 9c-8-14-2-30 2-44h3c-4 12-8 25-5 38 2-4 2-8 3-13l4-1 3 20 3-2 6 13 3-1c0-2 1-4 3-5 3 3 6 5 10 5 0-4-5-11 0-13-4-4-9-10-2-13-3-6-10-10-13-16l2-5c-4-1-7-4-9-7l-4 1c0-11 0-24 3-35l9-3c-5-3-2-9 2-11-8-6-20-16-17-26l7 13c4-6 8-12 10-19l-10 4-1-8-7 5-4-1 2-8c-4 2-8 5-13 5-2 2-4 3-7 3v-4c6 0 10-12 14-5m48 26l-3 10h7v3h-4c3 8 7 18 17 18 0-3-4-10 1-10l12 7c0-9 12 0 17 1-6-9 7-4 11-2 6-7-13-9-4-13-7-5-17-7-21-16-4 13-15 9-17-3-1 9-9 14-16 5m-23 24c7-2 14-5 20-9-7-3-18 1-20 9m15-3c-4 2-10 4-12 8 6 4 11 8 15 13l-3 4 2-1c2 5-4 8-4 13 6-3 9 3 14 3l-1 13c6 0 5 8 7 12l3-2 3 5-1-7c6 0 6 7 8 10 3 0 6 2 8 3 2-9-10-15-9-24-3-3-7-7-7-12l5 1c7-10-7-13-14-15l4-7c-4 3-9 3-14 2l1-4 5 2 8-4c-7-3-8-19-18-13m29 6c0 4-1 8-7 8l-2 8c9 2 17 8 12 19-10 3 5 12 9 7 15 1 18 25 32 23-1-8 6-3 9 0l4-6 4 3 4-2c-2-3-6-4-7-7 2-2 3-3 3-6h-17c-1-5 4-9 4-14l-8 3 2-14h-3c2-8 0-15-8-17l-1 3-15-6-1 4c-5 0-9-3-14-6zM374 323c6-11 13-22 24-29v3a74 74 0 0 0-26 40c7-6 12-17 23-17 8 6 1 17-1 24l7-1-2 14c2-2 6-4 9-2v17c2-2 2-9 7-8 4 5 3 12 7 16l3-10c3 3 6 5 10 5-2-4-5-7-6-12l4-1c-4-4-8-7-10-13l9 1 1-6c-9-4-13-14-24-14v-4c13-1 16 12 27 15l1 11-6 2c3 3 6 6 6 11l-3 2c8 5 2 17-7 10-2 15-12 2-13-6l-2 6c-10 2-8-10-9-16-3 3-5 10-9 5l2-18-5 5-3-2c0-10 8-18 6-27-27 9-29 42-36 65-10 25 17 39 36 46l3-2-2 7c9 8 29 9 24 26 4-1 5 0 5 4 20 13 23 38 29 59-2 12-10 23-12 35-7 23-26 41-48 49 1-5 6-7 10-9 20-9 35-30 37-52 7-12 15-27 4-39 4 9-5 13-12 15-9-5 0-16 8-14l1-3h4l-5-17-3 1-3-3c3-14-18-18-23-28 0-3 4 0 5 1 0-5 0-12-5-13-10-2-18-11-29-9v-3l8-2c-12-2-19-15-33-13 3-8-6-12-4-20 3-29 16-55 19-84l2 2m57 201c4 1 7-3 6-7-3 2-6 3-6 7zM338 305c3 11-4 26-5 38 7-11 5-26 11-38-4 28-11 56-11 85-1 6 1 14-4 18 0-19 4-39 3-58-4 20-8 41-7 62-4 0-6-4-5-8 5-33 9-67 18-99z"/><path d="M430 305c6 3 13 6 20 5l2-3 2 4c2 1 6 3 3 5-10-1-19-5-28-7l1-4zM401 316l4 4c7-6 15-1 22 1l-1-4c20 0 45 7 53 27-6 0-8-7-12-10 10 12 6 29 6 44h-3c-1-13 5-29-6-40-6-15-26-19-40-13-6-4-13-7-19-1l3 3c-6 8-10-6-7-11zM516 331c6-11 25-6 30 3-10-4-20-8-30-3z"/><path d="M420 339h5v4h-5v-4zM540 351c12 10 30 22 26 40-4-15-15-29-29-38l3-2zM320 372c4 17-5 43-26 42l2-3c19-3 20-25 24-39zM348 411c3-3 6-2 4 4h-3l-1-4zM315 416h5v4h-5v-4zM269 438c4-13 23-11 33-18 6 0 1 5-1 7-12-1-22 5-32 11zM330 420c3 2 6 4 10 1 4 6 8 2 12 0 1 13-24 8-22-1zM308 433c1-4 1-9 5-10-1 3 1 11-5 10zM354 432h3l4 7c-4 1-6-3-7-7zM396 450c5 0 12 4 13 10-3-4-14-3-13-10zM264 452h8l4 5 6-2v4c-4 2-10 2-12-3l-4 2-2-6zM197 467c8-3 9-14 19-14l1 3 5-1v3l-10 3v-3c-6 5-12 11-14 19l-1-10zM325 454c13 2-2 18-9 10-3-6 5-9 9-10zM223 463c1-13 29 2 11 2l-1-4-10 2zM391 475c-6 1-14-14-4-9l-1 2c3 2 7 3 5 7zM198 531c-6-13-1-33 13-40 1 6-6 9-8 14-6 7 0 19-5 26zM410 494h4l-3 12c-3-3-2-8-1-12zM235 499l4 2 2 3h-5c-3 0-2-3-1-5zM368 505h2l7 5c-3 7-18 4-11-4l3 5-1-6zM288 514c11 0 17 13 13 22l-13-3c0-6-7-16 0-19m0 4c0 5 2 8 7 8l-7-8m11 8c-3 4-7 5-11 2 2 4 7 5 11 4v-6zM172 531c0 10 11 16 9 26-1 8 14 15 8 22-3-9-12-15-10-25-3-8-11-14-7-23zM242 535l5-2-1 5h-2l-2-3zM185 541h2l1 17h3c3 6 5 15 9 21 9-6 9 7 12 12 4 12 21 12 25 24 11 13 29 9 43 16 14 5 29-4 42 4 6 3 12 1 18 2 16-11 37-10 53-22-8 16-32 13-46 22-9 8-23 3-33-1l3 4-1 9h-3c2-6-2-9-4-14-14 2-27 3-39-3-26 2-39-22-59-34-2 3 0 11-5 11-3-8 5-17-1-25-6-1-11-3-12-10h2c-1-5-6-9-8-15-3-5-1-12-2-18zM233 545c3-6 8-3 11 1v6c-6 0-12-1-16-5v-3l5 1m1 3h8c-2-2-6-3-8 0zM389 543c3 4 13 5 11 12-1 6 5 11 1 17-4 4-10 5-15 6l-2-2v-3l-1-4c3 0 5 3 6 5l11-7-3-9-6 2 1 2-6 4 2-6c-8-5 7-3 9-8l-11-3-1 4h-3c-1-6 4-7 7-10zM433 544c6 4-3 16-9 16l9-16zM341 554c0-5 3-5 3 0h-3zM354 567c-1-3-1-7 3-6 2 17-18 4-27 8l-2-4c8 1 17 0 26 2z"/><path d="M216 573h5c0 5-3 10 2 13v3c-7-2-7-10-7-16zM417 584c1-3 3-7 7-7-1 3-3 7-7 7zM403 592c2-3 3-6 7-6-3 15-23 18-34 25 2 4 2 9-2 12v-8l-2 6c-10 5-22-1-32 5v-3c20-13 44-17 63-31m-48 27c5 0 12 2 15-3l-4 1-2-3-9 5zM307 590c2-2 4-3 7-3v3l-7 3v-3zM266 588c10-1 22 5 22 16-2 8-20 10-16-1 3 6 12 4 13-2-11-2-26 5-24-12 3 0 5 2 4 6l4-2-3-2v-3m4 6l10 2c-2-4-7-6-10-2z"/><path d="M261 608c-3-3-7-13 0-13l-1 9 11-2c-2 4-6 4-10 6zM322 608c7 0 12-4 19-6v4c-6 1-16 10-19 2zM301 611c7 1 2 15 14 11v4h-9l-5-15z"/><g fill="#e2ce9a"><path d="M239 501c11-12 27-18 43-14 12-2 21 9 30 16v4l-34 6v-3h-3l5-4c0-7 7-7 12-8-5 0-10 0-14-2-4 6-14 4-13 13l-4 1v2h-22l6 11c-3 3-3 8-3 12l2 3h2l15-4-1 2c1 2 2 5 1 8-5 1-11 3-17 2-3-4-8-7-11-1l-5-1v3c4 4 10 5 16 5 4 0 8 3 10 5h4l1 4 8-2h6l2-3h-4l4-4-3-3c6-4 11-7 18-9h4l2 2c2-2 6-4 9-4l-1 6-3-1v3l3 1c-12 37-71 26-81-8 1-12 5-25 13-35h5l-2-3z"/><path d="M234 548c2-3 6-2 8 0h-8z"/></g><g fill="#d1ae5e"><path d="M278 496c4 2 9 2 14 2-5 1-12 1-12 8l-5 4h3v3l34-6v-3c19 13-1 29-8 43l-3-1v-3l3 1 1-6c-3 0-7 2-9 4l-2-2h-4c-7 2-12 5-18 9l3 3-4 4h4l-2 3a130 130 0 0 0-6 0l-8 2-1-4h-4c-2-2-6-5-10-5v-6c6 1 12-1 17-2 1-3 0-6-1-8l1-2-15 4 1-5-5 2c0-4 0-9 3-12l-6-11h22v-2l4-1c-1-9 9-7 13-13m10 18c-7 3 0 13 0 19l13 3c4-9-2-22-13-22z"/><path d="M288 518l7 8c-5 0-7-3-7-8z"/></g><g><path fill="#c08d2b" d="M299 526v6c-4 1-9 0-11-4 4 3 8 2 11-2z"/></g></svg>