<svg width="1067" height="1067" viewBox="0 0 800 800" xmlns="http://www.w3.org/2000/svg"><g fill="#020302"><path d="M474 117c7-2 1-13 10-13-3 12-1 23 2 35 12 1 13-12 22-16 8-3 15 14 4 14l3-4-5-8c-6 6-11 13-19 17-2 6 2 13 3 19l-6 1c-1-15-8-29-10-44l-4 2 1 6-3 1c1 5 3 10-1 14 6 6 6 15 12 21-4 9-5 16-13 21l-9 4-4-12c-4 7-4 17-12 21-4-6-2-13-2-20l-9 8c-3-11-15-24-23-9h-4c3-12 21-13 25-1 4 11 7-3 12-4 5 6-1 15 3 21 4-5 5-15 10-19l8 5-1 3c21-11 7-35-2-49l9 1c-2-3-6-5-6-9l7-1c-2-2-5-4-5-7l7 2zM521 129l7 2-1 6-5-2-4 20h-3c2-9 2-18 6-26z"/><path d="M510 138l3 1v2c-7 5-9 15-17 19 2-8 9-15 14-22zM376 143h3c1 6 4 11 6 17 1-3 3-5 6-4l3 16h6c-2 13-4 27-15 35-12-8-8 12-9 19h-3l-1-19c5-8 18-4 20-15l-4-2 7-12c-7-1-5-9-7-14-2 3-3 6-7 4l2-3-7-13c-4 4-7 11-4 17l-6 1 1 2c4 3 6 8 6 13l-6 1c3 5 2 10-3 13l7 5v28l-3-1c-1-10 4-24-7-30-6-3-1-8 3-6 2-5-2-9-3-13h8c0-6-5-10-8-14l3-2-1-5c6-4 10-10 13-18zM424 154c7-2 14-1 20 3 8-5 23-5 25 6-5-1-9-7-14-4-5-2-11 0-10 7-4 1-4-4-5-7-4-4-11-2-16-2v-3zM522 159l3-1 2 11 6-7c5 4 1 11 4 16 4-3 8-5 13-6 2 9 1 19-2 28 4-3 7 0 8 4 4-4 17-7 13 3-5 8-12 15-10 25l2 5 9-5c5 7 11 18 2 24l3 6-12 6 8-8c-2-2-8-1-8-5 8 0 13-5 11-13l-9 1v-2l4-4-10 5-2-7c-5 1-9 7-5 11l-5 1c1-16 13-29 19-43-6-1-10 3-13 8l-5-5-3-2c-2-9 3-18 2-28-5 0-8 3-12 5-2-3-3-8-3-12l-9 3-1-14zM411 184l3 1c-1 4-4 8-3 12l7-2c2 7-4 11-7 17h11c1 3-2 5-5 7l2 6-11 4 2 9h-10c2 4-3 15-8 9-3-7-11-7-17-10 0-4 2-6 4-9l-2-2c15-11 21-29 34-42m-25 38c0 5-2 9-4 14 6-1 11 3 14 9 1-4 3-8 1-12l10 3c3-5-4-7-7-9 3-4 13 1 14-5-7 0-10-6 0-6-14-1-3-11 1-17l-9 4 3-12c-10 9-15 22-23 31zM340 191c8 1 13 9 15 16l-7-5c0 5 3 12-5 11 8 9 6 28 24 26 3 21-8 42-22 58 4 7 2 16 2 23 5-6 10-19 21-14 4 9 4 23-3 31 4 8-2 12-10 10l-2 4-5 2c-12 16-21 34-29 52 20-16 32-40 51-57-14 20-31 41-47 59l-5 2-7 8 6-14c10-21 21-42 35-60l10 1-2-13 6 1c-1-4-7-5-6-11l7-2v-11l-8 1c0 4-2 9-4 13-3 3-6 6-7 10-11-3-1-18-3-26-1 7-8 7-10 1l4-5-2-3c17-13 28-35 27-57l-20-4 5-4c-3-6-8-9-13-12 0-5 6-1 8 0-3-6-7-10-9-16 4 0 7 3 11 5 0-7-3-13-6-20zM316 202c7 2 11-3 16-6-3 7-9 14-17 9l-3 3 5 13c-10 0-13-19-1-19z"/><path d="M354 208c10 1 14 9 13 18h-4c2-8-4-13-9-18zM468 233c2-6 3-20 12-20 2 7 5 14 5 21 3 1 5-5 8-5 1 7 2 14 0 21 12-2 3 15-1 20 3 2 4 6 4 9l9-6c8 12-3 24-11 32l7-1-1 5 5-8 11-2c-2 4-5 7-10 6-3 5-9 9-15 8l-6 3c3-13 20-20 18-35-5 0-8 3-10 7h-4l2-9-3-3c0-7 4-13 8-19l-2-3-1 4h-4l1-22c-2 3-3 8-8 7 4-8 0-16-4-23-8 6-6 16-7 24l-5 1-2-10h-2l1 28h-3l-5-5c-1 8 3 15 5 23-9-6-11-20-6-30l5 4c0-10-3-20 3-29l6 7zM322 258c4-5 3-14 10-17l2 3 3-3c3 9 25 16 17 24-2-4-4-8-8-10-7 6-12-3-14-9-5 3-4 13-10 17l-6-1c-1 11 7 21 8 31 11-9 0-29 15-35l-4 7 4 2c-3 9-15 20-6 29-1 4-7 2-10 1v-3c-1 0-5 0-4-3-1-11-7-21-10-32l4 1c2-6 1-12 5-17 3 5-1 13 4 15m14-13c1 4 3 9 8 9l-8-9zM353 297c11-16 17-36 24-53-3 19-10 40-24 53z"/><path d="M407 261l3-1 6 6c2-4 6-3 8 0 11 0 14 13 17 21 2 6 11 3 17 5 4 4 8 10 15 11 1-10-10-14-13-22h3c6 7 20 16 12 26-8 3-12-9-20-10-5-4-14 0-16-7-2-6-11-28-14-12h-4c0-4 1-9-2-12 0 4-3 6-7 4 4 14 14 24 22 35 8 4 20-3 24 7 5-7 12-1 15 5-5 1-8-2-9-6-4 6-9 3-13-1-7-1-15-1-22-3-9-14-20-28-22-46zM280 263c7-1 7 9 10 13 4 1 6-4 6-8h3c2 7 3 14 7 20l5-2 1 2c-3 4-1 6 4 4v3l-9 1c-4-6-8-12-9-19l-8 3 3 8h-8l2 8-11 8c2 2 4 2 7 3l-2 7c6-2 15-5 19 2l18-6 7 7-6-7v-3h3c5 6 13 10 11 19l-28 70-6 17 9-15c8-21 17-42 29-62-3 16-15 28-19 44 6-9 10-19 15-28 3 2 0 6-1 8l-20 39-16 25c-17 20-19 46-26 70-15 46-38 96-23 146 5 9 11 19 21 23 14 8 29 21 47 17 3 0 10-7 10-1h5v3c-28 9-54-7-74-23-19-22-20-54-14-81 7-28 14-57 25-84 2-3 2-7 3-11l5-20c3-11 5-23 13-33l4-5c7-8 5-20 10-30l28-65c-2-5-5-8-9-11l-21 16c2 2 10 0 9 6l-11 11 4-2 2 2-4 9 4-3h3l-1 5c3-2 6-6 10-7-2 6-11 20-16 10-1 3-3 5-6 5l4-14c-3 1-6 2-9 0 4-6 9-11 15-16-3-2-8-2-9-6 7-8 17-12 24-19l-2-3c-8 1-15 5-19 12l-3-1 1-7c-4-6-11 0-17 0l-1-7c-3-2-7-3-8-6 7-4 20-13 6-19v-3l12 2c-2-7-8-13-8-21zM553 268c3 6 8 2 13 1-2 5-9 5-14 6-3 10-6 21-3 32 7 4 9-9 16-9 3 3 5 7 4 12 9-1 15-11 24-11-1 8-8 13-13 19v2c4 0 7 1 9 4-2 8-11 4-17 7l9 8c-9 10-27 7-38 16-3 3-5 8-10 7 4-11 19-15 29-17l1-5 13 1c-2-4-10-6-9-12l13-4-2-2-4 2c-6-8 12-11 12-20-7 3-13 8-20 12l-3-2 2-12h-3c-6 5-9 12-14 18-6 0 1-7 1-10-6 0-10 6-15 8 0-6 7-9 11-12-2-14 2-27 8-39zM439 321c3-2 7-3 11-3l2 6c8-5 18-2 14 8l4-1c2 4 1 8 2 12 4 4-1 10-6 10l3-3-4-1 4-14-5 3c-3-4-1-9-1-13-6 1-16 7-16-4-3 2-6 2-8 0zM474 332c1-6 7-8 10-11-2 4-3 12-10 11zM524 330l7-6-3 10 3 2c-3 3-8 0-7-6zM391 330c7-4 15 11 4 7 3 8 9 14 14 20-15 15-18 42-20 63 12-13 13-33 27-45-10 18-17 38-29 55l-2-2c0-25 8-48 18-70 1-6-5-7-8-9-3-6-3-13-4-19z"/><path d="M385 355c-7-4-14-22-3-24l4 7c-7 3-6 9 0 14l7-2-5 7 1 4-9 2 5-8zM503 334l5-1v6h-5v-5zM431 363c3-5 4-12 10-15l-4 9c6-1 6 6 7 9 4-4 7-10 13-10l2 13c4 0 3-6 6-8l-3 12h-5c-2-4 0-11-4-14-13 11-10 30-19 43-6 11-9 23-15 34l-2 1c7-21 18-40 24-61 2-5-1-10-2-15-3 2-5 3-8 2zM327 411c16-17 28-39 45-56-12 22-29 40-44 60l-20 19c0-6 6-10 10-14l9-9zM467 360c4-7 9 2 0 0zM538 364c7-6 16-6 25-4-7 7 12 6 1 12 6 3 0 6-2 9l7 3v3c-8-2-15 1-23 3 1 4 3 8-1 10l-9-7-2 10c-4 0-6-5-7-8-1 3-2 7-6 8l-3-8-5 6c-5 1-9-3-14-5-11-1-18 15-28 11-3 4-5 8-5 13l13 2-9 5c-4-2-8-4-8-8-6 6-11 14-15 23h-3c4-11 13-20 20-29-5-4-2-10-1-14l-2 1-2 4h-4v-3c-3 0-5-2-5-5l10 1 1-3 4 1v15c9-8 21-11 31-16 6-3 14 9 17 0 2-7 8 0 11 3l1-7c4 1 5 5 6 8l3-8 7 1v-4h7l-1-3 12-1-5-3 2-3-4-1 1-3c3-1 7-1 9-4l-8 1 3-8-19 2z"/><path d="M375 409c9-14 6-33 19-44-6 15-13 31-13 48-1 27-20 48-27 73-9 24-22 46-32 69-14 26-20 58-46 75-7 3-11 13-19 13 3-6 8-9 13-14-16-11-21-34-13-51 9-26 13-53 23-78 8-26 20-51 28-78h2c-7 26-18 52-26 78-9 23-13 48-22 71-4 12-9 28-1 38 8-10 9-25 12-37 3-26 16-49 22-74 12-26 26-52 40-77 5-10 9-22 17-30l-15 35c-15 23-28 48-39 73-5 19-14 37-19 56-4 20-5 42-16 59 2 5 4 12 11 13 8-5 12-12 19-18-11-42 7-83 27-119l22-43c14-20 16-47 32-66 0 8-9 18-10 28l3-1-6 27h-4c0-9 3-17 7-25-9 7-8 23-15 33l5 7c4-6 16-9 14-19-5-7-2-19 7-22m-3 26c4-7 4-15 5-23-11 1-5 16-5 23m-9 14l-5-1-6 10c-4-1-9-2-12 1-22 45-56 90-45 143l5-7c23-53 51-104 72-158-5 2-7 7-9 12z"/><path d="M340 433c9-23 16-48 31-67-12 23-21 48-30 73-10 18-19 37-30 55-18 35-32 75-25 115-10-14-4-32-2-47 2-23 12-44 22-65 11-21 24-42 34-64zM526 370l8-4c-2 3-5 6-8 7v-3zM494 374h5v5h-3l-2-2v-3zM389 452c10-19 18-41 32-58-5 19-19 35-26 54-19 31-31 66-45 100-16 24-30 51-30 81 8 1 15-2 21-6-10-41 22-74 38-108 10-27 28-50 35-77l10 4c5-5 7 3 7 7 10-5 3-16-2-21 2-5 2-12 8-12-1 6-6 11-1 16l4-12c4 25-12 46-21 68-21 39-41 78-63 116-6 16-18 31-36 29 1 13 7 26 17 34 10-13 11-30 22-43 14-17 23-38 34-57-17 20-28 45-47 63-5 4-6 14-14 14 14-21 33-38 45-60 28-40 45-88 73-128 12 0 8 13 5 20 7 3 10 9 8 17l6-2 7 10 4 2 3 6 2-4c4 2 6 5 7 9 7-6 6-14 0-20l5-7c-5-2-9-5-5-11-8 1-8-7-7-12-4-1-8-2-11-5-4 1-9 3-12 0l1-7-4-3 6-9c6 2 3 7-1 8l4 3-2 6c9-4 15 2 22 5 4 0 8-2 10 3 3-5 6-2 8 2h5l-3-9 2-4c-7 1-8-4-5-8l-11-4 1-4h-11c0-5 6-7 9-11-4-1-9-2-13-5v-3l15 5-3 11 7-1c2 2 1 5 0 7l11 4-2 5c11 3 5 17 6 25-4-3-11-2-13-8-3 6-7 1-9-3-6 7 6 10 3 18 8 1 6 8 2 13 4 6 9 15 1 20-3 8-8 1-11-3-2 4-5 2-8-1-6 0-5-8-10-9l-2-4c-2 3-3 8-8 8 0-9 4-22-6-27-7-6 8-15-2-19-6 6-7 16-13 22-16 24-23 53-38 77-14 24-23 50-41 71-8 17-17 33-24 50h-3c4-11-6-18-10-27-15-35 5-72 22-102 15-33 26-68 45-99m37-5l-3 3c-3-2-8-1-10 3-11 23-24 45-34 69-16 30-43 60-35 96 18-27 31-57 48-85 11-27 30-50 38-79l-4-7z"/><path d="M444 410v27c-5-8-2-18 0-27zM342 532c8-18 18-36 28-53-17 48-57 88-62 141-3 15 2 30 4 44-11-16-8-38-5-56 4-29 21-52 35-76zM250 573c1 21-5 44 7 63-8-2-8-12-9-19-1-15-2-30 2-44zM276 650c4-11 12-21 19-31-4 11-11 22-19 31zM294 667c-3-17 1-34 8-48-2 16-9 32-5 48h-3z"/></g><g fill="#7bc73c"><path d="M257 384c10-1 20-1 29 3v3c4 3 7 7 10 12l-5 10c-9 1-15 14-22 2-8-2-9 8-6 13l3-2v3c9-1 17-7 26-3l-4 5-11 2 2 3c-3 2-6 3-9 1-1 5-6 8-11 10l1 2-4 1c3 3 0 7-5 7l-8 12c-7 1-13-2-19-4v3c-4-5-7-10-12-14 5-3 4-9 5-14 4-3 15-4 8-10 6-4 10-9 12-16l-8 5v-2c4-4 12-7 9-15 7-5 13-10 19-17m-27 46l5 1c-1 7-5 10-11 6-3 6-11 19-2 20 3-3 5-6 9-8l-1-2 10-7-2 4 6-3-2-3 3-1-1-3c14-2-12-13-14-4zM308 434l20-19 7 6c-14 25-28 51-40 77l-11 2c8-26 19-52 26-78l8-2c-4 4-10 8-10 14zM299 426l9-4c-8 27-20 52-28 78-2-3-6-4-10-6 7-24 9-50 26-70l3 2zM298 499c11-25 24-50 39-73l3 7c-10 22-23 43-34 64l-8 2zM260 463c-1-10 13-8 15 0l-5 20-11 4-10-8 3-2-3-2 8-8-2-3 5-1z"/></g><g fill="#94d35c"><path d="M286 387l15 5-1 2 2 1c-5 10-3 22-10 30-9-4-17 2-26 3v-3l-3 2c-3-5-2-15 6-13 7 12 13-1 22-2l5-10c-3-5-6-9-10-12v-3zM299 413l6-17 3 2-9 15zM296 424l16-25 5 4-6 14 7-8 5-2 4 4-9 9-8 2h-2l-9 4-3-2zM229 418l8-5c-2 7-6 12-12 16 7 6-4 7-8 10-1 5 0 11-5 14-6-13 1-35 17-37v2z"/><path d="M230 430c2-9 28 2 14 4l1 3-3 1 2 3-6 3 2-4-10 7 1 2c-4 2-6 5-9 8-9-1-1-14 2-20 6 4 10 1 11-6l-5-1zM311 494c11-18 20-37 30-55l1 8-22 43-9 4z"/></g><path fill="#5fb80a" d="M277 432l11-2c-8 10-10 22-13 33-2-8-16-10-15 0l-5 1 2 3-8 8 3 2-3 2 10 8 11-4c-1 4-1 8-3 11l-24-9c-9-3-9-16-19-18v-3c6 2 12 5 19 4l8-12c5 0 8-4 5-7l4-1-1-2c5-2 10-5 11-10 3 2 6 1 9-1l-2-3z"/></svg>