<svg width="1067" height="1067" viewBox="0 0 800 800" xmlns="http://www.w3.org/2000/svg"><g fill="#fbdb48"><path d="M389 231c7-5 16-7 17 4 16-13 38-2 48 13h-8l6 4 1 2-9-1 2 3-7 3v-2l-5 2-4-3 4-4-6-1 2-2-6-5-1 5h-1l-1-5-9 3v-3l-3 3-1-1 1-1v-2l-1-3-9 1v3l-6-2-5-4c0 3 1 7 3 9-5 5-14 6-16 14h-1l-14 15c1-8 7-15 9-23-2-7 3-14 10-13v-2l11-4-1-3m24 12l16 1v-3c-5 0-13-4-16 2m17 1c1 3 3 4 5 5l2-1v-3l-7-1zM464 272c2 7 2 23-9 22l-9 7-6-1 1 4c-15 3-30 9-44 15h-12l-2-6c4 0 5-3 7-6l2 1 7-4 2-5 4-1 7-7-3-3c2-1 4-2 7-1 6-1 13 2 19-4-2-3-5-4-8-4 6-7 15-4 22-4 2 13 20 12 15-3m-22 5c0 3 1 6 4 6 0-3-1-6-4-6m-25 21c1-2 4-4 3-7-4-1-7 4-3 7m-13 8l-1 7h3l1-7h-3z"/><path d="M360 283l6-9c0 4 1 8 4 11l-7-2c0 13 7 24 18 30v3c-6-4-12-9-17-15l-3-1c4-5 0-11-1-17z"/></g><path fill="#fef0ae" d="M388 238l5 4 6 2 10-1v2l-1 1 1 1 3-3v3l9-3 1 5h1l1-5 6 5-2 2 6 1-4 4-1 3 6 3-1-3 5-2v2l7-3 8 3-1-5-1-2 10 6 2 14c5 15-13 16-15 3-7 0-16-3-22 4 3 0 6 1 8 4-6 6-13 3-19 4-3-1-5 0-7 1l3 3-7 7-4 1-2 5-7 4-2-1c-2 3-3 6-7 6h-2c-11-6-18-17-18-30l7 2c-3-3-4-7-4-11l8-13h1c7-5 15-8 21-14h-5c-2-2-3-6-3-9m17 21h4v-3c-2 0-4 1-4 3m-25 9l6-2v-3c-3 0-6 1-6 5m35-3l-1 3c2 3 5 1 4-2l-3-1m40 1l5 9c4-5 0-9-5-9m-70 10l1 4 4-3-5-1m6 4v3h3l4-7-7 4m-23-1l1 3h3l1-5-5 2m33 7c-1 3-2 5-1 8 3-1 4-5 5-8h-4m-30 10l1 4c5-1 4-5-1-4m7 10c0 5 3 5 3 0h-3z"/><g fill="#030303"><path d="M234 252c6-8 18-13 28-11 33 16 48 53 79 71 5-7 7-14 11-21-2-10-11-13-20-14 1 11 5 22 9 32-8-8-12-21-12-32 1-7 9-2 13-3 6 6 16 13 11 22-9 17-15 37-8 56l-4-1 1-2c-18 5-36 11-48 26-6 6-10 15-18 18 11-17 26-32 44-41-52 2-105 28-156 6-13-3-16-22-5-29 28-8 55 11 83 4-24-5-48-10-71-21-6-3-6-10-8-16 36-4 73 10 109 8-19-12-42-27-38-52m3 2c-4 27 25 37 40 53 5 1 10 1 14 3l-2 3c-40-8-81-13-122-15 2 5 3 11 8 13 27 10 56 19 85 19 26-3 54-2 79 6-6-19-33-15-47-25 16 2 32 8 47 15l2-11c-33-17-48-56-81-72-8 1-19 4-23 11m-76 79c-14 10 2 26 14 26 32 10 67 5 98-5 21-3 43-3 63-10l5 2-2-6c-35-16-75-5-112-2-22-1-44-12-66-5zM399 241l9-1 1 3-10 1v-3zM413 243c3-6 11-2 16-2v3l-16-1zM430 244l7 1v3l-2 1c-2-1-4-2-5-5zM391 247h5c-6 6-14 9-21 14 2-8 11-9 16-14zM446 248h8c5 4 12 6 15 12l-7-2a416 416 0 0 0-16-10zM444 253l9 1 1 5-8-3-2-3zM405 259c0-2 2-3 4-3v3h-4zM430 256l4 3 1 3-6-3 1-3zM360 276l14-15-8 13-6 9-5 2 5-9z"/><path d="M267 263c15 11 29 24 43 36-16-10-31-22-43-36zM380 268c0-4 3-5 6-5v3l-6 2zM465 264c4 0 8 8 4 11l-4-11zM415 265l3 1c1 3-2 5-4 2l1-3zM475 265c12 11 14 29 13 45l-3-1c1-14-1-30-11-42l1-2zM455 266c5 0 9 4 5 9l-5-9zM385 276l5 1-4 3-1-4zM391 280l7-4-4 7h-3v-3zM368 279l5-2-1 5h-3l-1-3zM442 277c3 0 4 3 4 6-3 0-4-3-4-6zM517 301c23-11 53-28 76-10 5 2 1 5-1 8l2 4c-24 11-52 15-77 23 21 1 41 3 62 3 7-1 14 4 14 12 15-1 31 3 45 9 6 6-2 10-6 14-4 6-11 8-16 12 9 5 24 5 31 15 5 7-2 15-3 22l-4 2c2 2 5 6 0 7-27 10-53-5-79-13-26-6-51-18-70-36-7-5-14-2-21 1v-3c9-12 25-1 32 8 21 16 47 25 73 31 20 7 42 15 63 9l-3-3c3-7 15-16 7-25-28-17-61-16-91-25-24-2-49-12-73-2l3-10h3l-2 6c44-12 88 14 132 13l3-2c10-2 12-13 20-17-16-11-37-10-56-11-27-3-54 4-80 1-7 0-17-3-18 6h-3c4-10 2-20 3-30 24 8 47-1 71-6 13-7 33-4 38-21-18-12-41-7-58 3-16 10-34 15-51 23 7-10 23-11 34-18m-30 23l-1 17c35 4 70-5 105 0-2-12-17-9-26-9-26-2-53-1-78-8zM401 286h4c-1 3-2 7-5 8-1-3 0-5 1-8zM417 298c-4-3-1-8 3-7 1 3-2 5-3 7zM469 297c-3-6 3-6 3 0h-3zM371 296c5-1 6 3 1 4l-1-4zM459 297h5v4l-5 1v-5zM440 300l6 1v2l-5 1-1-4zM353 303h3c0 2-1 4-3 4v-4zM378 306h3c0 5-3 5-3 0zM404 306h3l-1 7h-3l1-7zM370 310h3v5h-3v-5zM381 313h2l2 6v1c-2 0-4-2-4-4v-3zM360 317h3v4c-2-1-3-2-3-4zM448 318c9 1-1 11 0 0zM431 327c-1-8 8 1 0 0zM362 334c-4-1-5-4 0-4v4zM355 341c-4-2-4-9 1-10-2 3-2 7-1 10z"/><path d="M477 347c-3-2-3-10 2-9l-2 9zM445 341c3 0 4 2 4 5l-4-2v-3zM375 343l4 1v3h-4v-4zM347 349c0-4 2-4 5-4l-2 4h-3zM429 349l3-1 1 5c-3 0-4-2-4-4zM357 351h4l1 7c-5 0-5-4-5-7zM320 372c12-1 16-12 25-18 4 9 13 14 21 20h2l-1-4 6 5c-15 13-22 33-37 47-7 11-21 25-14 38 11 1 22 3 32-1-8 9-23 4-34 3-12-21 15-39 25-56l19-26c-9 1-17 7-24 13-12 7-28 11-37 22-15 24-32 50-58 64-9 3-21-1-20-12 1-12 12-18 20-25-16 1-32 11-48 3-6-2-17-8-11-15 23-10 49-16 72-26l62-32m14-3l18-1c-5-9-14-11-18 1m-51 25c-30 19-66 25-96 41 27 22 61 2 89-8 27-18 55-34 83-50 10-2-3-8-7-6-26-3-47 12-69 23m-48 61c-12 7-6 29 9 21 23-13 40-35 53-58-19 15-47 16-62 37zM410 356h3c4 7-2 7-3 0zM474 357h4c0 2-2 3-4 3v-3zM400 367l4 1-1 3h-3v-4zM380 371l2-1 4 3 6-2c-1 7-10 6-12 0zM452 372h4v4h-4v-4zM465 379c0-3 2-5 5-5l-1 5h-4zM419 377l11-2v3l-11 2v-3zM376 377c6 3 12 2 18 4-6 2-16 4-18-4zM399 379c9-1 18 7 26 4l2 3c5-4 10 0 13 3-10 19-12 41-19 62l-28 80c-9 24-11 58-36 71-1-6-6-10-12-13 13-40 36-78 47-120-15-2-17-21-16-32 7-18 14-38 27-52-10 24-37 56-16 81 23 6 38-20 35-40-13 2-19 17-31 20 10-8 18-21 32-23 1-11-2-23-1-35-8-3-17-7-26-3l-2-1v-3h5v-2m30 8c-2 3-5 7-4 11l7-11h-3m-5 18l3 17c-1-12 5-22 8-32-6 3-6 11-11 15m-10 56l-6 5c-16 43-26 89-47 130 10-9 16-21 20-34 10-34 22-67 33-101m-17 22c-10 30-25 58-31 89 0 8-17 17-7 23 20-41 31-86 47-128-7 2-6 11-9 16m-48 100c2 1 3 4 4 6 4-10 11-18 13-28 8-32 25-60 31-92-15 38-29 77-48 114z"/><path d="M451 383c20-7 41 5 58 14 17 7 33 16 49 24 13 7 30 8 39 19-1 8-7 14-12 18 17 7 14 29 5 40-39 8-65-29-91-51 6 11 12 23 14 35 2 9 12 15 10 25-3 7-14 8-21 5-1 5-8 8-11 3-36-32-43-82-50-128l-3-1v-3l7 1c-2 16 2 32 7 47 3 31 19 60 40 82 3 5 8-1 9-4 7 2 17 3 20-4-3-10-12-18-12-29-8-24-22-46-39-66-8-8-12-21-23-26-2 0 0-2 1-3l3 2m10 0c21 29 53 47 83 64 11 4 22 11 34 11 2-4 6-6 9-8 0-5 5-6 6-10-10-8-23-10-34-15-32-15-63-37-98-42m-8 1c21 22 34 51 59 70 18 23 44 46 75 42 6-11 12-27-3-36-13 3-25-4-37-9-35-16-66-42-94-67zM372 386h3c-7 15-15 30-26 43 6-15 15-29 23-43zM590 394c12 3 29 3 38 12-13-3-28-4-38-12zM355 463c16-20 19-47 36-66-13 21-17 50-36 66z"/><path d="M463 418c14 20 20 46 35 66h-3c-12-21-24-43-32-66z"/></g></svg>