<svg width="1067" height="1067" viewBox="0 0 800 800" xmlns="http://www.w3.org/2000/svg"><g fill="#020101"><path d="M411 195c4-6 12-8 19-11 12 1 22 22 10 29-15-9-24 9-31 20-1 48 26 93 59 127 12 14 24 28 37 40 12-8 25-9 39-7 27-3 53 21 55 48 1 34-7 77-44 90-19 5-41 7-58-3l-23-20c-15-15-17-37-18-58 2-7 6-13 10-19 5-6 12-10 19-13l-1-4c4-3 18-8 10-14-42-40-87-87-91-148-3-17 7-33 10-49-26 26-65 25-95 42 0 16-10 30-14 46-5 2-6 11-12 9-1 4-7 6-10 8l-3-2-2 3h-3c10-15 17-31 18-49-12 1-10 15-17 21l5-15c-25 8-31 37-35 60 3-5 10-5 13-10l4 1 1-4 10-5 1 3c-11 6-20 13-30 20l-2-2c-13 15-35 22-39 43l-4-1-2 3-4-2c-6 4-4 17-10 19l-2-32 1-37c-7-4 2-10 4-14l-5-2c3-6 8-9 12-15l-5-1c1-7 9-9 14-13l-4-3c1-4 5-4 9-5l-1-5c9-4 13-13 22-17 1-3 2-5 5-5 23-7 49-17 70-3-19-6-40-5-59 2l-2 3c14-2 27 3 40 3-16 5-32-8-48 2 1-3 3-4 6-5l-9 2 1 4-8 2 1 3-9 5 2 3-9 3h8l-1 2 18-3c-17 2-30 12-42 22 13 2-3 11-7 17 10-2 1 9-1 13l3 2-3 9h4l-4 18c2 3 1 6-1 9 2 6 0 13 4 19 5-18 13-34 25-49-9 3-14 10-21 15 6-14 23-15 32-26 5-6 7-14 12-20-14 2-30 3-39 15 5-15 25-13 38-16 23-14 39-37 64-48 35-23 82-21 113-50m16-7c6 4 8 11 12 16 5-7-10-12-3-15-3-1-6-2-9-1m-8 5c1 3 0 6-1 9l3-2 1 2-2 4 6-2-5-8c6 1 8 9 14 9-1-6-5-12-10-15l-6 3m-61 31c-33 9-66 22-91 46 11-5 22-11 31-20 17-8 34-17 53-21 20-4 40-10 55-25-16 7-30 18-48 20m59-15l-5 13 12-13h-7m-11 25c-4 43 16 85 44 116 15 20 36 35 51 54 0 6 1 10 7 6-10-17-27-27-37-44-36-34-64-81-64-132h-1m-100 15c1 5 5 14-1 17l-1-14c-6 2-12 7-11 14 0 14-6 26-13 38l5-4 3 2 5-7 3 2c1-4 2-10 7-8 1-15 14-27 11-43l-8 3m-64 40l1 3c-7 2-10 9-13 15 9-7 15-16 22-25l-10 7m-53 85c2-2 4-5 7-5l2-2 4 1c1-5 3-11 6-15 17-6 11-26 20-36-2 7-6 15-2 22 4-6 10-8 14-14l3 1c1-15 7-28 12-42-23 29-57 52-66 90m318 28l5 10h16c-2 5-8 2-12 3-17-2-33 3-45 15h1c-8 6-12 15-13 24 1 20 4 41 20 55h1l17 14 3 2c16 10 37 8 54 3 36-14 45-59 40-94-9-37-57-49-87-32m-18 13c4-1 9-2 10-7l-10 7z"/><path d="M363 287c10-24 29-44 43-65-1 6-4 11-8 16-34 39-49 89-65 136-11 28-15 59-8 88h4c4-9-1-18-1-27-1-46 14-91 35-131 10-23 24-44 39-63-7 21-26 36-33 57-26 50-47 106-35 163 17 2 38-4 51 11 21 19 37 50 24 78-10 37-54 46-86 41-47 6-94-45-74-90 11-28 45-45 75-39-10-22-5-47 0-69 10-36 24-72 39-106m-64 178c-26 6-50 28-51 56-1 23 15 43 32 56 27 15 60 14 89 7 18-5 34-18 37-37 13-31-9-66-37-81-23-3-47-1-70-1zM246 267c5-2 14-4 19 0-6 2-13 0-19 0zM540 435c6-3 16 4 17 11-5-5-11-9-17-11zM535 442h4v3h-4v-3zM534 447c5 5 5 13 11 17-9 1-10-11-11-17zM556 452h3l1 6-4-2v-4zM557 459c7 8-5 11 0 0zM550 469h6l-1 3h-1l-4 2v-5z"/><path d="M351 493c3-5 9-8 15-8v3c-21 1-5 13 3 18 4 0 9 0 10 5-12 2-21-10-28-18zM370 487l5 5c-3 0-5-2-5-5zM375 493l3-1c4 4 7 8 8 14-4-1-5-5-6-9l-5-4zM384 512c3 2 2 8-2 5l2-5zM327 579c3 0 9 4 4 5-4 4-11-4-4-5z"/></g><g fill="#e38c8c"><path d="M459 454c1-9 5-18 13-24 28-1 55 18 62 46-11-6-19-16-31-20l1-5c-6 5-15 1-22-1v2l3 1c-6 8-17 5-24-1l-2 2z"/><path d="M499 467c3-10 12-3 19-1 3 7 12 12 15 19-9 3-16-7-25-10l-1 2-12-4-2-2 2-6 4 2zM418 473c-5-2-1-8 2-3h7l1 2 1-2 1 1c8-2 8 8 9 13l-4-3-4 3-8-2-2 7-4-1 1-5-3-2 2-2-2-4 3-2zM419 502h5v2l3 1c9 9 18 17 30 23l3-6c11-1 21 0 31 5l-1 5c-27 15-59-5-71-30z"/></g><g fill="#d74a4f"><path d="M414 465c12-17 30-32 52-34-4 6-8 12-10 19l-8-5 1 15c-12 3-15 22 0 22l2 3 3-3c2 4 3 9-1 12-4-1-8-3-13-2l-8-5-3 3 4 9-3 1-1 3 7-3-3 8c4 9 18 4 19 13l2-4 2 3 5-5h6l-1-2-3-1 1-5 10 1 23 20-7 4 1-5c-10-5-20-6-31-5l-3 6c-12-6-21-14-30-23l-3-1v-2h-5c-4-12-8-24-5-37m4 8l-3 2 2 4-2 2 3 2-1 5 4 1 2-7 8 2 4-3 4 3c-1-5-1-15-9-13l-1-1-1 2-1-2h-7c-3-5-7 1-2 3z"/><path d="M480 509h12l2 6h15v-3h5c-2 6-11 5-14 10h-3v1l-17-14z"/></g><g fill="#c40b11"><path d="M448 445l8 5c1 21 3 43 18 58l-10-1-1 5 3 1 1 2h-6l-5 5-2-3-2 4c-1-9-15-4-19-13l3-8-7 3 1-3 3-1-4-9 3-3 8 5c5-1 9 1 13 2 4-3 3-8 1-12l-3 3-2-3c-15 0-12-19 0-22l-1-15z"/><path d="M482 450c7 2 16 6 22 1l-1 5c12 4 20 14 31 20 3 10 6 21 0 30-8 11-23 11-34 19l-3-2v-1h3c3-5 12-4 14-10h-5v3h-15l-2-6h-13c-16-14-19-35-20-55l2-2c7 6 18 9 24 1l-3-1v-2m17 17l-4-2-2 6 2 2 12 4 1-2c9 3 16 13 25 10-3-7-12-12-15-19-7-2-16-9-19 1z"/></g></svg>