<svg width="1067" height="1067" viewBox="0 0 800 800" xmlns="http://www.w3.org/2000/svg"><g fill="#0d0b0c"><path d="M525 148c8 1 15 3 23 1 0 9-5 15-9 22-4 14 4 28 3 42 5 47-11 92-23 136 6 5 10 19 2 25 14 39-9 82-40 105-24 34-65 46-98 69-36 28-76 64-127 56-11-2-32-10-25-25l28-18c5-21 23-33 38-47 14-17 26-36 41-52l7-8c12-10 20-23 28-36 6-6 13-12 18-19 8-7 13-17 20-25l4-4c12-19 33-27 55-25-7-6 0-15 9-11 16 6 30-9 34-24 11-34 22-70 14-106-8-18-5-38-2-56m3 5c0 6-2 12-3 17 6-3 7-11 12-14 1 8-8 12-9 19l6 24c6 15 3 31 4 46 7-25-5-50-3-75 3-6 8-10 8-17h-15m-3 29c4 18 10 37 10 56 3-19-3-39-10-56m9 58c-7 30-10 62-27 89-2 5-12 5-12 11 11 3 15-10 22-14-2 19-22 17-36 18 0-2 2-3 4-5-5-1-9-3-14-1 12 15 36 15 48 31 7-2 0-11-2-15-5-19 13-34 10-53-4 7-4 17-11 23 10-27 21-55 18-84m-5 54c5-4 5-11 6-17-4 5-4 11-6 17m-110 78l-8 7-6 9h-1c-4 8-11 14-17 21l-4 4c-13 14-22 32-36 45l-5 5c-22 19-32 49-56 66-14 10-21 25-29 40l-3-2c-5 8-16 9-21 17 4 15 23 15 35 17 38 0 70-20 97-44 36-30 86-43 115-81 24-18 39-46 42-75-1-12-1-26-11-33-11-7-22-14-34-19-21 0-48 1-58 23z"/><path d="M515 338v4c-2 2-12 6-6 10 2 1 11 4 6 6-5-2-10-6-11-12l11-8zM432 385c0-17 18-33 34-22 10 10 31 8 36 23 0 31-37 36-56 53-29 31-64 55-99 79-7 14-17 27-30 37-10 12-27 10-38 20-5 2-8 7-13 7 1-14 18-15 26-24 13-9 19-24 29-35l26-21c9-8 11-21 18-31 3-1 5-3 5-6 12-12 20-28 33-39 12-9 26-20 27-36l2-5m19-22c-11 2-14 14-17 23 0 19-15 32-29 43-8 6-15 13-19 22-5 7-11 12-14 19-13 11-12 31-29 39-23 13-32 40-54 55 25-1 44-25 53-46 33-25 69-45 97-76 17-18 47-23 59-46 6-12-7-20-18-22-11-1-17-15-29-11M273 574c4 0 7-3 9-6-3 1-7 3-9 6z"/></g><g fill="#fca799"><path d="M340 373c12-12 30-17 46-12l-6 1 1 5-1 2 3 3-5 1c0 4-4 3-8 3l-1 1c-4 2-8 2-12 1v2h-3c1-10-10-1-14-7z"/><path d="M386 361c11-5 21 3 29 9l-4 4c-8-1-16 1-24-3l2-2-5-7 2-1zM411 379l15 3 1 6c-7 2-15 2-22 0l6-9zM313 429c1-15 5-31 15-43l1 1c-1 4-1 7 3 9l-3 1c0 5 4 9 9 9 0 4-2 8-4 11l3 2-2 2 2 2 4 3c2 2 5 3 9 4 4-10 12 7 1 6l-1 2-18 3v3h3l9 3v7h1l-7 8c-9-11-22-19-25-33zM404 442l6-2 4 8c-7 16-25 22-42 22 3-7 9-12 14-19 7-1 14-6 21-7l1-1-4-1zM342 463l5-5 24 4-1 3c0 3-2 5-5 6l-23-8z"/></g><g fill="#fd6f5c"><path d="M380 362l6-1-2 1 5 7-2 2c8 4 16 2 24 3-7 8-12 18-20 25-3-3-7-5-12-7l2-1-7-5 7-1 3 1 4-5-4-5c-8 4-16 10-16 19-5 3-11 2-16 1v4l-10 2 1 6c-4 4-6 9-6 15l-2-2 2-2-3-2c2-3 4-7 4-11-5 0-9-4-9-9l3-1c-4-2-4-5-3-9l-1-1c3-5 7-9 12-13 4 6 15-3 14 7h3v-2c4 1 8 1 12-1l1-1c4 0 8 1 8-3l5-1-3-3 1-2-1-5zM411 379l8-7 13 13-2 5c-9 1-17 2-26 1l1 5 14 4 1 3c-3 2-7 3-11 3v3c-2-1-3-3-4-6l-6 6-3-2-1 2-2 1c0 6-4 3-6-1 6-7 13-13 17-21h1c7 2 15 2 22 0l-1-6-15-3z"/><path d="M383 413c4 3 9 5 14 2 3 3 3 8 6 11-13 11-21 27-33 39l1-3-24-4c14-13 23-31 36-45zM361 417l6 3 3-3 3 1c-8 13-16 26-28 36h-1v-7l-9-3h-3v-3l18-3 1-2c11 1 3-16-1-6-4-1-7-2-9-4l9-1-1-2c4-2 8-2 13-3l-1-3zM417 423c2-2 5-4 9-4v5c-3 2-6 5-8 9l2 3-6 12-4-8-6 2 4 1-1 1c-7 1-14 6-21 7 4-9 11-16 19-22l4 2c5-3 10-5 14-9l-6 1z"/></g><g fill="#fe3121"><path d="M368 395c0-9 8-15 16-19l4 5-4 5-3-1-7 1 7 5-2 1c5 2 9 4 12 7-5 7-12 13-18 19l-3-1-3 3-6-3 1 3c-5 1-9 1-13 3l1 2-9 1-4-3c0-6 2-11 6-15l-1-6 10-2v-4c5 1 11 2 16-1zM434 386c15 18-4 36-14 50l-2-3c2-4 5-7 8-9v-5c-4 0-7 2-9 4l6-1c-4 4-9 6-14 9l-4-2c14-11 29-24 29-43z"/></g><path fill="#fd1409" d="M404 391c9 1 17 0 26-1-1 16-15 27-27 36-3-3-3-8-6-11-5 3-10 1-14-2l4-4c2 4 6 7 6 1l2-1 1-2 3 2 6-6c1 3 2 5 4 6v-3c4 0 8-1 11-3l-1-3-14-4-1-5z"/></svg>