<svg width="1067" height="1067" viewBox="0 0 800 800" xmlns="http://www.w3.org/2000/svg"><g fill="#030302"><path d="M329 208c24-7 49-6 72 4 38 12 71 36 99 65 52 43 88 105 103 171 2 9-2 17-7 24h-3c5-8 7-18 5-28-13-51-39-101-76-139-32-32-65-65-108-82-26-11-55-18-83-10-17 9-36 18-47 35-15 22-37 41-44 68-15 42-9 88 2 130l21 48c4 11 8 22 10 33 5 24 30 48 55 37-1 10-14 5-21 8-19-8-36-25-38-46-1-12-8-23-12-34-14-29-25-60-29-92-3-28-2-56 7-83 10-31 34-54 53-80 10-14 27-20 41-29z"/><path d="M364 217h12c-2 4-8 2-12 3v-3zM328 224c3-6 11-5 17-4l-17 4zM382 221c4-3 13-1 15 4l-15-4zM414 231c8 1 15 7 21 12-7-2-16-6-21-12zM284 269c1-14 12-34 25-36-11 10-16 25-25 36zM363 240c20-14 45 3 59 17 15 2 28 14 33 28-11-9-19-26-36-25 2 26 11 50 14 75-8-22-12-46-15-70 0-14-15-17-24-24s-21-3-31-1z"/><path d="M315 270c-5-27 27-39 48-33-6 3 1 9 3 12 15 33 48 54 64 86-9-4-10-17-18-23-20-22-41-44-54-71-20-7-42 8-40 29h-3zM450 252c7 4 16 9 21 16-8-4-16-8-21-16zM400 255c9 13 16 30 21 45-10-13-16-30-21-45z"/><path d="M320 272c13 0 20 13 30 19 17 20 43 34 63 50-37-14-60-49-93-69zM356 272c14 11 31 20 42 35-14-11-28-23-43-33l1-2zM313 274l5 1c-18 14-2 45 16 52-23-1-36-37-21-53zM283 278h4c-2 18 7 33 12 49 9 22 24 42 41 59 2 2 5 5 5 8-3 0-6-2-8-4-17-20-34-41-43-66-5-15-13-29-11-46zM435 278c4 6 1 15 2 22h-3c0-7-1-15 1-22zM486 282h3c1 4-2 6-4 3l1-3zM460 285c12 3 21 14 26 25 14 3 24 16 28 29 1 7 9 7 13 12 13 9 16 26 18 40-7-2-13-7-21-7-19-2-38-11-56-4-2 5 2 12 4 17 8 23 16 47 28 68l-2 1c-15-26-23-55-35-82-5-7-12-9-20-5-4-6-8-17-18-14-15 11-28 24-46 28 16-8 30-19 44-29 5-7-1-14-7-17l2-2c7 4 13-2 20-4l-1 2-11 6 3 12c7 1 12 7 15 14 5-2 9-3 14-1 0-5-3-10 1-14-2-3-4-5-4-9h3c9 7 0 17 6 25 26-4 52 2 77 8-2-15-10-34-28-36-17 3-35 1-51 7 13-11 33-6 50-11-4-15-14-29-30-34-6 16-16 30-28 41-9 0-16-7-16-15 7-16 9-33 17-48l2-1c-5 16-13 32-14 49-2 5 4 13 10 10 13-9 21-24 28-38-1-12-16-14-21-23z"/><path d="M455 327c2-9 6-19 12-26-1 10-6 19-12 26zM505 301c6 1 8 7 12 11l-2 2c-3-5-8-8-10-13zM332 306c18 12 40 19 54 36-7-2-11-8-16-11-11-11-30-11-38-25zM406 323l7 1v3c-4 1-7-1-7-4zM487 331c1-4 5-4 8-4-1 3-5 4-8 4zM339 358c-4-8-11-22-2-28-3 23 15 45 34 56-15-1-23-17-32-28zM345 339c21 4 43 10 64 13-14 4-29 16-44 11 12-2 24-5 35-10-18-5-38-6-55-14zM539 341c9 4 12 14 16 22l-3 1c-4-8-10-15-13-23zM475 359l26-3-1 2c-8 3-16 4-24 4l-1-3zM513 369c5 0 12-2 14 4h-14v-4zM573 398c-6-2-12-13-8-19l8 19zM444 381h3c-3 20-10 39-14 59-3-19 11-39 11-59zM472 381c32 17 57 46 87 67 6-20-3-40-12-57 21 18 21 54 9 75 0-5 4-12-1-17-28-23-57-44-83-68zM412 419c6-12 11-25 19-36-6 12-9 27-19 36z"/><path d="M509 386c14 9 29 17 39 31l-2 1c-12-11-25-19-37-29v-3zM374 394l2 1c2 12 11 21 17 32 9 11 26 9 36 17-12-2-24-5-35-11-9-12-19-24-20-39zM397 411l11-13c0 6-5 12-11 13zM348 404c5 3 11 4 13 9-5-1-12-3-13-9zM449 418c2-4 1-10 5-13l-1 13h-4zM486 408c10 15 23 28 30 45h-3c-8-16-23-27-27-45zM580 417c11 12 10 31 7 45l-4 1c5-16 2-31-3-46zM463 419c5 10 3 22 5 32l-4 1-1-33zM364 423c22 22 43 47 74 57 35 10 69 28 106 22l-1 2c-26 7-51-3-76-10l1 3-5 1 2-5c-23-10-50-15-68-34-12-11-27-21-33-36zM519 432c3 1 7 2 7 5l-7-2v-3z"/><path d="M464 470c-12-5-30-10-33-25 14 16 38 29 60 27-5 9-19 1-27-2zM531 446c5 5 14 11 15 18-7-2-13-11-15-18zM379 462l5-1v5l-5-1v-3zM532 480c9-2 16-9 24-13-12 22-50 23-63 3 12 5 25 14 39 10zM395 474c-13 5-2-14 0 0zM590 474h3c-4 24-25 43-46 53l-1-3c19-12 39-27 44-50z"/><path d="M579 476c3 12-9 25-21 27l-2-2c12-4 20-13 23-25zM410 481l5 2-1 4c-2-1-6-2-4-6zM396 497l3-5 2 6-5-1zM425 497l5-3 1 6c-3 1-6 0-6-3zM442 501h5v5l-6-2 1-3zM455 506l6-3v6c-3 0-5-1-6-3zM496 506l6 1c-1 2-2 5-6 3v-4zM420 510c1-3 3-3 6-2v4c-3 1-5 1-6-2zM475 508h3l1 6h-5l1-6zM556 509l6-1v4l-4 1-2-4zM455 515c0-3 2-5 5-5l1 5h-6zM520 513l3 2-1 4h-4l2-6zM439 516h4v5h-4v-5zM472 521c-4-2-3-6 2-6l1 4-3 2zM422 520c2-2 4-3 7-3v3l-2 2-5-2zM489 520c2-1 3-3 6-3l-1 6h-4l-1-3zM543 522c0-4 1-7 6-5l-1 5h-5zM449 525c-7-9 11-5 0 0zM481 520h5l-1 5h-4v-5zM509 526c1-4 4-5 7-2l-1 3-6-1zM530 522h5l-1 5c-2-1-4-2-4-5zM463 526c2-3 7-2 6 3-3 0-5-1-6-3zM409 529c1-4 4-5 6-1l-3 3-3-2zM446 526l4 2v3h-5l1-5zM515 543c8-9 19-11 29-16-57 50-143 55-214 37l1-4c37 7 76 11 113 6l1-5 3 1-1 3c22-4 44-8 63-20l-3-1v-4c3 0 5 2 8 3zM482 534c0-3 1-5 3-7l3 6-6 1zM502 528h3l-1 5h-4v-3l2-2zM460 531c11 4-7 8 0 0zM361 537c0-4 2-7 5-3l-1 3h-4zM423 532l3 1v4h-5l2-5zM393 541l5-2c0 3-2 4-4 5l-1-3z"/><path d="M448 545c1-7 6-5 3 1l-3-1zM493 544c1-3 4-3 6-2 0 2-2 4-4 5l-2-3zM478 542l5 2-7 2 2-4zM439 543c4 1 3 4 1 6h-3l2-6zM420 547l5-2 1 5-5 1-1-4zM353 548l5-1v3l-2 2h-3v-4zM463 548c7-1 5 6-1 4l1-4zM481 548h3l2 6h-5v-6zM329 553c0-3 2-4 5-4l-1 4h-4zM344 552h4c0 3-1 6-5 6l1-6zM378 554l4-2 1 4-4 1-1-3zM452 553l4 1c-1 2-2 4-4 4v-5zM317 556h5c1 6-7 6-5 0zM366 556h3v5h-5v-3l2-2zM404 562c0-3 2-5 5-5l1 3-6 2zM308 559l4-1 1 5c-5 3-5-1-5-4zM384 557l3 5-5 1 2-6zM432 559h4l-1 5-3-1v-4zM416 560c4 0 3 3 3 6h-4l1-6zM394 566l4-6 2 4-6 2z"/></g><g fill="#f4f164"><path d="M240 316c18-4 38-3 54 8 9 25 26 46 43 66 1 9-5 17-5 27l-2-4 3 13 2 3c-6-1-13 0-19 2l7 5h-7c-3 3-6 3-10 1v4l-2-5-9 3 2-4-5-2 4-5-6 2 6-7c-4 0-8 0-11 3l-3-2 3 6-4 3 9-1-1 4c-5 0-10 0-15-2 1 3 2 5 5 6l-7 4-1-4 4 1c-1-4-5-4-8-3l1-5-5-1-1 3-3 1-2 2c-6-2-9 7-15 8-11-42-17-88-2-130z"/><path d="M181 362c14-19 31-38 54-45-9 27-10 55-7 83l-6 1-1 3-3-3 1 5c-5 2-9 4-10 9-3 1-5 3-6 5l-3-1-3 7c-2-2-5-4-7-2l4 1v4l-8-3-1-5-1 3-6 1 5 2c1 5 0 10-2 14a69 69 0 0 1 0-79zM181 441l10 5c4-3 18-4 10 4 4-2 8-1 11 0 0 6-9 7-8 14h5l1 5 4-1 1 4 3 1c10 7 18 14 30 16v1c-27-7-52-25-67-49z"/></g><path fill="#f6f583" d="M299 327c19 13 46 32 41 59-17-17-32-37-41-59z"/><g fill="#eeef25"><path d="M222 401l6-1c4 32 15 63 29 92l-9-2v-1c-12-2-20-9-30-16l-3-1-1-4-4 1-1-5h-5c-1-7 8-8 8-14-3-1-7-2-11 0 8-8-6-7-10-4l-10-5c2-4 3-9 2-14l-5-2 6-1 1-3 1 5 8 3v-4a628 628 0 0 0 3 1l3-7 3 1c1-2 3-4 6-5 1-5 5-7 10-9l-1-5 3 3 1-3z"/><path d="M333 426l-3-13 2 4c9 15 14 47-10 50-6 5-13 12-22 9-5 17-24 15-37 18l-21-48c6-1 9-10 15-8l2-2 3-1 1-3 5 1-1 5c3-1 7-1 8 3l-4-1 1 4 7-4c-3-1-4-3-5-6 5 2 10 2 15 2l1-4-9 1 4-3-3-6 3 2c3-3 7-3 11-3l-6 7 6-2-4 5 5 2-2 4 9-3 2 5v-4c4 2 7 2 10-1h7l-7-5c6-2 13-3 19-2l-2-3z"/></g></svg>