<svg width="1067" height="1067" viewBox="0 0 800 800" xmlns="http://www.w3.org/2000/svg"><g fill="#010202"><path d="M650 265c16-9 35-18 53-11l4-1c12 15 2 37-11 49-13 14-27 26-42 38-14 7-14 25-23 36-13 26-40 37-64 49-23 17-51 22-77 34-26 9-55 10-83 11-32 7-63 18-96 22-24 5-48 13-73 11-35-1-72 11-106-3-17-17-38-32-51-52l1-6c15-21 36-38 62-41 32-15 66 4 99-4 53-11 108-19 160-38 20-10 41-21 62-29l-1-4v-3l1 5 7-2c1-4 3-8 6-11l-1 4 9-3-1 3c17 0 33-13 50-14l32-4c34 6 55-24 83-36m-35 29c-11 7-24 12-37 12v1h-14c-9 0-19 1-28 3l-8 2-8 1c-7 3-14 4-20 8-6 1-11 5-17 7l-1 2-4-1-7 6-3-1 2 6c-3 9-9 18-3 28l-2-1c-6-10 1-21 1-32-27 8-51 26-78 33-43 16-89 21-134 30-25 8-52 2-78 1-29 4-64 9-80 36 14-4 26-11 40-15-15 10-35 14-49 27-2 10 11 12 16 19 10 12 25 21 40 24l-18-3c9 14 27 14 42 16-3-2-7-2-8-5 26 9 53-2 79 2 31 1 60-13 90-15l78-19c60 1 118-21 169-51 31-9 54-36 64-66 20-25 54-40 68-71 2-3-1-7-4-9-12 34-46 56-74 76 25-24 61-42 72-78-17 10-30 26-46 37-32 22-58 52-97 62v1h-2l-1-2 3-1c10-3 20-7 29-12 39-27 76-57 113-87v-2c-3-2-6-5-9-4-35 12-66 31-92 57 22-30 58-45 91-60-28 6-54 19-75 38z"/><path d="M491 354c-3-10 14-1 12 6l-3-4-9-2zM562 407c21-9 42-20 58-36 0 5-5 8-8 11-37 31-88 35-130 57-8 3-15 9-24 10 31-18 68-31 104-42zM459 386c4 1 7 3 8 7l-8-4v-3z"/><path d="M557 387h3c5 4 6 13-3 14 0-2 2-3 3-5l-3-9zM363 405c4-4 13 0 12 6-3-3-8-4-12-6zM262 426c5-6 20 6 12 11-1-6-6-10-12-11zM457 429c9-8 27 16 8 13 11-5-3-10-8-13zM329 438c6-1 10 11 2 11 2-4-1-7-2-11zM172 439c4 1 3 4 1 7-1-2-2-5-1-7zM140 440h3l1 11c-4-2-3-7-4-11zM394 440h3c2 5 2 10 6 14-7 1-8-9-9-14zM226 450c3-1 10 4 7 9-3-3-8-6-7-9zM92 453c6 4 15 4 19 10-7-1-15-4-19-10zM286 471c0-6 7-8 7-1l-7 1zM189 483c-9-7 5-12 0 0zM157 476c3 0 4 3 4 6-3 0-4-3-4-6z"/></g><g fill="#0eab65"><path d="M472 295c14-15 38-30 59-22l-18 1 2 6-4-6-7 2 2 4-4-3-3 4 1-3c-7 2-12 6-18 10l-6 9 3 1 1 5 5-1v3c1-2 3-5 3-9h2c0-3 3-4 6-3v6l2-1 1-3 2-1-2-4 4-1 1 7 1-2 3 2-4-6c4 1 7 3 11 1l2 5-4-1c-7 3-16 5-19 13l-1-2c-4 3-7 7-12 4v-4l-1 2c-4 0-7 2-9 6l-4-2 1 6-3-1 4-14 3 4 1-9-1-2v-1zM520 313l8-1 1 4 4-1c0 5-1 13 6 10l-2 3 2 1 4-3c3 1 7 1 10-2l-2 6 6-2-2 3 3 8-5 2 4 1-1 4h-2l-1 2-2 1c2-1 2-4-1-5v-4l-2-1 1-4c-4-1-8 1-12 3l-1 2-2-1-5 3 2-9c-5 8-7-2-1-5l-3 1 3-10-4 1-2 5-1-5h-3l2-4-2-3zM483 328c6-2 11-6 17-7v4c-3 2-6 6-7 10l-1-2-8 12h4l-1 3-3-2c2 11-8 18-5 29 0-4-1-5-4-3-3-4-3-9-1-13l-3 2 1-3 8-1-2-3v-6l-3 4c-3 2-5 5-6 8l-2-2 3 7c-1 3-2 5-1 8l-2-5c-6-10 0-19 3-28l-2-6 3 1 7-6 4 1 1-2z"/></g><g fill="#78cb9e"><path d="M513 274l18-1h1c12 10 19 25 35 28l-32 4c-4-2-13-1-10-9h-8l-2-5c-4 2-7 0-11-1a363 363 0 0 1 1 4l-1 2-1-7-4 1 2 4-2 1-1 3-2 1v-6c-3-1-6 0-6 3h-2c0 4-2 7-3 9v-3l-5 1-1-5-3-1 6-9c6-4 11-8 18-10l-1 3 3-4 4 3-2-4 7-2 4 6-2-6m7 7l2-1c2 5-6 9-2 14 1-4 4-9 4-2l4-1 1 3 2-1v2l2-2c1 3 1 6 4 7l-2-5c2 1 5 3 7 0v3c4-1 2-7 3-10l-2 1c-3-9-20-23-23-8zM545 346l3-4-1 6 2-1-1 3-2-1-5 6h4l-1 2 2 1-6 4v4 6l-3-1c-2 6-6 10-8 15-1-5-8-10-4-2l-4 3-4-7-1 4-2-1-1 4c-3 0-7 0-5-4l-6 3-1-2-4 1c0-3 2-4 4-5 1 3 4-2 6-2l2 3v-6l3 1 3-4c-2-2-1-4-1-6l2 2 5-10-2 2-2-1-2 2h-6c3-8 14-5 15-15l2 1 1-2 3 1-1 5-2 4c7-1 12-6 16-11l2 2z"/></g><g fill="#b0d9c2"><path d="M520 281c3-15 20-1 23 8l2-1c-1 3 1 9-3 10v-3c-2 3-5 1-7 0l2 5c-3-1-3-4-4-7l-2 2v-2l-2 1-1-3-4 1c0-7-3-2-4 2-4-5 4-9 2-14l-2 1zM564 307h14c2 12 0 27-10 35 0-4-1-9-7-8l-1-8 2-5c-3-3-6-7-3-10 2 0 4-1 5-4zM556 360l2 4-3 1 1 2-8 2 8-9zM556 367h2c-1 9-6 17-14 21l-4-4h4c4-6 5-14 12-17z"/></g><g fill="#1f6241"><path d="M513 295l4 1h8c-3 8 6 7 10 9-17 1-33 14-50 14l1-3-9 3 1-4c-3 3-5 7-6 11l-7 2-1-5v3c-3-11 2-22 8-30l1 2-1 9-3-4-4 14 3 1-1-6 4 2c2-4 5-6 9-6l1-2v4c5 3 8-1 12-4l1 2c3-8 12-10 19-13zM528 312l8-2-1 2c4 0 11 4 13-1l2 4 2-2 2 6 3-1 3 8 1 8c6-1 7 4 7 8-6 4-9 11-13 16l1 2-8 9 8-2c-7 3-8 11-12 17h-4l4 4c-14 8-32 10-46 0-14 6-31-6-33-21l2 1 2 5c5 13 19 15 31 14 10 5 26 6 34-2l1 1 2-9c3 0 6-2 8-5-5-4-2-9 4-9l2-9-4-1 4-4 2-1 1-2h2l1-4-4-1 5-2-3-8 2-3-6 2 2-6c-3 3-7 3-10 2l-4 3-2-1 2-3c-7 3-6-5-6-10l-4 1-1-4z"/></g><g fill="#5cc28e"><path d="M536 310c9-2 19-3 28-3-1 3-3 4-5 4-3 3 0 7 3 10l-2 5-3-8-3 1-2-6-2 2-2-4c-2 5-9 1-13 1l1-2zM500 321c6-4 13-5 20-8l2 3-2 4h3l1 5 2-5 4-1-3 10 3-1c-6 3-4 13 1 5l-2 9 5-3 2 1 1-2c4-2 8-4 12-3l-1 4 2 1v4c3 1 3 4 1 5l-4 4 4 1-2 9c-6 0-9 5-4 9-2 3-5 5-8 5l-2 9-1-1c-8 8-24 7-34 2-12 1-26-1-31-14-1-3 0-5 1-8l-3-7 2 2c1-3 3-6 6-8l3-4v6l2 3-8 1-1 3 3-2c-2 4-2 9 1 13 3-2 4-1 4 3-3-11 7-18 5-29l3 2 1-3h-4l8-12 1 2c1-4 4-8 7-10v-4m45 25l-2-2c-4 5-9 10-16 11l2-4 1-5-3-1-1 2-2-1c-1 10-12 7-15 15h6l2-2 2 1 2-2-5 10-2-2c0 2-1 4 1 6l-3 4-3-1v6l-2-3c-2 0-5 5-6 2-2 1-4 2-4 5l4-1 1 2 6-3c-2 4 2 4 5 4l1-4 2 1 1-4 4 7 4-3c-4-8 3-3 4 2 2-5 6-9 8-15l3 1v-6-4l6-4-2-1 1-2h-4l5-6 2 1 1-3-2 1 1-6-3 4m-54 8l9 2 3 4c2-7-15-16-12-6z"/></g></svg>