<svg width="1067" height="1067" viewBox="0 0 800 800" xmlns="http://www.w3.org/2000/svg"><g fill="#352f31"><path d="M626 214c0-10 16-5 8 3 7 71-25 140-71 192-14 9-23 23-25 40 11-1 18 7 24 15l-4-1v2l-2-1c-3-6-9-8-15-8l-1-3-19 4-11 8c-19 12-7 39 10 46l3 2-1 1h-7l-4-2c-13 24-59 12-61-15-24 20-70-5-58-37-19 14-49-2-41-27-13-13-13 8-24 9 8 6 22 9 23 21 14 26-22 51-45 39-4-3-5 7-9 3-4-2-13-11-3-11-11-11-11-27-8-41 5-14 23-22 37-15 6-2 9-8 13-12-18-5-36-11-54-10v-3h-2l23-4-14-11-9 11a329 329 0 0 0-3-3c17-13 9-39-10-46-15-11-34-1-41 14l-2-3v-1c8-11 20-21 34-18 14 6 31 14 33 31 0 10 10 15 15 23l-1 2c17 5 35 7 49 17 8-24 35-48 60-30 6-12 14-25 28-30 18-11 43 2 48 21 5 13-2 25-4 37 14 12 37 5 49-6 7 8-16 9-19 17 8 0 16-4 21-11 10-10 27-11 33-25 41-51 69-117 61-183-3 24 1 50-13 72 3 30-16 58-32 82-10 16-21 31-35 43 27-36 58-73 65-119l-5 2c15-24 16-53 16-81M417 402c2 29 42 39 61 20l-1-2c19-18 4-52-20-55-19 2-35 18-40 37m-48 5c10 2 4 15-5 15l-3-2c-5 10-10 22-3 33 7 12 23 8 33 4 5-10 13-20 25-20 13-13-6-25-6-39-14-11-31-2-41 9m-74 5c19 6 40 7 57 19-13-14-38-18-57-19m238 35c-2-5 0-11 1-16-12 10-34 2-40 20 6 1 12 4 17 8 8-5 16-8 25-10 0-12 5-22 11-31-11 5-11 19-14 29m-51-22c3 5 8 8 14 8l-14-8m-4 2c-4 4-11 7-16 10l25-2-9-8m-40 7c-4-1-8-3-11-6-8 9 5 8 11 6m60-1l1 5 12-6-13 1m-47 4c11 6 26 7 37 1-12 0-25 3-37-1m-22 2l14 6 7-5c-6-3-14-2-21-1m-123 3c-22 2-23 35-9 48 20 26 68-2 47-32a54 54 0 0 0-38-16m108 4l-3-2c-17 1-17 24-15 36 7 20 48 31 54 4 4-8 10-18 3-26-10-9-26-22-39-12m34 2l13 17c7-9 19-13 30-13-3-3-4-8 0-10-13 6-30-1-43 6m7 51c5 20 30 24 46 18 4-2 10-7 5-11-12-12-15-34 2-45-24-19-61 11-53 38zM169 390c12-11 29-4 39 6l2 2-3 3c-7-8-18-15-29-11-11 7-21 22-16 35h-3v2c-8-12 1-28 10-37z"/><path d="M268 435l2 2c8 10 5 25-3 33l-2 8c-14-2-29 2-41-6-9-6-11-19-6-28h1v2l2-2 1 2v1c-11 20 17 30 32 25-1-6 5-9 9-5 6-8 11-20 3-28v-1l2-3zM136 455c8-15 28-18 42-10l-4 2c-12-4-31-3-33 12-6 6-6 16-3 23 17 19 65-12 41-33l6-3c21 28-26 59-49 40-6-4-1-12-6-17-6-5-5-20 6-14z"/></g><g fill="#b5a1ab"><path d="M225 376c7 2 11-7 19-6l17 3c-8 1-16 5-24 9-9-8-1 6-8 9l-3-10-2-3 1-2z"/><path d="M240 384c6-7 16-7 24-9 0 7-9 8-13 11v3l-9 6-3-4 2-2-1-5zM207 402c8 7 7 20 0 28-2-9-2-19 0-28zM253 426c8-2 15-8 24-9 0 7-5 13-7 20l-2-2c-4-5-10-6-15-9zM208 436c4-7 14-11 21-6-5 4-8 9-10 14h-1l-10-8zM244 442c4-4 11-4 15-9l7 5v1c-12 10-29 10-44 8v-1l8-13 1 3-4 3c4 1 8 1 11 4l2-4 4 3z"/></g><g fill="#120f11"><path d="M223 371l2 3v2l-1 2 2 3 3 10-6 8c11 17 39 28 52 8l4 2-3 4a152 152 0 0 1 5 0v3l-4 1c-9 1-16 7-24 9 5 3 11 4 15 9l-2 3-7-5c-9-4-20-3-29 0l-8 13-1-2-2 2v-2c2-5 5-10 10-14-7-5-17-1-21 6-6 6-15 10-23 10l-6 3-5-2 4-2 7-3c-9-2-22-5-26-15v-2h3c8 16 33 18 45 5 7-8 8-21 0-28v-1l3-3c7 8 9 20 4 29 10-6 21 0 30-6-5-4-10-6-16-6l1-2c-8-8-11-18-13-27 4-5 5-10 7-15zM449 403c-10 1-6-14 1-15 7 3 5 12-1 15zM558 463l4 1 2 1c20 26-18 64-46 51l-3-2h7l1-1c20 5 35-12 43-28 3-7-5-13-8-20v-2zM412 471c6-5 15 1 14 9-6 1-13-3-14-9z"/><path d="M532 498c2-4 4-8 8-9 8 2 5 9-2 10l-1 3-5-4zM469 501c6-6 15-1 17 5-6 2-13 0-17-5z"/></g><g fill="#623348"><path d="M237 382c8-4 16-8 24-9 18 0 19 19 15 33l-1 1c-13 20-41 9-52-8l6-8c7-3-1-17 8-9m3 2l1 5-2 2 3 4 9-6v-3c4-3 13-4 13-11-8 2-18 2-24 9zM544 460l12 4 2 1c3 7 11 13 8 20-8 16-23 33-43 28l-3-2h1l1-4-8-2c4-1 10 1 13-3l5 1v-5l5 4 1-3c7-1 10-8 2-10l-2-2 2-2-2-4c-3-1-2-3-1-5l1-3h3v-4l-2-2 1-2c5 0 9-1 4-5z"/><path d="M564 465c14 5 26 22 18 37-10 17-31 22-49 23-4-2-11-1-12-7l-3-2c28 13 66-25 46-51z"/></g><g fill="#835d6f"><path d="M215 385l1 1c2 9 5 19 13 27l-1 2c6 0 11 2 16 6-9 6-20 0-30 6 5-9 3-21-4-29l-2-2 7-11zM230 433c9-3 20-4 29 0-4 5-11 5-15 9l-4-3-2 4c-3-3-7-3-11-4l4-3-1-3zM510 465l11-8a89 89 0 0 1 23 3c5 4 1 5-4 5l-1 2 2 2v4h-3l-1 3c-1 2-2 4 1 5l2 4-2 2c-2-4-5-8-9-10-5 1-17 19-18 6l14-16c-3-6-10-5-15-2z"/></g><path fill="#e9e4e5" d="M510 465c5-3 12-4 15 2l-14 16c1 13 13-5 18-6 4 2 7 6 9 10l2 2c-4 1-6 5-8 9v5l-5-1c-3 4-9 2-13 3l8 2-1 4h-1c-17-7-29-34-10-46z"/></svg>