<svg width="1067" height="1067" viewBox="0 0 800 800" xmlns="http://www.w3.org/2000/svg"><g fill="#010101"><path d="M402 184c10-7 30 1 29 15 12 15-1 36 11 52 17 13 37 18 55 29 37 22 70 51 92 89 15 32 26 69 15 104-4 28-21 56-47 69-24 9-46 24-72 25-52 12-108 26-157 0-27-2-55-12-72-34-13-15-21-34-29-52l-3-6c-4-25-10-51-2-76 16-36 41-67 74-89 39-20 79-45 98-85 2-14 7-27 8-41m3 5l5-4c-3-1-5 1-5 4m12 7c4 0 7 4 9 6l-3-8-6 2m-16 25l5-22c-6 6-6 15-5 22m7-22l1 3-2 1c-2 31-20 60-44 80-37 23-74 49-95 88 2-15 14-27 25-37 16-18 36-30 54-45 24-14 48-37 52-65-18 45-64 69-103 93-28 17-49 44-64 72h-1c-8 16-11 33-7 49 0 12 1 25 5 36 7 17 13 36 25 49 7 11 17 21 29 28-7-9-14-18-19-28-5-20-15-38-18-58-3-13-1-26-1-39 1-10 1-21 8-29l-2 8c-3 10-6 20-3 31-2 8-2 17 0 25 2 21 13 40 19 60l5 13h1c8 19 28 26 47 29-9-11-16-23-23-35-5-9-8-18-10-28-4-15-2-30-3-44h1c0-7 2-13 3-20l2-1c-5 16-3 33-3 50 3 14 5 30 13 42 7 25 27 41 52 45-15-24-20-53-19-81l-1-17h1l5-52 2-8 3-7c8-31 33-54 44-84 17-34 26-71 29-109h-1c-8 60-71 89-97 139 21-48 73-74 92-123 1-10 10-28-2-31m11 2l1 14c0-4 3-10-1-14m3 6c-9 47 3 97-16 142-11 40-13 81-14 122 1 35 0 73 19 105 9-2 24 2 27-9 21-49 13-103 17-155 4-67-29-127-29-193 5 6 2 14 4 21l2 15c1 27 12 52 17 78 10 36 10 74 7 111 0 43 1 88-17 128 32-7 66-9 95-26 7-3 16-6 17-14 10-32 22-64 18-98-2-22-17-41-25-61 12 15 18 33 26 49 10 40-7 79-18 116 27-10 44-37 47-65 14-38-1-79-20-113-33-49-87-79-139-104 3 9 10 16 13 25-6-3-6-10-11-14 7 29 26 52 40 78 22 21 30 55 27 83-4-27-5-59-27-79-20-32-40-65-49-102l1-8c-1-12-1-25-12-32m-5 23c-3 33-13 65-28 94-12 29-35 53-44 83-7 24-9 49-10 74-1 32 2 65 20 91 17 8 36 6 54 5-14-24-18-51-19-77-2-32 0-64 3-96 1-35 19-67 23-102-3-24 1-48 2-72h-1z"/><path d="M455 284c11 8 19 20 33 24 18 6 34 21 38 40-8-12-15-28-30-34-17-5-32-15-41-30zM490 290c-5 2-7-2-2-4l2 4zM290 374h5l-1 3h-4v-3zM578 392c-8-1-9-12-3-16 3 5 7 11 3 16m-5-10c0 2 1 5 4 5 0-2-1-5-4-5zM277 395c1-5 1-10 6-12l2 5-3 6-5 1zM412 446c3-1 4 2 4 4-2 0-5-1-4-4zM413 457c4 2 5 12-1 13-5-3-6-11 1-13zM517 460c7 26-4 55-14 80-5 7-6 17-14 21 18-30 30-66 28-101zM582 478l4 4-4 3v-6-1zM309 514l8 1-1 9-5-3-2-7zM363 551c1-2 3-3 5-3l-1 4-4-1z"/></g><g fill="#7672a2"><path d="M434 239l-1 8-1 8-2-15 1 3 3-4zM282 394l3-6 2 8 5 4c11-1 22-2 32 3 5 2 10 2 14 0l5 4-3 7-2-2-12-3-10-4-3-2-21 3c0 4-1 7-3 10-3 2-8 3-3 5l3 6c4-7 6-14 11-20-1 7-6 12-6 20 5 1 9-5 14-3l-2-5 6 2-1-1v8c-4-1-8 0-10 2l-4-1c0 4-2 7-6 8l-1-2-2 1-10 2v-6c-5 1-26-3-22 5l-7 2-1-3c-3-11 0-21 3-31l4 4c3-4 8-3 12-1v-3c3-1 9-1 9-7l1 4c3-2 6-4 5-8zM279 453c2 0 4 1 5 3 1 14-1 29 3 44l-5 7-8 10v4h-3l1-4-3 3-2 1c-6-20-17-39-19-60l2 1 2-4 3-1-3 3c3-1 6 0 7 3l6-5 2 2 3-4 1 1 7-1 1-3zM230 472c5-2 8-10 16-7 3 20 13 38 18 58l-2-2-8 2c-12-13-18-32-25-49l1-2z"/></g><g fill="#9b96bb"><path d="M233 389c17-10 37-13 56-7 19-8 35 12 49 21-4 2-9 2-14 0-10-5-21-4-32-3l-5-4-2-8-2-5c-5 2-5 7-6 12l5-1c1 4-2 6-5 8l-1-4c0 6-6 6-9 7v3c-4-2-9-3-12 1l-4-4 2-8c-7 8-7 19-8 29l-3 2 2 4-5-3-4 1 3 6-14 2c-4-16-1-33 7-49h2z"/><path d="M186 464c4-25 15-50 36-65-8 25-2 51 2 76-2-2-6-2-9-1l3-5c-5-2-7 9-11 2l1 3-4-2-2 3c-4 2-8 4-13 2 0 4 3 5 6 6-3 4 0 7 4 8l-2 3h2v2h6l-2 5c8-1 4-7 6-12 9 4 9-11 18-8 8 18 16 37 29 52-19-5-39-11-52-27-10-11-25-25-18-42zM309 473a2617 2617 0 0 0 12 7l-1-3 12-3 1 17c-7 6-9 17-16 24l-8-1 2 7-11 6c-8-12-10-28-13-42 3-5 10-3 14-5l2 1 1-4-3-2 8 1v-3z"/></g><g fill="#b5b1cc"><path d="M292 406l21-3 3 2 10 4 12 3 2 2-2 8-3-1c-8 2-15 1-23 0l-6-2 2 5c-5-2-9 4-14 3 0-8 5-13 6-20-5 6-7 13-11 20l-3-6c-5-2 0-3 3-5 2-3 3-6 3-10zM207 471c4 7 6-4 11-2l-3 5c3-1 7-1 9 1l3 6c-9-3-9 12-18 8-2 5 2 11-6 12l2-5h-6v-2h-2l2-3c-4-1-7-4-4-8-3-1-6-2-6-6 5 2 9 0 13-2l2-3 4 2-1-3zM282 507l5-7c2 10 5 19 10 28l-24 6h-1l-5-13 2-1 3-3-1 4h3v-4l8-10zM254 523l8-2 2 2c5 10 12 19 19 28-12-7-22-17-29-28z"/></g><g fill="#484585"><path d="M345 407c0 9 13 10 13 20 11 22-12 38-23 54 1-25 3-50 10-74zM312 421c8 1 15 2 23 0l3 1-5 52h-1l-12 3 1 3-7-2 1-2-6-3v3l-8-1 3 2-1 4-2-1c-4 2-11 0-14 5 0-17-2-34 3-50l1 2c4-1 6-4 6-8l4 1c2-2 6-3 10-2v-8l1 1zM242 428l3-2c0 13-2 26 1 39-8-3-11 5-16 7l-1 2c-4-11-5-24-5-36l14-2-3-6 4-1 5 3-2-4zM256 437c-4-8 17-4 22-5v6l10-2c-1 7-3 13-3 20h-1c-1-2-3-3-5-3l-1 3-7 1-1-1-3 4-2-2-6 5c-1-3-4-4-7-3l3-3-3 1-2 4-2-1c-2-8-2-17 0-25l1 3 7-2z"/></g></svg>