<svg width="1067" height="1067" viewBox="0 0 800 800" xmlns="http://www.w3.org/2000/svg"><g fill="#010001"><path d="M363 166c4-1 8-6 13-4-1 6 0 12-4 18-5 4 10 6 0 8-11 49-25 103-2 151 9 19 18 39 25 59-12-20-20-43-31-64-18-48-6-100 7-147l-4-1c1-7 8-12 5-19l2-3c-11 6-16 18-27 24-10 47-14 96-10 143-5-11-5-25-5-37 1-36 4-72 12-107-7-7-15 12-21-1l-8 6c3-5 7-15 14-9l5-6 7 2c-2-7-7-4-11-1 1-4 5-5 7-7l6 6 21-7-1-4z"/><path d="M360 181c0-2 2-2 4-2-19 45-18 94-13 141-10-46-6-94 9-139z"/><path d="M375 190h2c3 18 1 35 0 53l2-1c0 16 1 35 14 46 20 19 48 27 68 47 10 10 26 16 31 31 7 18-3 37-7 55l-3 10c-12 34-36 63-66 84-31 19-71 30-105 13-10-9-23-7-36-7-31-6-63-27-70-60 8 7 9 20 17 27 20 20 49 35 78 28-8-20-5-47 12-63a72 72 0 0 0-11 58c1 12 15 14 24 17 31 10 64 1 90-17 8-6 17-12 24-20 8-9 5-22 4-33h1c3 9 3 19 1 28 14-12 7-33 4-49l-4-11-2-5-9-7c6 0 10 4 13 8 7 15 9 32 10 48 11-14 20-30 24-47 6-22-9-45-25-58 17 5 21 25 29 38 11-19 6-46-15-57-26-27-67-35-88-68 4 14 10 31 25 37 9 4 18 9 23 17-14-9-32-15-43-29-6-14-10-28-10-43-7 22-4 48 10 67 12 12 20 28 36 34-5 4-11-1-15-4-20-20-41-43-39-73 4-31 7-62 6-94z"/><path d="M315 209c3-7 5-17 14-17-28 31-19 75-23 113 0 2-1 4-3 5 0-21-8-40-11-60-2 15-1 30-5 45-17 31-45 55-59 88-6 11-6 24-13 34 5-49 45-82 68-123-21 14-48 17-66 36-24 23-34 58-37 91 5 15 12 30 24 41-14-3-18-20-24-31-5-8-2-17-2-26 6-37 24-75 59-93 15-10 37-10 47-27 6-31 1-71 30-92l-1 3c0 7-5 12-7 18-9 22-7 47-3 71 2-8 1-16 2-23l-2-1c-1-18 4-36 12-52m-17 45c0-17 1-35 9-50-11 13-13 33-9 50z"/><path d="M332 213c2-4 2-14 7-15-10 44-9 93-31 134-18 32-35 67-33 105-10-54 34-96 45-147 6-25 10-51 12-77zM426 318c18 16 43 28 54 51-14-20-38-32-54-51zM210 405c2-31 21-59 44-78-7 13-20 20-27 33-8 14-11 31-17 45zM336 341c8 2 4 15 4 22h-3c2-7 1-15-1-22zM337 381c0-4 1-8 3-11 1 4 1 9-3 11zM242 494c-13-24-17-55-3-78-10 25-9 54 5 78h-2zM331 421c-3 23-16 44-16 68-4-24 9-46 16-68zM273 439l2-1c0 3 1 7-2 9v-8zM219 442c1 17 5 36 15 52-14-12-16-34-15-52zM522 494c15 0 26-13 41-13l7 4 1 3-8-1c8 3 16 6 24 6 12 8 23 20 27 34 6 27-2 53-11 78-6 14-18 25-33 27-26 5-53 14-80 7-20-10-45-18-50-43-11-3-18-17-12-27l-1-3c5-1 6 2 6 6h-4l1 7c13 1 15 26 30 21 16-8 32-15 43-29 18-20 28-46 25-73l-7-1 1-3m24-4c4-1 9-2 12-5-4 1-9 2-12 5m3 2c5 6 9 13 12 20h1c9 14 13 38 1 50 5-13 6-27 0-39-2-11-13-19-15-30l-4 1c4 13 10 25 9 39-1 2-1 5-3 7 3-15-4-30-9-44l-7 3c12 15 9 37-3 51 8-15 12-34 1-48 3 25-10 47-22 68-13 14-28 26-46 32 1 14 17 19 29 20 13 7 30 5 43 0 16-7 23-25 37-35 24-22 15-62-6-83l-4-7 4 2c23 21 36 65 9 88-15 12-23 34-43 40-19 7-38-2-57-5-12-5-17-19-31-22 4 15 18 22 31 27 28 21 66 5 97 1 16-4 26-20 30-35-6 5-7 15-15 18l20-30c4-19 6-39 1-58-8-15-21-28-38-29-10 1-11-12-22-2m-118 90c1 4 3 8 7 8l-7-8z"/><path d="M554 574c0 21-28 44-47 34 21 1 39-15 47-34z"/></g><g fill="#e1ded0"><path d="M443 421l2 5c0 3-2 6-5 4-5 2-5 7-6 12l-2-3-2-1v5l1 4-5 1-1 8h-2l-4 7 2 2-6-2-2 5v-2c-3-4 6-5 5-10-4 1-8 7-11 1l5-1-1-8 1 2 3-1-1-3 1-1c0-3 2-6 5-7l-2-2c7-6 16-10 25-15zM447 422l5-1c5 6 13 0 19 0l1 3c3-2 6-2 9-1-4 17-13 33-24 47-1-16-3-33-10-48z"/><path d="M494 435c4-2 8-6 13-6v5c4 1 12-1 13 5l4-1-2 2-4 2 6 1-4 3-4 6 2 2h-5l3 3c-1 2-3 4-5 4-1 8-9 6-15 7l1-1c-3-1-6-3-9-1l2 6c-7-2-12 8-20 4l1 4-3 1 1-3-9 5 3 1v3l2-1 1 3 2-5 1 1-2 9 3-3 3 2-3-4 2-7 6 3-3 3 9-3 1 4 4 2-7 5 5 1-2 6c3 0 5-2 5-5l1-1 2-6 1-6 4 7-2 6c3-4 5-10 11-12h-3v-3l6 2 3-4c-1-7 5-11 10-13 0-5 5-8 9-8 2-3 1-6 0-9 3 2 7 2 11 0l7 5 3-2c5 1 9 5 12 9s12 4 12 11l4-3c7 5 10 15 6 22-8 0-16-3-24-6l8 1-1-3-7-4c-15 0-26 13-41 13l-1 3 7 1c3 27-7 53-25 73-6-4-14-5-21-8 2-1 3-4 0-4l-3-9-2 1v-2l-2 3c-2 0-2-2 0-3l-2-2 1-4h-8l-3-4-1 3c-4-3-9-8-14-4l-1-2-5 1-5-5 1-2-3 1-4-5-1-1c-6-1-9-8-14-10 30-21 54-50 66-84 2 5 7 4 12 4m-1 79a2055 2055 0 0 0 6 1l7 1-1 8 4-3 3 1c0-3 0-5 2-7-2-2-4-6-8-4l2 3c-5 0-14-10-15 0m-17 0v4l-3-4-4 1v-3l-3 1 1 3-4-2-1 3-7-2-2 6-3-1 1-4-9 4-8 3 6 7v2l3 1-1-4 4 1-1 4 4-2-1 3h4l2-6c2 3 5 4 8 2v2l-3 5 3 1 2-4 4 1-3 1c0 3 1 4 4 4l1-3 2 1 1-5h4c-2-3-3-8 0-12v4c2 0 3-2 3-3l2 2c2-1 4-2 7-1-1-3 0-5 1-8l4 2-5-4 1-4h-3l1 3-2-1-3 6v-3l-3 1 1-3-3 1c-2-5-7-4-2 0z"/><path d="M444 458c-1-7-8-15-1-21l1 1 5-1c3 16 10 37-4 49 2-9 2-19-1-28z"/><path d="M434 451c5-7 8 2 9 7 1 11 4 24-4 33-7 8-16 14-24 20-4-4-7-10-8-16l11-9-6 1c-1-2-1-6-5-4l4-9 6 1 3-9 7 3c0-5 3-9 7-11l1-2-2 1 3-4-2-2zM546 490c3-3 8-4 12-5-3 3-8 4-12 5z"/><path d="M549 492c11-10 12 3 22 2l-3 1-1 4-4-2 4 7-2 1 2 2-3 1-2 4h-1c-3-7-7-14-12-20zM544 494l4-1c2 11 13 19 15 30-4 2-9 5-10 10 1-14-5-26-9-39z"/><path d="M534 499l7-3c5 14 12 29 9 44-6 11-20 17-27 27l-13 3c12-21 25-43 22-68 11 14 7 33-1 48 12-14 15-36 3-51z"/></g><g fill="#bcb7a3"><path d="M482 431l3-10c20 3 44 4 58 21 5 9 17 9 23 17 3 6 10 8 15 12l-4 3c0-7-9-7-12-11s-7-8-12-9l-3 2-7-5c-4 2-8 2-11 0 1 3 2 6 0 9-4 0-9 3-9 8-5 2-11 6-10 13l-3 4-6-2v3h3c-6 2-8 8-11 12l2-6-4-7-1 6-2 6-1 1c0 3-2 5-5 5l2-6-5-1 7-5-4-2-1-4-9 3 3-3-6-3-2 7 3 4-3-2-3 3 2-9-1-1-2 5-1-3-2 1v-3l-3-1 9-5-1 3 3-1-1-4c8 4 13-6 20-4l-2-6c3-2 6 0 9 1l-1 1c6-1 14 1 15-7 2 0 4-2 5-4l-3-3h5l-2-2 4-6 4-3-6-1 4-2 2-2-4 1c-1-6-9-4-13-5v-5c-5 0-9 4-13 6-5 0-10 1-12-4zM445 426l4 11-5 1-1-1c-7 6 0 14 1 21h-1c-1-5-4-14-9-7l2 2-3 4 2-1-1 2c-4 2-7 6-7 11l-7-3-3 9-6-1-4 9c4-2 4 2 5 4l6-1-11 9-4-13 2-1-1-4 3-3-1-2 7-4 2-5 6 2-2-2a672 672 0 0 0 7-15l5-1a299 299 0 0 1-1-9l2 1 2 3c1-5 1-10 6-12 3 2 5-1 5-4z"/></g></svg>