<svg width="1067" height="1067" viewBox="0 0 800 800" xmlns="http://www.w3.org/2000/svg"><g fill="#e4d9b5"><path d="M428 182c9-1 15 3 20 9 8-1 13 4 16 11 14 1 29 8 33 23 5 15 13 29 13 45-13-4-26-6-40-7l2-3h2v-1h-10l3-4-4-3c4-4 2-10 2-15l-2-1-5-5 2-2-5-3-1 5-2-10 3 2 1-3 6-1-2-6-4-1 4-2-5-3c-1 3 0 5 1 8l-2-1c-1 4-5 10-5 1l-1 3-3-2 3 5c-1 5 0 10-3 14l5 2-6-1v1l-2 2 2 5-6-3v-6l-3 1-2 10-1-1-4 1 4 4h-2c2 0 4 1 5 3l-2-1 1 5 3-1-2 5 4 2-1 3-2-2-2 6v-11c-3 2-6 2-9 1l-6 4-3-6 5 2 2-4 3 2v-9l-4 2 3-9-3-1 2-4-7-4 3-4-5-2 1-4v4c3 0 5 0 7-2l-6-7-1 2-3-3 2-5c2-3 3-6-2-4l1 2-4 3v-5l-3 2-3-6-1 2-2-5-1 6 3 1v2l-7-1-3-2-1 3-2-5h-3l-2 4-2-4h-5l2-3-2-1-5 3 3-6-3 2-1-3-2 3v-3l-3 1 1-3-8 5-1-1c-6 7-10 16-14 24l-2-1c9-26 37-42 64-36 7 3 16 2 21-4z"/><path d="M435 283c4-11 18-15 28-17 2 2 4 2 6 1 3 20 5 42-4 61l-1-1v-3c-15 1-29 5-43-1 6-13 19-24 14-40z"/><path d="M472 266c12 2 25 2 36 7-2 12-5 23-4 35-5 14-21 23-36 18 7-19 7-40 4-60z"/></g><g fill="#ece5c8"><path d="M360 200l8-5-1 3 3-1v3l2-3 1 3 3-2-3 6a424 424 0 0 0 7-2l-2 3h5l2 4 2-4h3l2 5 1-3 3 2 7 1v-2l-3-1 1-6a925 925 0 0 1 6 9l3-2v5l4-3-1-2c5-2 4 1 2 4l-2 5 3 3 1-2 6 7c-2 2-4 2-7 2v-4l-1 4 5 2-3 4 7 4-2 4 3 1-3 9 4-2v9l-3-2-2 4-5-2 3 6 6-4c3 1 6 1 9-1v11l2-6 2 2 1-3-4-2 2-5-3 1-1-5 2 1c-1-2-3-3-5-3h2l-4-4 4-1 1 1 2-10 3-1v6l6 3-2-5 2-2v-1l6 1-5-2c3-4 2-9 3-14l-3-5 3 2 1-3c0 9 4 3 5-1l2 1c-1-3-2-5-1-8l5 3-4 2 4 1 2 6-6 1-1 3-3-2 2 10 1-5 5 3-2 2 5 5 2 1c0 5 2 11-2 15l4 3-3 4h10v1h-2l-2 3c-11-2-23 4-32 10-11 14-29 0-41-4-3-11-2-29-17-32-14-3-28-9-43-8l6-7 2 1c4-8 8-17 14-24l1 1z"/><path d="M343 234c12-3 24 4 35 6-8 7-18 13-23 22 10-6 18-15 26-22 9 6 13 20 9 29l-4-1c-6 6-18 6-22 14 11-2 19-12 30-10 13 3 25 12 39 10l-1 2c7 15-10 28-16 39-11-3-22-6-33-6 6-14 26-21 23-37-5 15-19 25-27 38l-1-1c-5-1-11-1-16-3l8-8c-5 0-8 4-12 6l-11-7-2-4c4-8 11-13 17-18-9 3-16 8-20 16l-4-11-7-17 2-2-5-12c7-6 7-17 15-23m-7 49c5-3 8-8 11-12-4 3-9 7-11 12z"/></g><g fill="#060606"><path d="M301 240c12-5 23-10 36-11 15-1 29 5 43 8 15 3 14 21 17 32 12 4 30 18 41 4 9-6 21-12 32-10 14 1 27 3 40 7 35 6 57 35 76 62 5 16 9 32 15 47l2-1c3 6 3 14 9 17 12 4 14 18 22 26-4 16-12 35-29 40-19 14-43 2-62-6-10-5-8-18-16-25-15 1-19 18-19 30 2 14 16 15 27 16 12 6 30 4 37 18 8 13-2 29-13 37-17 4-34 3-52 2-14 5-19 24-35 24-15 5-27-14-41-5a59 59 0 0 1-31-51c6-12 9-25 15-36 5-9-2-15-7-21-14 15-34 23-51 34 4 9 19 7 23 17 12 20 14 45 27 65-3 6-7 11-12 16l-3-1v3c-21 17-49 7-72 1-8-1-15-8-12-17-10-5-5-18-13-24-10 8-15 24-29 27 1-4 6-5 9-8 0-7 3-13 1-19 4 2 3 8 3 12l15-17c4 1 5 5 7 7 13-19 37-12 56-12l7 10 8-1c-4 6-13 2-15-4-17-3-42-9-54 8 0 6 1 15 8 19 12-14 34-7 49-4 11 6 28 4 32 18 2-2 3-4 1-6l4 2c5-7 1-14-4-19 3 0 5 2 7 4-9-19-11-40-21-58-5-9-18-7-24-16-8-8-22-6-31-2 10-13 30 3 42-9 15-14 2-39-14-46-10-22-23-47-46-58-9-9-19 3-28 4-10 5-22 1-31 7 7 9 18 13 26 20l-1 3c-8-8-19-13-27-22-13 7-25 16-36 26 29 11 21 49 25 74-1 12 13 10 19 15 5 9 10 18 10 29l12 2-3 9 4 3c-8 2-8-7-4-11-5 0-10 1-13-3l1-11c-4-4-7-9-8-15-8-3-15-5-21-11 0-22-1-44-7-64-4-6-10-17-19-13-4 14-12 27-18 40-8 23 0 46-2 69 28-3 66 6 77 35 2-3 2-7 2-10 8 7-5 17-2 26-14 8-28-1-38-9-16-7-30-20-42-32l-2-60c-1-24 19-41 22-64 22-12 39-35 66-34 8-4 16-5 24-8l-2-2c20 0 43-8 51-29-20 0-33-17-51-24-21-18-8-51 11-66m12-2c-6 16-26 22-31 40-2 10 4 20 13 27 5 2 1-9 2-12l5-3c-2-6 3-11 1-17 12-4 19-15 28-23-1-7 5-12 9-18l-27 6m30-4c-8 6-8 17-15 23-6 7-12 14-21 17l-3 14c7-2 15-3 19 3-2 4-5 1-6-2-20-5-22 20-6 24 12 14 38 19 47-1 4-2 7-6 12-6l-8 8c-19 16-29 47-58 47 21 11 36 31 46 53 2 8 10 12 16 16 6 11 12 22 8 34 19-3 19-22 21-37-11-19-19-40-37-53-5-9 1-18 5-26 2-12 11-20 16-30 8-13 22-23 27-38 3 16-17 23-23 37-6 8-13 17-16 27-2 10-12 17-7 28 17 15 28 35 38 55l-4 25c5-3 9-10 16-9 15-10 6-27 3-40 9 12 13 31 0 42l5 6c13-19 40-22 60-16 9 6 18 8 28 5-5 6-15 6-21 2-20-13-50-9-65 10-2 1 0 3 0 4v5c16-15 35-2 54-5 11 6 23 12 35 16-1-6-7-10-5-16 5-10 1-24 14-27-9-10-24-8-37-8-11-5-20-13-31-14-7-27 4-55 14-80l1 1c9-19 7-41 4-61-2 1-4 1-6-1-10 2-24 6-28 17 5 16-8 27-14 40-10 10-24 23-18 38l11 34c-9-8-7-21-13-31-7-16 5-30 15-41 6-11 23-24 16-39l1-2c-14 2-26-7-39-10-11-2-19 8-30 10 4-8 16-8 22-14l4 1c4-9 0-23-9-29-8 7-16 16-26 22 5-9 15-15 23-22-11-2-23-9-35-6m-55 29c7-7 16-13 21-22-11 2-17 13-21 22m184 3c3 20 3 41-4 60-7 11-13 25-14 38-4 14-6 29-2 43 4 0 10-2 13 2 13 14 33 6 49 13-3-9-11-17-10-27 5 10 9 22 17 31-6-18 9-31 24-39 18-2 32-16 52-9l-5-15c-7-2-14 0-21 1 5-6 12-4 19-4-3-14-4-29-16-40-16-23-37-43-66-47-11-5-24-5-36-7m87 121c-19 1-44 18-34 40 9 3 12 11 14 19 3 9 13 7 19 12 15 5 34 11 47-1 13-3 21-16 20-29-9-3-11-19-23-15l1 4c-5-6-11-8-18-5-11 3-30 0-32 14-3-6 3-12 10-13 17-4 35-9 52-1 4 5 8 12 14 15-1-14-12-27-24-33-5-22-33-17-46-7m-141 79c-7 11-9 24-15 35 2 19 11 43 32 46l-1-3c17-16-7-46-28-40v-3c25-5 46 25 31 45 16 2 33 16 47 2-10 7-35 2-28-14 8-1 18-8 24 0 5 1 11 4 8 10 6-4 10-12 17-14 18 0 36 2 53-2 18-10 18-40-5-44l-1 2c-20-5-54 14-39 38-8-5-9-19-2-25 8-9 19-14 30-17-14-6-36-10-46 5l-2-1c2-7 11-7 14-12-11-1-17-11-28-11-8-11-23-1-33-6-10-7-21 3-28 9m-225 52c-18 2 1 18 10 19-2-4-3-11 3-12 19-1 40 12 46 31l-4-1-1 6-8-2c-12-7-26-10-37-18 8 10 22 12 31 21 8 7 29 11 28-4l-12 5 3-6c4 2 9-4 6-8-12-23-41-29-65-31m11 11c3 15 21 20 33 25 3-12-10-8-13-14 9-2 19 6 14 15l7 2c3-19-24-32-41-28m254 8c-1 16 20 10 28 7 1-6-4-6-9-5 0-10-15-4-19-2m-138 19c-3 1-10 6-5 9 16 14 43 22 62 10-9-14-30-16-45-11 2 6 10 7 15 9l-2 2c-6-3-15-5-18-11 16-9 44-6 53 12-13 14-33 2-47 5 17 2 37 8 53-2 8-2 2-12-3-13-20-7-41-16-63-10m-9 9c-1 11 11 13 19 14l-19-14z"/><path d="M336 283c2-5 7-9 11-12-3 4-6 9-11 12zM511 277c16 27-12 48-10 74-8-9 2-23 6-32 9-12 6-28 4-42zM342 299c4-8 11-13 20-16-6 5-13 10-17 18l-9 15c1-6 3-12 6-17zM311 292c7 1 20 6 16 15-6 9-23 3-24-8l8-7m0 4l1 4 8-1 2 6c-4 2-8 0-12-1 2 8 15 5 15-3-3-4-9-7-14-5zM558 340c0-3 3-3 5-3 0 3-3 3-5 3zM533 351c8-9 9 2 1 2l-1-2zM500 353c1 8 10 15 5 23l1 5c-6-1-3-7 0-9-4-6-9-12-6-19zM519 392c7-16 26-25 43-27-15 7-33 12-43 27zM547 407c12-15 34-19 52-14 1 3-2 3-4 2-26-8-57 13-60 39-6-10 5-20 12-27zM273 400c10 15 26 30 25 50-6 16 0 34 2 50-7-3-3-13-6-19 0-8-6-17-1-24 9-23-14-37-20-57zM569 426c8-3 18-3 24 5 4 20-30 27-33 7h3c4 14 29 10 27-6-4-9-15-2-21-6z"/><path d="M572 432c5-3 11-1 14 2-2 12-22 6-22-2 4 3 10 5 15 7l3-5-10-2zM193 439c9 2 5 15 12 20 13 11 9 32-4 40-7 3-2 13-8 15-4-17 22-22 17-40-6-12-13-23-17-35zM416 477c2-4 6-5 10-6 5 9 17 10 27 10l-1 2c-10 0-21 0-28-9l-8 3zM456 479c12 1 19 13 30 16 10 7 22 23 12 33 3-13-4-28-18-32-9-3-14-14-24-14v-3zM419 490c16-15 51 14 37 33-2-4 1-9 2-13-7-14-23-29-39-20zM306 517c5-10 16-20 27-16 14 4 34-4 46 7-18-6-38-3-57-5-5 5-12 8-13 16-1 4-4 0-3-2zM530 518c3-18 27-21 39-13 3 4-2 5-3 1-11-7-33-3-33 13 7 11 23 4 27-5l-10-2c4-7 18 1 11 7-8 9-27 13-31-1zM218 504l2-1c9 6 26 9 28 22-7-11-20-14-30-21zM417 518c6-6 11 8 12 13-1 4-5 5-9 5l1-3 5-1c-1-5-2-14-9-14zM473 517c5 1 10 2 13 7l2-1c2 3 1 7 1 10 1-12-16-10-16-16zM458 521c4-1 7-3 11-3-3 3-7 4-11 6v-3zM255 532l1-4 8 7v3l-9-6zM465 541c4-2 6 0 7 3-3 1-7 1-7-3zM379 556l7 2-7 1v-3z"/></g></svg>