<svg width="1067" height="1067" viewBox="0 0 800 800" xmlns="http://www.w3.org/2000/svg"><g fill="#010101"><path d="M386 167c4 3 10 2 14 6-7 3-14-5-20 1 4 14 14 26 15 41 16 2 34 4 41 20l6-14c-12-18-31-27-47-40 2 3 3 7 3 10-2-1-4-3-4-6-9 11-7-9 3-8 15 14 36 23 48 42 1-8 11-5 16-2 11 14 21 29 30 44 8-14 3-29-5-42 8 5 10 15 14 23 9-1 15 9 19 15 7 10 15 19 18 31 7-15-16-25-18-40 5 2 6 7 9 11 2-17-7-32-17-45-5 11 10 19 10 30l-3-1c-8-22-27-40-50-46-3 10 3 20 2 30-4-9-9-24-3-33 14 1 28 11 38 22 4-12 12 1 16 7 15 16 5 42 22 57 4-3 9-6 14-6 13 19 6 43 2 63l-1 3c-2 21-13 38-19 58l-2 2-2-2c7-19 17-38 20-59l-4-1 5-2c3-19 10-41-1-58-10-1-18 13-13 23 6 11 4 24 7 35l-4 5-1-6v-4c0-31-17-61-38-84-7-4-10 9-10 14-3 29-27 55-24 85l1 3c3-3 5-6 9-7l9-7 4 4c8 11 13 23 19 35 7 9 18 18 16 31v5l15-9-14 14 3 3c-3 3-5 6-6 10l-15 24c-8 11-16 21-27 29l-3 14c18-13 44-23 52-46l4-16c3-8 0-17 1-25l3 1 1 5v15l-5 19c-4 23-29 30-44 44 11 34 13 70 25 102 0 8-3 15-6 21-13 4-23 13-37 15-14-7-37-2-44-21l-18-70c-20 9-46 7-62-8 1-1 2-3 3-2 20 14 52 18 68-4 17-11 52 3 55-25 6-17-1-34-11-48-6-13-19-26-35-20-21 13-35 36-50 56 11 14 29 21 40 35-14-4-25-18-38-27-10-10-12-27-24-35-5 0-4 8-9 9l-3-8-9 5c-3-8 12-13 13-3 4-3 5-8 3-13-8-30-10-64-28-90l1-3c-14-10-15-30-28-40l1 11h-3l-1-10c-24 35-39 77-34 120 13 32 34 67 70 77v3c-35-7-54-40-69-69-4-16-11-32-24-44-11-8-9-22-9-34h3c1 5 4 10 9 12-2 4-5 0-8-2-5 17 13 26 20 38 0 4 5 3 3 0-4-12-5-25-12-36 0-24-11-49-3-73 5-15 3-32 9-47 12-5 19 12 20 21 6-26 18-50 31-74 3-5 7-9 13-8l2 7c8-7 14-24 26-22 2-4 5-7 10-6 6-12 21-7 31-15m-29 18l5 1c3-5 7-8 12-10-7-1-15 1-17 9m-8 43c4 8 10 15 12 25l7-7h6l4 4 14-30c1-16-9-28-14-42-19 8-31 30-29 50m-3-36l3 1-1 3c-4 0-5-5-8-7-7 8-15 16-20 26-4 0-5-5-6-8-5 1-7 6-9 10-20 38-38 80-32 124-11-15 0-36-2-53-2-8-5-20-15-21-6 15-4 32-10 47-5 33 3 66 14 97 2-36 19-69 37-99 8 1 12 8 16 14 2-16 10-30 13-46 1-4 4-11 9-7 5 7-1 17 3 25 5-15 12-28 20-42-1-13-10-23-19-32l-26 38c-10-11 7-30 3-45h4c0 13-6 25-7 38 9-11 17-23 24-35 4 1 5 4 8 6 3-13 3-27 13-37l-9-3-3 6m51 26c-6 10-13 22-15 34 11 11 15 26 22 40 10-5 10-22 20-28 8-3 11 6 15 11-1-14 0-28-7-41-6-11-19-13-30-15l3 7h-3c-2-2-3-5-3-8h-2m52 9l-5-2-5 14 2 2c-3 12 5 26 1 39 13 15 22 32 27 52 5-23 17-43 23-66-12-16-22-33-35-47-6-3-13 1-8 8m-82 25c-13 14-20 31-27 48-5 12 3 24 6 35 5-6 10-14 18-17 14 0 15 16 22 23 10-12 6-31 15-44-3-15-9-34-24-42-2-3-7-7-10-3m40 44l-1 6-3-1c-7 14-7 31-15 45 13 18 25 35 34 55 4 6 14 14 9 21l-31-56c-12-12-19-27-27-41-5-3-10-4-15 0l4 10h-3l-4-6c-7 10-17 18-21 30 13 31 20 64 26 97 10 7 16 18 21 28 16-20 29-44 53-56 29-6 42 28 50 50 10-7 19-15 24-26l13-18c4-7 8-15 7-23-1-6-1-12-3-17-13-14-20-33-30-49l-4-5c-2 4-8 6-12 7l-1 4-2-1-1 2 2 5-4-1c-4 9-7 19-13 27l-14 23-8 16h-4l9-18 11-17c-4-7-4-14-6-21-1-9-6-17-9-26 8 5 9 17 12 25l4 20 6-10 8-20 2-3c-5-16-9-32-15-47l-27-38c-13 1-11 23-22 29m-75-22c-6 15-9 30-15 44-6 15 5 28 14 38l12-17c-7-21-10-43-11-65m151 224c-1 29-35 21-54 28l-12 10c5 13 6 26 11 38 5 14 4 31 15 43 13 3 27 10 42 8-2-6-7-11-8-18 7 1 6 14 13 16 8-4 15-9 23-12l-2-3c-1-7-6-13-7-20 6 4 6 12 11 16v-5c-4-36-26-65-28-101h4c5 17 4 36 14 51 0-19-10-37-12-56l-10 5z"/><path d="M401 175c16 2 32 7 47 12 7 3 16 7 14 17h-4l1-6c-16-14-38-15-58-20v-3zM309 220c-2-4 0-10 5-8 1 3-3 6-5 8zM454 224c3 0 5 2 4 6h-4v-6zM337 230h4v6h-3l-1-6zM342 239l1 6-4-2 3-4zM295 249c2-2 5-5 8-5-2 3-6 13-8 5zM368 262c0-3-1-8 4-7v9l-4-2zM509 262c-5 0-6-5 0-4v4zM307 282c1-6-2-17 6-19-2 6-1 14-6 19zM257 268l5 2c-2 2-2 5-1 8-3-2-4-5-5-8l1-2zM422 282c8 0 7 9 7 15l-5-1c2-5 1-10-2-14zM363 327h4l1 4-5-1v-3zM536 378c6-9 5-22 11-30 0 14-4 28-12 39-4-1 0-6 1-9zM433 371l8 6 5 15h-3l-4-12-6-9zM296 376c1 19 9 37 9 57-3 23 14 43 25 62 2-8 1-19 10-23-7 16-11 40 7 50 3 2 8 2 7 7-14-3-25-17-24-32-18-20-33-46-28-74-2-16-9-31-6-47zM375 403c5 19 11 39 18 58l-2-1c-6-19-16-37-16-57zM493 403l3 1v3c2 6 4 13 4 19v29l-1 5-2-9 1-8-1-18a103 103 0 0 0-4-22zM401 454c-6-7-16-19-10-29 0 11 6 20 13 29h-3zM436 434h4l3 18-3-1c0-6-3-11-4-17z"/><path d="M301 471c9 10 14 25 26 34-13-7-24-20-26-34zM460 551c13 2 25-3 33-12 5 2-1 6-4 8-7 4-24 14-29 4zM453 583h2c4 12 7 25 14 35-12-6-11-23-16-35zM490 598c7 2 7 12 11 18h-3c-2-6-7-11-8-18z"/></g><g fill="#414d28"><path d="M495 324c16-3 35-2 49 7v4l-12-6 1 4c-8-8-25-7-32 3l-6 3-4-4-9 7 5-8 7-6 5 2c-1-3-2-5-4-6zM572 395c10-10 13-23 11-36 2 10 5 21-3 30-8 8-2 20-6 30v-10l-7 3 2 3h-6c-4 3-9 5-15 4l-1-4-2-1-1 2v-2c2-5 2-10 7-12l2 4 3-7c0 5 6 5 10 6l3-6 3 2v-6zM509 410l12-5-2 9 7-1 2-2c1 8-3 16-7 23l-1 1 1-6c-4-1-8 3-12 2l-3-6-6 1c0-6-2-13-4-19l5-1-2 4h10z"/></g><g fill="#bfd194"><path d="M472 346c3-11 12-20 23-22 2 1 3 3 4 6l-5-2-7 6-5 8c-4 1-6 4-9 7l-1-3zM501 336c7-10 24-11 32-3l-1-4 12 6 1 6 4-5a571 571 0 0 1 2 2l4 1c-3 21-13 40-20 59l-4 3 1 3-2 1c2-13-9-22-16-31-6-12-11-24-19-35l6-3m35 42c-1 3-5 8-1 9 8-11 12-25 12-39-6 8-5 21-11 30z"/><path d="M488 349l7-4c10 16 17 35 30 49v1c-5 0-9 4-11 8l-7-4c-2-5-6-5-9-1v-3h-2l4-3-3-3c4-2 7-5 9-9h-6l2-5c-4 0-8 1-11-1l-7 4-2-2-1 4-2-3-2-1 1-2 3-1 2-2-7 1 2-7-3 1 9-8 4 2v-11zM446 406l14-23c1 6 3 12 1 18 8-1 19-2 25 5l-4-1v5h4c1 5 6 5 10 8l1 7-7 2v-2l-4-5-1 2-2-9-2 1 1 3c-6-6-12 1-13 7 5 11 13 23 27 23l-1-3 3-1-1 8c-27-2-27-38-51-45zM500 426l6-1 3 6c4 1 8-3 12-2l-1 6 1-1-13 18c-3 0-6 0-8 3v-29zM544 429h8c-1 3 0 7 2 10h-4l-1 3-6 2v3l-4 1 5-19z"/></g><g fill="#6a971e"><path d="M559 337c11 3 21 11 24 22 2 13-1 26-11 36v6l-3-2-3 6c-4-1-10-1-10-6l-3 7-2-4c-5 2-5 7-7 12l-1-5-3-1c-1 8 2 17-1 25l-1-1c-1-3-3-4-5-5l-1 4h-2v-3h-2c1-4 3-7 6-10l-3-3 14-14-15 9v-5l2-1-1-3 4-3 2 2 2-2 4 2c2-8 13-9 14-17l6-3c0 5-6 8-4 13l6-5v4l4-5h4l1-5 7-3c-2-6-1-13-1-20-3-10-12-17-22-19l1-3zM479 347c4-1 10-3 12-7l4 5-7 4v11l-4-2-9 8 3-1-2 7 7-1-2 2-3 1-1 2 2 1 2 3 1-4 2 2 7-4c3 2 7 1 11 1l-2 5h6c-2 4-5 7-9 9l3 3-4 3h2v3c3-4 7-4 9 1l7 4c2-4 6-8 11-8v-1c2 5 2 11 3 17l-2 2-7 1 2-9-12 5h-10l2-4-5 1v-3l-3-1 3 15c-4-3-9-3-10-8h-4v-5l4 1c-6-7-17-6-25-5 2-6 0-12-1-18 6-8 9-18 13-27l4 1-2-5 1-2 2 1 1-4zM463 360l6-5-8 20-2-9 3 2 1-8z"/><path d="M567 412l7-3v10c-5 14-18 23-31 27v-2l6-2 1-3h4c-2-3-3-7-2-10h-8v-13l1-2 2 1 1 4c6 1 11-1 15-4h6l-2-3z"/></g><g fill="#a2bc6c"><path d="M558 340c10 2 19 9 22 19 0 7-1 14 1 20l-7 3-1 5h-4l-4 5v-4l-6 5c-2-5 4-8 4-13l-6 3c-1 8-12 9-14 17l-4-2c6-20 17-37 19-58zM528 428h2v3h2l1-4c2 1 4 2 5 5l1 1-4 16c-7 2-15 3-22 3l15-24z"/></g><g fill="#dee8c3"><path d="M451 365l12-5-1 8-3-2 2 9-6 10-4-20zM448 366c2 7 2 14 6 21l-11 17c-10-4-9-16-4-24l4 12h3l-5-15 7-11zM481 414l2-1a353 353 0 0 0 3 7l4 5v2l7-2 1 18-3 1 1 3c-14 0-22-12-27-23 1-6 7-13 13-7l-1-3z"/></g></svg>