<svg width="1067" height="1067" viewBox="0 0 800 800" xmlns="http://www.w3.org/2000/svg"><g fill="#040403"><path d="M462 286c21-7 22-34 32-49 8-1 13 8 9 15a66 66 0 0 0-12 58c3 8 16 8 17 16l-13-8c4 10 9 20 10 31 6 10 16 20 16 33-6-6-5-18-14-23 3 12-1 25-2 37l7 11-8-7c-4 17-19 32-11 49-4 0-4-6-6-8-5 17-28 24-24 44-2-3-2-8-5-9-7 8-18 13-13 26-6 1-3-6-4-10l-14 7c2 3 4 6 4 10l-7-9c-14 6-29 9-44 12l1 5h-2c-5-9-18-3-27-6v11c-2-4-4-8-3-13-8 1-15-3-22-6-10 19-33 22-52 25l1-6c-5-1-12-4-10-10 14-8 33-9 37-26l5-1c-3-7-8-12-15-17-2 4-7 3-11 2 2-2 4-2 7-2h3c-4-7-7-15-9-23h-7l6-4v-27h-10l9-4c4-20 13-39 23-57-3 0-6 0-8-2h10l20-27-14-1c5-3 11-1 17-1l12-11c10-9 23-14 35-20-3-2-7-4-9-7 12 9 25 2 38-1 0-4-6-6-8-9 19 14 45 0 65 12m35-46c1 2 2 5 4 6 0-3-2-5-4-6m-2 6c-5 12-7 26-15 37-4 4 0 9 1 14h-3c-2-5-5-10-2-15-6 4-14 13-22 4-36-4-75 4-105 25-16 9-29 24-38 40 10 14-12 25-4 39 8-11 14-25 23-35-9 20-26 38-26 61 12-12 16-33 37-33 11-21 31-34 53-43-19 13-43 23-51 47-7 10-9 21-13 31 13-10 28-1 37 9l28-27c5-3 9-8 15-11l-13 13c6-1 13-1 18 2 8 5 16 1 23-4-2 10-15 11-23 8v-1c-6-4-14-4-20-1 9 6 18 20 9 30-7 15-30 12-33 31h-3c0-20 26-17 33-32 8-9 0-25-11-27-20 17-38 38-50 62-2 4 1 7 1 11 29-3 55-16 80-30v-1c19-10 30-29 43-46-8 23-28 41-48 53-4 1-7 3-10 6-2 1-4 1-5 3-6 2-12 3-16 7h-3l-1 1c-13 7-32 5-43 14h-2v3c23 4 47-2 69-8 25-11 43-33 63-51-5 13-18 20-27 29-16 17-38 28-61 31 21 18 51 3 69-12 13-15 32-27 36-48 8-13 18-29 12-45l5 2c5-24-1-49-12-71-8-23-4-49 10-68l-5-4M307 355c-18 30-28 66-17 100 4 11 15 18 23 26 7-3-2-9-4-13-18-21-9-50-3-74-6-7-5-19 2-26 3-3 4-12-1-13m11 46c-5 11-17 18-17 31-3 17 8 32 18 44l8-3c-4-7-11-14-8-23 5-22 11-43 20-63-9 0-17 6-21 14m26 15c-22 4-27 36-17 53l10 1c7-15 16-29 28-42-8 0-12-12-21-12m-13 56l-7 13c-13 6-19 24-36 22l-2 7c4-1 8-3 12-2 1 7-8 7-12 11 16-1 35-9 39-26-6 2-9 6-14 9 4-6 10-10 16-15l-2 6c4-2 6-5 8-9l1 1c4-6 4-14-3-17m-15 11c-5 4-12 7-14 13l5-3-1 3 13-12h2l5-8-10 7m29 12c-6 0-12-3-15 3 20 10 44 12 66 6-6-1-12-5-17-8-11-5-23 1-34-1m-75 18v4c4 1 8 1 11 4l12-6c-4 1-9 4-12-1l-3 2-8-3z"/><path d="M471 292l3-2c1 5 3 10 7 14l-3 1-7-13zM402 300c14 4 3 10 0 0zM365 310c5 1 11 1 13 6-4-1-11-1-13-6zM338 327c1-6 8-2 12-2-4 2-8 1-12 2zM484 351c4 0 8 3 8 7-4 0-7-3-8-7zM473 360h3l2 8-3 1-2-9zM473 388c7 0 5 10 6 14-3-4-5-9-6-14z"/></g><g fill="#e1f673"><path d="M253 381c12-37 47-71 88-70l-12 11c-6 0-12-2-17 1l14 1-20 27h-10c2 2 5 2 8 2-10 18-19 37-23 57l-9 4h10v27l-6 4h7c2 8 5 16 9 23h-3l1-2c-28-18-46-52-37-85z"/><path d="M311 351c9-16 22-31 38-40 26 6 51 23 67 45 11 14 5 33-1 48-5-3-12-3-18-2l13-13c-6 3-10 8-15 11l-3-2c-4 1-8 2-11 1 1-4 2-9 0-13 0 8-8 9-12 3v3l-5-2 3-10c-4 4-7 10-12 14l2-7-12 5-2-5c8-24 32-34 51-47-22 9-42 22-53 43-21 0-25 21-37 33 0-23 17-41 26-61-9 10-15 24-23 35-8-14 14-25 4-39m27-24c4-1 8 0 12-2-4 0-11-4-12 2z"/></g><g fill="#cdf22d"><path d="M307 355c5 1 4 10 1 13-7 7-8 19-2 26-6 24-15 53 3 74 2 4 11 10 4 13-8-8-19-15-23-26-11-34-1-70 17-100zM355 394c5-4 8-10 12-14l-3 10 5 2v-3c4 6 12 5 12-3 2 4 1 9 0 13 3 1 7 0 11-1l3 2-28 27c-9-10-24-19-37-9 4-10 6-21 13-31l2 5 12-5-2 7z"/><path d="M318 401c4-8 12-14 21-14-9 20-15 41-20 63-3 9 4 16 8 23l-8 3c-10-12-21-27-18-44 0-13 12-20 17-31zM395 406c6-3 14-3 20 1v1c0 14 10 27 6 42v1c-25 14-51 27-80 30 0-4-3-7-1-11 12-24 30-45 50-62 11 2 19 18 11 27-7 15-33 12-33 32h3c3-19 26-16 33-31 9-10 0-24-9-30z"/><path d="M344 416c9 0 13 12 21 12-12 13-21 27-28 42l-10-1c-10-17-5-49 17-53zM406 463c3-3 6-5 10-6-2 4-6 5-10 6zM385 473c4-4 10-5 16-7-5 4-10 9-16 7zM331 472c7 3 7 11 3 17l-1-1-9-3 7-13zM338 488c11-9 30-7 43-14-5 17-29 16-43 14zM316 483l10-7-5 8a96 96 0 0 0-5-1z"/></g></svg>