<svg width="1067" height="1067" viewBox="0 0 800 800" xmlns="http://www.w3.org/2000/svg"><g fill="#080808"><path d="M477 231c19-16 46-34 72-25 21 0 42 12 54 29 16 26 22 58 14 88-2 10-15 10-18 19-5 8-16 10-25 13-32 20-71 23-104 40-41 16-61 58-94 85-17 11-27 31-46 41l-1 6-4-3c-11 9-30 15-36 28-9-1-14 9-20 15-1-1-2-4-3-2-12 7-30 14-42 3-16-13-31-32-30-53 5-28 35-38 52-56 40-26 72-64 107-96 11-18 22-35 37-49l4-3 3-3c28-23 53-49 78-74v-1l2-2m47-24l1 5c18 10 40 14 56 29 9 11 12 26 16 40 2-11-1-22-4-32-4-22-31-23-46-34 3-5 9 1 13 2 12 8 30 11 35 27 11 26 22 56 12 84l-4-2c10-16 2-36-1-53-5 9 8 23-1 28 0-10-6-9-1 1l-3 1c1 4 4 6 7 8l-1 2c-15-12-18-33-32-46 4 19 17 36 14 56-1 7 8 19-1 23-2-17 1-37-8-53-4-11-5-24-13-33-6-9-17-12-27-15 16 15 32 31 40 52 2 16 7 31 4 47-2 4-5-2-4-5 0-20 1-42-12-59-12-20-33-33-52-46l-3 1c0 20 28 22 37 37 13 25 30 52 23 81 8-3 17-4 24-9l2-23c3 5 0 11 3 16l2-9 3 5c13-5 12-23 14-35-1-23-7-46-19-65-18-22-48-26-74-26m-44 25v1c-4 4-8 8-10 13 8 5 17 6 24 10 28 17 30 50 33 79 5 9 7 27-1 34 4-20-5-40-6-60 0-23-15-46-37-53 2 3 6 4 9 6l-2 4c4-2 7-1 7 3-14 4-17-15-30-13-20-1-27 24-43 32 14 7 30 16 38 30h1c11 21 16 46 15 70 28-12 60-16 87-31 4-16 5-34-4-48-8-23-19-44-42-54 24 26 49 62 38 99-4-19 0-44-13-61-10-20-31-33-40-54-4 1-7-1-10-4 5 0 10 1 14-1v-3l-3 1c0-5 5-6 8-7 3-4 5-8 9-11-1-2-2-5-5-4-13 5-25 14-37 22m37-6c5-1 11-2 13-8-6-6-9 5-13 8m15-7c-2 9-10 9-18 11v3c15 9 33 10 48 20-2-5-4-11-9-13-3-10-11-17-21-21m19 9c1 9 12 8 18 10-5-5-11-8-18-10m7 11c11 20 24 38 37 57-2-15-5-32-19-40-2-10-6-18-18-17m18 3c1 8 3 16 12 18-4-6-6-14-12-18m-115 12c5-1 10 1 15-2-5-3-13-5-15 2m-42 39l-25 22c-16 14-27 32-38 49-27 24-50 53-79 75 32 12 51 46 52 79 17-10 26-27 42-38 13-9 7-27 1-39-10-16-22-33-42-36l2-3c15 2 27 14 35 26 8 13 17 27 13 43l6-4c-7-28-17-61-47-71-8-3 5-4 8-1 26 13 33 43 40 69 6-5 11-9 15-15-5-30-29-51-43-76 21 16 33 44 45 67-3-25-11-51-30-68-2-3-6-5-10-5 1-8 13 0 15 4 17 20 32 49 25 76 17-23 39-44 66-55 5-3 7-9 6-15-3-20-6-41-17-59h-1c-10-12-23-24-39-25M276 443c-8 3-16 10-22 16 15 15 38 26 42 49 1 8 6 19 0 25 4-32-20-56-45-71-7 3-12 9-18 12l36 15c17 11 19 34 25 52 11-4 19-13 15-25 1-26-13-50-37-59 30 1 42 39 40 65-1 11 10-1 14-2 1-33-20-65-50-77m-67 52c6-4 14-3 22-2v3c-19-5-42 16-31 36 9 19 27 46 52 35 17-2 23-21 23-35-10-15-22-32-41-30 19-10 34 14 43 27 3 10-3 19-4 28l14-12c-5-24-18-63-48-55v-4l10-2c-14-9-32-5-40 11m51-7c16 11 22 30 29 47-2-18-9-41-29-47z"/><path d="M481 234c13-4 23-12 34-20-4 15-22 13-31 23a6983 6983 0 0 1-3-3zM497 243c17 21 51 41 45 74-1 2 1 7-3 7 1-13 2-28-8-38-8-17-28-25-34-43zM466 262c15 8 29 20 37 35 5 14 12 27 12 42-2 12-7 23-9 36h-3c3-20 16-40 4-59l-2 7c-6 6 1 15 1 23h-3l-5-21-5 1c1-7-2-13-7-17v-5l-21-14c18-2 26 18 34 30-1-16-13-24-25-31 6-1 12 4 17 7-6-12-19-14-30-18 14-5 31 11 39 23-4-19-24-25-34-39z"/><path d="M448 283c14 5 25 16 34 27 11 19 12 42 8 63l-1-6-4 13c3-23-4-47-18-64-8-9-16-18-27-21 4-3 9-1 13 2 21 15 33 40 36 65 1-14 1-30-6-43-7-16-24-23-35-36zM428 309c7 0 11 6 16 11 7 8 13 18 16 28 4 18-4 34-6 51l-3 1c4-28-13-54-31-74-6-8-19-4-25-11h15c24 13 34 39 45 62 8-21-2-44-18-58-3-3-8-5-9-10zM599 321c-2-2-4-7 1-8 0 2 3 7-1 8zM598 327c-1-6 4-6 3 0h-3zM534 329c12 5 13 23 9 35h-4c6-12 2-24-5-35zM393 346c0-3 2-5 4-3 26 13 37 44 33 72-7-2 1-17-2-23-5-19-15-39-35-46z"/><path d="M380 355c-5 1-4-6 0-4 27 15 40 49 32 77l-2-1c7-27-7-57-30-72zM350 382c24 9 43 38 42 64-2-27-22-48-42-64zM341 423c9 1 13 11 17 18 4 11 11 22 9 34-5-19-13-38-26-52zM309 424c17 7 25 26 35 40 5 9 9 24 0 31 10-29-20-50-35-71z"/><path d="M295 434c0-4 5-3 7-1 24 16 41 43 39 72h-3c0-29-17-59-43-71zM332 434c4-4 8 2 10 5 8 15 16 31 17 48-7-18-12-39-27-53zM244 514c8 3 2 8-2 2l2-2zM202 519c0-3 1-4 4-4v4h-4zM249 525c0-2 1-4 3-4v5l-3-1zM205 524h4c-1 4-4 5-4 0zM256 530c8 2 5 13 1 17 2-6-2-12-1-17zM220 546c-10-1-3-10 0 0zM225 551c4 3 8 6 12 7-5 4-12-1-12-7z"/></g><path fill="#bab886" d="M406 215c5-1 9-4 13 0 11 9 24 0 36 1 9 2 15 10 22 15l-2 2c-5-6-12-15-21-13l-2-1c-13 3-26 2-39-1l-1 3-3-1c-11 0-16 10-24 16-4 6-3 14-10 18l5 3c-4 2-7 6-8 11-3 8 3 17 4 25l2 2c1 4 4 5 7 6v4l12 3-3 3-1-2-9-2c-16-15-20-43-6-60 2-9 9-15 12-23l3 1v-4l5 1c1-3 3-5 5-6l3 2v-3z"/><g fill="#eee8da"><path d="M413 218c13 3 26 4 39 1l2 1c9-2 16 7 21 13v1l-10-3-2 3c-6-2-11 2-14 6l-4-4-15 1-6 2-1 2-4-2-3 2-6-3 1 5-7 3 2 1 3-2-1 2c-11 4 1 6 6 9 0 4-6 2-8 1l-1 3c5 0 10-1 14 1-3 2-7 5-12 3l4 3-2 2c-5 0-9 1-13 3l4 1-10 4-1-3 4-2c-5-2-9 1-11 5l1-4-5-1v3l-6-1v-6c1-5 4-9 8-11l-5-3c7-4 6-12 10-18 8-6 13-16 24-16l3 1 1-3zM424 288c16-8 23-33 43-32 13-2 16 17 30 13-1 11 13 17 6 28-8-15-22-27-37-35 10 14 30 20 34 39-8-12-25-28-39-23 11 4 24 6 30 18-5-3-11-8-17-7 12 7 24 15 25 31-8-12-16-32-34-30l21 14v5l-4 1c-9-11-20-22-34-27 11 13 28 20 35 36 7 13 7 29 6 43-3-25-15-50-36-65-4-3-9-5-13-2 11 3 19 12 27 21l-4 2h-1c-8-14-24-23-38-30z"/><path d="M419 293c16 1 29 13 39 25l-14 2c-5-5-9-11-16-11 1 5 6 7 9 10-9 0-18-3-27-4h-16l25-22z"/></g><g fill="#e2dcc1"><path d="M463 234l2-3 10 3c-25 25-50 51-78 74l-12-3v-4c-3-1-6-2-7-6l-2-2c-1-8-7-17-4-25v6l6 1v-3l5 1-1 4c2-4 6-7 11-5l-4 2 1 3 10-4-4-1c4-2 8-3 13-3l2-2-4-3c5 2 9-1 12-3-4-2-9-1-14-1l1-3c2 1 8 3 8-1-5-3-17-5-6-9l1-2-3 2-2-1 7-3-1-5 6 3 3-2 4 2 1-2 6-2 15-1 4 4c3-4 8-8 14-6zM470 246c2-5 6-9 10-13l1 1 1 3h2c2 7 8 12 10 19-7-4-16-5-24-10zM461 254c2-7 10-5 15-2-5 3-10 1-15 2z"/></g></svg>