<svg width="1067" height="1067" viewBox="0 0 800 800" xmlns="http://www.w3.org/2000/svg"><g fill="#060606"><path d="M442 251c18-24 56-41 83-22 7 3 7 13 14 16 10 5 22 7 31 14 5 15 10 35-3 48-5 6 4 13 2 19 29 12 57 29 78 52 6 13-4 27-6 39-4 12-17 18-24 28a55 55 0 0 1-69 20c-17-13-30-31-49-40-10 0-22-6-29 4-1 17 20 26 10 45-21 33-78 24-96-8l-5-35c9-7 19-14 30-18 5-2 6-7 2-10-15 4-31 2-46-1h-6c-7-1-14-2-21 0-16 4-33 3-48-3-10-13-23-25-27-41l-1-7h-3c-3-42 30-78 67-94 16-2 34-1 49 7 19-4 40 19 54 0l4 4c8-1 4-12 9-17m49-22c8 2 16 5 25 5 0-10-24-17-25-5m-49 35c2 14 3 28 12 39 1 11 9 23 20 25 8-3 16 1 24 2v2c-14 1-33 1-42-13-8-4-3-17-11-19-2-9-2-22-10-27-3 5-6 11-7 16-5-6 1-13 5-18-6-3-10 5-16 5-13-1-26-7-39-9 1 3 1 5-1 7-2-6-6-9-12-10-39-15-76 16-94 49 10 5 6 17 6 26v-1 1l6-1c-5 6-16 8-16 16 2 18 16 31 28 43 23 10 46-3 69 2h2c13 4 27 3 40 1 7-2 16 8 9 14-11 6-22 10-31 19l2 14c10 4 16 14 21 23 4 9-18 1-11-4l6 4c-2-7-8-14-15-18-2 18 14 29 28 33 20 9 46 8 60-10 3-7 7-16 2-24-8-5-9-15-12-24l3-2c1-10-7-18-16-17v-3c9-2 20 6 19 16 9-9 20 1 31-1 14 10 30 19 40 34-11-34 27-57 55-63 8-3 23 4 26-7-1-7 5-11 6-17-19-17-42-29-64-39l2-4c-14-9 3-24 5-35-1-9-2-19-5-28-11-8-27-7-36-18-2-5-6-10-11-13 1 10-13 9-19 4-7 0-13-2-18-7-18 7-36 18-41 37m-173 52l-3 11c3-1 5 0 6 3-5 2-7 8-5 13 9-3 11-22 2-27m347 79c-15-3-27 3-41 7-13 11-36 24-30 46 1 16 23 18 36 15 21-2 31-21 44-34 14-9 14-26 18-41 2-6-3-15-9-17-9 5-5 24-18 24z"/><path d="M508 265c6 1 17-3 18 6-6-3-12-2-18-1v-5zM464 283c-7-6 5-17 10-9 0 5-4 13-10 9zM331 273l4-1c3 6 11 18 1 20 2-7 0-14-5-19zM544 276c4-1 10-3 9 4l-5-1c3 6 9 3 12-1 4 12-21 11-16-2zM370 299c1-4 5-13 10-8-12 9 0 25 1 37-2 8 0 17-3 25-6-3-1-13-2-18 3-13-7-24-6-36zM301 303l4-1c5 8 6 18-1 25-3 4-3 8-3 12l-4 1 1-12c9-6 7-17 3-25zM547 310l8-4v3c-4 3-8 5-13 2-6-4-14 5-19 0 7-4 17-6 24-1zM344 331c-10-2 4-9 0 0zM410 328c16 9 25 32 16 49 5-20-8-34-16-49zM467 348c2-2 5-2 7 1l-5 2-2-3zM539 362c-1-5 2-10 8-9-1 3-2 6-1 9h-7zM579 377c-1-14 19-21 27-11 4 8-5 14-11 9-3 6-12 8-16 2m6 1c6 0 10-9 15-4 2-1 3-3 4-6l-7-2c-2 2-5 3-7 3l-1-3c-4 2-9 8-4 12zM304 378c0-5 1-18 8-14 4 7 3 24-8 24-7-4-7-16 0-20-1 5-5 15 3 16 3-5 6-11 3-17-2 3-2 8-3 12l-3-1zM406 365c9 1-1 15-4 20 0-7 1-14 4-20zM497 391c9 1 22 13 15 21 1-14-13-12-18-20l3-1zM544 408c-6-3 0-16 7-16l-7 16zM634 392c7 2 2 11 1 16h-3l2-16zM586 401c6-2 14-6 20-2-7 0-14 5-20 2zM550 441c-5-7 4-20 11-24-2 8-12 15-11 24zM447 430c4 3 12 2 14 8-5 0-10-2-15-4l1-4zM428 440c15 2 36 13 35 31-5-1-3-8-6-12-8-8-20-11-29-19zM564 458c6 2 13 2 19 1-5 3-13 4-19 2v-3zM430 466c5-1 15 1 15 8-6 7-15-1-15-8m4 3c1 3 4 4 7 4-1-3-4-4-7-4zM218 478c25-12 57-6 78 11 15 22 12 57-13 70-26 11-55-5-82 2-16-2-36-1-45-16 0-8 9-13 6-21 9-5 7-20 18-22 17 0 24-19 38-24m1 4c-14 6-23 27-41 23-5 6-6 14-10 20 1 9-16 19-1 25 4-5 5-12-1-15l2-1c9 2 8 13 1 16 15 11 37 1 32-19 6 5 4 21-6 25 16-3 32 0 48-3 6 1 9 8 15 5 10-6 8-20 16-26-2 8-3 17-9 24 5 6 14 1 19-3 22-12 20-44 7-62l-2 3c-6-9-15-16-27-15 8 15 12 40-4 51 10-18 9-40-7-54-11-2-21 3-32 6z"/><path d="M221 488c-8 3-5-6 1-3 10 8 22 29 8 38 5-12 0-25-9-35zM194 507c4-7 9 2 10 7h-2c-2-4-5-6-8-7zM177 526c-2-6 0-12 6-14 3 7 7 17-6 14m2-8l1 6 3-1-4-5zM283 522c-1-4 0-7 4-7v4l-4 3zM186 538c5 1 4 6 2 9-2-2-2-6-2-9zM163 541h3c0 2-2 3-4 4l1-4z"/></g><g fill="#b79d79"><path d="M289 327l9 1-1 12 4-1c0-4 0-8 3-12 2 2 6 4 9 3 3-3 9 1 12-3 7 3 5 10 3 16 29-3 40 33 38 56h-2v-9c-5 0-10 2-12-3-7 3-11-3-14-8 3 0 6-2 7-4l-5-1-2-3 4 2c1-8-5-2-9-4l8-4c-3 1-6 0-8-3l8-2c-3-3-6-4-10-4l3 4c-3 0-7-1-8-4l-3-1 6-2-4-1 1-4-5-5-4 2-5-4-3-7-4 10-2-6-6 6-3-3c2 4 1 11-5 11-2-3 3-7 1-9l-15 8 4 1-5 3v2l-7-3c0-8 11-10 16-16l-6 1v-1c4-2 5-8 11-8l1-3zM266 403l7-4-2 3c4 1 8-1 11-2 3 1 6 2 8-1 15 6 32 7 48 3l-1 2c9 4 1 16 10 19-4 0-6 2-7 6h2c10-5 20-12 20-26l-3-1h6c-3 13-9 25-21 30-13-2-29 1-42-6l16 1v3c4-4 8-7 13-8l-4-10-4 2 3 5c-5 1-9-8-15-4-7 4-9-3-12-8l-2 2c-4-1-7 2-10 4l1-3h-8l1 4c-5-2-10-3-15-2l-2-4c-4 2-8-2-10-6 4 1 8 0 12-2v3z"/></g><path fill="#d4c0a5" d="M309 334l3 7 5 4 4-2 5 5-1 4 4 1-6 2 3 1c1 3 5 4 8 4l-3-4c4 0 7 1 10 4l-8 2c2 3 5 4 8 3l-8 4c4 2 10-4 9 4l-4-2 2 3 5 1c-1 2-4 4-7 4 3 5 7 11 14 8 2 5 7 3 12 3v9c-23-5-46 8-69-2-12-12-26-25-28-43l7 3v-2l5-3-4-1 15-8c2 2-3 6-1 9 6 0 7-7 5-11l3 3 6-6 2 6 4-10m-5 44l3 1c1-4 1-9 3-12 3 6 0 12-3 17-8-1-4-11-3-16-7 4-7 16 0 20 11 0 12-17 8-24-7-4-8 9-8 14z"/><path fill="#47433d" d="M252 406c-8-18-9-40 7-55h3l1 7-2 8c-9-12-11 10-14 17l7 19c2 4 6 8 10 6l2 4c5-1 10 0 15 2l-1-4h8l-1 3c3-2 6-5 10-4l2-2c3 5 5 12 12 8 6-4 10 5 15 4l-3-5 4-2 4 10c-5 1-9 4-13 8v-3l-16-1-6-2c-14-4-29-5-41-14l-3-4z"/><g fill="#e4d6c3"><path d="M261 366l2-8c4 16 17 28 27 41-2 3-5 2-8 1-3 1-7 3-11 2l2-3-7 4v-3c-4 2-8 3-12 2l-7-19c3-7 5-29 14-17zM338 402c7-2 14-1 21 0l3 1c0 14-10 21-20 26h-2c1-4 3-6 7-6-9-3-1-15-10-19l1-2z"/></g></svg>