<svg width="1067" height="1067" viewBox="0 0 800 800" xmlns="http://www.w3.org/2000/svg"><g fill="#060706"><path d="M397 161l9-2 5 3-1 8c3-2 6-5 9-3l15-1 2 8c11 1 22 19 6 22 6 2 6 7 0 8-3-3-4-8-3-13-4-3-8-6-13-3-3-6-12-1-12-8 2-2 4-5 8-4-1 1-5 6 0 5 9-2 16 6 23 10 3-9-8-14-16-14l2-7-8-1-6 4-3-3c-2 2-4 6-8 6 1-5 2-15-6-13 1 6-7 10-1 15l-4 2c5 7-9 10-13 6l1-9-5 1c-5 9 7 9 9 16-10 9-12-6-21-6 1-5-2-8-5-10l9 1v5l5 2v-11c7-4 13 2 12 9l3 1 3-8c-3-6 4-11 4-16z"/><path d="M337 204c3-8 2-17 10-22 5 2 9 5 9 11h4c-1-3-2-7-1-10 5 1 4 7 5 11l-8 2c0 7-8 8-10 13l-4 2v17h6c2 7 1 15-3 20 4 6 11 0 15 5-7 8-16 3-24 2 1 6-2 10-7 12l1 2-11 2a539 539 0 0 1-3-9c2-5 11-12 3-16a191 191 0 0 1-7-7h7c-8-9 4-21-4-31-10 3-3 18-5 26h-9v-3c-4 2-7-1-9-4h-3v8c12-2 16 9 23 16l-4 9-7 5c-1-6-3-11-9-13-3 7 1 13 4 19-1 4-11 7-5 10 13 1 7 14 7 22 1 10 12 11 18 17 1 19 30 17 37 2-2 6-6 11-12 14 5-1 9 0 12 4l8 2c-3 3-7 3-11 2 2 6 8 2 12 1l-1 4c-4 0-10 2-13-2h-10l2-8-5 3v-4c-10 3 0 12 2 18-5-1-7-6-10-10l-3-5c-4 0-9 1-13-1h-3c0 7 7 10 13 12 11 5 5 21 15 28-6-1-9-7-15-7l-2-5-7-2c0 5-1 9-6 10 2 4-1 6-5 7l4 5-1 2-13-3c7 6 20 9 17 21l-13 7c9 9 29 5 28 22 10 3 18 15 27 8 14-1 21 12 31 19 6 3 12 5 15 11l2-6 2-2c2 54-4 107 6 160 2 10 12 14 20 17-6-42-7-84-10-125-2-17-5-34-1-50l-5-3c7-16 1-34 1-51 6-27 40-33 48-60l3-1c-6 28-42 34-47 61 7 0 15-2 22-5-3-9 4-20 14-20 12-5 3-20 12-27 6-6 10-14 17-19 8-1 15 5 18 12 9-7-7-10-1-17 4-6 10-1 12 4h4c-2-6-6-8-10-10 0-7 7-10 13-8l-1-3c-7-1-18 0-16-11-3 4-10 7-13 2-2-9 7-18-2-25-15 30-46 51-55 85-5 3-10 7-16 9-10-5-3-24 9-21-5-10-1-20 12-15l5-10c-7 2-11-10-3-5l8 1-2 6 10-10c-5 3-11 2-15 0l-1-3 13 2v-14c15 2 15-17 23-26 2-3 0-4-2-6v-6l-16 1c1-10 12-12 17-20-6-4-13-2-19-4-2 6 1 11 3 16-4 5-10 3-15 3l-3 7c-7-3-16-11-24-6l6 1-1 11c3 6-3 14 5 18l-12 17-2-1c4-6 12-16 4-22-7 2-11 8-16 13l8 1 2 11-4 18c14-16 22-35 27-56h3c-1 10-3 19-6 28l15-17c-13 17-25 35-36 54-12 15 4 32 6 48 16-15 36-25 46-45-5 27-41 31-47 57-2-15-9-30-13-45-3-10 6-15 10-23-4 4-9 8-14 10 0-3 2-5 4-6l4-13h-3c3-6 5-12 3-18-4 0-8-1-10-4l12-10c-5-2-13-2-16-6 0-9 10-9 16-7-2-7-11-12-7-20-25 19-2 50-3 75h-3c-1-18-9-36-10-54-3-16 5-32 7-48-25 46-4 99 4 148h-3l-2-4c-19-2-35-13-49-24 16 6 30 22 49 20-2-16-7-31-7-46-7-6-18-7-26-12-4-5-8-8-13-11-9-9-22-13-30-23 14 7 27 17 41 24l3 1c7 4 13 10 22 10-4-11-2-23-5-35-10-2-21-7-23-18l2 1c3 9 12 12 20 15 4-16 6-33 14-47l-2-2c6-5 6-14 10-21 7-10 18-22 31-15l1 2c-12-5-23 3-29 13l9-2c-10 3-13 12-12 22h-2a437 437 0 0 0-1 2v11c7-4 14-6 22-8-18 4-31 17-28 37 8-16 27-23 37-37 0-5-8-5-6-10l10-10c-10 6-20 12-31 14 14-7 29-14 42-23 4-3 10 0 14 0l-5-5 1-3a2702 2702 0 0 0 12 3c1 3 0 6-2 9-4-3-8 1-11 2-1-10-23 5-8 4l-8 5-2-3c-4 3-12 7-5 12 11 9-23 20-3 22 2-5 7-7 12-8 1-4-5-3-6-6-1-8 8-11 14-11l2 3 2-1c3 11 6-1 12-3l-11-5c1-4 5-11 9-6-2 2-4 4-4 6 4 0 7 1 11 3l-11 13c-6 1-10-3-12-8-4 2-8 4-8 9l10 3-1 2-2 2c9 1 7 13 9 19 11 0-2-12 4-17 7-6 19-4 25 3-2 9-13 11-16 19 5-1 18-5 15 5l5 3c-5 10-12 20-14 31 11-8 11-27 26-30l-2 5 5-6 7 2c4 13 4-5 2-10l-12 8v-3c6-7 17-14 18 1-1 4 0 7 1 10-4 11 14 13 10 25-3 6 2 11 0 17h-4l-1-4h-7l-1 4 8 1 2 12c-8 9-14-12-18 0 3 2 6 3 8 6l-6 7 8 3v11c12-6 25 3 26 16 9-4 11 12 2 12-8 1-4 9-6 14-16-6-3 24-22 18-4 5-1 8 4 8-1 6-6 20-13 11l-7 4c1-6 9-9 13-4 7-9-10-14 2-22 16 3 4-16 16-19l-6-5c-4 2-8 2-11 0 6-4 15-3 20 2 7-6 6-20-6-18v-3l-4 1c-2-6-6-6-9-1-4-7 2-18-6-24-5-1-6 7-11 6-1-6 1-14-7-15l-1-2c-3 7-9 13-7 21 4 13-2 28-16 31-4-3-8-5-11-9-6 0-8 8-5 12 5 3 12 1 15 8 1 6-8 13-12 6-5 1-12 0-10 7l9-1 1 5c16-10 29-24 36-42l-1-10c10 11 0 28-7 38 12 0 19-9 28-15-6 12-19 17-32 18-16 15-34 29-48 46-8 8-5 21-5 31 3-2 7-3 11-3l5 13c3-3 5-8 6-13-6-2-12-12-4-15 6-5 10 5 10 10l5 2c-1-5 0-9 1-14l-9 1c2-8 10-12 17-8-6-5-8-15-2-21 7 0 10 8 17 9l2 7 3-5c9-5-4-9 0-17-5 1-4 6-2 9l-5 1-1-9c6-5 14-5 19 2l2-4c8-3 4-11 7-17l2 2c1-6 6-6 11-6l-5-13c10-1 11 21-2 17l-1 5c-4 2-4 6-3 10l-6 5c0 10-11 2-14 3 13 6-1 18-7 22-1-9-8-14-15-17-7 4 1 11 4 15-2 7-10 4-15 5 13 2 4 34-8 16 3-7-6-11-6-2 12 3 8 23-4 23l-5-14c-6 2-7 8-6 14 4 46 2 94 13 140-11-4-28-7-29-22-5-24-5-49-6-73 0-6-4-9-7-13l-11-1 2 6c-13 1-21 18-34 5l3-7-2 1v-4c-5 4-10 7-16 5l2-9c-3-4-3-9-2-13l18-5c-4-3-6-6-6-11l-12 4c1-5 0-8-6-7l1 6c-5-1-11 2-16 0-3-8 2-16 4-24l-5 1 1 3-4 10h-3l1-9c-6 3-11 7-18 4 3-7 12-11 3-18-18 2-9-18-14-28-2-6 6-10 11-9l7 4v-4c4-1 7-2 10-1 9 13 26 0 35 10-3-9-15-5-19-13 1-17-20-11-29-21l1-7 14-5-3-4-1 4-4 1v-4c-18 6-5-11-10-19l9 1 1-6 4 1-7-7c-2-9 10-8 11 0h1c-1-10 8-9 14-8 2-11-10-9-17-9l-2-2-7-6 1-5 5-4-3 9 9 3c-1-9-6-17-12-23l-1 4-9-5c8-6 2-17 5-25h4l3-13c-3-4-9-6-14-6 4 10-8 7-4-2l-1-1 5-9 1-2c2-3 3-1 5 0l2 1c0-4-2-7-5-8 2-8 6-15 15-9l4 6 3-5-5-5-3-1 1-5c-4-3-11-2-15-5-4-8 5-17 11-9l5-2c7 11 4-10 5-14 1-11 15-5 15 4l3-1c5 6 0 15 4 22l2 8-5 1c2 6-5 11-6 17l10 2-1-3 3-1c-1-7 4-12 11-8l-1-5-10 2c1-6 9-5 13-7l-2-2 1-6c-7-3-16-7-9-16 5-3 3-9 3-14l5 1 9-8c-4-3-12-11-11-2h5v4l-4-1-5 5m11-18c-2 4 1 7 5 7 0-4-2-6-5-7m-13 42l4-1c1-9-4-8-4 1m-12-7c-6 7 0 15-2 22l4 2c-2-8 2-18-2-24m107 34l1 3-8-2c-2 8-10 4-15 1-14 7-6 20-1 29l8 2-2-10c-11-13 18-13 23-4 4-8-9-5-8-12l13 6-1-7-4-3 2-4-8 1m61 36c7 6-4 13-3 21h6c-2-8 6-14 11-19l-6 1-3-8-5 5m-98-3c-1 9 16 7 22 5-5-4-12-4-18-4l-4-1m110 10c-2 4-8 8-4 12 5-6 10 0 14 3l1-7-11-8m-1 12c0 3 0 10 6 7 4-2-4-5-6-7m-211 2c0 11 16 7 19 14l-5 2 7 2c3-12-12-17-21-18m161 3l1 11c3-3 6-7 8-12l-9 1m-95 3c6 5 14 8 21 10-6-5-14-7-21-10m-15 24l6 3 1-4-7 1m134 12l5-4 5-2c-5-3-9 1-10 6m-53-4c0 5 3 10 2 15-11-4-15 6-10 14 14-4 13-20 21-30l-13 1m69 6l1 6 5-4-6-2m-31 15c9 12-13 19-2 28 21-6 6-28 16-41-6 2-10 8-14 13m-161 3l1-6c-4 0-3 4-1 6m209 2c2 3 6 5 9 7 3-2 6 1 9 1 3-12-11-10-18-8m24 15l1 7c5-1 6-5 2-8l-3 1m-243 9c2 0 14-1 8-5-5-4-6 2-8 5m151 9c-4 4-9 7-15 9 2 2 8 8 8 1l13-4c1 3 3 5 6 5 4-8-6-10-12-11m-21 9c-2 13-6 25-3 38 7-4 10-13 18-17-4-8-5-18-15-21m14 12l2 6 6-7-8 1m-17 36c10-12 22-21 32-32-14 6-27 18-32 32m-135-10l6-9c-6-5-12 3-6 9m16-6c-13-3-21 15-14 24 7 4 15 1 23 0l1 12c5-1 9-1 11 4-3 6-8 13-4 20 7-2 18-13 21-1 4-2 9-5 13 0l-1 5 6 4c-3 5 0 8 2 13-3 5-6-1-7-4l-6 9c4-1 9-1 13 1l1-6c2 2 3 5 3 8l-9 10c4 3 10 7 15 3l-8-1c0-5 3-9 8-8l-3 4c8 0 10-4 1-6l3-8 11 1-4 5c-2-4-6-4-6 1l5 2 2 4c0-10 6-10 13-6 1-7-5-9-10-5l2-6c14-4 9 11 17 16 2-8-2-16-4-23-8-20-35-21-43-41 19 4 36 15 47 32v-22l-2 1c-9-2-6-15-16-17-15 4-6-17-19-14-1 5-5 8-9 9-2-11-14-15-22-22-10 7-21-3-31 2m42 3c6 3 12 6 14 12 0-10 8-8 15-6l4 12 9-1c7 4 9 12 12 18l3-2c-2-9-7-17-18-18-10-10-24-30-39-15m-46 26c10 3 3 11-3 16 5 0 8-2 11-5 0-5 4-8 2-13l-10 2m64 8c12 14 33 19 40 37-5-17-22-34-40-37m-24 40l2 9c6-2 8-9 13-13l-15 4m2 12l-1 6c5 1 9-3 13-7l-12 1m15 0v5l4-5h-4z"/><path d="M354 208l3-1c4 16 20 28 20 45-5-16-19-28-23-44zM437 226c6-6 7-2 3 3h-3v-3zM431 225l5 1-4 3-1-4zM282 297l12-9c2 8-11 6-7 14h-4l-1-5zM476 314h3c-2 14-13 28-23 36 5-13 19-21 20-36zM465 342c3 1 3 4 3 7h-4l1-7zM334 362c19 10 38 22 58 31 2 19 9 39 6 59l-38-17c11 13 36 10 39 31l-3 2c-3-5-4-11-9-14-22-10-47-23-56-47 6 2 8 11 14 15-4-17-25-26-26-44 5 9 14 16 18 26l3-3v5c8 24 33 31 54 41 1-17 1-34-5-50-17-13-39-20-55-35m12 62c2 4 5 6 9 7l-9-7zM283 385c0-3 1-7 5-7-1 3-2 6-5 7zM495 383l2-1c-2 5-4 11-10 12l8-11z"/><path d="M336 383l5 1v3h-4l-1-4zM342 389c9-4 11 12 21 11 2-2 6-3 9-3l6-1c2 9-5 17-13 17-8-8-19-14-23-24m30 13l-5-1c-14 9 9 12 8-1l-3 2z"/></g><path fill="#bcccc3" d="M301 265l7-5 1 2h7l2 5-11-1 2 4-9-3 1-2z"/><g fill="#197048"><path d="M307 266l11 1 1 4 11-2h1c12 12 19 28 24 43l-3-1c0-11-11-17-12-28l-2 2c-2-13-16-11-26-14v4c-4-1-8-3-12-1l1 4-7-2-3 5c-6-3 4-6 5-10l4-4 9 3-2-4zM270 290l8-11 1 1c-4 9 8 12 4 2 5 0 11 2 14 6l-3 13h-4c-3 8 3 19-5 25l9 5 1-4c6 6 11 14 12 23l-9-3 3-9-5 4v-1h-4l-2-5a484 484 0 0 1-5 1l1-3-5-8-2-9 1-3c-2-4-3-10 0-14-4-3-8-6-10-10m12 7l1 5h4c-4-8 9-6 7-14l-12 9zM308 340h3c4 2 9 1 13 1l3 5-6 6c-6-2-13-5-13-12z"/></g><g fill="#7db898"><path d="M259 274c7-6 16-8 25-6l-1 2-5 9-8 11c2 4 6 7 10 10-3 4-2 10 0 14l-1 3 2 9 5 8-1 3a702 702 0 0 0 5-1l2 5h4v1l-1 5-1 2c-7-2-13-7-16-13v3l-5-2 2-6-4-1v3l-8-9h-2c-2-9 4-19 1-29-1-6-7-14-3-21zM312 271c10 3 24 1 26 14l2-2c1 11 12 17 12 28-14-7-27-17-41-24 8 10 21 14 30 23l-2 4h5l-17 8-1 2c-3 0-8-1-10-4-6-6-17-7-18-17 0-8 6-21-7-22l3-5 7 2-1-4c4-2 8 0 12 1v-4z"/></g><g fill="#648274"><path d="M341 310c5 3 9 6 13 11l-1 1c-7 15-36 17-37-2 2 3 7 4 10 4l1-2a424 424 0 0 0 12-8l2-4zM291 312c9 1 24 6 21 18l-7-2 5-2c-3-7-19-3-19-14zM261 324h2l8 9v-3l4 1-2 6 5 2v-3c3 6 9 11 16 13l1-2 7 6c-17-4-34-13-41-29z"/></g></svg>