<svg width="1067" height="1067" viewBox="0 0 800 800" xmlns="http://www.w3.org/2000/svg"><g fill="#333533"><path d="M498 93c11 0 22-4 32-8l1 3c-11 9-10 25-18 36-11 16-16 34-23 52 16-14 33-28 47-43h2c6-5 11-12 18-14-2 13 20 19 27 8 4 7-4 17-10 21-11 9-18 20-28 30h-3c-14 21-40 30-56 49l-10 10 1 3 15-9c3-3 7-6 12-6 20-13 45-18 66-31 8-2 20-7 28 1l7-1-4 8h-4c-27 19-55 37-80 59h-1l-1-4c4-6 10-10 15-16l2 2c4-6 11-8 16-14l3-1c13-10 29-19 43-28-3-3-6-4-7-8-29 17-61 27-90 43-28 18-59 31-82 55-7 6-15 13-19 22l-4-2c4-12 16-20 24-29 9-4 11-13 11-22 7-18 4-39 5-58-2-12-5-24-2-36 0-18-10-38 0-55l3 1c-2 8-3 17 0 25l-2 3c8 13 0 31 5 45 17-14 40-27 38-53 1-13 12-23 20-33l-3-5 5-3 1 3m2 5c-7 10-15 19-19 30-1 16-3 35-19 43-9 6-19 13-25 22l2 22c12-7 26-14 29-29l2 1-5 9 16-11c7-5 2-17 10-21 0-26 23-43 26-68-5-2-11 5-17 2m-61 125c-3 7 0 15-3 22l-3 21c10-5 19-13 30-17s11-16 18-24c10-9 19-20 32-26 12-8 20-21 33-28 7-13 19-22 29-31-8-4-18-4-25-11-35 33-70 67-111 94z"/><path d="M420 117h2c-7 12-23 8-34 14 23 49 4 104-4 155 5 24 4 49 4 74-1 6 3 13-2 17-6-15-3-32-4-49 1-16-4-32-4-48l-2-1c-2-33-13-64-14-97-3-10-2-21-3-32l4-1c5 38 10 77 19 114 8-42 19-86 3-128 3-17 26-8 35-18zM307 172c22 9 32-18 48-21-11 16-32 39-52 24-6-4 0-7 4-3zM301 184c-2-3 0-5 2-6 10 10 6 26 11 39 10 41 23 84 26 126 4 8 4 19 3 28l2-2c9 4 1 15 5 22 1-2 2-5 5-7-1 17-10 33-20 47-11 18-22 36-29 56-18 39-30 80-35 122l-6 2c7-78 43-150 84-215l-4-2c-2-8 1-17-5-24 1-4 0-7-1-10l2-3-3-2c1-8 0-17-4-23-5-39-16-76-25-114-7-10-2-23-8-34zM424 352c5-9 12-17 19-25l1-1v8c-18 22-33 46-44 72-2 3-3 10-8 9 3-12 8-23 15-33 3-11 10-20 15-31l2 1zM373 441c5-10 8-23 18-28-10 25-22 49-34 74-11 51-22 103-28 156-1 1-2-1-2-2-4-21 2-42 7-62 2-25 9-50 13-75 2-24 18-42 26-63zM343 684c-3-2 1-7 4-4 8 2 17 1 23 5-8 4-18 4-27-1z"/></g><g fill="#0d130c"><path d="M345 187l4-1c-1 5 3 10 3 15 3 10 5 21 5 31l-12-45zM420 217c1-10-2-22 1-31v59c-5 4 1 14-6 16l3-22h2c-4-6 0-14-3-20l3-2zM404 234c3 0 5 1 2 4l3 2c1 8-3 15-1 22l-4-1v-27zM356 238c5 0 2 7 3 10h-2l-1-10zM357 249c4 2 2 7 3 10l-3-1v-9zM444 326c21-26 44-50 72-69l1 4c-23 22-49 41-68 67l-5 6v-8zM440 310c11-8 19-18 29-27v2l-32 35-5 6c-2 2-4 12-7 5l11-15 4-6zM411 357c4-8 7-18 14-23-3 8-6 19-14 23zM354 368c-3-9 2-21 13-16 16 13 20 37 22 56-4 1-6-3-6-7 2-8-4-14-5-22-2-9-6-17-12-24-11-4-7 9-12 13zM406 364c0-3 1-6 4-7 0 3 0 7-4 7zM362 433c1-10 3-23 8-30 2 25-17 46-22 70l-3 3a462 462 0 0 0-18 60l-3 1c1-7-1-15 5-20-1-5-1-10 2-14 6-24 19-47 29-71l2 1zM323 539h3c-1 4-1 8-4 10l1-10zM321 561c3 2 1 5 0 8-1 4 0 8-3 10l3-18zM266 615c18-17 43-2 53 15-12 1-17-16-30-18-8-4-15 7-23 3zM258 646c-5-8-5-31 9-29-7 8-7 19-6 29h-3z"/><path d="M289 627c-7-5-7-12 4-10l-3 2c4 7 12 11 16 18 1 8 4 18 12 24l-1-5 4-6c-1-4-2-9-5-13h-5l5-5c9 3 14 18 6 24l1 5-2 3c7 5 7 14 6 22-7-1-4-10-6-15h-4l-4-7 1-4c-11-7-7-26-22-27-3 11 11 19 9 30-9-6-12-17-16-26l3-4-1-4 2-2z"/><path d="M275 631c-11 0-11-17 1-12-7 7 4 12 9 6 8 11-15 13-5 21 3 6 7 11 13 14 0 5-7 1-10 0 0 9 9 17 0 25-1-5 0-12-3-17-6-7 0-20-11-23-3 6-4 14-3 21l-2 1 3 6c1-3 4-4 6-1 4 9 6 24-2 29 1-19-16-36-8-56l12-14zM330 656c5 6 11 13 18 17 4-1 10-5 13 0-6 2-15 7-21 1-4-6-16-10-10-18zM303 672c0-5 2-8 7-9-1 8-5 15-4 23-3 6-2 13-3 19 3 5 9 6 12 10-11 3-19-7-16-18 4-4 0-11 2-16-2-4-5-7-6-12 3-2 6 1 8 3zM362 674c11-8 30 1 27 16-9 0-8-18-20-14l-1 4c-4 1-5-3-6-6zM321 697c-3-5-12-16-2-18 0 11 8 19 15 26-5 8-11-4-13-8z"/></g><g fill="#97d163"><path d="M451 228c9-7 20-7 30-3-7 8-7 20-18 24s-20 12-30 17l3-21c4-5 9-10 15-14v-3zM477 237l10-10c1 2 4 3 6 4l-15 9-1-3zM416 290c23-24 54-37 82-55l9 11-11-5 4 6c-4-1-9-2-14-1l1 4-15 5-1 4c-6 5-12 9-19 11 0 5-4 7-8 6l1 2-2 5-2 1 1 7-5 1 2 3-5 3c1 4 3 9 6 12l-4 6c-10-6-14-17-20-26zM417 281c1-8 6-15 11-22 0 9-2 18-11 22z"/></g><g fill="#329714"><path d="M496 241l11 5c4 3 7 7 9 11-28 19-51 43-72 69l-1 1c-2-2-2-6-6-7l32-35v-2c-10 9-18 19-29 27-3-3-5-8-6-12l5-3-2-3 5-1-1-7 2-1 2-5-1-2c4 1 8-1 8-6 7-2 13-6 19-11l1-4 15-5-1-4c5-1 10 0 14 1l-4-6zM517 261h1c2 14 15 23 14 37-13 32-54 37-83 30 19-26 45-45 68-67z"/></g></svg>