<svg width="1067" height="1067" viewBox="0 0 800 800" xmlns="http://www.w3.org/2000/svg"><g fill="#080807"><path d="M388 171c4-8 15-8 22-13 6 8-3 15-3 24 5-2 9-7 14-9-1 6-7 8-11 11l4 1-3 5c0 13 3 33-11 40 12 5 27 0 39 7-8 17-25 39-47 33 16 6 15 31 0 37 4 8 5 19 0 27h-3c0-8 3-15 1-22-2 5-2 10-8 12 1 7 2 13 5 19 11-5 16-19 25-26 4-7 15-9 17-17 6-3 10-9 9-17-6 2-13 3-19 6-5 7 4 24-9 24l4-15-4 1c0-6 5-10 4-16 19-4 38-11 56-3 11 6 26 4 33 16-14 7-27 17-43 21l1 5c-6 1-10 5-14 9h-2v-4c-10 2 0 7 3 10-4 4-10 7-16 7l3 4c-9 8-22 3-34 3-2 0-3-3-3-5 7-2 15 2 22 2-5-4-12-5-16-10 5-4 12 3 18 5 5-4 11-4 17-5-3-3-5-7-6-11 3-1 8-3 10-6-7-2-14-3-20-7-11 9-21 21-28 34 1 2 4 3 2 5-8 0-18 4-22 12v31c4-13 21-21 30-9l-1 4c5 2 10 4 16 4l14-20c-7 4-14 8-22 10 0-11 13-9 19-15 12-9 26 4 39 0 8-2 11 7 9 13 5 2 19 7 11 14 6 4 18 8 9 16 4 10 11 6 16 0 5-5 14-5 19 1 7-5 23-9 23 4 9-6 26-4 25 9 6-2 14-7 20-3 4 5 4 12 2 17 11-1 24-3 32 8 1 9-11 12-17 17 10 11-23 11-11 18v4l-15 3 3 9c-5 3-10 5-16 5 1 11-13 9-20 11l1 4c-6 1-11 2-17 1-6 16-29 9-40 4-10 12-28 8-35-5-12-8-28-12-35-26 12-1 18 19 33 15 8 6 11 20 23 18 6 0 8-7 12-10 4 2 7 6 12 8 5-7 14 4 21-1 7-2-1-7-1-12 8 0 14 8 21 4-14-15-21-43-47-39v-3l-15 4-2-7c11-7 10-17 6-27l-4-2v-3l9-3c-6-4-9-9-3-14-2-5-13-10-4-14-4-4-10-6-13-10 17-9-23-8-7-19-10-7-25-2-37-7-2 10-8 18-15 25 9 4 21 14 28 0 6-3 3-14 10-15 2 11-8 18-14 26 9 4 18 9 25 15 5-1 5-7 7-11h4c0 6-4 11-7 15 8 7 15 16 19 26l-3 1c-6-9-11-18-20-24l-3 3c7 8 12 17 12 28 7 0 10 7 8 13l-2-1c-10-16-36-13-50-26-15 7-8 25-10 38-7 0-4-9-5-14-2-10 2-20 8-28-13 1-20-14-14-24-11 5-19-15-17-24-3-1-8 7-9 1-24 7-8 34-3 49l3-1c7 18 21 33 25 51-13-12-16-32-29-44-9-10-8-26-14-37-17 5-6-14-10-23-4-11 3-26-10-32-10-14-23-26-40-32-6-4 3-7 4-11 6-9-2-19-8-25-5 1-9 0-8-6-11 4-19 15-32 14v-3c10-1 18-8 26-14-16-15-29 21-47 7 10-2 25-2 29-15-17-11-33 1-51-2-3 0-8-1-7 4l13-2c0 5-2 9-3 14 6 0 12-5 18-5 0 6-5 10-5 15l17-2c-5 16 13 11 22 7-1 6-4 13 3 16 8 2 16 0 22-4-1 15-34 14-31-3-9 3-19 2-23-9-7 2-18 2-15-10h-13l1-11c-7 0-13-3-12-11-10-1-17-10-19-20 5-5 15-6 20 0 6-11 25-11 34-3 4-8 14-5 20 0 9-6 17 1 23 7 6-19 26 5 31 15-11-3-14-16-25-18-3 4-2 10-1 15h-4c-5-6-9-18-19-17-1 10 11 13 12 22l12 5-6-9c12 3 15 18 26 24h3c6-9 9-20 3-30-6 0-11-6-10-11 5-4 5 2 7 5 7 1 15 2 21 8 10-1 21-7 31-2-1 12-16 27-27 18 1-11-11-15-20-18 8 11 3 25-5 35 5 6 3 13 6 20 7-8 12-17 13-27-1-6-5-12-5-18l4-1c9 17 5 36-8 50 13 5 24 14 31 26 4-17 11-38 3-55 3-5 2-16 10-15-1 8-8 18 3 21 2 3 4 7 8 4l2 4c10-3 12-13 12-22-3-8-12-10-19-14v-3h8l-17-7c-7-16 11-19 14-31-10 0-7-15-12-22l-8 1c2 5 0 10 0 15 5 1 10 4 9 10-12-3-19-13-14-25 3-16 20-23 26-38l3 1m8 2h-4c-7 5-1 14 1 21 4-1 6-6 9-8 0-7 2-13 5-18-5-1-8 1-11 5m-13 10c-1 6-10 7-8 14l-3 1c5 8 6 19 11 26 7-3 6-14 7-21l-6 1c1-3 4-5 6-6-2-5-2-12-7-15m7 40l11-4v3l-12 7 9-1v-2c10-8 10-22 9-33-14 4-17 17-17 30m-23-24c0 2 1 4 3 5v-5h-3m28 34c-8 4-15 11-21 17 11 2 22-3 32-4l2 2c-2 8-8 15-17 15 17 11 35-8 42-23-12-3-26-1-38-7m-162 14c-3 6-9 2-13 2l-1 3c20 3 39 13 59 17-8-7-14-20-26-21v9c-8 2-11-12-19-10m-33 6c2 4 3 9 7 11 14 2 26 9 40 2-12-4-24-9-37-9-2-5-6-6-10-4m175 2v3c9 1 22 3 26-6-8 1-17 4-26 3m-25 24c7-2 14-6 15-14-10-3-23 4-15 14m91 3c1 5 1 11-2 16 10 0 27-4 32 7-15-3-32-6-44 5 6 6 17 6 25 10 5-13 23-9 32-18 2-4 7-5 10-7-16-7-34-13-53-13m-70 21c-2 15-1 30-7 44 0 3 0 9-5 8-7-13-19-26-34-30 14 9 23 24 35 34v2c10 10 2 29 9 41 4-16 2-33 1-49 1-16 5-34 1-50m2 47l10-3c-5-12-6-25-4-38-5 12-5 28-6 41m9 43c5-2 12-2 16-6-6-2-14-2-16 6m21 4c-1 11 6 8 10 3-3-2-6-3-10-3m15 5l-8 6c10 7 15 18 19 29l6-2c2 5 6 8 12 9l2 5c10 0 16 9 26 10 0-12-9-29-22-20l7-6c-5-5-12-7-19-9v-3c8 1 16 3 23 8 2 2 5 0 5-3a56 56 0 0 0-42-14l8-4-17-6m88 20c-5 2-5 7-1 10 7 4-2 9-6 11 10 9 6 22-3 30 20-2 29-22 33-38 0-7 0-13-2-19-9-7-14 16-21 6m25 3c3 14-2 29-10 41 9-1 17-4 26-6l-10-1v-4c17 5 35-12 24-28 17 7 2 29-10 33 14 0 32 2 43 11-13-1-25-8-38-7 13 8 26 24 42 21l-6-4c2-9 14-3 19-9-3-1-11-1-8-8 9 0 21-5 26-13-7-9-21-4-30-1-4-7 4-14 0-22-8-2-14 5-20 8-6-1-3-10-3-15-12-7-19 13-28 8 2-4 3-9 3-14-8-2-14 5-20 10m-113 4l3 6v-5l-3-1m100 42c18 4 27 21 35 35 5 5 14 6 20 1-3-2-11-8-5-10 7 2 14 5 21 1-3-5-5-10-10-12-13-5-23-21-39-15v-3l3-2-25 5z"/><path d="M337 257l24-4c0 11-16 6-24 7v-3zM295 314c3-4 4-10 10-11l1 4c-3 3-6 6-11 7z"/></g><g fill="#30302c"><path d="M324 250c5-13 22-12 34-10 5 1 11 7 6 12-9-14-29-7-40-2zM376 273h3c5 8 3 20 0 27-3-8-1-18-3-27zM364 417c3-1 5 0 5 3 4 33 41 53 39 89l8 2c-3 7-12 2-18 2l-1 2c5 6 24 6 19 15 8 26 5 56 23 77-8 16 19 17 22 28-18 2-27-19-31-33-12-22-11-49-17-73-20-11-41-22-65-23v-3l15-1-5-8c14 9 29 15 46 14 0-35-39-56-40-91zM229 444c14 0 29-1 41 7l5 5 4-3 13 9c4-16 21-11 28 0 5-11 19-4 22 5l5 8-3 3c3 7 5 14 3 21-3-8-4-17-10-25h3c-4-5-7-13-14-14-3 3-3 9-4 13-7-5-9-17-19-17-7 1-4 10-5 14-8-3-15-10-24-8-4-3-13-16-18-7-5-5-12-8-19-7 0 5-1 9-7 7-4 3-1 8 0 12l-3 1c-3-2-6-4-9-4l-2 12c-13-4-25 1-36 7 4 4 7 10 12 12 18-7 36-8 55-11l19-2c-9-6-21-10-26-20 11 7 23 12 33 20l48 6c-3-10-10-18-18-25 13 2 19 15 24 26 12 2 4 11-5 12l4-5c-20 5-24 31-39 42 7-13 16-24 23-36l7-9c-21-4-43-6-65-5-21 4-43 5-64 12 6 4 14 2 20 5 6 6 4 17 14 21 11-12 20-26 35-32l9-1v4l-3 1c-17 3-28 18-39 30 6 5 15 1 22 3v10c7 1 14-11 20-4 5 8 12 0 18-1l2 7c6 0 9-6 15-8 7 8 11-5 18-5l1 7c12-4 14-21 21-28 1 13-12 37-27 29-4 5-9 7-15 4-5 5-15 9-18 1-7 2-15 3-20-3-6 6-22 9-21-3-14 1-27-8-33-19 0-5-1-11-7-9-17 3-23-15-27-28 11-7 25-14 39-12-3-8 2-13 10-12l8-7-1-6z"/><path d="M451 459c4 0 1 11 0 16 11 0 21-4 31-1l-7 2c16 9 31 23 37 41-16-9-24-36-46-36-18-8-31 7-41 20 8 42 17 83 32 122-6-3-8-11-10-17-8-24-17-48-18-74 1-13-12-23-7-35 9-13 27-21 29-38z"/></g><path fill="#e0dfcb" d="M271 374c10-1 22-2 31 5l-2 2c13 4 27 5 36 17-12-4-24-4-35-10-6-2-14-8-19-2-3-7-10-9-16-6l2 3c-3 3-7 4-12 4-4-8 10-9 15-13z"/><path fill="#a0bc18" d="M266 380c6-3 13-1 16 6 10 1 21 3 28 10l-3 3h10c-4 6-6 13-3 20l-4 1 4 4c-5 9-23 4-21 16l-3 4 5 2c-6 2-12 3-16 7l-4 3-5-5 2-1-2-4 5-3-7-2 3-3-3-3 4-1c-3-2-8-3-11-6l-1 3-5-2c-4 4-6-2-4-6l-8-2-3-1 2-4c-2-9 2-16 9-22l-2-3 7-4c5 0 9-1 12-4l-2-3z"/><g fill="#d6dd5c"><path d="M282 386c5-6 13 0 19 2 11 6 23 6 35 10 16 18 23 50 6 69-3-9-17-16-22-5-7-11-24-16-28 0l-13-9c4-4 10-5 16-7l-5-2 3-4c-2-12 16-7 21-16l-4-4 4-1c-3-7-1-14 3-20h-10l3-3c-7-7-18-9-28-10zM243 421l8 2c-2 4 0 10 4 6l5 2 1-3c3 3 8 4 11 6l-4 1 3 3-3 3 7 2-5 3 2 4-2 1c-12-8-27-7-41-7v-9l7-1c3-4 3-10 7-13zM237 448c7-1 14 2 19 7 5-9 14 4 18 7l-20 2v-2l-18-2 2 5-2 1-6-11c6 2 7-2 7-7z"/></g><g fill="#ecf273"><path d="M298 470c1-4-2-13 5-14 10 0 12 12 19 17 1-4 1-10 4-13 7 1 10 9 14 14h-3l-2 1c-2 5-4 10-8 14-5-11-11-24-24-26 8 7 15 15 18 25l-48-6c-10-8-22-13-33-20 5 10 17 14 26 20l-19 2-11-18 2-1-2-5 18 2v2l20-2c9-2 16 5 24 8zM252 488c22-1 44 1 65 5l-7 9c-6-2-11 4-18 3-11 3-20-4-29-7l3-1v-4l-9 1-5-6z"/></g></svg>