<svg width="1067" height="1067" viewBox="0 0 800 800" xmlns="http://www.w3.org/2000/svg"><g fill="#010101"><path d="M368 223c5-19 23-31 36-44 12 4-4 18 0 26 7 3 17 6 14 16 12 2 22-6 34-9 9 6 12 19 23 21 15-3 28 5 42 9l4 3c2 8 8 14 13 20-3 4-8 5-13 6l3 15c21-2 38 13 53 25 3 5-6 10 2 13-4 13 13 13 16 23-5 4-5 11-4 17l-3 1c-3-6-2-13 2-19-12-5-14-16-21-25l5-8c-11-12-27-16-41-23h-12c11 21 44 23 47 48 9 3 1 11 2 17v7c-6-3-7-14-1-18l-2-2-4 4c-3-5 0-12-2-18-14-14-33-21-46-35-9-8-25-13-34-2l-1-3c-5 1-9 2-13 1-6-4-2-14-6-18-15-2-32 7-44-4-18-6-36 1-47 15-25 15-8 53-31 69 17-22 5-58 32-74 12-18 39-19 56-8 13 1 26-4 38 0 1 6 1 12 4 17 15 1 29-13 43 0-10-26-39-32-61-45-32-9-66 0-96 12-16 4-37 26-23 44 2 7-9 0-11 5 0 6 3 12 8 15-5 6-9-4-13-7-4 10 11 13 13 22-7 0-14-2-20-5l-2 2c3 4 9 10 4 15-9 4-12-8-15-14-9-3-19 0-25 7 4 12 1 29-12 35-14 12-22 32-8 48 3 21 3 44 15 63 8 24 35 32 48 52 24 6 51 16 75 7 13 2 24 11 38 10 13-1 22-14 36-13 12-1 23-7 34-11l-5-5-1 4c-12-14-32-16-47-26-27-10-35-41-32-67 7 17 2 40 19 53 17 14 38 23 59 32-6-11-13-22-17-35l3-1 11 23 1-8 3 1 1-3c0 9 2 18 5 27l2-2 1 5c13-2 22-13 27-25l4-5 4 4c-2 2-4 3-5 6-7 23-32 26-51 34-12 3-25 2-35 11-17 11-36 1-52-4-28 3-59 1-84-14l-2 1c-5-9-19-15-27-7-6 7 13 12 1 16-7 8-20-3-16-10h-13c-1-7 5-11 5-17-9 1-19 1-27-3 1-7 13-2 15-11-5-2-3-8 2-5 0-11-16-3-23-5-3-6-4-13-1-20-5-5-4-12-3-18-8-3-11-11-15-18l2-3c2 2 4 5 7 5 1-6-3-10-6-14l6-3-2-5 3-12c-8 0-20 7-25-2-3 5-6 14-13 12 1-4 1-11-4-13-1-8 4-24 15-22 2-6 7-3 12-3-3-8-12-9-19-12-4-8 4-16 11-18 1 6 4 8 9 4l3 7c2-3 4-6 8-7l2 8c2-7 13-6 14-13-9-5 2-18-9-21 2-13 12-19 24-21-3-9 15-6 17 1l2-1c2 4 2 10 0 14 6-8 15-12 25-12 7-1 2-10 2-15 6-13 20-22 34-21 4-4 14-8 8-15-7-9-3-22 7-27 8-1 8 11 15 9 8 1 8-10 11-14l5 1m13-6c8 4 11 17 1 20-2-4 7-9 1-13-5-4-5-11-2-16-10 4-8 16-12 24l-6-3c1 11-10 13-19 12-2-4-5-13-9-6-8 7 0 15 2 23 5-4 10-9 16-10 35-14 78-24 112-5 10-8 21 0 30 3v2c-9 2-18-9-27-3 21 9 40 22 51 42l-3-17c2-2 5-4 9-4-7-1-12-11-20-8-2-12 15 1 19 3l-8-14c-10-8-25-4-35-11-15 5-20-12-31-18-12 2-27 13-39 5 7-11-8-12-14-18 5 8 20 13 7 23l2-11-12-8c1-8 12-15 9-23-10 7-18 19-22 31m-87 86c7-3 17-1 16 8-4-5-11-9-17-3h-2c-5 3-11 0-16 4-6 4-7 13-14 16 4 2 7 7 11 3 7-9 18-5 27-5 1 1 3 3 4 1 4-7 13 1 19 1-6-4-17-17-6-21-1-6 5-12 11-10l-6-15 4-9c-17-2-37 11-31 30m-47-1c-6 9-22 7-24 20 6 4 6 11 4 17 4 2 5 7 5 11-7 3-15 5-16 14l4-2c3 3 4 7 9 8 0-5 1-9 3-14h3c-2 5-2 11-5 15l6 5 6-2c0 4 4 4 7 5 2-9 11-11 17-16-1-8 7-17-1-23-1-13-12-1-18-6 0-7 10-7 15-10l-4-6 1-10c-4-3-7-5-12-6m55 28c0 4 1 11 7 11 1-5-4-8-7-11m-119 30c7 4 18 6 20 15 0 6-8 4-11 5-2 4-6 7-9 2-1 3-1 7-5 8-4 6 1 13 3 19 3-3 5-17 10-9 7 10 20-4 27 2 1 7-3 13 0 20-8 4 1 12 0 18-13 2 0 9 5 11 0 6-4 14 3 17v20c8 3 16-4 22 2 4 8-2 18-10 22l6 1 2 2c5-1 10-3 15-1-1 6-5 11-6 17 4-1 9-3 13 0-3 7 5 17 12 9-3-4-8-9-4-14 5-4-4-12 1-15l3 11c5-2 10-2 15-1-16-12-30-27-38-45l-5 13 6 9c-5-2-8-6-9-11 2-5 6-10 7-16-6-13-7-27-8-41-8 0-13 5-15 12 7 0 15 4 14 13-5 4-10 9-16 12 1-7 9-10 13-15-1-6-8-6-13-8-1-9 7-17 16-16-4-15-15-33-1-47-10-2-19-7-27-15-6-1-10 6-11 12-6-3 2-12 7-14-5 0-5-6-7-9-2 4 0 13-7 13-2-4-2-9-3-13-2 2-5 4-8 3 0-9-6-4-7 2z"/><path d="M304 283c6 0 13 1 13 8l-11-5-4 2 2-5zM424 293c9-4 13 9 20 12 12 5 25 5 38 9 7-2 12-9 20-8 6 2 12 8 13 15l5 13h13v3c-23 8-16-25-33-30-7 2-10 10-18 10-6 1-11-6-17-2-13-5-27-7-35-20-8 0-14 7-22 10-12 6-9 22-8 33-6 7-18 9-22 19-8 9-23 26-9 37-1 9-5 18-11 25 1-8 7-16 7-24-14-14 2-31 12-41 4-10 17-10 20-20 2-7-3-14 1-20 3-12 17-16 26-21z"/><path d="M416 344c10-14 28-9 41-5 16 7 38 3 49 20 2 4 7 3 11 2l-1 4c-5 1-10 1-14-2-6-8-14-14-24-14 6 6 10 13 11 22l-1 3-3-1-1 2c0-27-30-35-51-35-19 4-32 27-25 46 6 19-8 37-24 46-6 5 0 12 1 17-10 1-13-20-3-23 14-6 28-22 21-38-6-16-1-35 13-44zM280 347c0-4 1-12 6-10-4 5-5 10-1 16-1 13-4 28-14 38-9 7-9 20-10 30h-2c-1-8 2-15 3-22 10-15 24-32 18-52zM323 385c-8 22-23 49-6 71 22 48 76 68 117 93-13 0-27-13-40-19-38-17-72-46-87-86-5-21 3-43 16-59zM234 408c2 0 4 2 4 4-2 0-4-2-4-4z"/><path d="M358 420c6 17 1 37 10 54 8 16 25 26 43 25 20 1 35 16 53 22-18 2-30-17-49-18-23 1-48-13-53-37-3-15-3-31-4-46zM297 486c-14-15-13-40 0-55-5 17-11 38 4 52 12 21 33 32 53 43v3c-22-9-44-23-57-43z"/></g><g fill="#cee39b"><path d="M506 359c5-5 19-7 22 1l-11 1c-4 1-9 2-11-2zM502 363c4 3 9 3 14 2h10c4 2 9 5 11 9-4-3-9-5-13 0 2 2 1 3-1 4l-1 3 2-2 1 3 3-1v3l-5-1v4l-3 1-2 4c-4-9-11-22-23-19 4-2 6-6 7-10zM549 365c11-6 22 5 34 4 4 3 4 7 2 12l-2 1-1-1-2-6-3 4h-2l5 2-4 2-4-2c-6-7-14-14-23-16zM612 393l8 7c-6 12 8 21 8 33-6-2-11-9-17-7-2-6-8-10-12-15l4-10c4-2 7-5 9-8zM473 416a603 603 0 0 1 2-4l1 6 1-7 2 7c6 2 2 5-3 2l-3 5h-7c1 2 2 5 1 7l9 3c-5 8-2 19 2 27l-1 2 11 3-1 16c-12-11-14-28-16-44-6-1-9-6-13-11l-1 1c0-4-1-10 1-14 1 3 2 7 1 10 6 0 8-8 14-9zM497 447l8-11a578 578 0 0 1 6 5l2-1v-1l11-3 1 4 6-2 1 2c12-1 23 3 34 5l3 2c-1 6-4 11-8 15-9-4-18-11-29-9h-1c-3 4-5-1-6-4l-8 2 1-4c-3-1-7-2-11-1l1 3-8 2-3-4zM606 449l4 1 2 1 8 2c-1 12-8 21-19 24 1-8 0-17 7-22 4-2 1-5-2-6zM579 453l1-3 1 6 5-6h1c0 3-3 8-1 11 6-1 9-6 14-8-1 6-5 11-10 14v-1l-5-1c-3 0-6 2-7-2-4 1-7 0-10-2 5-4 3-13 11-8zM514 488c1-3 2-6 5-7l2 3h-4c3 1 6 3 6 7l1-1 1-5c-3-4-1-4 3-2 3-2 6-2 8 1l-5 12-4 5c-13-1-25-5-35-12a411 411 0 0 1 0-3l12 7 4-8 6 3z"/></g><g fill="#2b2d25"><path d="M570 355c2 6 9 4 13 7 5 7 7 16 16 20v2c5 0 9 5 13 9-2 3-5 6-9 8l-4 10c4 5 10 9 12 15 2 10-3 9-7 2-1 11-16 16-15 27 6-2 11-6 17-6 3 1 6 4 2 6-7 5-6 14-7 22 11-3 18-12 19-24 2-3 4-6 8-7l2 10c12-4-1-16-2-23 0-12-14-21-8-33 1-9-3-20-5-29-7-9-18-3-27-6l3-1c8-2 20-5 26 3 5 9 5 20 10 29-5 7-3 15 1 23 6 8 4 21 12 28 1 8-5 12-10 17h-2l-4-9c-1 13-13 22-25 26v-17c-13 6-6 26-21 28-13-2-26 3-38 10-4 0-7 1-10 4 1-3 3-4 5-6l-4-4 5-12 7-12c8 0 14-5 18-10a29 29 0 0 0 8-16l-4-15c-5 0-6 9-12 6-2-4-2-9-3-14-8 2-12 11-19 15l-6 2-1-4c12-8 11-32-4-36-8-1-12-9-13-16-2-8-13-4-19-4l-3-3-1-2 1-2 3 1 1-3c1 2 4 4 6 2 12-3 19 10 23 19 6 4 13 7 18 12 1 6 0 13 2 20 4-3 9-5 14-6 2 3 4 6 4 10 9-7 17 0 20 10 1-5-3-13 4-15 8-1 17 3 25 1l-11-12c2-4 4-8 3-13 11-1 12-12-1-11-1-5-5-9-11-7 2-5 2-9-2-12-3-5-8-7-13-7v-7m12 71c1 8-1 16-2 24l-1 3c-8-5-6 4-11 8-6 6-12 15-21 14-4 8-9 15-11 23 8 0 14-9 23-6 4-3 10-9 14-2 13 0 14-13 17-23 5-3 9-8 10-14-5 2-8 7-14 8-2-3 1-8 1-11h-1l7-11c4-2 3-6 2-9l-13-4z"/><path d="M517 361l11-1 21 5c9 2 17 9 23 16 2 7 7 12 13 15-12 7-15-13-22-19-11-8-24-11-37-12h-10l1-4zM473 484c-12-25-30-59-12-86l-3 16v1c-2 4-1 10-1 14 2 20 12 36 19 54l-3 1zM488 467c-1-17 8-32 22-41l-5 10-8 11c-5 12-7 26-5 39v10l-1 3-3-1-1-15 1-16z"/></g><g fill="#e6f0ca"><path d="M526 365c13 1 26 4 37 12 7 6 10 26 22 19-6-3-11-8-13-15l4 2 4-2-5-2h2l3-4 2 6 1 1 2-1c6-2 10 2 11 7 13-1 12 10 1 11 1 5-1 9-3 13l11 12c-8 2-17-2-25-1-7 2-3 10-4 15-3-10-11-17-20-10 0-4-2-7-4-10-5 1-10 3-14 6-2-7-1-14-2-20-5-5-12-8-18-12l2-4 3-1v-4l5 1v-3l-3 1-1-3-2 2 1-3c2-1 3-2 1-4 4-5 9-3 13 0-2-4-7-7-11-9z"/><path d="M485 377l3 3c6 0 17-4 19 4 1 7 5 15 13 16 15 4 16 28 4 36l-11 3v1l-2 1v2l-6-7 5-10c-14 9-23 24-22 41l-11-3 1-2c-4-8-7-19-2-27l-9-3c1-2 0-5-1-7h7l3-5c5 3 9 0 3-2l-2-7-1 7-1-5h-3l1-4c-5 1-3 4 0 7-6 1-8 9-14 9 1-3 0-7-1-10v-1c3-3 7-5 11-6-7-15 10-20 16-31zM531 438c7-4 11-13 19-15 1 5 1 10 3 14 6 3 7-6 12-6l4 15v1l-3-2c-11-2-22-6-34-5l-1-2zM611 426c6-2 11 5 17 7 1 7 14 19 2 23l-2-10c-4 1-6 4-8 7l-8-2-2-1-4-1c-6 0-11 4-17 6-1-11 14-16 15-27 4 7 9 8 7-2zM582 426l13 4c1 3 2 7-2 9l-7 11-5 6-1-6c1-8 3-16 2-24z"/><path d="M507 446c4-1 8 0 11 1l-1 4 8-2c1 3 3 8 6 4h1c11-2 20 5 29 9-4 5-10 10-18 10l-7 12c-2-3-5-3-8-1-4-2-6-2-3 2l-1 5-1 1c0-4-3-6-6-7h4l-2-3c-3 1-4 4-5 7l-6-3-4 8-12-7c-2-13 0-27 5-39l3 4 8-2-1-3zM624 455l4 9c-8 14-22 29-40 25l1 3-16 6h4v1c-13 0-25 4-37 3 12-7 25-12 38-10 15-2 8-22 21-28v17c12-4 24-13 25-26z"/><path d="M547 475c9 1 15-8 21-14 3 2 6 3 10 2 1 4 4 2 7 2l5 1v1c-3 10-4 23-17 23-4-7-10-1-14 2-9-3-15 6-23 6 2-8 7-15 11-23z"/></g><path fill="#6d735f" d="M628 464h2c-9 21-31 31-53 34h-4l16-6-1-3c18 4 32-11 40-25z"/></svg>