<svg width="1067" height="1067" viewBox="0 0 800 800" xmlns="http://www.w3.org/2000/svg"><g fill="#060707"><path d="M164 279c18-6 37-12 55-4 20 3 36 17 56 21 56 18 114 29 173 34 27 2 55 4 82 9l29 7 12 3 7 2c32 8 63 21 91 38l2 3 2-1 1 2c15 14 31 33 29 56l3 2c0 13-3 26-13 36-4-3-6-1-6 4l-8 5-1-4c12-16 22-35 21-56-5-14-12-28-25-37-4 10-9 20-18 26 8 6 19 11 25 20-10-5-19-13-28-20-9 1-15 6-19 13l-7-5-14 1-7-11 3 2 1-6 6 1c0 5 5 5 9 5 0 6 7 6 9 2l2 3 3-4c7 0 12-6 4-8-17-6-32-16-50-18-8-3-16-7-26-7l-14-3-13-1-3-1c-38-8-77-9-115-20v-2c38 8 77 12 116 20v-2c7 5 16 4 24 5l17 3c26 5 51 18 75 29 8-5 26-21 12-30a331 331 0 0 0-106-41l-4-1c-9-2-17-6-26-7-15-2-29-5-44-6-91-4-183-20-266-57-17-7-46-9-52 13 6-1 14 0 14 7-2 8-14 6-15 15 8 4 7 18-4 18-1 8 7 10 11 15 3 10-11 14-18 11-5-2-9-5-14-6l6 11-1 4-3-3c-6 5-15 5-22 3-14-12-30-27-50-28v-3l2-1 1-3 4 2h5v-7c4-8 9-19 5-28-5 10 0 29-13 32 8-14 4-31 14-44 4 0 2 4 1 6 5 1 6 6 6 10l-2 1c0 8-7 15-3 23 18-11 34 9 47 19l1-2c9 4 16 13 26 11 13-9-18-18-4-27l-38-5-1-1c-6-1-12-2-17-5l1-3 18 5 20 3c8 1 15 4 23 4 1-5-2-8-5-12 1-7 7-11 13-13l2-4c-5-3-17-1-14-10l4-5c-15 5-30-6-44 2-9 8-19 9-30 8v-3c18 2 30-13 48-13l1 1c7 0 14 5 21 2m-73 50l-3 8c13 6 24 13 34 23 5 6 14 4 19 1-7-19-28-40-50-32z"/><path d="M113 304c17 9 39-18 52-1-21-7-44 17-64 0-5-8 8 0 12 1zM191 304c0-8 10-3 15-5 10 0 19 7 29 9 0 2-1 4-3 3-13-4-27-13-41-7zM260 321c-1-1 2-2 3-2 46 13 90 31 136 43-48-7-92-28-139-41zM140 333l2 1c5 0 11 2 14 7-5-2-18 0-16-8zM181 352c7-1 15 8 21 13-7-3-18-5-21-13zM215 373l3 1c17 5 29 19 46 23 17 12 40 5 56 17-38-5-75-17-105-41zM359 427c29-1 57 15 84 23-29-4-55-18-84-23zM480 465c49 11 99 25 150 26 13-4 26-11 41-10v2l-9-1c-21 11-46 15-70 9-38-4-75-13-111-23l-1-3z"/></g><g fill="#c1debf"><path d="M594 323c5-10 23-7 31-3 3 10-7 2-13 3l-8 2 2 3c-5 1-11 1-12-5zM530 339c12-18 35-16 53-12l-8 1 2 2-9 3c0 7-9 7-9 13l-29-7zM536 400l4-11 13 1 3 3c-1 3 0 7 3 10l-4 2 7-1v4c-5-1-4 3-1 5l-5-2v4l-6-2-3 3c-6-3-9-10-11-16z"/></g><g fill="#324a35"><path d="M625 320c18 9 33 26 36 46 9 6 12 17 13 27l-1-2-2 1-2-3c3-6-2-16-9-19-5-10-6-23-17-29l3-3-5 2 1-3-13-8-1 4-6 1c-3-3-7-4-11-5l-2 7-10-5c-8 2-13 9-22 5l4 6-11-4 3 3c-3 1-6 3-2 5h-3l3 3-12-3c0-6 9-6 9-13l9-3-2-2 8-1 7 2 4-6c1 6 7 6 12 5l-2-3 8-2c6-1 16 7 13-3zM148 363c44 37 100 55 153 73 20 10 41 17 61 26 28 3 52 21 78 30 60 13 120 30 182 29 23 0 41-14 56-29l1 4a77 77 0 0 1-45 28c-64 3-126-14-188-27-27-5-50-26-79-28-34-11-65-31-99-41-43-14-86-32-121-61l1-4zM567 393c10 0 18 4 26 7-14 2-3 15 7 9-6 6 4 5 9 6 5 3 9-3 15-3l-2 4 5-2 1 7 3 5 3-1v2c-2 4-9 4-9-2-4 0-9 0-9-5l-6-1-1 6-3-2 7 11 14-1 7 5c-11 14-30 16-46 11h9c8 1 16 0 23-3l-3-3-1-3-10-2 3-4-4 1 2-4-3-1-1-4-7-2-1 1c-2-5-7-5-11-5l-16-11-3-6-1-6 3-4z"/></g><g fill="#8ec98a"><path d="M609 336l2-7c4 1 8 2 11 5l6-1 1-4 13 8-1 3 5-2-3 3c11 6 12 19 17 29 7 3 12 13 9 19-28-17-59-30-91-38l-1-3 7 1-5-4h4l-1-6 14 2-1-2c2-2 4-5 4-8l10 5zM530 342c9 1 17 5 26 7l1 2h-4l2 3-6 4 5 4h3l-2 3 5 3c2 3 6 7 4 11l-3-4-1 2 2 5v7c-8-1-17 0-24-5 2-15-5-28-8-42z"/><path d="M581 356c30 7 58 21 85 35 14 9-4 25-12 30-24-11-49-24-75-29l-2-1 3-2c-3-3-5-6 0-7l-5-3c2-2 5-4 8-3-3-2-2-4 0-5l-1-2 4 2v-5l6 1 1-2c-4 0-6-2-7-5h-3l-2-4zM537 388l3 1-4 11c2 6 5 13 11 16l3-3 6 2v-4l5 2c-3-2-4-6 1-5v-4l-7 1 4-2c-3-3-4-7-3-10l-3-3 14 3-3 4 1 6 3 6c-4 5 2 9 7 7l1 5h-3l1 6c6-6 15-4 6 3l5 3-3-4 7-3-1 3 3 1-4 3 12-2-1 5 4 4-6 3 1 6h-9c-26-8-60-30-51-61z"/></g><g fill="#55a857"><path d="M577 336c9 4 14-3 22-5 0 3-2 6-4 8l1 2-14-2 1 6h-4l5 4-7-1 1 3-7-2-3-3h3c-4-2-1-4 2-5l-3-3 11 4-4-6zM556 349l4 1v1l21 5 2 4h3c1 3 3 5 7 5l-1 2-6-1v5l-4-2 1 2c-2 1-3 3 0 5-3-1-6 1-8 3l5 3c-5 1-3 4 0 7l-3 2 2 1-17-3v-7l-2-5 1-2 3 4c2-4-2-8-4-11l-5-3 2-3h-3l-5-4 6-4-2-3h4l-1-2zM600 409c-10 6-21-7-7-9 18 2 33 12 50 18 8 2 3 8-4 8l-3 4a102 102 0 0 1-2-5l-3 1-3-5-1-7-5 2 2-4c-6 0-10 6-15 3-5-1-15 0-9-6zM575 416c-5 2-11-2-7-7l16 11c4 0 9 0 11 5l1-1 7 2 1 4 3 1-2 4 4-1-3 4 10 2 1 3 3 3c-7 3-15 4-23 3l-1-6 6-3-4-4 1-5-12 2 4-3-3-1 1-3-7 3 3 4-5-3c9-7 0-9-6-3l-1-6h3l-1-5z"/></g></svg>