<svg width="1067" height="1067" viewBox="0 0 800 800" xmlns="http://www.w3.org/2000/svg"><g fill="#010101"><path d="M381 233c19-24 51-12 77-12 16 8 32 3 49 1 17-4 32 9 43 20 21-22 63-24 82 2 10 11 12 27 21 38 15 10 22 31 16 48-10 29-28 62-62 67-12 1-23 9-35 4-11-3-21-10-33-13-7 9-17 19-29 21 17 8 32 20 52 19 26 1 36 33 27 54-13 20-26 40-43 57-12 17-25 39-49 38-43 10-88 16-131 6-15-10-35-14-45-30-9-9-18-23-12-36-9 2-14 11-16 19-3 18-22 34-41 30l-12-8c-6 15-22 12-32 21 2-11 13-9 21-12 4-5 8-11 13-14 7-2 13-6 18-10 6-8 8-19 11-28-3-7-13-10-21-10-6-5 1-15-4-21-7-2-15 1-22 3l2-4c-8 3-15 6-22 11-6 4-12 9-16 15a72 72 0 0 0-19 54c2 8 20 4 17 12-9-3-23-7-21-19 2-23 14-44 30-60 16-11 34-18 53-14 4 5 3 13 3 20 9 0 17 5 23 12-4 11-5 25-15 34l-10 6 7 4c33 4 24-42 49-51 15-5 26-17 39-25-10-19-16-44-37-52-15 2-30-10-44-4-7 8-18 19-28 9-9 22-32 29-54 34-4-7-2-15-2-22-13 6-23 18-37 19l-1-3-3 1c6-8 0-19 7-28 10-14 13-40 32-43-20 17-31 44-35 69 14 0 22-13 34-18 18-8 12-40 35-40-18 7-18 28-30 40v16l2 4c22 1 41-13 51-31-13-10-14-35 2-41-7 10-14 27-1 36 6 16 24 3 24-9 9-16 27-25 43-34l5-16c-7-12-11-25-5-38-3-10 1-25-8-32-15 3-19 21-29 31-13 11-13 29-23 41 2 9-4 17-12 21 2-5 6-8 9-12-17 5-43-1-49-20 10 14 33 25 49 15-24 5-48-16-51-40 8 20 27 43 51 36-9-4-18-11-25-18-14-11-13-32-11-47l1 20c2 20 19 35 37 42-1-3-3-5-6-5-17-14-31-35-29-58 1-3 3-11 7-9-14 23 6 50 23 65-10-19-18-50-1-67-10 18-9 42 0 60 0-18 1-37 10-52-6 20-12 44-1 64 3-13 0-29 10-40-3 9-6 18-7 27 7-13 15-25 25-36 5-9 11-21 23-20 7 4 10 13 8 21l3-1c1 20 19 30 29 44 3 12 3 25 10 35 12 14 20 32 20 51 10-6 16-17 25-23 10-4 17-12 28-15 15-18 23-40 26-63l2-12 1 13-11 39c9-11 12-25 14-39 0-6-2-11-3-17v-2c-12 0-23 3-33 7-5 2-11 2-16 0-15 1-26-10-37-18-7-6-16-13-17-23 5-9 16-14 18-25 2-14 10-26 19-36m-17 40c-3 9-11 15-17 21 1 7 5 12 10 15 6 6 14 11 21 16s17 9 25 4l-1 5 9-1 6-3 14-3c17-6 36 2 54-1v1c27-2 54-20 64-46 14-20-4-45-23-54-17-9-35 4-52 2-10-4-22-6-33-6-11 2-22-3-33-2-24 5-40 29-44 52m187-29c17 32-11 68-41 80v2c-8 24 11 57 38 61 14 5 29 16 44 9 27 0 52-17 62-42 15-19 21-53-2-69-12-15-15-36-32-48-20-15-51-10-69 7m-69 86l-32-2 3 20c-4 20-13 39-24 57 20-8 41-6 61-1 9 3 15-7 24-6 8 0 17-6 14-15-14-15-28-35-21-57-8 2-16 4-25 4m-158 38c-10-4-17-12-23-21 0 7 5 13 9 19 0 6-6 12-3 19-9 7-20 11-29 18 9 6 26 0 31 7-16 0-44-10-48 14l3-3c18-3 34 10 50 3l-3 4c20 10 26 33 35 51 1-20-20-35-25-55l-3 2-2-1c17-14 23-39 17-61-8-13-24-21-28-37-9 18 8 30 19 41m208 17l-4 11c3-3 6-5 7-10l-3-1m-197 15l3-1c6 6 10 13 17 18-4-10-11-17-16-27-4 1-3 7-4 10m165 5c8 7 20-2 26-8-9 3-18 4-26 8m-173 12c19 1 30 18 34 34 4-20-17-29-28-41 10 0 16 11 23 16-4-10-14-17-21-25-2 5-4 11-8 16m123-14c-32 6-66 22-84 51l-1 1-2 4-3-1c-5 19-21 33-37 43-12 8-16 25-9 38 11 11 18 25 34 30 29 21 66 16 99 14 22 0 41-10 62-11 19-7 27-29 41-42 14-16 25-33 37-50 10-21-6-53-31-49-18 1-33-12-49-19-3-2-6 1-8 2l2-5c-17-3-34-8-51-6m-126 18c3 20 20 34 26 52l11-21-3-1c-4-15-16-32-34-30m-47 135c16-7 10-29 23-38 4-4 11-4 12-10-23 5-24 32-35 48m-23 5v3c7 0 14-1 20-5l-20 2z"/><path d="M477 247l19-10c-5 6-13 9-19 14-6 4-10 10-11 17 7 2 15-1 22-2l2 1c-10 5-27 0-29 14l-2-6c2-2 4-5 4-8-6-3-13-5-18 0a471 471 0 0 0 1 8h8c10 8 12 21 16 32l-2 1c-4-12-9-33-26-28l-22 7c-13 4-26 8-37 14l-1-2 9-4c18-7 36-12 54-20 2-4-7-2-8-2v-2c-13-6-29-3-42-7 15 0 31-1 45 6 3-5 10-6 11-12 1-7 3-14 9-18-2 6-10 17-3 23 10 0 12-12 20-16zM574 251c12 14 21 32 36 43 7-3 12-11 16-18l2 1c2-3 3-6 6-8-4 12-17 20-15 34-3-2-3-6-2-9l-5 5-7-5-1 7c17 10 2 35 3 51h-3c0-16 8-31 5-46l-8-3c-11 7-24 4-35 10 8-11 26-3 36-14l-1-9c-10-12-22-24-27-39zM217 286c13-3 25-5 38-6 14 2 23 23 16 33-1-11-2-26-16-30-16 1-34 2-49 12-14 13-34 17-48 31-12 14-1 33 8 45 11 22 42 29 61 14-13 19-39 13-55 1-11-15-23-31-22-50 3-15 18-22 31-28s24-16 36-22z"/><path d="M613 304c11 0 20 7 31 7v3c-11-1-21-5-31-8v-2zM532 354c0-10 9-19 19-22-3 6-9 8-14 13-1 2-1 9-5 9zM603 360l4 1c-1 6 1 16-5 19 1-6 2-13 1-20zM311 380c3 0 3 3 4 5-3 0-5-2-4-5zM302 393l3-1c3 4 10 4 13 9l-16-5v-3zM435 418c6 14 0 35 16 44 28 25 65 4 97 2-30 6-65 24-94 5-2 4-6 6-10 9 4 1 3 5 3 9-18 12-39 18-61 18-13-1-24 6-34 11 13-16 37-11 55-15 14 0 25-10 37-15l-2-6 1-3c-12 4-25-2-37-1-9-1-21 1-28-6 17 6 35 2 52 6 7 0 21 0 21-9-17-11-16-32-16-49z"/><path d="M470 467c13-4 26-11 38-18-10 9-24 19-38 18zM458 483c3-5 9-7 14-5l-1 2c13 3 26 7 37 14-14-2-27-7-39-14-5-1-7 4-9 7l-2-1c0 15-5 31-9 44-1-15 7-30 6-45l-7-1c2-4 7-2 10-1zM213 521l10-16-8 19-2-3zM224 526c4-4 10-4 15-6-2 6-10 5-15 6zM181 530c5-7 20-12 25-3-9-3-17-1-25 3zM191 550c4-10 14-22 25-23-10 6-17 15-25 23zM220 532l2-2 1 7-2 7-1-12zM447 545c6 4 4 13 3 19-3-5-2-12-3-19zM191 574c5 3 10 5 16 5-5 4-15 2-16-5z"/></g><g fill="#55ab4f"><path d="M364 273c4-23 20-47 44-52-2 6-7 10-13 11l-1 2-4 3 4 1-4 5 2 3-5 1 8 3c4-2 9-3 13 0h2c2 5 5 9 10 11l5-5 3 3 2-1-4-5 5 2 2-1-3-2 2-3 3 3 4-5-1 8h-5l-1 6 11-13 3 4 1-4 3 5c-5 1-9 3-13 6h7c2-2 4-2 7-1-1 6-8 7-11 12-14-7-30-6-45-6 13 4 29 1 42 7v2c1 0 10-2 8 2-18 8-36 13-54 20v-6l3 2v-2l2 2c2-5 5-10 5-15l-4 2c-8-2-15 6-20 11-9 0-16 9-17 17l-3-1v4c-5-3-9-8-10-15 6-6 14-12 17-21zM466 268c1-7 5-13 11-17 2 4 2 8 0 12l11 3c-7 1-15 4-22 2z"/><path d="M445 267c5-5 12-3 18 0 0 3-2 6-4 8l2 6c2-14 19-9 29-14 1 6 4 12 2 17-5 4-11 7-8 15 13 6 3 17 1 27-18 3-37-5-54 1-6-4-3-10 1-15l2 3 6-5-6-1 8-3v-4l6 3 1-6c-3 0-5-1-8-3l-2 2v-6h-4l7-3 3 2v-7l-2 1 3-3-4-2c17-5 22 16 26 28l2-1c-4-11-6-24-16-32h-8l2-2-3-6zM383 301c11-6 24-10 37-14l3 6-6-3-2 4 3 4-11 9h3l1 3c-4-1-9 1-7 6l5-2 2 1c-8 5 1 11 0 18l-9 1 1-5c-8 5-18 1-25-4v-2c8 0 5-9 6-13l-5 5c1-4 1-8 5-10l-1-4zM450 328l32 2c-8 7-17 17-29 18l-3-20zM162 563c-27-23 1-69 33-67a96 96 0 0 0-30 60c-2 12 12 16 21 19 2 4 6 5 9 6l1 6c4 2 11 1 12 7l7 3c-22 7-48-13-53-34zM249 554l10-6c0 3-1 7-3 10l-7-4z"/></g><g fill="#74bf6b"><path d="M408 221c11-1 22 4 33 2 12 8 25 14 36 24-8 4-10 16-20 16-7-6 1-17 3-23-6 4-8 11-9 18-3-1-5-1-7 1h-7c4-3 8-5 13-6l-3-5-1 4-3-4-11 13 1-6h5l1-8-4 5-3-3-2 3 3 2-2 1-5-2 4 5-2 1-3-3-5 5c-5-2-8-6-10-11h-2c-4-3-9-2-13 0l-8-3 5-1-2-3 4-5-4-1 4-3 1-2c6-1 11-5 13-11zM398 335c5 2 11 2 16 0l1 4 4-2c0 2 1 4 4 4v1l11 2c-9 10-25 15-39 11l1-6h-4l5-3-1-3c4 0 4-3 4-6h-3l1-2zM204 494c11 4 20-7 30-1 10 5 14 15 16 24 6 8 10 16 10 26-5 4-11 8-18 10-6-4-12-6-18-11v-1l-1-4-1-7-1-2-4 2 1-4-2-1-1-1 8-19-10 16-4 2-1-3c-4-2-7-4-9-7v-2l-7 1 2-3c-2 0-6 3-6 0 4-6 10-11 16-15m20 32c5-1 13 0 15-6-5 2-11 2-15 6z"/></g><g fill="#409d3b"><path d="M345 265c5-16 18-32 36-32-9 10-17 22-19 36-2 11-13 16-18 25 1 10 10 17 17 23 11 8 22 19 37 18l-1 2h3c0 3 0 6-4 6l1 3-5 3h4l-1 6c-19-7-46-13-50-36-11-17-8-37 0-54zM414 335c10-4 21-7 33-7v2c1 6 3 11 3 17h-3l-1-13-2 12c-3-2-7-3-10-2l-11-2v-1c-3 0-4-2-4-4l-4 2-1-4zM169 563c-2-20 6-40 19-54 0 3 4 0 6 0l-2 3 7-1v2c2 3 5 5 9 7l1 3 4-2 2 3 1 1 2 1-1 4 4-2 1 2-2 2 1 12 2-7 1 4v1c6 5 12 7 18 11-5 3-9 9-13 14-8 3-19 1-21 12 10-9 26-6 32-21l12 8c-7 16-21 27-37 31l-7-3c-1-6-8-5-12-7l-1-6c-3-1-7-2-9-6 3-8-15-4-17-12m12-33c8-4 16-6 25-3-5-9-20-4-25 3m10 20c8-8 15-17 25-23-11 1-21 13-25 23m0 24c1 7 11 9 16 5-6 0-11-2-16-5z"/></g><g fill="#2e902c"><path d="M397 278l4-2c0 5-3 10-5 15l-2-2v2l-3-2v6l-9 4a165 165 0 0 0 2 6c-4 2-4 6-5 10l5-5c-1 4 2 13-6 13v2c-7-5-15-10-21-16v-4l3 1c1-8 8-17 17-17 5-5 12-13 20-11zM420 287l22-7 4 2-3 3 2-1v7l-3-2-7 3h4v6l2-2c3 2 5 3 8 3l-1 6-6-3v4l-8 3 6 1-6 5-2-3c-4 5-7 11-1 15l-14 3-6 3c1-7-8-13 0-18l-2-1-5 2c-2-5 3-7 7-6l-1-3h-3l11-9-3-4 2-4 6 3-3-6z"/></g></svg>