<svg width="1067" height="1067" viewBox="0 0 800 800" xmlns="http://www.w3.org/2000/svg"><g fill="#060606"><path d="M339 250c49-16 106-19 154 3 23 14 34 39 46 61 36 55 34 129 7 188-20 37-62 50-98 66-38 4-86 10-117-19-17 6-37 2-50-10-34-43-51-101-37-155 10-55 40-113 95-134m9 2c-44 14-75 53-90 95-13 41-23 87-6 129 6 22 17 42 31 60 12 11 29 16 45 10-21-53-42-111-29-169 5-24 15-46 26-67 15-25 49-29 73-16 3-7 11-10 17-5 3-5 6-10 12-6l3-3h-3c-3-6 4-10 9-7 7 4 13 12 13 21 15-1 26-16 15-28 7 2 11 13 7 20-15 18-42 20-64 17-15-4-20 16-30 24 3-11 12-21 21-27-16-9-35-10-52-3a92 92 0 0 0-30 44c-21 41-22 91-7 134 7 24 10 51 26 70 1 3 2 6 4 7 32 21 74 17 110 11 22-10 45-18 65-31 39-28 46-79 49-123 0-39-16-76-37-108-10-19-22-39-44-47-42-17-90-13-134-2m80 34l4 5 12-1c-1-6-4-11-9-14-2 4-3 8-7 10m-9 5l4-2v-3l-4 5m2 3l2 4c-8 1-26-4-10-4-4-4-9-2-11 2 12 5 27 3 40 1l-1-4c-9 9-13-9-20 1z"/><path d="M453 276c-8-7 3-20 12-20-7 4-14 11-12 20zM384 257c10 1 21 7 20 18-5-7-11-14-20-15v-3zM410 257c6 1 12 5 10 13l-10-13zM363 261c6-2 12 1 15 7-4-5-11-3-15-7zM476 280c12-3 27-2 32 11h-3c-6-10-19-11-29-7v-4zM435 284l7 2c-2 3-8 3-7-2z"/><path d="M480 289c3-5 10 0 12 4l-12-4zM330 297c-1-4 5-11 8-6l-8 6zM298 327c8-7 8-20 17-26l-15 30-7-2c1 7 1 17-6 20 0-6 6-11 3-18-3-5 4-4 8-4zM506 301h3c4 8 13 19 7 28 0-10-6-19-10-28zM309 322c2-4 3-9 7-11l-4 11h-3zM327 339c-4-3 0-6 4-6l-4 6zM300 337l2-1c-4 8-3 21-10 27 0-9 4-18 8-26zM522 340h3c1 6 1 11-1 17-6-4 1-12-2-17zM313 387c7-10 5-26 14-34-2 11-6 22-10 33 4 4 6 9 8 15-3 4-1 11-5 15-3-10 5-21-7-29zM271 373h3l1 10-4-10zM476 386c5 9 8 21 2 32-2 8 10 12 6 21l-4 9h-2c9-12-5-21-3-32 8-9 0-20 1-30zM285 424c0-4-8-20 2-17-6 5 6 14-2 17zM316 422h3v9h-4c-1-3 0-6 1-9zM314 439h4v3c-2 0-4-1-4-3zM313 447c4 3 2 11 5 16l12-4c7 7 1 16 2 24 2 4 6 8 6 12-15 7-4 24-5 35-6-8-4-19-7-28 3-3 13-8 7-12-8-6-3-16-1-24l-3-4c-4 2-7 5-9 8-7-6-11-15-7-23zM287 449c3 13-8 4 0 0z"/><path d="M294 486c-8-8-19-24-11-33l-1 6c9 23 24 43 27 68-5 1-9 3-6 8l-4 1c-2-6 2-11 8-12-7-12-9-25-13-38zM474 463c2-4 2-9 6-10l-1 7-4 9c-2-1-2-4-1-6zM518 475h4c0 3-1 4-4 4v-4zM468 485h4c-8 20-17 48-42 50 21-7 32-29 38-50zM512 504c3-5 1-13 7-16 1 16-15 34-30 33 7-7 18-8 23-17zM409 552c7 0 12-2 18-4-2 7-12 7-18 7v-3z"/></g><path fill="#ff4b23" d="M439 342c17-9 40-6 53 8l-2 1-2-3c-3 5-4 12 3 14l1-4 3 9c-5 9-19 2-20 13-1 6-9 6-10 11h3c-3 5-3 10-2 16l-6 2-3-4-4 5c6 0 11 2 11 8l-4 2 3 9-1 8h-1c-10 2-15-8-23-11l6-16v-5l-2-4 2-4-3 1 9-12 2 2c1-3 2-6 5-7l1 4 2-3 2 4h2l1-4c7 0 6-5 0-6 2-2 5-6 0-7v-4l6-2-3-2 3-1-3-8-9 7-2 2v10h4l1 3-5-2v4c-4-3-6-8-4-13h-5c3-8 7-15 5-23-9 0-12 11-19 15l-2 1v-2l1-1 5-5 1-6z"/><path fill="#fea385" d="M434 355c7-4 10-15 19-15 2 8-2 15-5 23l-3 2h3c2 4 1 8-2 12l2-1-1 5-6-2-3 2-1-5-8-4 2-8 2-3-4-2-6 15-2-1-4 1 5 5c0 4 0 8 2 12l-2 7 6-3 5 2a1408 1408 0 0 0 2 6l-6 16c2 0 2 2 1 3l-6 5 3 2-5 7 6-2v2c2-1 4 0 6 2l1-4h3v-3l5-1-1 3c5 3 12 9 19 4h1c3-2 4-6 5-9l-1-5 5-1-4-5 8-1c-2 11 12 20 3 32h2l4-9 10 1-3-7 8 2v-6l2 2 5-11h2l-3-4h4l-1-3 4-1-4-4 3-2-5-6v-4c-3 0-7 0-10 2-3-7-1-15-2-22 2-2 4-5 4-9l2-5-4 4-1-7 7 2a256 256 0 0 0 0 2l3 2 1-4c11 6 20 17 20 30-2 29-20 58-47 69l1-7c-4 1-4 6-6 10-21 12-41-4-55-19-17-19-29-51-11-73-1-17 19-22 31-29l-1 6-5 5-1 1v2l2-1z"/><g fill="#ff7c55"><path d="M488 348a2247 2247 0 0 0 4 2h1c3 5 8 8 13 11l-1 4a338 338 0 0 0-4 0l1-4-7-2 1 7 4-4-2 5c0 4-2 7-4 9 1 7-1 15 2 22 3-2 7-2 10-2v4l5 6-3 2 4 4-4 1 1 3h-4l3 4h-2l-5 11-2-2v6l-8-2 3 7-10-1c4-9-8-13-6-21 6-11 3-23-2-32-1 10 7 21-1 30l-8 1 4 5-5 1 1 5c-1 3-2 7-5 9l1-8-3-9 4-2c0-6-5-8-11-8l4-5 3 4 6-2c-1-6-1-11 2-16h-3c1-5 9-5 10-11 1-11 15-4 20-13l-3-9-1 4c-7-2-6-9-3-14z"/><path d="M459 359l9-7 3 8-3 1 3 2-6 2v4c5 1 2 5 0 7 6 1 7 6 0 6l-1 4h-2l-2-4-2 3-1-4c-3 1-4 4-5 7l-2-2-9 12 3-1-2 4 2 4v5l-6 16c8 3 13 13 23 11-7 5-14-1-19-4l1-3-5 1v3h-3l-1 4c-2-2-4-3-6-2v-2l-6 2 5-7-3-2 6-5c1-1 1-3-1-3l6-16h-2v-6l-5-2-6 3 2-7c-2-4-2-8-2-12l-5-5 4-1 2 1 6-15 4 2-2 3-2 8 8 4 1 5 3-2 6 2a248 248 0 0 1-1-4c3-4 4-8 2-12h-3l3-2h5c-2 5 0 10 4 13v-4l5 2-1-3h-4v-10l2-2z"/></g></svg>