<svg width="1067" height="1067" viewBox="0 0 800 800" xmlns="http://www.w3.org/2000/svg"><g fill="#060606"><path d="M369 244c12 1 17-13 28-15l-2 5 5 2c-1 17-12 43 9 52 29 3 59 3 85 17 32 10 47 44 58 73 34 56-6 143-73 149-14 4-31-2-43 8 5 7-8 9-13 7 1-4 6-4 10-4l-1-6c-14 0-12 15-18 24l-4-1c4-5 6-14-2-16-7 5-15 10-23 13 2-5 8-7 9-13 5-2 11-10 5-14-2 6-7 7-13 7l1 6c-2 3-4 5-8 5 4-4 3-9 0-13l13-4h-11l-1-2-9 3c3 6-3 10-9 10l1-3c5 0 5-6 5-10l1-3c-35 6-71-11-97-34-26-21-34-57-32-89 9-40 39-81 83-84 12-3 29 2 36-12 7-18-3-41 10-58m21-8c-12 18-3 40-4 60 2-3 8-6 2-8l1-7 5-2c-9-13 7-33-4-43m-14 11c-2 11-1 22 0 32h-2c3 10 6 24-2 33l2-1c-4 25-33 26-50 39 12-15 36-14 44-32-9 4-17 12-28 13-38 6-69 37-80 74l5 19c-3-8-9-19-5-27 12-33 40-60 74-68 13-2 27-6 33-18-4-2-8 0-11 1-5 4-10 5-16 4-61-5-109 63-91 119 10 51 67 86 117 81-28-16-59-29-80-55-7-11-22-18-21-33 4 16 19 25 28 38 22 23 52 35 80 50 6-2 11-6 17-6-13-16-41-16-51-36 14 18 41 17 54 35 6-1 12 6 19 2-14-22-32-39-50-58 23 13 38 36 51 58 7 2 15 2 14-8 9-22 0-46 2-69 3-16-1-34-7-49-8-29-35-54-24-87-2-4-2-9-3-14h-3c4 13-8 25-7 38-3 19-6 38-11 56-6 22 8 41 21 57-19-15-32-42-22-66 7-13 6-27 6-41-14 14-29 29-38 48 3-21 22-32 33-49l-1-9h3l1 5 4-1c-1-9 5-16 5-24l-4 8-4-4 3 1c2-19-3-38 0-56h-5m-6 2c-8 16-1 34-5 51h3l-3 6 5 2c3-4 5-10 3-15-4-14 1-30-3-44m29 39c1 4 2 8 7 9l2-4-9-5m13 6c9 23 37 23 56 31 33 9 61 35 70 68-1 23 6 48-9 67h-3c15-28 14-66-3-92l-1-2c-4-3-6-8-9-12-11-15-31-20-47-27-18-9-43-7-54-27h-11v1c-11 29 14 54 23 79l2 4c4 16 10 33 6 49l1 1c0 27 5 54-6 79 6 5 15 2 19-4 13-9 21-22 29-35l2 2c-7 18-23 30-36 43 26 0 50-13 73-24-8 11-24 14-37 19-9 5-19 8-30 8-2-1-1 2 1 2 16 1 33-3 49-6 41-13 63-57 63-98 2-18-11-32-15-48-8-20-19-39-35-54-29-19-64-25-98-24m-20 221c7 4 15 6 23 8 0-3 1-7-3-6-7 2-13-6-20-2m24 2l1 5 5-5h-6m8 5h4c-1-4-3-5-4 0m-21 16c4-2 6-6 4-10l-4 10m17-8l-2 5c3-1 7-4 2-5z"/><path d="M411 314c3 10 6 20 14 28-11-5-15-17-14-28zM417 317c11 6 19 17 30 24 12 14 27 24 41 34 18 18 19 47 7 69-3 5-5 10-9 14l3-9h2c8-21 14-47-2-67-14-14-32-25-46-40-8-9-19-15-26-25zM307 369c1-8 10-17 17-18-4 7-13 11-17 18zM434 362c10 15 15 32 20 48 1 12 1 25-4 36l-1-1c5-21 1-42-8-62l-7-21zM334 387l3-1c-6 16 13 27 10 44-1-16-15-27-13-43zM290 406c0-3-1-7 2-9l-2 9zM294 422l3-1c-1 8 1 15 5 22-6-4-10-13-8-21zM405 450c8 13 9 29 10 44l-1 9c-3-18-4-36-9-53zM447 477c7 1 4 11-1 14l1-14zM517 489l8-4-5 7-3-3z"/></g><g fill="#cbb650"><path d="M449 340c1-8 10-3 14 0l-1 3h17l-1 3a613 613 0 0 0 10 3l-2 5 9 1c-3 5-6 11-4 17l-3 3c-14-10-29-20-41-34l2-1zM443 342c14 15 32 26 46 40l-8 4-6-1-4 10 4 2c-5 2-16 4-13 11l-8 2c-5-16-10-33-20-48l7 21-2-2-4 4-2-7-6 2 1 3-2 1-2-4 4-5-2-3c2-3 1-8 0-12 7-5 8-16 17-18z"/></g><path fill="#e3d79e" d="M486 348c9-1 18 4 27 6 3 4 5 9 9 12l1 2c3 14 8 31-2 44-9 11-14 24-26 32 12-22 11-51-7-69l3-3c-2-6 1-12 4-17l-9-1 2-5-2-1z"/><g fill="#d7c984"><path d="M427 380l6-2 2 7 4-4 2 2c9 20 13 41 8 62l-16-11-1-1c4-16-2-33-6-49l2-1-1-3z"/><path d="M422 385c6 15 10 33 7 49-4-14-16-27-14-44l4 1-1-4 3 1 1-3z"/></g><path fill="#ece5bf" d="M481 386l8-4c16 20 10 46 2 67h-2l-1-2c-12 6-27 8-38-1 5-11 5-24 4-36l8-2c-3-7 8-9 13-11l-4-2 4-10 6 1z"/></svg>