<svg width="1067" height="1067" viewBox="0 0 800 800" xmlns="http://www.w3.org/2000/svg"><g fill="#040404"><path d="M191 214c14-10 30-17 46-22 35-1 62 25 78 53l2 6c13-2 22 8 34 8-2 4-6 3-10 2l2 6c-7-5-13-15-24-12 6 26 21 50 35 72l9-1h5c2 5 7 8 6 1 5-10 1 12 10 5-3 3-7 3-11 4-3-4-7-7-12-7l-3 2c13 23 30 42 52 58 6-2 18-9 23-1l-3 2c-6-3-12-1-17 2 22 18 41 41 66 56 11 5 19 13 29 19 7-1 14-5 21-2l-1 3c-5-1-11-1-16 2 15 7 26 21 38 32l7-1-3 5c16 11 30 24 49 31 4-4 9-3 14-1l3-3 3 2c-3 6-11 3-16 4 6 6 18 5 21 15 3 5-4 7-7 9l8 8c-7 1-10-5-15-8l1-3c-29-1-53-21-77-34-20-24-48-37-76-50l-1 5-3-1c0-3 1-8-3-9-12-7-24-14-34-24-2 3-2 9-7 7 1-3 5-9 1-12-11-10-24-17-37-23 1 8-1 17 4 24-13-3-5-18-8-27-19-10-39-19-60-24-3-4-15 5-13-2-17-6-33-15-47-26-2 9 5 29-9 30 2-3 8-9 2-12l-4 2-6-2c1-5 7-3 11-6-3-7 4-16-6-20-10-5-13-17-23-23l-35-30c-11-18-12-39-19-58 0-17 15-24 26-31m46-17c-24 8-51 19-65 41-7 9 4 19 2 29l3 1c2 13 4 28 15 36 14-3 30-5 39-18h3c-6 17-24 17-38 21l8 8c12-8 27-12 36-24-5 15-23 18-34 26 11 9 24 16 31 29 17 14 36 28 56 37 11-1 23-7 26-18 7 9-8 18-17 19v2c8 1 14-5 20-9l1 3-8 7c29 7 55 22 81 35 3-4 7-8 12-11-2 6-7 9-10 14l6 2c2-4 5-9 9-12 3 5-4 10-6 15 2 2 5 4 6 0l2-1c8 17 25 33 44 37l2 2c4-3 4-11 8-12 4 6-4 11-5 16 5 3 7-5 9-8h3c0 5-2 9-5 12 25 9 45 25 66 42l6-8c3 2 1 5-1 8l-2-1-2 5 6 3 6-4-3 6c13 8 25 16 39 22 4-5 12-6 6 2 5 3 10 3 14-1l1 2-2 3c6 3 14 4 21 1-6-8-17-12-27-13-2-6-10-7-15-11-14-6-23-21-37-25-3 0-3-3-2-6-9-6-15-17-25-20-2 2-3 6-7 4l3-8-9 6c-1-3 1-6 2-9-10-1-10-11-19-15-38-20-65-53-98-79l-14 11c0-7 6-10 11-13-8-10-18-17-24-29-3 10-12 16-21 20 9-9 21-25 9-36-16-21-27-44-36-68-3 2-7 4-10 4 1-4 8-6 8-11-7-6-12 3-18 6-1 0-6 1-3-2l17-17c-1-4-5-9-7-2-4 13-17 16-28 20v-2c13-3 25-11 28-25-7-11-15-21-26-28l-3 1c0 11 4 23-5 31-3 3-11 17-15 11 14-10 21-26 18-43-10-7-23-13-36-11m121 159c3-3 6-9 4-13-4 2-2 9-4 13z"/><path d="M195 235c12-15 30-29 50-23 6 1 8 7 10 12l-3-1c-3 9-3 19-12 24-15 4-30 10-46 10-8-4-6-17 1-22m-3 11c-3 12 11 8 16 5 13-5 35-1 38-19-7 3-13 10-22 9-7 2-15 8-22 5 1-13 15-22 25-27l-1-3c-15 5-27 17-34 30m12-3l22-14v-3c-9 2-16 9-22 17zM290 310c9 3 9-10 18-9 3 7-7 5-6 12 7-1 11-8 18-7-2 3-4 5-7 6l7 7c-7-2-13-5-21-4-6 7-12 15-20 19l-2-1-1-1c10-2 13-12 19-18l-6-1 1-3z"/><path d="M272 322c6-2 9-7 13-11 1 7-5 13-12 15l-7 2c1-3 4-5 6-6zM215 320c3-2 5-5 9-5 1 4-4 6-6 8h-3v-3zM388 390l8-5c1 5-4 6-8 8v-3z"/></g><path fill="#eee7b8" d="M304 243c2-7 6-2 7 2l-17 17c-3 3 2 2 3 2 6-3 11-12 18-6 0 5-7 7-8 11 3 0 7-2 10-4 9 24 20 47 36 68l-6 2v4c-19 17-56 25-68-5 8-4 14-12 20-19 8-1 14 2 21 4l-7-7c3-1 5-3 7-6-7-1-11 6-18 7-1-7 9-5 6-12-9-1-9 12-18 9l-1 3 6 1c-6 6-9 16-19 18l-3-6c7-2 13-8 12-15-4 4-7 9-13 11-8-20-9-43 4-61v2c11-4 24-7 28-20z"/><path fill="#e1ce8e" d="M315 245c8-1 14 3 22 4 10-2 23-7 32 2 1 7 7 12 6 20 17 10 7 35-4 46l-2-1-6 10-9 1c-14-22-29-46-35-72 11-3 17 7 24 12l-2-6c4 1 8 2 10-2-12 0-21-10-34-8l-2-6z"/></svg>