<svg width="1067" height="1067" viewBox="0 0 800 800" xmlns="http://www.w3.org/2000/svg"><g fill="#050505"><path d="M586 216c7 16-24 24-12 40-2 4-6 5-10 5l-3-3c-12 15-8 33-10 50-13 25-38 41-64 52-23 13-46 26-66 43l-28 26-14 14-27 21-3 3c-9 8-20 15-27 25-21 12-45 11-68 13-6 1-11 0-15-4 14-11 14-31 27-43-19 14-44 42-70 28-9-51 28-97 69-124 46-25 89-58 139-76 26-16 55-26 83-39 20-4 42-4 62-7v-3l3-1-1-3c6-3 13-3 19 0l16-17m-10 16c4-1 6-5 8-8l-8 8m-8 11l5-8c-3 2-7 4-5 8m-15-7l4 6 1 5 5-1c-6 5 1 14 7 9-3-8-8-16-17-19m-16 8c-20 6-42 0-60 11 25-7 52-8 78-7-2-8-13-4-18-4m-24 8c-41 0-73 27-110 40-44 22-90 41-129 73-22 19-49 35-61 63l-10 38c-2 5-6 12-1 17 13-1 21-13 33-16 9-6 21-8 30-15-16 7-27-8-24-23-7-34 54-60 68-26l6-5c-12-6-5-22 0-31 5-13 20-16 30-23 12-8 23 5 32 11 2-7-1-15 1-22 11-19 39-30 58-15-8-20 22-27 36-26 0-5-2-10 2-13 13-10 32-20 47-9 9-8 18-14 28-19-12-4-24 1-36 1m-18 44c-33 32-78 48-116 74-19 9-36 21-54 32-31 21-50 53-67 85-3 5-10 7-11 14 25-1 51 0 74-13l-1-3c10-5 18-13 26-21l12-10 5-4 10-8c16-12 29-29 45-41 26-22 56-38 86-53 18-9 33-22 43-39 6-12-3-26 3-39l8-16-2-2c-19 16-41 29-61 44m27-23c8-3 15-8 20-15-7 4-15 9-20 15m-113 14c16-6 31-14 45-22-16 6-31 13-45 22m65-3c2 4 1 11 5 14 14-6 25-18 38-26-14-10-32 1-43 12m-113 25c10-4 20-8 29-14-10 3-20 9-29 14m76-1c4 7 1 15 4 22l34-28c-8-15-28-1-38 6m31 6c7-3 12-8 17-14-7 3-12 9-17 14m-88 43l16-6c-6-1-10-10-3-13 0 4-3 8 2 9 12 5 22-6 33-10 8-2 10-14 3-18-24-15-60 10-51 38m-29-11c-14 7-30 12-36 28-4 7-7 19 3 23-3-5-5-12 0-15l-1 9 4 3c17-14 36-23 54-33-5-8-14-16-24-15m31 16c6-1 11-5 16-9-5 2-14 4-16 9m-153 37l45-38c-18 9-33 22-45 38m91 1c18-10 35-23 54-32l1-4c-19 11-40 20-55 36m-75 13c-3 12-4 29 7 38 6-1 13-3 19-2 9-15 19-29 31-41 6-4 2-11-2-14-20-8-44 0-55 19m60-1l13-11c-6 1-10 6-13 11m-20 23c6-7 14-14 17-22-7 6-14 13-17 22m-87 35c6-14 9-29 12-44-8 13-12 29-12 44m7 17c19 1 37-11 49-25-18 5-32 17-49 25m48 0c5-4 6-11 9-17-4 5-7 11-9 17z"/><path d="M519 316c8-7 13-16 20-23-2 11-12 17-20 23zM456 310c1-2 4-2 6-1l-2 3-4-2zM252 435l4-5c-2 10 10 11 17 9-5 8-18 3-21-4z"/></g><g fill="#9ec553"><path d="M375 388c15-5 33 1 43 13-16 12-29 29-45 41l-9-3-1-2 3 1-5-4c4-15 23-14 34-22-9 0-17-6-25-5-10 4-20 10-25 19l-2 7c-3-12 10-18 15-27 4-6 9-11 16-14l-1 2h3l1-3 6-1-8-2zM393 429l28-26c7 14 18 32 8 47l-1 1c-6 7-13 13-21 18-19-3-38 6-55-5l27-21 8-3v3c4 0 9 4 14 0l-1 2 7-1-2-4 2 1c2 6 10 2 15 2v4l7-1c3-7 1-17-7-19-3 0-2-4-2-7-11-7-18 8-27 9z"/></g><g fill="#6d9f2d"><path d="M350 412c8-9 13-20 25-24l8 2-6 1-1 3h-3l1-2c-7 3-12 8-16 14-5 9-18 15-15 27-3 9 3 26 15 21l-12 10c-13-15-8-38 4-52z"/><path d="M370 407c8-1 16 5 25 5-11 8-30 7-34 22l5 4-3-1 1 2 9 3-10 8-4-2c-4-6-7-15-2-22 5-4 13-7 15-15-11-1-20 9-27 15 5-9 15-15 25-19zM428 451l1-1c-8 17-27 29-46 23-11 4-25 2-34-6l3-3c17 11 36 2 55 5 8-5 15-11 21-18z"/></g><path fill="#31492d" d="M345 426c7-6 16-16 27-15-2 8-10 11-15 15-5 7-2 16 2 22l4 2-5 4c-12 5-18-12-15-21l2-7z"/><path fill="#bada6e" d="M393 429c9-1 16-16 27-9 0 3-1 7 2 7 8 2 10 12 7 19l-7 1v-4c-5 0-13 4-15-2l-2-1 2 4-7 1 1-2c-5 4-10 0-14 0v-3l-8 3 14-14z"/></svg>