<svg width="1067" height="1067" viewBox="0 0 800 800" xmlns="http://www.w3.org/2000/svg"><g fill="#111010"><path d="M394 258c36-5 71 7 106 15 36 9 71 27 95 57 17 28 25 62 17 94-5 34-22 68-53 84-38 31-89 17-133 14-49-3-100 8-148-6-29-9-60-19-79-45-20-20-25-50-27-77 6-35 32-63 64-77 5-18 18-35 36-41 39-14 81-13 122-18m-51 8c-31 3-64 4-89 24l-16 26c20-9 41-20 63-17v3c-18-3-35 5-51 11 1 8-7 1-11 5-28 13-53 36-61 67-7 48 23 98 69 115 51 25 108 19 162 17 36 0 73 12 109 4 19 1 32-12 47-21 24-15 37-42 42-68 10-40 1-87-30-115-37-35-88-44-136-54-33-7-66 1-98 3z"/><path d="M356 274c7 8 22 13 21 25h-3c-1-12-16-14-18-25z"/><path d="M398 286c6 0 14-3 18 2 2 6 0 12-2 18 6 1 16 0 15 10l23-1c-14 7-33 4-49 9l3 10c-5-1-3-7-6-10-14 1-29-1-42-6-9-6-18-11-29-8-6-1 4-6 6-4 12-2 19 10 30 9 8-4 14-12 23-13 8-2 2-15 10-16m8 1v3h6v-3h-6m-10 13c2-1 5-2 6-5-5-2-6 1-6 5m4 6l7-2 1 3c9-10-7-14-8-1m-7 5l-1-6c-8 0-3 5 1 6m-16 3c11 6 25 3 36 0l-4-3c-8 4-17 5-24-1l-8 4m32 5l15-2c-3-7-11-3-15 2m-41-2c5 2 12 4 18 3-7 0-12-10-18-3m30 4c3-2 10 1 11-3-3 1-8 0-11 3z"/><path d="M454 299c14-7 33-17 47-6-25-8-44 13-68 15 4-7 14-5 21-9zM508 299h3v4h-3v-4zM480 307c2 0 4 1 4 3h-4v-3zM484 312c8-1-1 8 0 0zM495 315h4v3h-4v-3zM449 319c22-2 43 10 59 25 18 27 21 62 9 92-10 23-20 46-35 66-8 6-19 13-29 8 30-1 41-34 53-57 16-29 21-65 6-95-10-26-41-33-63-39zM503 319h4v3h-4v-3zM514 320h4v4h-4v-4zM408 325c4 0 6 1 3 4l-3-1v-3zM526 333c-6-3 1-8 0 0zM234 329h4v3h-4v-3zM225 332c11 3 3 10 0 0zM237 335h4v3h-4v-3zM397 339l4-4-1 4h-3zM404 350c-3-5 0-9 5-8l-5 4v4zM532 347c-7 3-4-7 0 0zM235 347h5c-1 2-3 3-5 3v-3zM204 351h3v4h-3v-4zM390 351h5v4c-2 0-5-1-5-4zM194 358c1-2 4-2 7-2v3l-7-1zM365 362c9 1 2 5-2 7h-1l-1-1 4-6zM328 403a473 473 0 0 1 3 4l-5 1 2-5zM301 433c9 0 1 8 0 0zM314 438c-6-7 10-3 0 0zM347 436c2 2 5 4 6 7-3-1-8-3-6-7zM357 449c10 3-4 9 0 0zM578 463c1-3 4-7 8-5-1 3-4 7-8 5zM369 461c-6 0-6-4 0-3v3zM372 460c12-3 2 9 0 0zM387 463h5v3h-5v-3zM379 466l5 1v3l-5-1v-3zM574 468c2 0 5 0 5 3-4 1-7 5-11 6 0-3 3-5 6-6v-3zM348 470c4-1 15 6 8 8l-8-8zM360 477c1-5 7-6 11-6-3 3-7 5-11 6zM372 471c6 0 12 0 15 6l5-1-1 3c-7 2-10-8-18-4l-1-4zM560 475c-1-2 0-3 2-3l2 7c-3 2-6-1-4-4zM393 474h3l3 7h-4l1-3h-3v-4zM552 482h9c-5 2-6 11-11 9 2-2 3-5 2-9zM562 483l6-1v4c-4 2-5-1-6-3zM417 484l5-1c0 3-2 4-5 4v-3z"/><path d="M479 487h5c0 6-4 4-5 0zM374 488h4v3h-4v-3zM498 488c8 4-4 7 0 0zM503 489l5-1-2 4-3-3zM521 488h4v4h-4v-4zM429 492l4 3-4 1v-4zM473 493l5-1c0 2-2 4-5 4v-3zM550 493c8 9-7 10-14 11v-3c5-2 15 0 14-8zM448 495c7 0 7 4 0 4v-4zM462 499h6v3l-6 1v-4zM512 499h4v4h-4v-4zM492 501l3-1 1 4h-4v-3zM435 502h3l3 5c-3-1-6-1-6-5zM487 507h3v4h-3v-4zM443 514h5c0 3-2 4-5 4v-4z"/></g><path fill="#f36f25" d="M269 394c-6-42 55-56 81-31-2 9 5 16 7 24-5 3-8-1-6-5h-2l-1 2h-2v-3l-6 1 4 3-2 12c-4 1-6 4-8 7l-3-3 1 4-4-2-2 5 5-1-7 5-4-2c-1 4-2 9-7 7l1-5c-4 1-6 4-8 7l1-2c-4-1-8 1-11 3-3-4-6-10-10-13v-2l-5 1-1-6c-4-1-8-3-11-6m3-16l4 14 2-1v4l3-2c8 5 18 13 13 23 9 5 4-8 11-8l1-5 8 2 1 4c10-4-7-15-11-21l2 1-1-5-6 2 1-2c-4 0-7-1-9-3l-7-4-2 2c-3-4-8-7-10-1z"/><path fill="#f4a977" d="M350 363c4-2 8 2 11 5l1 1h-7l7 7-1 4 2 1c-7 8 2 14 0 20l-1-5h-2c2 5 4 12-3 15l4 1c-4 4-7 8-12 11l2 3a880 880 0 0 0-6 1l-6 1c-2 8-7 15-14 18-8 2-15-5-23-2l3 5-28-8c-14-6-12-23-5-34l1 3 3-1c1 6 3 12 9 13l-2-5 4-2c3 4 6 7 11 9l-1-4c7-1 12 5 18 3l-1 2 6-2 1 7h3l-2-4c4 2 8 1 11-2l-2-3 4-1 3 4 2-6c2 4 5 2 8 0l1-6c4 0 6-4 7-8 2-2 3-4 1-6l1-1-1-10c-2-8-9-15-7-24m-49 70c1 8 9 0 0 0m13 5c10-3-6-7 0 0z"/><path fill="#f9d8b7" d="M355 369h8c9 7 12 20 19 29 5 5 2 11-1 16l-2-1 1 5-3 1v2c-2 1-4 2-4 5l-1 2-7 4 4 1v3l-5-1 2 2-4 1 1 5-3-3-3 3-3-1 1 8-4-3 1 5c-4-3-8 1-11 3l2 2c-12 8-29 2-38-8l-3-5c8-3 15 4 23 2 7-3 12-10 14-18l6-1 1-1h5l-2-3c5-3 8-7 12-11l-4-1c7-3 5-10 3-15h2l1 5c2-6-7-12 0-20l-2-1 1-4-7-7m-8 67c-2 4 3 6 6 7-1-3-4-5-6-7z"/><g fill="#f38a48"><path d="M272 378c2-6 7-3 10 1l2-2 7 4c2 2 5 3 9 3l-1 2 6-2 1 5-2-1c4 6 21 17 11 21l-1-4-8-2-1 5c-7 0-2 13-11 8 5-10-5-18-13-23l-3 2v-4l-2 1-4-14z"/><path d="M340 382l6-1v3a7383 7383 0 0 0 5-2c-2 4 1 8 6 5l1 10-1 1c2 2 1 4-1 6-1 4-3 8-7 8l-1 6c-3 2-6 4-8 0l-2 6-3-4-4 1 2 3c-3 3-7 4-11 2l2 4h-3l-1-7-6 2 1-2c-6 2-11-4-18-3l1 4c-5-2-8-5-11-9l-4 2 2 5c-6-1-8-7-9-13l-3 1a98 98 0 0 1-4-16c3 3 7 5 11 6l1 6a796 796 0 0 1 5 1c4 3 7 9 10 13 3-2 7-4 11-3l-1 2c2-3 4-6 8-7l-1 5c5 2 6-3 7-7l4 2 7-5 1-2-1-4 3 3c2-3 4-6 8-7l2-12-4-3z"/></g></svg>