<svg width="1067" height="1067" viewBox="0 0 800 800" xmlns="http://www.w3.org/2000/svg"><g fill="#010101"><path d="M421 326c38-16 84-28 122-6 18 11 41 26 42 49 0 21-12 40-26 56-14 13-30 25-49 32-34 10-67-4-98-16-27-13-58 6-75 28-20 23-55 19-83 20-40-10-67-52-68-93-2-13 2-31 17-36 19 17 41-8 61-8 32-11 65-19 99-23 19 2 40 7 58-3m29-6c8 0 16 0 23-4l2 2c-9 3-21 9-30 3l-11 4 1 2c-11 8-24 14-37 12-2-7-9-3-14-4-45-6-88 13-131 24-17 5-36 18-52 5-19 17-12 47-4 68 8 7 22 7 28 18l-4 5-3-2c5-11-13-13-19-17 7 11 14 22 23 32 2-2 4-4 7-4v2c-9 5 2 9 7 11 12 6 33 16 43 1h2l-3 6c7 3 15-6 20-1 15-2 29-8 38-20 16-19 40-32 65-31 9 2 17 7 26 9-3-7-12-6-17-11 6 3 20 2 21 12l11 5c6-9 20-3 27 2-7-2-16-5-24-3v3c14 3 28 8 42 6l4-9h13l15 2h-14c-6 1-16-2-14 8 5 2 11-1 16-2 10-4 21-8 30-15 0-5 1-10 3-14l5 2c12-1 19-11 24-21l-15 5c0 2 4 7-1 8l-4-10c22 0 36-21 32-42-3-21-24-34-40-45-10-4-30-5-32 7-10-7 13-14 18-11-6-10-19 2-24-5h9v-1c-21-2-42 1-62 8m-52 15c9 5 22 0 29-7-10 0-19 9-29 7m144 92l-3 9 8-5-3-2-2-2z"/><path d="M449 337c12-12 34-11 50-12l-3 5c-15-7-32 3-47 7zM433 337c6-4 17 4 10 10l-2-7-8 1v-4zM497 342c8 0 15-2 22-5v3c-21 6-43 11-64 13l39-10-3-4c2-3 4 1 6 3zM532 339l22-2-2 3c-5-1-11 0-16 1l-4 1v-3zM337 343c5-4 16-5 22-1-7-1-16 2-22 1zM360 345c5-6 15-3 22-3l-22 3zM350 344h2c-3 10-9 8-2 0zM303 352c11-4 22-8 34-6-12 5-28 3-39 13l2-4c-14 0-28 5-42 6 13-7 30-5 45-9zM541 347c10 0 28-4 30 10l-3-1c-9-13-30-3-44-4l2 5-2 2-1-2c-2-11 11-9 18-10zM354 358c7-9 20-7 30-9l-30 9zM395 352c17-5 35 1 53 3 1 4-5 2-7 2-15-4-31-4-46-5zM482 358c10 1 28-11 29 4l1 2-5 2c0-3 2-10-4-8-15 6-34-1-49 10 3-12 20-7 28-10zM385 359c9-3 19-1 28 0-9 0-19 4-28 0zM544 361l2 1c1 6 3 12 2 18 10-1 19-3 29-3 0 4 0 9-2 13v-10l-19 2c-2 5-1 13-6 17l2-14c-1-8-15 1-21-1 5-4 11-3 16-4-2-6-3-13-3-19zM256 375c24-4 46-13 71-13-33 4-66 21-99 15v-3c7 3 15 4 22 2 3-3 2-8 7-8l-1 7zM530 368c-2-3-3-6 1-6l-1 6zM291 377c27-5 54-12 82-13 2 2 2 5 1 7-2-3-5-6-8-5-16 2-32 4-48 8 0 6 1 14-4 18l2-18c-14 4-32 2-37 19h-3c6-5 6-15 15-16zM196 376c0-4 1-7 5-7l-2 7h-3zM205 371c5-2 6 5 10 7 10 6 22 6 32 7-14 3-35 1-42-14zM507 371h3l-1 4h-1l-1-4zM404 376c11-3 29-7 39 0l-14-1c-1 6-1 13-5 17-1-6 2-11 1-17l-15 1v2l-6 18c-4-6 1-13 3-19l-3-1z"/><path d="M383 373c-2 9-8 17-6 27 18-2 36 3 54 3-16 5-34-3-51-1-3 3-16-2-4-2-2-10-1-20 7-27zM348 377c5 7 0 23 11 25-11 1-22 1-33 4 4-7 16-6 24-6 1-8-4-16-2-23zM470 379c8-2 17 4 26 5l20 4v3c-7-2-14-4-21-4l-8-2c-1 5-3 10-7 13l4-14c-4-2-10-2-14-5zM198 379h3c-7 22 19 30 33 39-17-5-43-16-36-39zM248 383h3c6 6-2 17-1 5l-2-5zM444 384l3 5h-4l1-5z"/><path d="M390 390l4 3-3 5c-2-2-1-5-1-8zM191 394h4c0 5-4 4-4 0zM287 396c4 5 1 12 2 19 8-1 17 0 25-3 2 3 2 7 2 11l-4-8c-12 4-24 3-37 5l-1-3 12-1 1-20zM516 396c3 4 1 9 0 14l14 2 2-12c3 3 1 8 1 12l14 1c-1 4-1 8-4 11v-9c-11 2-23-5-33 0l-2-2-7 1v-3l11-1 4-14zM234 413c0-6 3-12 8-16-3 5-3 12-8 16zM450 402c8-1 14 9 22 4l-2 4 8 1c-3 3-7 2-11 3-4-6-12-7-17-12zM246 421c4-7 6-17 16-18l1 3c-8 0-11 8-11 15 5 3 12 2 17 6l-3 9h-3l2-10c-7 0-13-2-19-5zM192 406c11 1 6 17 14 22 2-2 3-5 6-6l-4 9c5 1 14 0 15 6l-19-5c-6-8-7-18-12-26zM335 415c2 5-2 10 0 15 9-3 18-7 27-6 1-3 1-7 5-8l-1 9c6 2 13-2 17 2-6 0-13 2-18-1-13-3-23 7-34 8l3-2c-3-5-2-11 1-17zM390 417l3 1c-2 5-3 12-9 14-2-5 6-9 6-15zM429 427c-7-3 3-8 7-8-1 4-5 6-7 8z"/><path d="M433 432l13-11c-2 5-7 9-9 14-13-4-26-11-40-9 10-7 25 1 36 6zM501 438c14 4 25-4 31-16-1 15-16 21-29 19l-5 1c0-5 2-9 5-13l2 2-4 7zM456 426v2c-2 3-5 5-5 9 12 0 22 5 34 6-10 5-26-4-37-5-2-7 4-10 8-12zM492 429c2 6-3 10-7 13l7-13zM290 430c7 2-2 11 0 17l6 1c-11 5-25 6-38 3v-3c10 4 20 3 30 0-1-6 1-12 2-18zM231 431h3c-9 13 10 16 19 15-9 8-32-2-22-15zM326 438h3c-6 8-18 12-27 10l-5-1c9-1 22 0 29-9zM339 459c-16-6 4-18 12-16-5 3-14 4-15 12l4 1-1 3zM230 458l10-4c13 7 28 4 42 6 1 5 2 12-4 13 1-3 3-6 3-10-17 2-35-8-51-2v-3zM295 460c8-2 17-4 26-3 1 3 2 6-1 8l-2-7-20 3-1 14h-3l1-15zM316 475c0-3 2-5 5-5 0 3-3 4-5 5z"/></g><g fill="#f4d78d"><path d="M526 357h13l-3 1c3 1 6 1 8 3 0 6 1 13 3 19-5 1-11 0-16 4 6 2 20-7 21 1-5 2-10 13-17 8h-2c-10-4-21 2-30 7l1 3-8 7c-3-7-2-15-1-23 7 0 14 2 21 4v-3l-20-4c3-7 7-13 11-18l5-2-1-2 12-5 1 2 2-2m4 11l1-6c-4 0-3 3-1 6m-23 3l1 4h1l1-4h-3zM510 457c19-7 35-19 49-32l2 5 4-3 1 3 2-1 1 2c-5 0-4 3-1 6l-8 3 7 3 1 6-3-2c-10 12-26 4-38 10l6 3-2 1 3 1c-8 2-18 3-24-5z"/></g><g fill="#dfa756"><path d="M536 358l3-1c14 4 27 10 42 10 4 21-10 42-32 42l4 10c5-1 1-6 1-8l15-5c-5 10-12 20-24 21l-5-2c-2 4-3 9-3 14-9 7-20 11-30 15l-2-6h14l-15-2-1-5c13 2 28-4 29-19-6 12-17 20-31 16l4-7-2-2c3-7-5-12-7-19l8-7-1-3c9-5 20-11 30-7h2c7 5 12-6 17-8l-2 14c5-4 4-12 6-17l19-2v10c2-4 2-9 2-13-10 0-19 2-29 3 1-6-1-12-2-18l-2-1c-2-2-5-2-8-3m-20 38l-4 14-11 1v3l7-1 2 2c10-5 22 2 33 0v9c3-3 3-7 4-11l-14-1c0-4 2-9-1-12l-2 12-14-2c1-5 3-10 0-14z"/><path d="M585 369c17 11 25 32 15 51-7 5-16 7-24 11-2 12-8 23-18 30l-24 1-3-1 2-1-6-3c12-6 28 2 38-10l3 2-1-6-7-3 8-3c-3-3-4-6 1-6l-1-2-2 1-1-3-4 3-2-5c14-16 26-35 26-56z"/><path d="M542 427l2 2 3 2-8 5 3-9z"/></g></svg>