<svg width="1067" height="1067" viewBox="0 0 800 800" xmlns="http://www.w3.org/2000/svg"><g fill="#040404"><path d="M329 165c4-3 9-4 14-6 6 5 0 12 2 19 1 5 6 9 7 15 7 7 12 17 21 24 32-4 68 8 87 35 14 15 22 34 34 50 18 32 42 59 63 88 14 20 20 44 22 67 7 33 6 71-19 96-15 12-30 25-50 27-24 6-48-1-71-3-28 28-69 33-106 29-29-1-60-15-70-44a88 88 0 0 1-13-52c-8-35-3-74 17-104 13-13 21-30 26-47 2-13-3-27-1-40 4-19 11-37 25-51 9-7 10-20 17-29l18-15c-12-17-28-36-23-59m6 24c6 12 13 24 23 33-6-12-15-23-23-33m15 9c4 8 7 20 16 22-4-8-10-16-16-22m-15 51c-5 6-5 15-11 21a82 82 0 0 0-27 62c7 30-8 61-28 83-12 21-19 45-17 70 3 29 4 60 22 85 5 15 21 20 34 26 44 8 97 11 129-27 36 10 80 14 110-13 23-16 32-45 31-72-5-30-6-62-24-88-11-17-25-33-37-49-14-15-23-33-34-51-8-15-17-30-29-42-14-20-39-26-61-32-22 0-46 8-58 27z"/><path d="M365 275l5 1v3h-5v-4zM401 286h6v5c-5 2-6-1-6-5zM451 302c0-6 5-6 4 0h-4zM419 304l3-2c6 1 9 7 6 13-4 2-9-1-12-4l1-3 9 3v-5l-6 1-1-3zM480 346h5l-1 5h-4v-5zM307 395c9-10 31-15 36 3-4-1-6-6-11-7-9-2-16 7-25 4zM495 405c4 0 8 2 5 6h-5v-6zM484 433c0-2 1-4 3-5l2 5h-5zM413 435h4l1 5h-5v-5zM406 457h5v4h-5v-4zM311 460c3 0 4 3 4 6l-4 1-2-2 2-5zM424 460h5v5h-5v-5zM505 484c1-5 0-12 6-14 2 17-5 34-15 47-5 9-15 13-19 22 7 2 17-1 20 5-7 3-17 1-25-2l-1 4-26 1 5 11-5-2h-3l-4-8c-2 4-1 14-6 7-1 3-3 5-6 5 0-5 2-9 4-14-16-4-36-7-50 7-6 0-1-8 3-9 26-18 58 4 87-7 4-8 14-9 19-16 7-12 16-23 16-37zM425 473l4 1v6h-5l1-7zM307 477c7 11-11 5 0 0zM320 486h5v5l-5-1v-4zM409 494c1-14 11 1 0 0zM295 559c4-5 9-2 6 4l-6-4zM317 562c5 0 5 4 4 7h-4v-7z"/></g><g fill="#e7b622"><path d="M422 302c17-12 41-13 60-4l1-2c11 18 20 36 34 51l-7 4 4 3-4 2a369 369 0 0 1-4 5c-2 4-5 6-9 8v-3l-8 8-5-1 2 3-3 3-1-7-8 6-1-3-7 11v-11h2l1-9-5 3-1-4h3l1-5h-4l6-6h-6l1 3h-2l-1 4c-3 2-5 5-4 8l-5 1 5-12c-4 0-8 4-12 0l-3 6-2-2-5 5 3 4c-3 4-5 9-10 12l3-6c-2-1-4 0-6 2h-2c2 5 1 11-3 4-6-2 1-7 3-10l-3-5 4-1c-4-6-11-2-16 0 1 6 5 11 6 17l-2-1c-6-15-26-30-17-47 10-4 10-18 21-18v-7c3 3 8 6 12 4 3-6 0-12-6-13m29 0h4c1-6-4-6-4 0m29 44v5h4l1-5h-5z"/><path d="M417 308l2-4 1 3 6-1v5l-9-3z"/></g><g fill="#eeca61"><path d="M494 302c23 7 45 20 59 39 11 14 14 34 4 49-21-29-45-56-63-88zM510 351l7-4c12 16 26 32 37 49-18 27-49 57-84 50l-3-1 1-3 2-1v4c2-2 3-5 3-7l-3 1-4-3-2 3-5-6-3 2-1-5-5 1 8-9-4-1 2-6-14 2v3c-7-3-13-8-20-9l-1-4-4-1-1-5-2-3-2-15 2 1c-1-6-5-11-6-17 5-2 12-6 16 0l-4 1 3 5c-2 3-9 8-3 10 4 7 5 1 3-4h2c2-2 4-3 6-2l-3 6c5-3 7-8 10-12l-3-4 5-5 2 2 3-6c4 4 8 0 12 0l-5 12 5-1c-1-3 1-6 4-8l1-4h2l-1-3h6l-6 6h4l-1 5h-3l1 4 5-3-1 9h-2v11l7-11 1 3 8-6 1 7 3-3-2-3 5 1 8-8v3c4-2 7-4 9-8h2l2-5 4-2-4-3m-15 54v6h5c3-4-1-6-5-6m-11 28h5l-2-5c-2 1-3 3-3 5z"/></g><path fill="#f2d987" d="M414 398l2 3 1 5 4 1 1 4c7 1 13 6 20 9v-3l14-2-2 6 4 1-8 9 5-1 1 5 3-2 5 6 2-3 4 3 3-1c0 2-1 5-3 7a21153 21153 0 0 1-2-3l-1 3 3 1c-26-2-58-19-56-48z"/></svg>