<svg width="1067" height="1067" viewBox="0 0 800 800" xmlns="http://www.w3.org/2000/svg"><g fill="#050505"><path d="M476 146c1-9 9-24 19-16 8-7 20 3 21 12 4 12 13 27 2 38 0 16-2 33-7 49-3 38-21 72-39 106 8-1 17 1 22 7-4 4-9-4-14-3-22-2-36 20-50 34-52 48-82 114-109 178-10 21-8 47-11 68-11-45 15-87 32-127 10-20 23-39 33-59 21-34 49-62 77-90-16-14-38-23-59-13-53 24-92 71-119 122-9 18-21 36-24 57s-13 43-7 65c8 22 14 45 31 62 20 16 45 25 70 23 39 4 70-25 101-43l10-6c53-36 91-93 104-156 3-26-3-53-20-73-12-16-24-39-46-41 19-10 33 13 42 25 23 26 35 62 27 96-13 54-44 102-85 139l-10 7-14 10c-22 13-42 28-65 39-40 18-93 11-124-22-24-32-36-76-21-114 5-40 29-74 50-107 6-10 12-21 21-29 27-27 56-58 96-63 17-2 31 9 44 17 19-22 37-49 40-79 7-28 10-56 9-84-1-13-22-12-20-26-2-2-5-2-7-3m16-2l10-7-1-3c-5 0-7 6-9 10m13-3c-3 10-21 18-2 23 1 5 6 10 3 15l2 1c-1 32-6 63-13 94 7-8 7-19 10-28 1-24 11-47 8-72 8-10 2-27-8-33m-16 9v3c9-1 9-9 0-3m-32 192c14-7 21-24 26-38-8 13-15 27-26 38z"/><path d="M504 153c5 0 6 5 7 9-7 3-7-5-7-9zM366 364c2 0 6 2 4 3-9 3-14 12-20 18-3-10 12-13 16-21zM343 390h4v3c-2 0-4-1-4-3zM342 403h4v5h-4v-5zM491 408c7 2 6 11 8 17-6-4-7-11-8-17zM492 446c0-3 3-3 5-3l-1 4-4-1zM493 461c-3 12-14-4 0 0zM372 560h3l-3 8c-5-1-1-6 0-8zM366 577h3v14h-3c0-5-4-10 0-14zM344 620c5-4 7-12 13-14l1 3c-5 4-8 9-14 11z"/></g><g fill="#707cc7"><path d="M512 447c10-4 21-3 31 2h-2c-1 4-6 4-9 4l-3 4-8-4-7-4 1 5c-7-3-10 3-12 8l3 1c0 4 2 7 5 10l-5-1c2 1 4 3 3 5h2l1-3c2 4-1 9-5 10l1-5-6 2c9 9-12 21-16 9l3-1c1 2 1 4 3 5l8-3 1-2-9 1 1-2 4-2-7-2v3l-5-1v4h-4l3-4c-9 2-8 11-6 18l-6-4 1 3-3 1-1 3c-4-2-9-3-12 0 2 2 2 4 2 6l-14-2 1 9c-3 0-6-1-8-3l3 4-5 2 4 1 7 6 2-3 4 2 8-5-4-1 8-3c-1 4-4 6-8 7l2 5-3 3c3 2 6 4 9 4l-7 2-1 2 3-1 3 7c-3-2-7-4-8-8-2 4-7 5-12 6l3 4c-1 5-1 10-4 14-2-2-1-5-1-7h-4v3l-4-1 1 4 4-1-2 4h10l-1-2 2-4 4 4-2 2 4 1-8 5 1-2-4 4-5-2v5l5-1-3 4 11 6-7 7 12 1c-3 1-6 2-9 1l3 4 2-2 2 3-3 2 7 3-2 4-10 6c-7-7-19-7-27-13-9-8-10-20-14-31l2-2 2 5a2913 2913 0 0 1 0-6h2l-1-5 3-5-4 3v-7l6 4c-1-4 1-6 4-8l2 2 1-3c-4-2-1-5 2-5l-1-3-4 2c6-6 15-13 4-20-2-2-4-2-7-1-2-9-2-22 9-25 9-1 8-11 11-18 8-4 11-14 18-20l4 1-1-4 5 1v-3l5-2c15-2 31-6 46-6m-19 14c-14-4-3 12 0 0z"/><path d="M530 473l13-2-3 2c6 1 8 7 4 12l3 3a868 868 0 0 0-4 2l-2 4 2 2-3 3-2-3-4 2 6 5-9 4-5-5-1 2-1-2c-3 1-6 1-7 3l4 4-7-4 4-3c9 0 11-6 2-2l4-5-5-1 3-5-1-6 5-2 2-2c-3 0-8 3-9-2l5 1-3-4 4 1a233 233 0 0 1 5-2zM464 524l8-4v5l1 1c-2 1-4-1-5-2v3c-2 0-3-1-4-3zM555 578l3 3 3-3 1 2c-12 9-15 26-31 28-10 12-24 18-39 16 8-2 16-2 24-5l-2-3 5 1 7-10h-5l2 3c-4 3-8 0-12-3l-2 5-2-2-10-1 6 4h-3l-10-1 6-5c-7-5-14 2-21 4l2-3-10-1 10-7 10 4v-2l2-5 9 4 1-6 6 4-1-3 3 3 3-3 8 4 1-2 1 3 9-4v4l5-5-1-2-5 1 4-2 1-3 4 1-2-4 6 4-2-5 6 6 3-9h2l2-3 4 1-1-3z"/></g><g fill="#3d4a9e"><path d="M543 449h5v2l8 1 1 4 2-2c-13 63-51 120-104 156l2-4-7-3 3-2-2-3-2 2-3-4c3 1 6 0 9-1l-12-1 7-7-11-6 3-4-5 1v-5l5 2 4-4-1 2 8-5-4-1 2-2-4-4-2 4 1 2h-10l2-4-4 1-1-4 4 1v-3h4c0 2-1 5 1 7 3-4 3-9 4-14l-3-4c5-1 10-2 12-6 1 4 5 6 8 8l-3-7a388 388 0 0 0-2-1l7-2c-3 0-6-2-9-4l3-3-2-5c4-1 7-3 8-7l-8 3 4 1-8 5-4-2-2 3-7-6-4-1 5-2-3-4c2 2 5 3 8 3l-1-9 14 2c0-2 0-4-2-6 3-3 8-2 12 0l1-3 3-1-1-3 6 4c-2-7-3-16 6-18l-3 4h4v-4l5 1v-3l7 2-4 2-1 2 9-1-1 2-8 3c-2-1-2-3-3-5l-3 1c4 12 25 0 16-9l6-2-1 5c4-1 7-6 5-10l-1 3h-2c1-2-1-4-3-5l5 1c-3-3-5-6-5-10l-3-1c2-5 5-11 12-8l-1-5 7 4 8 4 3-4c3 0 8 0 9-4h2m-13 24h-2l-3 2-4-1 3 4-5-1c1 5 6 2 9 2l-2 2-5 2 1 6-3 5 5 1-4 5c9-4 7 2-2 2l-4 3 7 4-4-4c1-2 4-2 7-3l1 2 1-2 5 5 9-4-6-5 4-2 2 3 3-3-2-2 2-4-2-1 6-1-3-3c4-5 2-11-4-12l3-2-13 2m-66 51c1 2 2 3 4 3v-3a1447 1447 0 0 1 4 1v-5l-8 4z"/><path d="M562 461c19 17-1 42 10 62 1 19 0 40-10 57l-1-2-3 3-3-3 1 3-4-1-2 3h-2l-3 9-6-6 2 5-6-4 2 4-4-1-1 3-4 2 5-1 1 2-5 5v-4l-9 4-1-3-1 2-8-4-3 3-3-3 1 3-6-4-1 6-9-4-2 5v2l-10-4c41-37 72-85 85-139z"/></g><g fill="#9faadb"><path d="M435 480c3-13 15-30 31-27l-5 2v3l-5-1 1 4-4-1c-7 6-10 16-18 20zM409 531c-3-12-5-36 15-33-11 3-11 16-9 25 3-1 5-1 7 1 11 7 2 14-4 20l4-2 1 3c-3 0-6 3-2 5l-1 3-2-2c-3 2-5 4-4 8l-6-4v7l4-3-3 5 1 5h-2a2913 2913 0 0 0 0 6l-2-5-2 2c-5-14 10-26 5-41zM475 611c7-2 14-9 21-4l-6 5a272 272 0 0 1 13 1l-6-4 10 1 2 2 2-5c4 3 8 6 12 3l-2-3h5l-7 10-5-1 2 3c-8 3-16 3-24 5-14 0-27-3-39-7l14-10 10 1-2 3z"/></g></svg>