<svg width="1067" height="1067" viewBox="0 0 800 800" xmlns="http://www.w3.org/2000/svg"><g fill="#040304"><path d="M420 254c19-16 47-21 69-8 9 10 14 25 7 38-4 11-15 17-23 25-15 10-25 25-35 40-6 19-15 38-34 46-16 3-37-7-39-25-3-16-3-32 2-48 9-28 28-53 53-68m4 1c-28 15-47 43-56 74-5 21-6 50 16 61 9 6 28 5 28-9l4-6c12 7 12-16 15-24 4-23 26-34 43-47 19-11 31-38 14-56-20-12-46-7-64 7m12 91l17-22c-7 6-16 12-17 22z"/><path d="M434 259c7-1 13-3 18-6l1 3-8 5-11 6-3-3 3-5zM483 275l4 1c1 8-10 4-4-1zM384 310c-5-15 10-26 22-30-1 15-16 18-20 30h-2zM439 284c8 4 4 17-4 17 0-6 1-12 4-17zM472 294c-7 3-7-6-2-9l2 2 4-2-4 9zM395 320c0-3-1-12 5-11 8 1 0 10-5 11zM372 334c2-8 17-17 15-2h4l-1 11h-3c-1-7-4-11-9-4l4 5c-4 13-1 27 7 38h-5l-2 5c-6-5-6-13-9-19l-4 1v-13c-6 0-1-6 0-9l5 3 2-11-4-5zM417 330c2-3 6-11 10-5-1 12-14 18-19 27l-6-1c-6-11 13-12 15-21zM411 357l5-1c1 3 1 7-1 10-3-2-3-6-4-9zM399 364c0-2 1-4 3-4 0 5 4 10 1 15-7 1-11-8-9-13l5 2zM216 394c-1-18 18-30 34-32 18 0 28 16 43 22 10 4 17 11 27 15l-1 2c15 7 33 10 42 25 16 21-4 54-30 51-33 2-69-9-91-35l-16-23c-3-8-8-16-8-25m15-21c2 4 4 9 1 13-4 0-6-3-7-6-7 6-6 16-4 24l6 5 3-5c3 1 5 3 7 6 1 2 0 5-2 7h1l2 8-7-2c16 32 53 51 88 51l-3-3c3-11 11 2 17-1v-1c2 2 2 4 0 5 8-1 16-3 22-9 17-14 7-44-11-51-17-9-37-9-52-20l-8-8c-11-17-35-28-53-13m59 15c5 5 11 9 18 9-5-5-11-7-18-9zM512 382c21-5 42 12 42 34 3 22-11 41-21 59-14 22-35 48-63 46-18 5-35-6-41-23-2-22 12-42 31-54l-1-2c22-16 30-45 53-60m-5 8c-14 13-22 31-33 46-15 15-38 25-41 49 4 1 8-2 12-4-2 6-7 10-9 16l3-1 1 6c-5 9 7 17 15 12 3 1 7-2 11-2 0 4-4 5-6 7 37 3 64-30 78-61l-6 2c3-7 5-15 13-16 8-16 9-38-5-51-9-8-24-13-33-3zM395 385c3-1 6 0 8 2l-2 1 1 2-7 1v-6z"/><path d="M238 391h3l2 6c-4 2-7-2-5-6zM256 393l6-2 7 3-3 10-9-6-1-5zM517 392c6 5-2 11 1 17l-4 1 1 5-2-1c-2 3-4 5-7 4-3-10 7-18 11-26zM541 417l5 1c1 5-5 14-9 7l4-8zM308 429c-8 5-22-10-9-9l8 1 1 8zM334 428c3-4 9-5 10 1-3 5-9 5-10-1zM502 439c-1-4-1-8 3-10 4 3 0 8-3 10zM267 430h2c3 2 4 6 6 9v2c-4 3-9-1-11-5l3-3v-3zM247 437c5 1 8 4 11 7-4 1-12-1-11-7zM289 441c14-4 26 10 40 7l3 1 1 3c8-9 19 3 7 8l-5-4c-6 6-11 0-17-2l-18 6-2 2c-4 0-6-3-2-6l-5-4 6-3-8-5v-3zM496 487c-1-11-3-36 14-31 0 7-5 13-9 20-1 8-1 17-8 23l-6-3c-2 5-2 13-10 11-1 3-4 4-8 4-2-9 3-24 14-20l1 3c5-1 8-4 12-7zM461 476c1-4 5-11 8-6 4 5-4 7-8 6zM509 483c-1-3 1-6 4-7l-1 7h-3zM450 505c-2-6 2-10 7-12 5 5 1 13-7 12z"/></g><g fill="#fdaeca"><path d="M384 253c12 4 24-1 36 1-25 15-44 40-53 68l-3-4c0-6-6-8-11-10-6-23 8-49 31-55z"/><path d="M368 329c9-31 28-59 56-74l10 4-3 5 3 3 11-6c10 5 19 13 25 24-5 3-5 12 2 9l2 10c-17 13-39 24-43 47l-23 1c5-9 18-15 19-27-4-6-8 2-10 5-2 9-21 10-15 21-7-1-14-3-20-7l-4-5c5-7 8-3 9 4h3l1-11h-4c2-15-13-6-15 2l-4-5m16-19h2c4-12 19-15 20-30-12 4-27 15-22 30m55-26c-3 5-4 11-4 17 8 0 12-13 4-17m-44 36c5-1 13-10 5-11-6-1-5 8-5 11z"/><path d="M436 346c1-10 10-16 17-22l-17 22zM224 419l16 23-3 6 1 2c-5 3-6 5 0 5v2l-4-1c6 4 13 9 21 9v1c4 0 5 3 5 5l-8-3 3 3-4 2 9 2v-2l4-1v8c1-3 3-4 5-6-4 9 7 8 12 11l14 2c1 3 4 4 7 4l-4-3 3-2c8 0 16 3 24 2l-5 6c-22 30-67 22-93 3-5-8-4-20-15-23-6-14-9-33 1-46 5-2 9-4 11-9z"/></g><g fill="#fa91b0"><path d="M438 349c10-15 20-30 35-40-2 18-19 33-35 40zM236 417c14 2 27-13 42-6 6-4 12 2 19 1 20 1 33 18 35 37l-3-1c-14 3-26-11-40-7v3l8 5-6 3 5 4c-4 3-2 6 2 6l2-2 18-6c6 2 11 8 17 2-2 4-2 9-2 13v1c-6 3-14-10-17 1l3 3c-35 0-72-19-88-51l7 2-2-8m39 5v2a447 447 0 0 0-5 0l-4-1 1 2-3 1 5 4h-2v3l-3 3c2 4 7 8 11 5v-2l2-1 1 4c3 1 6 2 7-2l-2-1 4 1 1-3 1 2 3-3-1 3 3-3 4 2 2-2c1-1 3-2 4-1 6-2 13-3 19-1v3l4 1c-2-6-4-11-8-16-4 1-8-1-12-3v2l-8-1v-3l-3 2-2-3c-8-2-11 7-19 6m-28 15c-1 6 7 8 11 7-3-3-6-6-11-7z"/><path d="M240 442c22 26 58 37 91 35-2 7-4 14-11 17l5-6c-8 1-16-2-24-2l-3 2 4 3c-3 0-6-1-7-4l-14-2c-5-3-16-2-12-11-2 2-4 3-5 6v-8l-4 1v2l-9-2 4-2-3-3 8 3c0-2-1-5-5-5v-1c-8 0-15-5-21-9l4 1v-2c-6 0-5-2 0-5l-1-2 3-6z"/></g><g fill="#fec8e1"><path d="M284 386l8 8-5 2h4l-1 2v1l1 6-2 1c3 2 6 3 8 6-7 1-13-5-19-1-15-7-28 8-42 6h-1c2-2 3-5 2-7 3 2 8 2 12 2v-3c4-2 7-6 8-11l9 6 3-10-7-3c7-3 16 0 22-5zM275 422c8 1 11-8 19-6l2 3 3-2v3c-13-1 1 14 9 9l-1-8v-2c4 2 8 4 12 3 4 5 6 10 8 16l-4-1v-3c-6-2-13-1-19 1-1-1-3 0-4 1l-2 2-4-2-3 3 1-3-3 3-1-2-1 3-4-1 2 1c-1 4-4 3-7 2l-1-4-2 1c-2-3-3-7-6-9l-5-4a436 436 0 0 1 2-3l4 1-1-3a447 447 0 0 1 6 1z"/></g></svg>