<svg width="1067" height="1067" viewBox="0 0 800 800" xmlns="http://www.w3.org/2000/svg"><g fill="#111110"><path d="M474 287c30-25 75-34 111-16 16 12 30 33 24 54-3 14 9 31-1 44-11 13-26 26-43 24-14 5-26-7-40-6-10 2-19 7-29 10 17 21 47 38 41 69-6 18-20 39-40 40-11 5-25 1-37 5-13 0-26 6-39 1-12-6-24 5-37 1-32-9-71-3-96-28-7-12-17-23-17-37 3-24 22-45 44-54 21-10 42-24 65-29 19-9 35-35 21-54-15-10-19-40-42-31-30-1-60 7-88 17-15 6-31 12-44 21l-7 5c-17 15-21 38-32 58a50 50 0 0 0-17 37c6 29 35 49 64 46l35-10c-6 8-18 7-26 12a60 60 0 0 1-75-40c-6-18 5-35 16-48l3-5c8-17 14-34 25-49 16-15 36-23 56-30 33-13 68-18 103-18 8 2 14 8 17 16 5 9 17 14 20 25 5 17-5 34-17 45 15-1 31 0 45 6 4-10-6-17-4-27 3-24 20-43 41-54m0 4c-20 11-38 31-38 55 6 7 6 17 4 26 17 8 35 17 53 23 16-5 32-18 48-9 25 10 55-1 67-23 2-13-4-26-4-38 9-18-6-38-19-50-36-17-81-9-111 16m-81 75c-31 5-57 21-84 35-17 9-29 25-34 44-2 16 9 31 20 42 18 17 45 11 66 19 17 1 35 7 51 0 26 9 53-1 80-2 27-2 48-32 40-59-9-19-27-32-42-47-17-7-34-14-50-23-13-11-31-10-47-9z"/><path d="M544 282l4-1-1 5h-3v-4zM529 290l5 2-5 2v-4zM544 299h4v4h-4v-4zM511 300h3c1 3 1 5-3 4v-4zM287 302h4c-1 4-4 5-4 0zM298 305c8 0 0 6-4 6 0-3 2-5 4-6zM306 306a17338 17338 0 0 1 11 0c0 6-5 10-10 9l-1-4 5 1-4-4-1-2zM457 324c1-7 7-10 14-10 4 5-7 13-9 6-1 2-2 4-5 4zM582 318c5-1 13-4 11 5-2 7-13 0-11-5m5 1c0 5 3 4 4 0h-4zM567 328l5 6-1 2h-3l-1-8zM365 331l6-1c3 5 7 8 12 10v3l-5-1c-6 9-11-5-13-11zM449 336l5 1-1 3c-3 0-4-1-4-4zM234 341c4 0 6 2 7 5h-7v-5zM366 345l5 7-6-5 1-2zM592 345c2 0 3 2 3 4h-3v-4zM480 351l6-2 7 5c0 10-13 12-18 4v-3c4 1 7 6 12 4-3-2-7-4-7-8zM255 350h4v5h-4v-5zM378 353h4v4h-4v-4zM501 355l8 1c0 5-6 3-9 2l1-3zM312 367c0-2 0-5 3-5l1 3-4 2zM579 363h3v4h-3v-4zM511 382h4v3h-4v-3zM478 383l12 2c-2 4-8 1-12 1v-3zM262 385h4v4h-4v-4zM272 387h4v4h-4v-4zM383 388c5 1 5 6-1 5l1-5zM336 406c3-2 6 0 5 4h-4l-1-4zM379 408c10 1-5 9 0 0zM339 418c2-4 5-6 9-8 6 7-1 13-7 15l-15-4c3-3 9-5 13-3l-4 3h8v-4l-4 1zM199 417c3-13 21 0 13 8l-2-4-4 1c0-2 2-4 3-5-3-3-7-1-10 0z"/><path d="M215 414c4 1 8 4 8 9l-4 1c1 1 2 3 1 5-2-2-5-5-2-9-2-1-3-3-3-6zM445 416h3l1 4-3 1-1-5zM503 435c-7-9 10 2-1 4l1-4zM233 435c3 0 4 1 4 4l-3 1-1-5zM266 436l4 1-2 4-2-5zM256 453c-9-3-4-13 5-9v3h-6l1 6zM473 467c-12 2-16-19-2-15l-1 5c5 1 10 9 3 10m-8-10c0 3 1 5 4 5l-4-5zM381 456h5v4h-5v-4zM310 458h3l-1 4 3 1c-4 3-10 2-10-4l5 2v-3zM335 466h4v4h-4v-4zM479 467l7 3c1 8-12 2-7-3zM517 475h4v5h-4v-5zM369 483c-3 10-10-3 0 0zM432 487h4v4h-4v-4z"/></g><g fill="#cf8e3d"><path d="M194 277c18-7 33 10 51 5 10-1 15 10 24 12-20 7-40 15-56 30-10-6-33-4-30 12 10 8-5 15 0 24l4-1-1 5-4 1c1 3 2 7 6 8l-3 5c-14-12-4-32-16-45v-3l3 3c4-18 24-24 41-19 9-6 13-20 13-31-10-5-22-6-32-6z"/><path d="M227 318c13-9 29-15 44-21 2 5 4 9 4 14 8-1 4 4 1 6l-1 15h-1v-4c-8 0-16 0-23-3-11 7-14-7-24-7zM222 324c14 11 31 7 47 10-7 5-17 6-22 15-4 5-1 11-2 17v1c-5 11-15 16-27 14-7-1-17 1-22-5l6 1 1-2c8 1 15-5 22-1l2-4 2 3c4-1 8-4 6-8l3 3 4-7h-16l1 3-2-1-1-5 3 2 1-2c5 0 11-1 14-4l-4-1 1-3h-4l2-2-9 1v-3h-13c1-3 4-5 7-6l-1-1 1-3-5-2c4 0 9 1 13-1l-8-9m12 17v5h7c-1-3-3-5-7-5z"/></g><path fill="#f0d381" d="M169 333c-10-20 1-51 25-56 10 0 22 1 32 6 0 11-4 25-13 31-17-5-37 1-41 19l-3-3v3z"/><path fill="#5a554f" d="M220 323l7-5c10 0 13 14 24 7 7 3 15 3 23 3v4c-3 9-16 10-23 16-2 6-2 13-6 18 1-6-2-12 2-17 5-9 15-10 22-15-16-3-33 1-47-10l-2-1z"/><g fill="#e6b55e"><path d="M183 336c-3-16 20-18 30-12-11 15-17 32-25 49-4-1-5-5-6-8l4-1 1-5-4 1c-5-9 10-16 0-24zM188 381c11-20 15-43 32-58l2 1 8 9c-4 2-9 1-13 1l5 2-1 3 1 1c-3 1-6 3-7 6h13v3l9-1-2 2h4l-1 3 4 1c-3 3-9 4-14 4l-1 2-3-2 1 5 2 1-1-3h16l-4 7-3-3c2 4-2 7-6 8l-2-3-2 4c-7-4-14 2-22 1l-1 2-6-1c5 6 15 4 22 5v1c-10-2-21 5-30-1z"/></g></svg>