<svg width="1067" height="1067" viewBox="0 0 800 800" xmlns="http://www.w3.org/2000/svg"><g fill="#080707"><path d="M399 171c5-9 16-6 25-7 8 5 8 14 10 22 2 42-5 83-3 125 2 12 6 24 6 36 35-9 74-7 105 13 24 16 42 38 53 64 11 42 5 89-20 125-17 22-42 33-63 49-27 13-59 13-88 11-28-1-54-16-83-11-28 5-51-14-74-27-26-21-48-48-53-82-4-34-2-70 20-98 9-14 21-31 39-32 30-8 61-11 91-15-1-6 6-8 11-10 14-28 18-59 23-89 6-16 1-32 3-47-2-9-11-19-2-27m10-2c1 7 7 10 12 14 0-5-5-10-6-14 9-1 9 12 11 18 0 36-6 71-6 107 3 13 7 25 6 39l3-1 2 3c-13-53 6-108-4-161-1-8-13-8-18-5m-4 3c5 17 13 33 9 51 4-17 4-37-9-51m-5 4c3 18 8 36 5 54-8 33-8 68-24 99l7-3c3-12 5-25 11-37 0-38 25-78 1-113m18 96c-2-15 3-29 2-43-3 12-7 29-2 43m-5-41c-3 18-10 36-11 55-1 12-9 23-8 35 14-25 15-55 18-83 1-2 3-5 1-7m-1 38l-1 8c3-2 2-5 1-8m4 4c-2 5-4 15 1 20-1-7 1-15-1-20m-6 29c0 16-15 37-1 51-1-17 6-35 1-51m9 10l1 8c1-2 2-6-1-8m-27 33l8 3c-7-11 4-22 3-34-6 10-10 20-11 31m30 12c-6-11-5-23-6-35-2 10-12 35 6 35m-1-30c0 8-3 28 10 27-9-6-5-19-10-27m-40 16c4 5 10-2 8-7-3-1-14 3-8 7m-12-3c0 4 4 4 7 3l-7-3m60 4c1 3 3 6 7 7v-4l-7-3m0 15c-11 7-22-1-34-1-6 0-12-3-13-9-20-1-40 1-59 5-30 4-68 5-83 36-17 23-25 51-23 80l1-1c1 7-1 17 2 22 3 25 19 49 39 65-10-19-18-39-21-61l-1-7c3-23-3-47 7-69 7-15 21-24 34-33 11-10 25-18 40-20 21-1 41-16 60-12-16 4-32 7-48 13-17 3-36 6-48 20-15 11-36 22-37 43-6 21-4 43-4 64v3c5 17 8 36 18 52 3 20 26 24 39 35 14 7 30 12 46 9 23-2 45 5 66 10 32 3 65 4 95-7 17-10 34-21 50-33 38-33 47-89 36-136-16-38-51-75-94-79-23 0-50-5-68 11m-42-7l14 3c-3-4-10-7-14-3z"/><path d="M443 356c12 2 27 1 36 11 28 20 63 37 77 71 11 22 16 48 6 71-4 29-35 40-54 58 13-22 44-28 49-55 16-38-3-82-32-108-16-14-36-23-52-37-8-8-23-2-30-11zM368 379c7-5 12-15 21-15-20 21-51 36-59 66-7 18-11 37-8 56-4 26 17 48 23 73-12-16-17-37-26-56-3-16 0-32 0-49 6-14 8-30 17-43 8-13 21-21 32-32zM431 403c12 7 13 24 25 31 1 8 5 15 9 21 13 34-1 69-14 100-5 10-8 26-20 30 18-28 29-60 35-92 0-15 0-31-8-45-5-17-21-28-27-45z"/></g><g fill="#fea45f"><path d="M240 390c11 6 25-7 38-4-13 9-27 18-34 33-10 22-4 46-7 69-4-9-16-9-18-20l-1 1-1 1c-2-29 6-57 23-80z"/><path d="M245 430c1-21 22-32 37-43 15 7 7 27 20 35l-8 1 1-3-2 1c-2 4-5 1-6-2l-5 2v-4l-8 3-2-7-3 3v-4l-5-1c-1 4-3 7-6 10l1-2-7 1 2 3-2 1v3h-2l-2 4-3-1z"/><path d="M265 416c2 1 2 3 3 5l4 2-1 3c7 5 15 5 22 6l2-3c7 2 11 9 15 15l-3 2c-3-1-8-2-9 1-4-2-8-1-12 1l-5-4-4 2-2 5c1-6-6-7-11-6l-10-9 5 2 5-4c-2-4-2-6 2-3-2-5-1-10-1-15z"/></g><g fill="#fddab0"><path d="M199 404c6-11 23-15 35-13-22 28-24 64-20 98-10-9-35-11-26-29l-4-2 2-2 2-7-2-5 3-1 2-5-5 1 4-4-1-4 3-1h-3l1-2h-3v-2l6 1-2-2 4-3-5-2 4-1-2-5a357 357 0 0 1 6-3c2-1 4-2 1-4l3-2-3-1z"/><path d="M218 469l1-1c2 11 14 11 18 20l1 7c-6 0-12-2-18-4-3-5-1-15-2-22z"/></g><path fill="#fe771c" d="M264 411l5 1v4l3-3 2 7 8-3v4l5-2c1 3 4 6 6 2l2-1-1 3 8-1c12 13 13 35 1 48-16 16-38 28-62 24 0-21-2-43 4-64l3 1 2-4h2v-3l2-1-2-3 7-1-1 2c3-3 5-6 6-10m1 5c0 5-1 10 1 15-4-3-4-1-2 3l-5 4-5-2 10 9c5-1 12 0 11 6l2-5 4-2 5 4c4-2 8-3 12-1 1-3 6-2 9-1l3-2c-4-6-8-13-15-15l-2 3c-7-1-15-1-22-6l1-3-4-2c-1-2-1-4-3-5z"/></svg>