<svg width="1067" height="1067" viewBox="0 0 800 800" xmlns="http://www.w3.org/2000/svg"><g fill="#050505"><path d="M452 123c34-9 71-1 105 8 25 11 41 33 59 53 13 8 27 12 41 17-7 10-1 23-10 32-10 16-24 34-44 36-22 3-42 17-64 15-23 4-41-13-61-22-30-16-59-34-87-53-6-5-10-12-17-16 3-39 41-68 78-70m-19 9c-25 8-52 30-52 58 29-14 60-21 92-22 14 1 25-8 34-17 11-11 26-15 41-17-37-12-78-14-115-2m109 6c-20 2-35 18-49 29 19 5 39 9 57 18 20 6 37 26 60 22 13-1 26-1 39 1 0-9-10-7-16-10-20-7-35-24-48-41l-14 6v-3c4-2 8-4 12-4-12-9-24-23-41-18m-121 42c16 5 27 20 41 28 11 18 27 31 42 44-30-10-39-45-66-59-14-18-39-10-54 1 5 8 12 15 21 19 33 21 67 41 102 59 25 14 55 7 80-5 19-2 40-8 49-27 4-9 16-17 11-28-12-3-25 0-37 0-18 1-34-9-48-18-22-10-45-19-68-22-25 1-51-3-73 8z"/><path d="M431 167c9-18 24-45 49-41-2 5-11 2-15 5-17 6-19 27-34 36zM505 147c4-8 12-14 21-16-4 7-14 12-21 16zM584 170c2 0 8-3 8 2-14 1-26 7-39 12 4-12 21-10 31-14zM480 174c22 0 39 17 52 33 15 16 34 31 57 32 8 7 18 4 26 8-33 2-66-17-89-41-10-15-26-29-46-29v-3zM348 249c1-19 7-44 25-53-4 10-15 17-15 29 6-7 9-19 18-22 2 4-3 7-5 10-9 11-14 24-17 38 12-3 18 8 21 17 22 20 57 4 80 24 6 8 13 15 22 19 39-4 79 20 96 55 4 23 3 48 9 71 2 35 3 71-1 106 0 35-22 63-46 86-7 5-17 8-19 17-5 21-28 32-47 31-22-7-50-8-61-32-1-9-12-7-18-5-10-6-18-18-31-11-18 6-37 9-55 1-21-2-43-12-53-31-13-25-34-47-36-77-11-60-1-131 50-172 12-12 30-18 37-35-5-13-1-31 11-40 6-4 6-11 8-17 2-12-10-18-12-28l-5-3c-4-10 10-16 16-7 11 5 19 19 28 29m-38-31l-2 7 8-1-6-6m6 12c4 7 7 15 13 21l-6 19c6-5 15-7 20-13 1-7-4-13-9-18 2 6 5 11 5 18h-4c-1-12-9-22-19-27m33 30l6 1c-1 6-7 6-12 7l-1-3c-10 5-18 12-29 15-10 10-8 26-6 39l-5 4c3 2 7 4 2 7l-3-3c-5 3-7 9-11 13l-3-2-25 21c-23 19-33 48-43 74-3 34-5 68 3 100 1 20 16 34 23 51 9 19 25 37 47 40 16 0 31 10 48 6 9-5 20-6 30-8-5-9-6-19-1-29l5 1c-8 14 0 35 16 39 8 3 20-2 22 8 8 20 31 24 49 29 19 6 43-3 49-23 5-9 4-21 11-29 1 5 0 9-2 14 17-5 26-21 38-33 13-14 17-33 19-51 5-38 5-77-2-115-7-29 4-66-22-88a99 99 0 0 0-67-30l-5 4c-11-7-23-13-30-25-14-10-31-6-46-11-15 3-34-6-38-23-5-3-13-7-17 0zM584 211c17 2 25 25 44 21 4 3-9 4-11 3-12-7-23-15-33-24zM637 226c-10 6-11-7 0 0zM553 258c6 2 14 0 20 4-7 1-14 3-20-1v-3z"/><path d="M361 262l4-1 1 4c-3 1-5 0-5-3zM354 270h11l-1 7-10-7zM333 290c0-18 27-18 32-3-10-5-24-15-28 3h-4zM318 287c-7-1-3-9 2-7l-2 7zM362 291l8-10 2 8 4 3c-5 0-10 3-14-1z"/><path d="M353 285h4l1 3c-3 2-5 0-5-3zM310 294c0-4 1-7 6-7l-3 6 2 7c-4 2-5-1-7-4l2-2z"/><path d="M317 296c-3-10 7-10 3 0h-3zM346 294c2-8 8-1 0 0zM324 291h3c0 11 10 26-4 33-9 2 3-6 4-10-3-7-3-15-3-23zM386 291c16 15 38 34 33 58-5-3-9-8-10-13l3-1 4 5c-4-15-11-29-25-37-4-2-6-7-5-12zM374 294c5 0 8 4 10 7-5 2-10-2-10-7zM309 307c3-1 5 0 8 1l-1 4-7-2v-3z"/><path d="M383 308c12-1 22 10 24 21h-3c-2-13-14-14-21-21zM309 312l5 1v4l-5-5zM307 324c5 0 7 3 8 7l-6-1-2-6zM309 342c5-4 7-15 15-14-6 14-20 23-25 38-2 14-1 29-4 44h-3c-3-10 4-18 2-28-2-15 5-29 15-40zM365 359h4c8 13 7 28 8 43-2-1-4-2-4-5 1-13-2-26-8-38zM425 369h3c2 6 6 12 5 18-8-1-6-12-8-18zM536 384c3 0 7 1 9 4l-9 2-2-2 2-4zM536 392c11-5 13 9 10 16l-4-2 1-4c-4-2-7-5-7-10zM377 426l6-2-1 10c-5 1-5-5-5-8zM476 541c4-1 6 1 7 5l-1 5c-1 5 1 11-5 12l-1-9c-3-3-7-9-2-12l2-1z"/></g><path fill="#f6e225" d="M497 412c21-9 36 15 55 18l1 2-11-1-1 4 4-2 1 5h6l-9 5c6 4-2 7-5 9l8-1c-6 7 2 11 9 10h-7l-3 12-3-1-3 7h7v2l-10 6c4 2 8 4 12 4-9 5-16 11-24 17l7-1-1 3-9 5 5 2h-6l4 6-6 4 3-7-9 1 4 2c-3 5-8 8-13 10l10-10-16 4v3h-7l4 2c-2 4-6 5-10 5l7 4-4 3 3 4-7-2c-1-4-3-6-7-5-8-7-5-18-10-26 1-6-6-7-10-9-4-15-13-31-8-47 1-15 13-30 29-30 2-9 15-9 20-17z"/><g fill="#f9eb69"><path d="M552 430l22 3c7 38 7 77 2 115-18 11-36 25-58 22-14-2-26-10-36-19l1-5 7 2-3-4 4-3-7-4c4 0 8-1 10-5l-4-2h7v-3l16-4-10 10c5-2 10-5 13-10l-4-2 9-1-3 7 6-4-4-6h6l-5-2 9-5 1-3-7 1c8-6 15-12 24-17-4 0-8-2-12-4l10-6v-2h-7l3-7 3 1 3-12h7c-7 1-15-3-9-10l-8 1c3-2 11-5 5-9l9-5h-6l-1-5-4 2 1-4 11 1-1-2zM582 437c23 12 30 41 29 64-6 17-17 31-30 42 4-35 3-71 1-106zM456 506c4 2 11 3 10 9 5 8 2 19 10 26l-2 1c-8-11-14-23-18-36z"/></g></svg>