<svg width="1067" height="1067" viewBox="0 0 800 800" xmlns="http://www.w3.org/2000/svg"><g fill="#010101"><path d="M424 109c-3-11-2-27 10-32l6 3 2 17c9-10 19-3 14 9 6-2 8 5 8 9 5-10-2-32 16-27 5 9-1 17-2 26-2 12 7 25 2 38-4 7-13 0-16-5-11 16-3 33-2 50-4 11-12-5-12-9-7 16-4 34-5 51 12-21 20-45 30-68 11-22 9-47 17-70 3-4 8-4 13-4 6-4 10-16 20-12 8-2 15 7 10 14-8 10-20 20-19 34 5 1 15-5 17 2-2 9-12 14-17 21-16 8-25 23-33 39-9 0 0 11-6 16 6 0 11 4 13 9-10 0-14 9-22 13 2-8 11-12 17-15-2-4-7-3-11-4-6 10-8 22-13 33 3 4 6 7 7 12-8 2-18 6-17 16-3 12 7 20 9 31 11 20 18 47 8 69-5 22-1 45-3 68-6 26-16 51-17 78-15 38-12 86-48 112 5 7-3 15 2 22l6-2c-12 14-14-9-10-17-12 1-20 13-33 13-13 5-31-3-38 12-6 7 4 13 5 20 27 1 53-4 80-9 13-1 28-7 34-19 6-15 21-27 17-44l3-1-1 19c7 0 13-3 17-9 5 1-2 7-3 10l11 3c-4 2-10 2-13-2-9 4-17 10-18 20l9-2c-1 4-5 4-8 6-5 12-18 18-30 19 13 6 32 6 42-6-4 18-29 13-43 10-29 11-62 6-92 16-8-2-22 1-26-8-13-4-16-19-23-29-8 9-25 8-27 23 6 5 8 16-1 18 5-7 1-13-3-19 4-15 19-16 29-25-7-27-7-60 21-74 11-8 31-5 35-20l-5-3c4-27-10-54-8-81-1-34 4-68 19-99 6-28 16-58 40-76 9-6 20-3 30-3 0-25-12-47-20-70-4-13 3-26 0-38-13-16-5-39-14-57-1-2-4-1-6-2 6 25 13 49 10 75 5 28 20 54 18 83l-4-1c1-19-2-38-10-56-12-22 0-49-11-72 2-14-13-27-4-40 0-9 12-7 12 1l6 52c3-3 9-11 13-4-3 21-11 46-2 66 5-28 10-56 9-85-2-12-7-25-7-37 3-7 11-5 16-2m8-27c-12 14-1 34 1 50 0 5 4 14-4 16-5 45 1 91-2 137 14-1 11-18 13-28-4-13 3-27-3-41-8-23-2-49 7-71 4-11 13-21 15-34l-8-1 1-13c-4 2-7 9-12 9-4-7-3-16-4-24h-4m87 8l-3 7-7 2-15 35 4-1-5 5c-1 18-10 35-12 53 10-24 33-34 47-54-6 0-13 2-19-2-2-20 20-28 22-44l-12-1m-44 14l2-13c-10-3-11 13-2 13m23 7l4-9c-6-1-7 6-4 9m-29-5l-11 41c-6 13-12 26-13 40l3-5h3l6 16c6-13-7-26-1-39 3-7 4-14 8-20l4 2c1-11 6-22 6-34l-5-1m-55 11c3 7 9 3 10-3-3-5-17-6-10 3m79-6c-5 13-5 28-9 42-11 35-29 68-40 103 0 9-8 21-2 28v3c-9-3-15 3-20 9 11-2 23 0 32 7l-7-8 2-3c-8-25 12-45 17-68 11-18 12-39 18-59 7-17 5-36 16-51h-4l-3-3m-114 5v10c6 2 7-7 4-10h-4m60 98c4-4 2-10 3-15 1-28 14-53 20-80-13 30-31 61-23 95m-26-92c6 26 6 53 2 79-3 21-8 43 1 63 4 9 0 21 6 28 7-24 1-50 2-74-5-31 9-63-1-93-4 0-7-2-10-3m55 24c1 3 5 4 8 4 1-7 1-15-2-22-4 5-1 13-6 18m-65 21c-3 5-5 9-5 14l3 1c2-5 4-10 2-15m55 86l-2 7 8-3c-1-3-3-4-6-4m-63 47c-18 8-28 28-34 46-9 13-6 32-16 45a233 233 0 0 0-12 98l9-3c-1 3-5 5-8 7l1 8c12 0 23 4 34-1-7 14-23-1-33 7a500 500 0 0 1 6 36c2 8 8 19-1 25s-20 7-29 12c-20 8-31 32-25 53-1 18 10 33 21 46 15-2 11-27 27-30 19-1 38-3 54-14 37-16 41-61 50-95 12-25 9-54 19-81 12-27-2-58 7-87 9-20 3-44-9-61-15-20-40-10-61-11m44 367c7-3 20-8 15-17 3-7 7-14 12-20-14 6-15 27-27 37m-111 15l-4-10c-10 2-2 9 4 10m57 0c11 0 22-3 33-5v-3c-12 1-22 4-33 8m-68-2l-1 6c11 0 22 4 32-1-6-3-12 0-19-1-4 3-8-2-12-4z"/><path d="M440 290h3v4h-3v-4zM390 371c-1-14 23-10 29-5-10-2-23-5-29 5zM381 372c11 2 25-4 33 3-11 0-22-1-33 1v-4zM418 438c7 1 14 1 20 4-6 2-13 1-20 0v-4zM401 452c3-9 24-8 25 2l-9-5-16 3zM337 624c12-7 15 10 25 10l1 2c-8 1-13-3-16-9-3-1-19 1-10-3z"/></g><g fill="#eff0e1"><path d="M302 479c3-8 13-12 21-9v9l5 1 1-6c-2 27 12 54 8 81l5 3c-4 15-24 12-35 20-15-8-24-24-24-41-12 0-17-23-2-24-7-16 15-22 21-34z"/><path d="M333 481c12-13 33-4 46 6 2 6 8 7 13 11l-1 2 2 2-2 5c-5 1-13-1-14 5l11 1-4 4 3 1-3 3c8-4 15 1 21 5l1 5 4 1-2 13c-9 14-21 32-40 22l7 4c-8 7-19 6-28 10-12 2-24 1-35-1 9-5 20-6 29-12s3-17 1-25l2-2c1 3 2 7 5 7 11 2 22 5 33 4v4l7-2 1 1h6l6-4-3-2 3-1c6-8-6-10-10-5l-3-3-3 1 1 2c-6-2-14-4-19 2l-1-3h-7l-1 1c-3-3-7-6-11-6l-3-3-3 2a843 843 0 0 0-6-29c10-8 26 7 33-7-11 5-22 1-34 1l-1-8c3-2 7-4 8-7l-9 3v-8z"/></g><g fill="#d7dabf"><path d="M392 498c-5-4-11-5-13-11 17 9 26 27 31 45l-4-1-1-5c-6-4-13-9-21-5l3-3-3-1 4-4-11-1c1-6 9-4 14-5l2-5-2-2 1-2zM341 531l1 5 3-2 3 3c4 0 8 3 11 6l1-1h7l1 3c5-6 13-4 19-2l-1-2 3-1 3 3c4-5 16-3 10 5l-3 1 3 2-6 4h-6l-1-1-7 2v-4c-11 1-22-2-33-4-3 0-4-4-5-7l-2 2-1-12z"/></g><path fill="#808685" d="M368 567c19 10 31-8 40-22-9 26-37 34-61 36 9-4 20-3 28-10l-7-4z"/></svg>