<svg width="1067" height="1067" viewBox="0 0 800 800" xmlns="http://www.w3.org/2000/svg"><g fill="#f23b52"><path d="M351 282c10-9 28 0 36 10 4 8 6 17 14 21h-1c-16 1-34 11-34 29l-13-6 5 7c-7 5-14 10-21 17l-3-4-1 2-1-2c-5 0-9-1-13-3l-1-3-8 1 1-5c-4-1-8-3-10-6v-6l-4 2 2-4-3-1-1-3 1-19 5 3c3-4 7-11 13-8 9-3 8-16 17-19 6-3 13-4 20-3z"/><path d="M374 327c8-6 18-13 28-10l5 15-3 5c-14-7-28 2-33 15-3-7-3-21 8-23 4-1-3-3-5-2m12 4c3-3 7-7 12-6v-2c-6-1-14 1-12 8zM334 375c5-13 17-26 31-29l8 10 1 7-12 8c4-3 5-8 5-12-5 5-8 15-17 14l-2-4h-3l3 6-12 4 1-5-3 1z"/></g><g fill="#201c1d"><path d="M419 305c10-2 23-13 31-1 17-6 24 15 37 22 13 14-20 30-1 41 6-5 13-12 14-21-4-2-8-3-11-7 8 0 19 5 13 15 21 3 22 32 4 39 23 7 10 29 9 45 1 12-10 19-20 23 3-11 12-26 1-35-3 4-6 8-12 7 0 10-5 20-14 25l6-1c-10 8-39 2-31-17l-4-1c-2 11-13 17-22 21-9 1-19 5-19 15l-2-7c-13 9-43-7-26-22-19 7-24-17-11-26 5-2 14-8 17-2-11-1-26 8-20 21 8 10 17-1 25-4l-5 6c3-2 7-3 11-3-7 5-18 9-20 19 8 14 28 10 39 3-3-5-9-11-5-17l3-7c-4 2-9 4-14 4-3-3-6-6-7-11h3c1 4 5 10 10 7 7-5 18-8 22-17 2-5 7-2 11-3l12-7c-3-10 9-25-5-28-15-3-33 21-20 32-16-3-6-17-1-26-4-13-20-11-27-2 3 9 12 6 19 3v3c-7 6-19 5-21-5-3 4-5 8-6 13-3 2-3-6-1-8 6-6 10-15 20-17 9 2 15-12 9-18l-3 1-2 1-2-1 1-4h4c4-1 6 2 8 5 7-4 15-6 23-5 2-17-23-31-32-14-2 8-6 13-5 1-15-9-33 8-26 23 9-5 18-15 29-13-11 7-34 14-27 32h-2l-3-5-15 10c1-11 23-11 16-24l-1-7-8-10c-14 3-26 16-31 29l3-1-1 5-3 4c5 10 16 7 23 3-7 11-26 9-26-5l-8 7 5-1-5 7c-8 15 11 24 22 15l1-9c4-4 8-7 14-9v2l-8 6c-13 13 12 16 20 9-5 16-25-3-33 9-3 6 3 11 6 15-16 2 1 29 10 16-5 10 4 22 14 23-3 6 4 8 7 12a30 30 0 0 1-41 1c-5-4-10 1-14 3l7-8c-14 1-32-15-21-28-3-4-2-9 2-11l-4-5c1 3 1 7-1 9-4-10-2-25 10-29-11 9-8 22 4 27l12-4-3 5h-5l2 2c-4 5-4 12 1 18l8-1v3c-4 2-9 1-13 0-1 10 11 9 18 10l-4 3c10 10 28 12 39 3l-8-2v-6c-10-7-21-1-18 11-14-10-8-33-13-49l7-4-5-5-5 8h-3c3-6 10-10 7-17-11 1-18-11-16-21-3 6-4 13-3 19-6-7-2-18 1-26 10-8 15-18 21-29 7-7 14-12 21-17l-5-7 13 6c0-18 18-28 34-29 7-1 13-6 19-7l-10 7 11 5c3-12 17-10 26-14-8-9-18 7-27 1m21 5c8 8 13 19 7 30 5-2 10 0 14 3 18-13 0-49-21-33m-21 18c10 0 19 6 22 15 11-9 5-31-11-31-7 1-9 10-11 16m-45-1c2-1 9 1 5 2-11 2-11 16-8 23 5-13 19-22 33-15l3-5c6-2 11-5 12-11-5-3-11-4-17-4-10-3-20 4-28 10m96-11c5 9 1 19-3 27 2 4 6 7 9 10 6-6 9-14 11-22-5-6-12-10-17-15m-28 32c2 18 11 38 3 56l2-2c17-4 19 16 30 22 4 1 7 5 12 5 10-8 9-22 9-33-7 0-7 8-11 12 0-6 1-14 8-16 0-7-2-14-7-19l-6 4c2-13-10-22-19-31l-1 3c-5-6-14-8-20-1m-30 24c5 3 2 9 7 13 7-7 16-11 25-5-1-8-2-15-5-23-11-4-23 4-27 15m77-3c5 7 9 15 11 24 14-4 23-24 8-33-8-8-14 4-19 9m12 28l1 18 12 5c5-10-1-23-13-23m-78 25c-5 9-22 17-16 30 5 15 21-1 28-7 10-7-10-16-3-23 2 6 7 15 14 13 14 0 23-25 8-29-12 2-18 17-31 16m75 1c11 7 6 20 3 31 12-6 17-34 0-36l-3 5m-33-4c-2 10-10 16-17 22-7 13 11 17 20 17 7-8 14-15 12-26l-15-13m-152 37l-7-2c0 7 3 16 11 18l2-10c-3-5-3-11 0-17-3 0-6-2-8-3-5 4 0 10 2 14m25-4l3 19c4-1 8-3 13-3-1-9-7-16-16-16z"/><path d="M428 319c0-2 2-3 4-3v3h-4zM450 316l9 1 1 8c-4-2-8-5-10-9zM386 331c-2-7 6-9 12-8v2c-5-1-9 3-12 6zM412 345c-3-8 7-11 13-8-3 3-12 1-11 8h-2zM454 358c2-2 4-3 7-3v3l-3 1-4-1zM350 373c9 1 12-9 17-14 0 4-1 9-5 12s-9 5-14 4l-3-6h3l2 4zM452 362c3 1 7 1 6 5-4 0-6-1-6-5zM473 380c-2-5-11-15-4-17 2 5 4 11 4 17zM387 369c9-15 4 14 0 0zM422 372l4-7-1 8-3-1zM429 403c-5 9-10-13 0-13-3 5-6 10 0 13zM328 393h2l3 5-1 5-4-6v-4zM364 402c5-1 9-6 13-9l1 3c-3 7-19 14-18 1 4-2 9-3 13-2-3 2-7 3-9 7zM474 395c2 1 5 2 5 5-4 1-6-1-5-5zM381 402c3 0 5 2 6 5-3 0-6-2-6-5z"/><path d="M384 426c-11-6 6-26 13-20-9 2-15 12-13 20zM484 413c3 0 4 3 4 5-2-1-4-2-4-5zM393 419c6 5 13 8 19 2-3 11-18 9-19-2zM469 438c7 5-4 22-10 12l7-1c1-4 1-8 3-11zM415 444l11 1c-1 6-11 4-11-1zM381 455l9 4 1 2c-4 1-10-1-10-6zM484 459c0-3 2-6 6-4-1 3-3 4-6 4zM450 462c4-3 12 3 2 3-7 1-25 20-11 21 15 4 28-6 35-17l-6-8 10 6c5 0 9-3 14-5-2 7-10 8-16 7-7 18-30 29-46 17l-9 4c-8-2-18 2-26-3 0 5-4 8-9 9l5-9c-6 3-13 4-19-1 6-4 14 1 20-3l-1-11h3c-3 12 15 20 21 10l7 5c10-7 15-19 26-25z"/><path d="M416 466c2 6 6 10 9 15-6-2-12-9-9-15zM424 467c4 2 9 4 12 0-1 8-7 7-12 3v-3zM451 477c5 5 10-2 14-5 2 9-16 16-14 5z"/></g><g fill="#fe879d"><path d="M295 327v1l1 3 3 1-2 4 4-2v6c2 3 6 5 10 6l-1 5 8-1 1 3c4 2 8 3 13 3l1 2 1-2 3 4c-6 11-11 21-21 29-10-18-40-39-21-62zM376 363c-7-15 11-32 26-23-1 12 3 7 5-1l1 14h-4l-1 4 2 1 2-1-6 17c-10 2-14 11-20 17l-4 2c-4 3-8 8-13 9 2-4 6-5 9-7-4-1-9 0-13 2-3 2-6 1-9 2l8-6v-2c-6 2-10 5-14 9l-12-2-3-5h-2v4l-6-3 5-7-5 1 8-7c0 14 19 16 26 5-7 4-18 7-23-3l3-4 12-4c5 1 10-1 14-4l12-8c7 13-15 13-16 24l15-10a1129 1129 0 0 0 5 5c-7-18 16-25 27-32-11-2-20 8-29 13m11 6c4 14 9-15 0 0z"/></g></svg>