<svg width="1067" height="1067" viewBox="0 0 800 800" xmlns="http://www.w3.org/2000/svg"><g fill="#0c0b0b"><path d="M511 229c5-8 12-16 15-25 7 8 19 13 30 12 4 6 9 13 6 20-4 8-13 12-16 21 9-2 16-10 24-14 6-3 7-16 15-12 13 1 23 10 32 18-6-1-12-2-18-5l-2-5-14-2a88 88 0 0 1-40 26c-9-15 27-26 11-42-10 0-19-5-27-10-5 6-9 14-16 18zM482 258c14-5 17-21 29-29-8 24-34 32-44 55l-5-1c-7 7-14 15-15 26-4 8 9 7 7 15 4 0 7-4 10-6-13-12 7-18 15-20l9 11c-4-1-7-3-9-7-6 2-17 6-12 13 3 5-3 10-6 13 5 0 8 5 12 8 10-1 23-6 21-18 3-15 18-19 26-29 7 4 16 5 24 2l-1-5h9v3l-6 1c-5 8-17 8-26 4-8 8-17 14-21 25l22-11c10 4 22 12 23 22-2-1-3-3-3-5-13-1-31 0-37 14-6 8 0 23-13 26-9 6-20-3-28 4-5 9-8 19-14 27-2 3-9 4-5-2 11-7 10-24 21-31 9-3 18 2 27-2 10-3 1-16 7-23 5-15 22-15 35-18-10-13-31-1-39 10-9 8-8 22-18 29-5 4-11 0-14-4l-15 19c-7-1-6-9-5-14-13 13-18 32-22 48-51 39-117 52-180 50-15 4-31 5-46 4-11-3-22-3-32-1l-1-1c-11 2-24 1-35-3l-2 1c14 4 0 19 3 28-4 11 6 19 6 30 28-2 54-14 81-21 20-6 41-5 61-6 20-8 41-11 60-21l-42 6 1-3c22-4 45-4 66-14 19-8 39-18 59-23l24-11c-3 6-9 9-14 12-20 6-40 13-58 23-42 17-85 36-132 36-35 5-68 22-104 26-7 0-7 15-13 5-3 2-6 6-8 2a70 70 0 0 1-5-67l7-5c-9 0-9-7-1-8v3c11 6 23 5 33 9l2-2c17-1 35 0 53-3 15-2 31 3 46-3 21-7 44-4 66-8 37-3 71-17 103-35-3-8 0-15 5-22 2-12 8-25 19-32 6 1 3 9 3 14 7-5 12-13 16-20h3l4 8c10 1 14-11 16-19-11 9-19-8-30 0-10-5-16 9-25 12-26 25-62 32-91 51-16 4-30 15-47 15-26 3-51 14-77 13-23 1-46 6-65 17l-3-1c1-6 11-7 8-14-3-8-8-16-10-25-4 1-7 6-12 6v-3c5-2 10-5 13-9 6 10 10 25 16 35 12-5 25-8 38-9l1 2 11-2c29 0 56-12 84-14 28-7 53-25 80-33l-1-1-70 20c-8 3-16 5-25 2 11-1 19-6 28-11 13-7 27-8 39-16a559 559 0 0 1-151 33c-14 0-28 5-42 2v-4c15 4 29-2 43-2 38-4 76-10 112-23l9-3 1 1c30-10 64-16 89-37 15-8 9-30 21-41 8-6 8-17 18-20 5-2 4-9 7-13l14 10c4-6 6-14 14-17m-27 14c-16 17-31 37-35 61-16 17-37 28-59 35 34-4 62-24 91-40l-3-8-6-2c0-12 2-33 17-35l5-6c-2-3-6-4-10-5m-2 58c2 1 5 0 7-2l-7 2m-132 59c33-10 71-15 99-38-32 15-69 21-99 38m-66 64c28 2 56-3 83-8v-2c-28 4-56 4-83 10m-60 5c6 2 14 3 20 0h-20m-75 2c1 6 7 16 8 4l-8-4m-2 65l2-6c-3-1-5-2-6-4h8c2-12-1-24-1-36l3-3-7-13c-18 15-10 45 1 62m8-17l-1 9h5c0-4 0-8-4-9zM609 239l2-4 1 3 2 3-5-2z"/><path d="M636 259c4-8 12-14 21-14 5 4 14 5 16 12l-15-3-3 6c2 3 3 8 3 12l6-1c7 7 15 12 24 16 6 7 0 15-2 22 1 10 5 18 8 27-6 9-20 9-31 7-3 4-8 7-13 9 1 5 1 11-2 16-11 4-18-3-23-12-14-2-21 12-20 24 3 4 6 10 1 13-21 6-43-5-63 4 8 8 28 3 28 16-11 10-27 13-42 12-9-1-17 7-26 3-16-6-34-1-49-8l2-4c19 5 38 9 58 8 18-5 39 1 54-12-6-9-23-6-30-14 0-12 19-6 27-6l1-2c8-2 18 4 26 0h4c0-10-15-14-20-22l-16 7c-3 9-15 7-22 9-16 3-30 12-45 12-4 0-3-3-2-5-1-1-2-3 0-4 10-8 22-13 30-24 9-9 22-8 34-5l19-14c9-3 19-2 26-8 12-10 8-34 27-37 6 1 11-3 17-3v3l-11 7c-5 11 0 26-14 30-9 2-14 10-21 14 5-11 17-14 27-21 3-8 2-17 5-26l-3-1c-12 5-13 20-17 30s-15 13-24 14c-10 2-18 8-27 13-10 7-24-6-33 5-9 12-25 15-33 28 21-2 40-13 61-15 0-9 10-8 16-11 8-7 20-7 27-16l-9 11c4 3 10 4 15 5 3-13 28-20 30-2h14l-1-15c5-3 12-6 15-11l7 2c10-7 6-20 10-30 2-3 1-7-1-11-8-3-22 5-28-4 11-14 0-31 5-45-9 2-12 11-20 16-9 3-20 3-28 9-9 6-17-8-27-3-14 11-11 34-23 46 4-17 10-34 20-49 7-5 15 0 22 3 13-3 26-7 38-13m21 18l-2 18c9 3 23-3 29 7 9-15-14-17-21-26l-6 1m25 35l-4 26 4-3 6-2-6-21m-102 54c2 4 7 7 11 10l6-7c-5-3-11-5-17-3m22 24l3-2c-3-5-2-11-2-17-12 3-6 12-1 19zM492 276c9-18 33-14 49-11v3c-14 1-33-7-42 7-9 12-22 21-35 26 5-13 23-12 28-25z"/><path d="M486 384c13-10 25-22 40-30a92 92 0 0 1-40 30zM452 395c7 0 28-15 23 2h-3v-4l-18 5-2-3zM432 425c-8-10 9-18 17-22 9 6 19 7 28 5l1 4c-4-1-8-1-11-3l-1 3-16-5c-7 3-12 8-18 12l2 3-2 3zM125 421c1-4 2-15 7-9-3 10-3 20-1 30-10-1-6-14-6-21zM132 439l3-1 6 9c-5 0-8-4-9-8zM202 482l91-10c-28 9-58 8-87 13-23 5-45-5-68-2v-3c21-3 42 4 64 2z"/></g><path fill="#feacb1" d="M241 348c4-6 10-8 16-10 14 0 27 6 39 13 3 9 5 21 13 27-36 13-74 19-112 23 7-21 29-36 44-53z"/><g fill="#fd9098"><path d="M196 405c38-3 76-11 113-22l-1 5c-9 5-17 10-28 11 9 3 17 1 25-2-2 5-6 10-9 14-28 2-55 14-84 14l1-2c-7-4-15-10-17-18zM215 428c26 1 51-10 77-13 1 11-9 11-15 16-9 0-15 8-23 10-14-2-28-7-40-13h1z"/></g></svg>