<svg width="1067" height="1067" viewBox="0 0 800 800" xmlns="http://www.w3.org/2000/svg"><g fill="#040404"><path d="M403 107c0-4 5-9 6-3 6 27 7 57-3 83l9-8 3-55c1-6 2-15 10-15 4 22 0 45-7 66l-3 1c2 6 7 11 7 18 13-19 35-33 57-41 4-2 11-1 9 5-10 11-25 10-37 15s-16 18-25 25l7-14c-11 11-20 32-10 46l35-31c2-1 6-3 6 1-20 17-39 37-55 58-18 12-13 35-13 53h-4l1-20c-5 9-3 19-5 28-4-17 6-32 4-49-4 1-7 5-11 8 1 32-1 63-3 94 16-34 25-71 35-106-3 3-12 17-12 5h3c9-6 11-18 18-24l-1 7c18-5 23-30 43-30 0 2 2 4 0 6l-43 31c-1 6-1 12-4 18v-2l2-15c-11 23-15 48-24 72l-4 11 5-8v2l-2 8c11-15 19-33 31-48 8-9 21-20 34-16-9 19-26 31-39 48 8 2 12 10 18 15 8-9 31-26 40-10l-31 26c5 7 9 16 12 24 16-14 28-31 39-50-5-15-27-25-24-42 2-8 10-3 12 2 0-8-8-21 1-27 6 7 9 16 12 24 2-11 9-21 14-31 10 14 2 33 1 49l7-8c5 4 6-5 8-8-9 4-1-8-5-13-1-12 7-24 10-36h3c-1 15-1 31-7 45 7-5 19-17 16-26 9-11 10-22 8-34l-2-2c-2-15 1-31 10-43 5-4 9 4 10 8 3 20-10 37-12 56 15-22 12-55 29-78 5-5 21-11 19 2-6 30-26 54-42 79 18-17 39-40 65-41v4c-12 3-20 12-30 19 5-8 14-12 20-18-25 9-47 28-62 50 15-6 25-19 38-28-11 19-35 24-46 43 21-12 41-25 63-34 4-2 10-1 11 3-31 29-85 28-107 68 18-7 36-20 55-12-7 12-25 9-36 16l14 2c-6 12-25 8-35 15-7 12-12 26-24 34 7-11 17-21 22-34-13 12-23 29-31 45 23-18 56-20 78-39-18 0-35 9-51 18-2 2-7 9-7 2 18-13 40-23 63-22-6 15-29 17-43 25-7 17-34 19-38 38-16 26-48 39-64 65l-3-1c1-5 4-8 7-12h-5c-8 9-10 25-21 31 8-20 26-36 31-57-16 5-29 26-28 43-9-4 0-15 2-21 6-10 14-29 29-25-1 10-8 17-11 26 14-10 19-28 26-43h-3c3-14-2-27-7-40 10 8 11 22 11 34 8-13 7-32-4-43-35 26-69 60-79 104 13-24 31-48 58-56 4-2 9 4 3 5l-2-1c-12-1-20 10-29 16-5 3-9 7-11 13l6-7 2 1c-13 15-29 31-30 52-5 4-2 12-4 17 9-10 25-34 39-21-5 20-29 28-36 47 13-9 23-24 38-31 6-2 13 0 15 6l-8 7c9-5 18-12 29-15-4 29-47 29-51 58 21-11 36-32 60-38 1 23-29 27-46 34-15 4-19 21-20 35 18-7 32-25 54-23 10 2 14 14 19 22-7 2-13-7-20-8-19-3-36 8-53 15-3 3-5 8-7 12 13-3 26-7 38-14-11-1-19 7-29 10 9-8 31-20 39-10-14 5-27 11-42 15-13 2-10 19-16 28 10-17 30-20 48-24 6 0 16 4 13 11-8 2-17 0-26-2-18 12-39 30-40 53l-3 2c-1-4-5-3-7 0 2 6-4 11-11 10-1-3-2-7 2-8 9-23 11-50-2-71-6 36-14 72-31 105-3 5-12 6-13-1 3-17 18-31 15-48-2-17 2-35-4-51l-11-36c-2-5 4-8 8-5 12 17 18 37 18 58-6-18-6-43-23-56 3 23 18 45 15 70 2 6-2 16 2 21 4-17 9-34 11-52-3-31-19-59-29-88 0-6 6-1 8 1 20 21 16 52 24 78h3l3-11h-3c6-10 6-22 10-33-3-7 1-18-9-22-10-21-33-38-32-62 14 1 20 16 26 26 8 17 20 34 18 53 5-7 9-20 4-29 8-3 5-12 2-18-2-14-7-30-16-40 2 22 10 43 12 65l-3 1c-1-19-6-37-10-56-2-5-2-11 1-16 8 7 10 19 15 29 2-23-6-46-19-65-3-4-6-19 2-13 10 17 22 35 22 55l-3 3c1 5 1 10 3 14 2-11 6-23 5-35l3-3c0-22-8-43-9-65 1-10-5-22 3-30l4 1c-6-20-14-39-17-60 0-4 7-7 8-2 12 27 18 56 24 84l1-7c-2-28-9-56-6-85 3-9-8-22 3-27l3 2 3 1c2 3 4 7 9 7 0-7-4-13-8-18-4-15-23-31-16-46 11 19 21 39 28 59 5-25 2-51-10-74l-4 2 13 27-3 2c-2-12-9-21-15-31l-4-5c1-3 0-6-2-8l-6-15c10-9 15 11 19 18 9 3 13 11 21 15-4-21-12-42-13-64 0-1-2-8 2-8 6 8 7 18 9 27h1l2-40m3-2c-5 24-3 49 0 73 5-23 10-51 0-73m18 9c-6 19-6 39-5 58 8-18 11-39 7-59l-2 1m-32 18c4 14 1 31 10 43l-7-43h-3m67 36c10-2 23-2 29-11-10-2-21 5-29 11m-87 7c1 5 4 7 8 5-1-1-2-3-4-3l2-2c-3-6-6-12-11-16-1 6 1 12 5 16m219 6c-10 19-13 40-19 60 16-21 35-46 36-73-7 1-14 6-17 13m-186 15c5 8 3 19 12 23 2-11 9-27-1-36-10-1-4 12-11 13m-19-10c2 10 8 19 11 28l5-16-3-5c-4-4-7-8-13-7m176 55c5-17 18-36 8-53-17 11-14 37-8 53m-162-16l-3 2c0 12-4 24 1 35l3-3 3 1c5-13 10-26 12-39-8-4-8-14-12-21-4 7-6 16-4 25m-34-15c3 12 9 23 16 32-4-11-9-23-16-32m45 39h3c4-7 10-15 4-23l-7 23m10-21l1 7 3-2-4-5m22 15c8-4 15-8 21-15-9 0-15 9-21 15m107 45c24-12 52-19 73-37-27 5-50 23-73 37m7-33l-3 7c2-2 7-4 3-7m-26 31c5-7 5-17 6-26-6 7-7 17-6 26m-134-21l1 11 5-13-6 2m141 27c7-4 15-9 16-17l2-2-2-2 2-6c-7 8-13 17-18 27m-31 32c11-15 13-38 9-56a59 59 0 0 0-9 56m-134-54v13c-2 25-1 51 7 74 3-25 5-52 1-77 3-5-1-14-8-10m116 4c-1 14 5 26 11 38 2-13 0-30-11-38m-71 42c-13 23-28 46-40 70-2 7 2 17-4 23 5-40-10-79-23-117h-4c5 35 22 67 26 101l-4-8c2 21 0 43-1 64 8-17 10-35 14-53 3-7 10-17 20-13 0 7-3 13-5 19 13-14 19-32 32-46-8-5-9-16-6-25-17 16-29 35-38 55-6-1 0-5 1-8 16-37 51-60 72-93-18 1-31 17-40 31m63-23c-3 11 8 20 14 28-3-9-4-24-14-28m40 33c16-5 34-10 48-18-17-2-37 6-48 18m-4-7c-11 5-2 8 0 0m-8 11l-37 69c5-3 8-8 11-13 9-21 23-39 38-56l-3-5-9 5m13 6c8-3 18-4 25-9-8 1-22-2-25 9m-65 1c-27 14-42 41-57 66 24-25 53-43 77-68-6-4-14-2-20 2m-33-2c0 7 0 14 6 18 12-3 0-15-6-18m69 18c4-3 6-7 7-12-3 3-5 8-7 12m-136 3c-5 29 6 58 9 87 4-22 2-46-1-68-1-7-1-16-8-19m88 78c17-18 29-41 38-64-22 13-28 42-38 64m22-22c21-10 37-27 54-41-23 3-42 22-54 41m-81-17c-6 16-8 33-12 49 7-6 7-14 9-22l2 2c4-13 14-25 13-38-5-3-10 5-12 9m53 55c17-12 34-27 46-44-22 7-34 26-46 44m-108-34c5 16 14 31 21 47-2-17-10-34-21-47m-28 63c5 24 22 44 37 62-2-15-10-28-17-41-4-9-10-19-20-21m85 8a62 62 0 0 0-31 49c14-15 29-30 42-46-2-4-6-5-11-3m-30 1l-5 18 4 6c1-8 3-16 1-24m32 28c-2 3-16 9-10 14 13-5 24-12 34-21-7-9-18 2-24 7m10 20c12-9 26-16 34-29-14 4-29 14-34 29m-16-5c2 4 2 11 6 13l19-27c-8 6-17 9-25 14m23 20c14-6 32-10 39-25-16 0-28 16-39 25m-104-21c4 17 12 32 18 48-1-17-5-36-18-48m62 9l9-4-1-3-8 7m13-6c1 7 3 14 6 20 4-4 2-20-6-20m-8 41l4-1c-7 35-25 66-27 102 4-4 9-9 9-16 7-20 12-42 21-63l-2-2c7-6 5-18 10-26l-3 1c-1-3 0-7 2-10l-10-23c-17 6 0 26-4 38m-22 1c-8 12 4 24 6 36-3 7-6 14-3 22l11-26 4-12c-2-1-9-4-4-6 9-13-1-29-1-43-13 3-9 20-13 29m49 11c16-4 35-15 51-2-7-26-38-10-51 2m-54 5c-5 9 3 19 5 28 5-9 0-20-5-28m-21 66c0 2-2 2-3 3v1c2 0 5 1 3 3-7 8-14 18-15 29 5-8 8-17 15-24 8-21 11-43 15-65-8 16-14 34-15 53m84-38c5 3 11 2 16 2-4-5-11-4-16-2m-44 35c11-10 20-23 32-32-17 0-28 18-32 32m-50 44c3-5 5-10 6-16-4 4-8 10-6 16m-4 5c-2 2-3 5-6 5l-1-4c-1 3-4 6-3 10 6 1 10-6 10-11z"/><path d="M453 446c4-3 9-6 14-4 1 25-36 25-48 43 21-7 42-18 63-25-9 22-38 27-57 37 16-14 41-15 53-34-19 7-37 16-55 25-4 3-15 9-18 5l48-47m2 0c-9 8-18 17-26 27 13-6 28-12 36-24 1-6-6-5-10-3z"/></g><g fill="#99b789"><path d="M368 174c2 2 3 5 2 8l-4-1 2 3-7 1-4-4c1-4 8-5 11-7zM372 186l2 1c6 10 13 19 15 31l3-2-13-27 4-2c12 23 15 49 10 74-7-20-17-40-28-59-7 15 12 31 16 46h-7v2l-2-4-10 1-1-3-2-2c12-2 0-7-7-4v-2l-6-1 5-3-4-2 2-1c-4-3-2-6 3-6l-2-2c3-4 7-6 11-8l-7-2 1-2-10-4-1-4h3l-1-4h4l-1-5 9 2-1-4 4 2 1-5c3 2 6 5 10 4v-5z"/><path d="M366 210c7 9 12 21 16 32-7-9-13-20-16-32zM322 211l4 1 2 5 5 1-1 2 3 1c0 3-2 2-4 1-2 6 1 12 4 16l-4 3 2 2 1 3 3 3-4 2 4 3-5 1c2 3 1 6-1 8l-1 4c-2-2-3-5-3-8l4 1-4-3 1-2h-10c-11-12-3-30 1-43l2 4 1-5zM411 249l7-23c6 8 0 16-4 23h-3z"/></g><path fill="#c6d4bd" d="M307 197c2-14 22-19 34-13l3 2-7 2-12 15-1 2-1 1c-6-5-16 2-14-10l-2 1z"/><g fill="#328912"><path d="M357 181l4 4 7-1-2-3 4 1 4 5-2-1v5c-4 1-7-2-10-4l-1 5-4-2 1 4-9-2 1 5h-4l1 4h-3l1 4 10 4-1 2 7 2c-4 2-8 4-11 8l2 2c-5 0-7 3-3 6l-2 1 4 2-5 3 6 1v2c7-3 19 2 7 4l2 2 1 3 10-1 2 4v-2h7c4 5 8 11 8 18-5 0-7-4-9-7l-3-1-3-2c-11 5 0 18-3 27-5 0-11 0-16-2l6-1 1-4c5-1-1-5-1-9l-4-2 1 3h-2l-1 2-1-1v-6l-5 1 2-3c-3-1-7 1-9 3l2-6-2-3-2 1-3-2-4-3 4-2-3-3-1-3-2-2 4-3c-3-4-6-10-4-16 2 1 4 2 4-1l-3-1 1-2-5-1-2-5-1-1-3-3 4-2-1-3 12-15 7-2-3-2 14 1 2-4z"/><path d="M373 270c7-4 11 5 8 10l-8 3v-13z"/></g><g fill="#6cb24e"><path d="M386 186c6-1 9 3 13 7l3 5-5 16c-3-9-9-18-11-28zM307 197l2-1c-2 12 8 5 14 10l1-1 1-2 1 3-4 2 3 3 1 1-4-1-1 5-2-4c-4 13-12 31-1 43h10l-1 2a1255 1255 0 0 0 0 2c0 3 1 6 3 8l1-4c2-2 3-5 1-8l5-1 3 2 2-1 2 3-2 6c2-2 6-4 9-3l-2 3 5-1v6l1 1 1-2h2l-1-3 4 2c0 4 6 8 1 9l-1 4-6 1c-22-5-51-24-42-50 3-12-3-23-6-34zM400 225c-2-9 0-18 4-25 4 7 4 17 12 21-2 13-7 26-12 39l-3-1-3 3c-5-11-1-23-1-35l3-2z"/></g><g fill="#525351"><path d="M399 335c8-19 14-39 21-58v2c-5 20-13 41-21 60v-2l-5 8 4-11 1 1zM428 416l2 1c-10 9-24 12-33 22h-1l-2-1-6 7c2-6 6-10 11-13l2 1 27-17z"/></g></svg>