<svg width="1067" height="1067" viewBox="0 0 800 800" xmlns="http://www.w3.org/2000/svg"><g fill="#080707"><path d="M349 190c16-2 20 20 30 28 13-8 25-17 37-27 17 1 33 9 50 4 21-6 18 27 37 28 7 6 20 2 25 11 3 9 8 19 4 29 10 1 19 7 21 16 5-2 8-9 14-9 14 7 16 23 17 36 0 13-5 26-15 34l-19 30c-14 12-34 12-49 23 8 4 14 12 21 17s4 20-6 20c-15 0-27-12-43-12-11 2-17 13-24 21-17 14-30-17-48-3-5 49-16 96-32 142h16c9-26 2-54 10-79 6-21 11-43 21-63 1 1 4 1 2 2-7 13-9 27-14 41 8-8 20-16 32-9l18-4c19-7 22-35 39-41-12 12-17 30-31 40-8 5-18 6-28 7-9-5-24 0-26 11l-2-1c-11 14-11 33-12 50 6-9 15-19 28-15 9 5 20-4 28 3v17l4-1-1-15c5 3 2 11 5 15-3 7-12 0-16 5-4-4-9-4-14-2-6 5-11-4-16-8-8 0-10 11-17 12-2 18-4 37-14 52l-1-6-7 4v-9l-5-2-5 24c-4-10 2-26-6-36-7-2-14-6-17-12 8-5 23 2 27 11 17-42 26-88 31-133l-3 1-6-11c-11 1-32 1-32 16l-9 8 2 4c-9 0-14-13-8-19 6-7 12-15 16-23-3-1-5-4-7-8-25 2-50-11-75-6 7-15 30-24 46-19-6-11-22-11-33-8-12-8-25-19-25-36 2-6 13-11 7-18-7-12-16-30-4-41 5 2 11 2 16 1-3-16-7-33 3-47 6-12 18 3 26-5 14-9 25-23 37-35m-34 44c-5 11-4 26 5 34 4 7 15 6 17 15 12-8 24 5 32 13 19 7 33 25 54 27 10 5 26 2 29 15 7-15 4-31 2-46 1-11 5-22 3-32-5-5-12 2-18 3-14 6-34 1-46 9l-2-1c-7 9 3 17 12 18 11 4 8 20 13 29-11-4-3-23-16-27-15-3-20-21-35-25-4-8-3-16 0-24-18 14 4 33 4 50-2-1-4-1-3-3-2-13-13-24-13-38 6-9 13-18 24-17 11-12 32-18 46-7 5-3 10-2 15-2l11 3-5 1c5 5 11 12 6 20-15 8-33 10-48 17 3 0 7-1 10-3 16 6 33-12 49-6-2-10-1-20-7-28 6 1 9 9 8 15 2 13 4 26-1 38-8 9 3 24-1 34 7-5 10-14 18-18v-1c17-9 16-32 7-47-5-8-9-17-19-17 10-4 17 6 20 14l3 2c8 18 8 41-10 53-10 8-18 19-22 31-3 7 13 13 2 15 6 8 10 19 1 26 15-14 35-23 51-36 19-9 31-27 36-46-3-6-7-11-13-15l-5-10c0-1-3-3-1-4 7-9-2-19-3-28-6-8-18-4-26-10-16-3-15-29-31-28-18 6-34-2-52-2-12 11-26 18-39 27-9-9-13-24-25-29-13 13-28 25-37 41m55 7c-6 7-4 16-2 24 7 1 13 7 17 12 2-3 3-8 6-11 19-7 41-10 57-21 1-10-13-23-24-16l5 2c1 5 4 12-2 14-12 4-25 8-36 15-9-1-12-14-6-20l20-16c-14 1-23 11-35 17m-77-13c-17 12-6 35-7 52h-19c-3 13 0 32 13 39l-1 8-4-2c-20 16 6 47 26 40 10 2 22 5 27 15l3 1 1 4c19 13 41 27 64 17-30-6-47-33-74-46-6-6-15-11-23-6-4 0-9 7-13 3 9-3 18-12 28-6 16 10 33 19 47 32 9 11 23 16 36 21 10 3 17-5 25-8l-2 5c9-3 19 0 29-2 1-5 4-9 7-13l-2-2c7-9-1-22-8-29-23-20-59-12-80-35-10-10-25-13-32-26-2-4 0-10-5-12-20-5-26-35-13-50-8 4-15 4-23 0m97 12c-7 3-4 20 5 15 3-4 11-8 7-14l-3 1-1-2c-3 2-3 6-1 9-3 0-5-1-6-3 3-10 15-11 22-16-9-5-16 6-23 10m20-5l8 6v4l10-5-3-7c-5-2-11-1-15 2m-5 4c4 5-1 9-3 13l12-7-5-7-4 1m128 28c2 10 12 15 17 23-5 21-17 39-36 50h-1c-21 17-51 26-60 55l43-4c16-10 37-11 52-23l17-27c9-7 14-18 15-29v1c2-12-1-28-9-38-8-6-12 8-19 9-3-7-9-20-19-17m-195 17c2 14 17 19 27 27 25 31 82 15 96 58 6-10-6-20-11-29-4-12-18-10-28-14-20-3-35-19-53-27-9-4-14-17-25-15v3l-6-3m-48 105l21-8c-7 1-16 2-21 8m5 1c15 4 30 3 45 4-11-13-30-12-45-4m-7-1l-6 4h9l-3-4m169 8c-17 4-36-2-52 7-16 2-33 8-49 0v3c3 2 9 2 9 7-1 14-24 17-19 32-3-2-3-5-4-8-2 5 1 8 3 12l4-3-1-2c7-14 22-24 38-20l2-2c-5-6-9 0-14 1 0-4 7-4 6-9 4 1 7 4 11 6l3-3c-6 9 2 19 13 14 16-11 31 21 44 0 13-26 41-13 61-6 8 4 14-10 8-15l-14-11c-4-2-10 0-12-6l-37 3m-145-1c10 4 23 5 34 4-11-5-23-6-34-4m39 32c6-3 11-8 11-15-6 3-8 10-11 15m52 99c12-10 25 0 38 3-10 4-20-6-30-4l4 3c3 4 6 8 11 8l1-3c5 1 9-1 14-1l2 2h3c6-9-2-20-11-14-11 1-26-8-32 6m-57 32c5 9 19 8 19 21l2-7c-6-7-11-14-21-14m28 22l3 6 5-4-8-2z"/><path d="M331 299c2-6 8 2 11 3 16 11-1 35 14 47 16 4 34 0 48 10 12 9 25 19 31 34h-4c-13-24-38-42-66-39-16 1-22-19-19-31s-6-20-15-24zM426 456c11-12 28-18 44-21a59 59 0 0 1-59 31v-3c24 4 44-9 58-27-15 5-29 13-43 20z"/></g><g fill="#fe0158"><path d="M528 234h16l2 1c19 2 36 15 38 34-1 12 9 26 0 37-1-13-3-29-17-36-6 0-9 7-14 9-2-9-11-15-21-16 4-10-1-20-4-29z"/><path d="M533 267c10-3 16 10 19 17 7-1 11-15 19-9 8 10 11 26 9 38-8 8-10 25-25 25-11 10-28 5-41 2 19-11 31-29 36-50-5-8-15-13-17-23z"/><path d="M532 278l2-1c6 4 10 9 13 15-5 19-17 37-36 46l-4-10c-10-2-17-9-22-17l12 5 3-2-1 2 5 1 2-11-6 2 2-2 1-2 4-5-2-2 10-11 1 2-4 6c4 0 8 0 11-2h-5c3-7 10-8 16-9l3 2c-1-3-2-5-5-7z"/></g><g fill="#fe1c88"><path d="M525 235c1 9 10 19 3 28-2 1 1 3 1 4l5 10-2 1c3 2 4 4 5 7l-3-2c-6 1-13 2-16 9h5c-3 2-7 2-11 2l4-6-1-2-10 11 2 2-4 5-1 2-2 2 6-2-2 11-5-1 1-2-3 2-12-5-6-9c18-12 18-35 10-53l11-1 2 1 5-6 4 2c2-5 6-6 10-8l4-2z"/><path d="M485 250c9 15 10 38-7 47-6-16-3-34 7-47z"/></g><path fill="#b4acb0" d="M486 247c9-9 22-12 35-10-4 2-8 3-10 8l-4-2-5 6-2-1-11 1-3-2z"/></svg>