<svg width="1067" height="1067" viewBox="0 0 800 800" xmlns="http://www.w3.org/2000/svg"><g fill="#333434"><path d="M358 236c23-10 49-17 74-12h1c9 0 18 4 22 12 11 19 17 44 6 64l-2-1v-4l2-11c3-21-5-57-33-56-61-7-124 36-141 96l-4 3a236 236 0 0 1 7-23l-1-2 2-4 4-1c10-27 36-47 61-60l2-1zM483 279c6-6 16-11 25-6l2-2 14 2c30 3 41 35 56 56 1 10 7 25-3 32-1-15 2-32-9-45-12-13-18-32-36-37l-12-2c-14-2-28 0-41 6-4 2 0-3 1-5l3 1z"/><path d="M477 297c5-8 19-21 28-12-4-1-7-1-10 1h-2c-10 9-20 17-31 24l-1-4v-2l1 2 8-7 3 1 2-4 2 1zM514 290c2-6 11-1 12 3 3 11-3 21-8 30l1 2-5 2c4-9 5-19 10-26l-4-9-6-2zM269 355c-7-18-1-43 17-51v3c-3 1-5 3-5 6l-2-1v6c-14 18-7 49 12 61l-2 3c-11-5-17-16-20-27z"/><path d="M536 306c7 2 2 11 1 14 11 1 21 9 28 17-6 1-11-5-16-8l-15-4-1 2c-12 3-23 14-36 9 16-3 39-10 39-30zM298 317c5 0 10 3 14 6 8 3 13 9 18 15v10c-3 17-6 2-4-5-5-14-19-17-28-26z"/><path d="M482 322c6 3 6 10 7 16l-3 5c9 4 18 4 27 7h2l25 10c4 1 8 1 11 5h5c12 7 26 11 38 19 11 12 17 27 21 43 8 17 7 37 0 54-22 21-40 52-73 57-14 3-26 12-41 10l-2 2-1-2c-10 2-20-1-29-4-16-7-35-6-48-18-9-8-23-10-34-5-15 11-26 31-49 24-10 5-21 2-31-1l-4-5c0-12-3-27 10-34 7-9 31-18 16-31-24 13-53 14-78 26-9 5-18 10-28 13 21-19 50-27 77-34 7-2 16-1 22-7l2 1 1-3 2 1 3-3c6-4 10 2 7 7a461 461 0 0 0 2 5c3 11-10 17-17 24-13 6-16 21-14 34 16 8 33 3 49 0 11-5 18-15 27-22 24-13 43 13 66 17h3l2 1c9 1 16 8 25 8h1l20 2c11 3 21-4 31-8 18-4 38-12 49-28l3 1c7-8 13-17 20-23 14-12 14-32 10-48-5-15-9-30-17-44v-1c-11-14-30-15-44-24-31-6-59-27-92-22l7-2-8-3 16 1 1 1c8-4 8-13 4-20l1-2z"/><path d="M446 375c3 0 7 1 10 3 4 3 5 9 8 13 0 8-1 15-4 21-2 10-10 17-14 25l5-2 3 2c3-4 8-3 13-4v2c15-4 29 0 44 2l2-8c1-10 4-20 0-30l2 1 3 6 1 12c-2 6-5 12-5 19l10-2c2 2 7 3 7 6l-23 1 2 3 3-1c3 1 10 0 9 6-11-2-24-5-34 2-15-1-30 6-45 5l-1 2h-9c12 8 27 14 37 25 9 12 16 35-4 40 5-6 9-14 9-22-10-21-34-40-59-37-1 1-1-1-2-2l-9 3v-3l12-4 6-2c5-2 11-2 16-3 14-1 27-5 40-7 3 2 7 0 10-1 4 0 9-2 13-4l-3-1c-8-3-17-3-25-2-31-4-56 18-86 18-16 1-31 8-46 8-5-4 7-5 10-3l3-2c4-16 31-25 21-45l-3-6-3 1-5-8-3-5 2-1 7 9c4 5 13 8 11 16 0 16-12 27-23 37h6c7-5 17-5 26-5 12 0 23-7 35-9 19-13 43-38 28-63l-8-6zM291 386h3c8 12-7 22-15 29-11 11-29 12-41 22-1 2-1 7 2 5 21-16 56-13 65-43 6 4-1 16-6 19-7 3-11 12-19 11-12 9-28 8-39 19-8 4-10-4-9-10l-8-1-2-4c3-2 7-3 10 0 1-4 5-4 9-4l40-21c5-6 13-13 10-22zM323 399c2-3 4-8 8-9l1 2 2 1-1 1c-10 9-18 19-25 30 7 13 30 15 28 33 1 6-13 4-18 7l-12 3c-28 10-59 16-82 37l-7 7c2-10 7-18 16-22 31-16 65-26 99-33v-7c-9-8-22-14-29-24 3-10 12-19 20-26z"/><path d="M591 407c8 3 10 13 8 20-15 13-35 15-54 18 16 10 39 18 43 40-7 12-6-11-12-15-16-10-31-26-52-21v-4c6-1 12-2 18-1v-4c17 0 34-3 49-12 7-4 5-13 0-17v-4zM386 467c6 0 11-3 16-4 6 6-8 6-12 7l-14 2-1 1c-12 1-23 0-35 2v-3c5-2 11 0 16-3l1 3c9-6 20-1 29-5zM510 480c5 2 11 4 15 8h1l5 11h-3c-2-10-15-10-18-19zM379 495c1-3-5-10-1-12 9 9 7 24-5 29-3-7 9-9 6-17z"/></g><g fill="#041206"><path d="M390 251c1-3 0-7 4-9v10l-4-1zM432 250c6 7-12 13-10 22h-1l2 4c-3 3-6 7-7 11l15-3v3c-13 4-25 12-29 26 9-2 18-7 28-7h5c-12 4-25 13-39 13-7 7-15 14-21 23 9 0 16 3 21 10l-2 1a378 378 0 0 0-21-5v-4c-15 12-33 21-45 36l-9 5c1-3 3-5 6-5l2-5c25-24 56-40 74-71l-9 5-66 60c-5 5-10 9-16 12l-3 3 2-8 3 2c3-5 7-10 12-13l2 1 4-7c5-5 10-10 16-13 14-13 26-27 42-37 8-8 20-20 11-31-3-8-9-17-7-25l11 24 6 9 4-9c5-4 3-21 9-17 4-2 7-6 10-10z"/><path d="M347 291l1 11 1 6c4 7 10 12 13 19a1858 1858 0 0 1-3-2c-5-2-8-6-11-11-3-7-4-16-1-23zM459 295v4l2 1v6l1 4c0 5-3 9-5 13-1 6-4 10-10 12 6-13 10-26 12-40zM518 336c11-2 27 6 33 16-10-8-22-11-33-16zM374 368c27-13 56-26 86-26l8 3-7 2c-34 0-65 17-96 29-7 2-14 5-20 10l-11 7-2-1-1-2v-1c12-10 28-15 43-21zM310 401l9-5c1 5-7 9-9 5zM382 417c4-3 9-5 14-6l-5 6c-3 3-6 4-9 0zM408 467c7 8 24 18 16 30l1 3c-6 0-2-9-4-13-4-7-10-12-13-20z"/></g><g fill="#169257"><path d="M421 272h1c8 5 17 6 26 10 3 4 6 9 11 13-2 14-6 27-12 40 6-2 9-6 10-12 1 6 4 13 3 19-30 0-59 13-86 26-15 6-31 11-43 21l-3-9c12-15 30-24 45-36v3a378 378 0 0 1 23 5c-5-7-12-10-21-10 6-9 14-16 21-23 14 0 27-9 39-13h-5c-10 0-19 5-28 7 4-14 16-22 29-26v-3l-15 3c1-4 4-8 7-11l-2-4z"/><path d="M403 277h10l-4 9-6-9zM377 282c7-2 16 0 22-4 9 11-3 23-11 31-16 10-28 24-42 37l-6-12-4 3c-1-6 0-11 1-16a104 104 0 0 0 11-7c3 5 6 9 11 11v1l3 1c-3-7-9-12-13-19l-1-6c1 2 1 8 3 4 5-7 10-14 17-19l1-1 8-4zM392 309l9-5c-18 31-49 47-74 71l-1-6 66-60zM441 390l5 1c-5 11-19 13-26 22-8 7-20 4-29 4l5-6c-5 1-10 3-14 6v4c2-8-7-11-11-16v-4l2 3c6 0 12 0 17-3l2 1 1-3 9 1c4-3 9 2 13-1 4 1 7 1 10-1l4 1 1-5 4 1-1-2 6 2 2-5z"/></g><g fill="#57a97d"><path d="M351 306c0-13 12-26 26-24l-8 4-1 1c-7 5-12 12-17 19zM330 338c-3-11 3-22 14-21l-7 4c-1 5-2 10-1 16l4-3 6 12c-6 3-11 8-16 13v-11-10zM345 386l3-1 2 4-7 2c8 2 12 14 22 11l5 8 3-1 3 6c-14-6-35-6-43-21l1-1 11-7z"/></g><path fill="#0c7745" d="M365 376c31-12 62-29 96-29-1 11-1 21-5 31-3-2-7-3-10-3l8 6-8 10-5-1-2 5-6-2 1 2-4-1-1 5-4-1c-3 2-6 2-10 1-4 3-9-2-13 1l-9-1-1 3-2-1c-5 3-11 3-17 3l-2-3v4l-7-9-2 1 3 5c-10 3-14-9-22-11l7-2-2-4-3 1c6-5 13-8 20-10z"/></svg>