<svg width="1067" height="1067" viewBox="0 0 800 800" xmlns="http://www.w3.org/2000/svg"><g fill="#060605"><path d="M322 233l7-3c26 26 59 50 66 88 13-33 45-54 68-79 4-2 9-3 12 0-9 31 1 66-15 96-12 19-27 36-48 46-6 2 3 5 6 3 16-9 33-15 47-26 24-19 56-5 83-19-32-6-67-4-96 11 29-21 69-20 102-11l2-3c4 1 12 1 10 8-2 10-14 12-21 18-24 18-51 36-81 40 27 4 45 26 66 41 14 10 20 28 21 45h-3l1 2c-15 8-32 4-47-1-28-9-53-26-79-41 9 24 11 51 2 74 1-21 7-43-1-63 6 32-8 62-7 94h1c1-8 0-18 6-25 0 17-8 33-8 49-1 2-2 5-4 5-37-31-46-86-32-131-17 24-26 55-52 71-10 13-27 14-41 19 2-37 28-65 41-98-36 10-73 12-110 6l-1-3c19-15 34-38 58-48 11-6 24-7 36-12-22-4-38-20-54-34-9-10-18-20-24-32 3-2 4-7 8-9 24 0 49 1 71 13 17 7 33 14 46 27l-13-31c-14-26-27-54-27-84h4c-2 33 14 61 28 88 7 17 15 34 26 49l-2 1-15-17c-14-16-33-24-52-32-20-11-43-9-65-11l-1 3c21 5 42 9 62 16 19 6 35 17 50 30l17 17c4-5 11-7 17-6 8 1 16 2 23 5 26-15 53-38 54-70 1-13 6-26 2-39-3 15-4 31-15 43-13 17-35 28-41 50l-3 1c4-18 5-37 7-55 11-27 37-43 53-66l-2-2c-24 26-56 47-68 81 3 17 4 34 1 50l-3 1c10-47-12-97-51-124 9 24 29 43 32 70l10 51-4-8c-2-9-4-19-13-22l-7-8c-18-24-25-53-33-81-2-6-3-12 1-18l-8 4v-4m9 3c0 25 9 51 21 73-1-8-10-18-4-26 9 1 14 12 20 18-7-20-23-36-29-57l-8-8m92 64c8-6 14-16 23-21 3 14 1 28-5 41 22-19 21-50 28-76-13 20-34 35-46 56m-3 40c17-12 28-34 23-55-9 18-18 36-23 55m-72-54c6 19 8 44 28 53 1-19-6-36-21-48 3 16 12 29 17 44-11-14-16-32-22-48l-2-1m71 25l-2-3-4 40c8-18 14-38 23-56-7 5-12 13-17 19m-181 9l-3 2c9 9 16 20 25 28 10 10 22 20 35 27 22 9 45 10 69 8v4c-30 0-61 0-90 13-11 6-23 12-29 23 10-8 22-12 35-13 25-5 51-13 76-10-13 13-28 26-45 33-25 5-52 10-78 10 17-8 41-5 60-9-7-2-17 1-21-6l13-15c-22-2-45 14-59 31 31 7 62 2 93-4 22-5 36-24 56-33l-1 3c-15 8-29 20-41 32h-1c-8 9-10 22-17 31-11 15-18 33-23 51 7-7 8-18 12-27 8-22 30-35 47-51 10-6 15-18 22-26l3 1-1 3c-5 5-6 12-7 19-5 11-6 24-14 34-15 24-45 33-59 57 20-3 34-18 50-30 11-25 31-46 40-72l3-10h1v-13c-15-2-25-15-21-30-21-9-43-7-63-14-13-8-27-14-40-23-10-7-19-15-27-24m5 0c7 8 15 16 24 21 4 4 8 6 13 8l-6-9c11 0 22-3 33-1-3-3-8-3-12-5-17-7-35-10-52-14m43 23c18 6 38 11 55 21-10-19-35-26-55-21m220 7c-32-4-53 24-81 34 8 2 17 1 26 1l-1-2h-10v-3c11 1 21 6 33 5 28-6 51-24 77-35 4-1 6-6 11-7l-5 9c4-3 7-6 6-11-19 0-37 10-56 9m-227-7c14 17 37 29 59 23-19-10-39-16-59-23m226 32c-27 21-63 10-94 13-2 2-2 6-2 9 49 17 102-10 139-42-15 5-28 15-43 20m-163-16c3 4 7 8 7 13l11 3c-5-7-10-13-18-16m33 20l-1 7-3-1c-1 6-1 11 3 15l3-2c1 5 4 9 9 10 5-3 4-12 11-12v-1c3-4 3-10 4-16l-8-1c-6 0-12-2-18 1m27 9l6-3-3-3-3 6m-6 17l6-3c-1-8-8-4-6 3m9-7c0 16 8 32 17 45 33 20 66 45 105 48 6 0 14 2 18-4-12 2-24 0-36-3-25-6-41-29-62-42-6-20-27-26-41-39 24 15 54 15 79 28 23 13 44 30 62 50-3-11-4-23-13-31-18-15-35-31-57-41-23-8-50 1-72-11m-118 20l-11 13h32c15-3 27-15 38-24-17 6-34 13-52 18l-13 4v-3l11-4c17-5 36-9 51-19-18 4-40 3-56 15m101 17c-9 32-19 69-3 101 3 10 5 22 15 28-11-39-18-80-11-121 4-7 8-15 9-23 4 3 6 6 6 11 9 32 12 66 10 100 8-29 12-61 0-90-2-12-9-24-12-36-11 5-9 20-14 30m45-17c15 21 35 42 64 37-12-25-40-32-64-37m-33 19c1 26-1 52 4 77 12-27 4-58-3-86-4 2-2 6-1 9m81-5c4 5 9 8 12 13 9 20 33 21 48 35-16-20-38-35-60-48m-91 20c0 22-6 48 11 66-4-28-3-56-4-83-4 5-7 11-7 17m-61 42c17-11 33-27 35-48-14 14-24 32-35 48m-9 2c17-12 25-33 38-49a82 82 0 0 0-38 49m149-41c19 20 46 34 73 29-13-10-28-17-42-25-11-1-21-1-31-4m-180 78c-1 4 3 2 4 0 13-22 41-30 55-52-9 8-18 19-31 19 1-9 4-17 8-24-20 14-19 41-36 57m116-8c-8-3-9-11-14-17 6 23 4 51 21 70 2-27-3-54 1-82-3 7-5 20-8 29z"/><path d="M468 361c10-7 27-9 38-2-4 12-18 21-31 23 9-7 21-10 27-20-15 5-31 11-47 14 13-9 31-8 44-17-10-2-21-1-31 2zM450 431c15 7 32 13 45 23-16-5-32-13-45-23z"/></g><g fill="#b5783b"><path d="M334 317c4 2 7 3 11 3l13 31c-13-13-29-20-46-27 8-1 16-2 22-7z"/><path d="M350 324l10 9 2-1 7 8-5 1c2 3 3 7 3 10l8 3-2 3 6 6 3-1 4 8 1 4c-6-1-13 1-17 6l-17-17 3-6h3l15 17 2-1c-11-15-19-32-26-49zM295 334c4 2 9 2 12 5-11-2-22 1-33 1l6 9c-5-2-9-4-13-8 8-8 20 0 28-7z"/><path d="M279 343c20 7 40 13 59 23-22 6-45-6-59-23zM265 344c13 9 27 15 40 23l-2 2 7 3-5 3-4-4-6 6c-13-7-25-17-35-27l5-6z"/><path d="M257 352c16 14 32 30 54 34-12 5-25 6-36 12-7-14-23-29-18-46zM342 359c8 3 13 9 18 16l-11-3c0-5-4-9-7-13zM375 379c6-3 12-1 18-1l-3 1 7 16v1c-7 0-6 9-11 12-5-1-8-5-9-10l-3 2c-4-4-4-9-3-15l3 1 1-7zM287 418c16-12 38-11 56-15-15 10-34 14-51 19l-5-4zM375 426l13-2-3 10-17 11c1-7 2-14 7-19z"/></g><g fill="#9c5d1e"><path d="M307 325c19 8 38 16 52 32h-3l-3 6c-15-13-31-24-50-30l4-8z"/><path d="M286 343c20-5 45 2 55 21-17-10-37-15-55-21zM305 367c20 7 42 5 63 14-4 15 6 28 21 30v13h-1l-13 2 1-3-3-1c-7 8-12 20-22 26l-18-4c12-12 26-24 41-32l1-3c-20 9-34 28-56 33l1-2-9-5c17-7 32-20 45-33-25-3-51 5-76 10-1-4-4-7-6-10 29-13 60-13 90-13v-4c-24 2-47 1-69-8l6-6 4 4 5-3-7-3 2-2z"/><path d="M294 425c18-5 35-12 52-18-11 9-23 21-38 24-5-2-9-5-14-6z"/></g><path fill="#c1bcb6" d="M369 340c9 3 11 13 13 22l-3 1-6-6 2-3-8-3c0-3-1-7-3-10l5-1z"/></svg>