<svg width="1067" height="1067" viewBox="0 0 800 800" xmlns="http://www.w3.org/2000/svg"><g fill="#100e0e"><path d="M351 253c27-4 33-40 60-43l1 1 10 2c2 4 1 9 2 13v6c0 8-8 13-11 20l2 3c-2 5-2 10-2 16l-1 1-3 15c-6 8-15 18-27 16-9 0-15 8-14 16 3 16 19 24 30 34 10 3 15 16 10 25-12 11-31 2-44-3-8-7-25-15-31-1-5-5 3-11 8-12 8-3 15 3 22 6l-1 2h2c12 6 27 13 40 5 4-3 0-8 0-11-12-8-23-18-33-27-12-11-11-34 7-39 34 4 41-51 14-62 1 3-1 11 6 8-1 9 5 19-2 27-2 8-14 7-15 15-4 5-12 0-17 4-8 7-14 16-19 25l-3-1c-1 5-5 8-10 7-6 7-3 27-17 26-9 7-22 10-34 7-11 4-24 12-33 0-1-7 5-4 8 0 10 4 18-7 29-6 8 1 16 1 23-3 2-5 4-11 9-14 8-4 9-18 20-15-5-25 21-48 3-71-19-3-29 19-46 21-5 0-1 4 0 7h3c6 1 18 5 21-4h1c1 6 7 6 10 9 3 12-13 17-14 29 2 9-3 25-15 23l1-6c4 2 7-1 10-4-2-12 4-23 10-32l4-6-1-2-5 3h-3l1-4h-19c-9-2-14-10-17-18 23 4 36-20 57-21 8 0 7 10 13 13m51-36c-7 9-20 12-22 23v2c-10 7-20 13-31 18 4 17-8 32-7 48 7-5 12-14 17-20-5-21 19-29 32-39-5-7-5-20 6-19 4 6 9 12 14 16 6-7 10-16 8-25-3-6-11-7-17-4m-38 68l5-2 4 1c11-8 31-16 20-32-9 11-32 15-29 33z"/><path d="M416 272c6-4 13 1 19 2l2-3c27 18 54 38 72 65 17 26 33 52 45 80l6 24-1 2 1 1c1 10 7 19 7 29 8 11-5 18-7 28-15 27-49 35-78 28-52-1-107-13-149-46-15-9-30-20-37-36-9 6-19 10-28 14 2-24-7-50 5-73-2-9 7-13 8-21-15 5-34 12-49 2-14-14-19-35-19-54l3-1c3 4 7 8 9 13 9 4 19 2 28 5l1 2 1-2c15 10 31-14 44-4-11 2-21 7-32 11-2-2-5-2-8-2-15-3-34 1-43-14 4 11 6 22 11 32 6 14 24 17 36 13 7-1 13-7 21-7 1 6 2 12-3 16-3 7-4 15-8 22-7 15 2 32-1 48v6c12-1 25-10 23-23h2c-2-2-2-5 1-6l-1 4c7-7 1-23 12-25l-1 6c-8 15-14 37 1 49 9-5 21 2 17 12-4-2-5-10-11-10-1 8 11 10 15 15 8 3 14 11 22 15 8-4 17 2 19 10 25 13 54 17 82 19 3-2 6 1 8 2l4-1 1 3h23c10 3 20 4 29-1l1 2c12-2 22-9 31-18-4-2-2-6 1-8l3 3c3-5 5-10 9-14l-1-4h3c-2-13-6-25-9-37-3 1-6 1-8-2-4-3-5-9 0-11v7a1044 1044 0 0 0 5-5 303 303 0 0 0-13-35l-2-1-4-9-2 1c-1-5-1-10-4-14l-16-26c-8 8-10-7-14-12l2-6-5-7-4 1c-5-8-9-17-18-21 0 5 4 8 7 10l-1 4-6-5c-5 2-8-1-11-4l1-2-3-1-1-2 4 1c1 3 3 5 6 5 1-5-2-8-5-11-2 0-4 1-4-1 11-5-11-10-12-17l-8 3c-3-6-8-10-15-11l-9-2z"/><path d="M418 289c2-10 16-9 13 3-2 8-10 1-13-3m5-1c0 2 2 4 4 4 0-3-1-4-4-4zM330 298c0-3 2-6 4-8 1 3 2 10-4 8zM430 304c13-6 14 21 0 11v-3l-3 1-3-6c4-1 7 2 9 5h3c1-5-8-5-6-8zM322 318c2-3 3-6 6-5l-6 5zM385 318c6-3 14 9 7 13-3-3-12-7-7-13zM421 336c-5-2-17-10-8-15 2 3 6 1 9 0 4 4 4 11-1 15m-1-6c0-8-7-2 0 0zM331 331c0-9 12 9 6 9-4 6-2 15-10 18 3-9 4-18 4-27zM340 330c3-2 6-2 10-2 0 5-5 5-10 5v-3zM343 339c-3-4 3-6 6-4-5 3 3 4 6 6 10 4 17 19 29 13 0 6-7 9-12 5-9-8-20-12-29-20zM465 334c8-2 11 7 13 13l-4 5c-6 2-12-7-14-12h4l1-6m2 4v3h-3c1 5 6 6 10 8-2-4-2-10-7-11zM431 347c1-14 22 1 16 10-7 2-9-4-10-8 3 1 4 6 7 5 0-4-5-6-9-9l-4 2zM423 370c-8-6-8-19 1-24-3 7-3 16 3 21l-4 3zM499 373c-9 3-19-11-9-16l1 2c7 0 10 8 8 14zM453 365l6-3c-3 4-4 9-6 14 2 1 3 2 3 4v1l-4 2c-2-6-3-13 1-18zM324 367c7 13 14 26 16 42 6 15 2 36-14 44-6 4-5-5-4-9 2-15 4-36-11-44-5-3-6-9-10-12-5 3-8 10-13 13 2-7 7-13 12-18-1-5-1-10 3-13 0 10 3 22 13 27 7 4 11 13 10 21 4 9 1 21-1 30 6-5 14-10 13-19 1-22-10-42-14-62zM337 372c6-7 18 7 8 10-3-3-8-5-8-10zM472 371c8 1 10 10 5 15l-4-1c-4-1-7-4-7-9h5l1 5h4l-4-10zM513 374c3 1 7 2 9 4 4 14-15 15-15 2h3l2 5 8-1c-2-3-8-6-7-10zM361 408c-7-9 1-29 13-19l-1 3c-3 0-8-2-9 2-3 5 5 12-3 14zM423 400l7-5-4 14-4-1 5 5v2c-8 0-8-10-4-15zM382 396c7-2 14 7 11 14-5 3-9-2-11-5-6-1-4-6 0-9zM490 400c7 0 9 8 11 13-7 13-23-5-11-13m-3 7c2 3 5 7 10 7 1-6-6-12-10-7zM450 418c-8-1-9-13-2-17l6 6c3 3 2 7 1 10l-5 1m-3-12c0 3 2 6 5 7v-3l-5-4zM479 423c-8 4-13-15-3-15l-1 9c2 1 3 4 4 6zM529 411c3-3 7-1 10 2 3 4 2 13-4 10-6-1-6-7-6-12z"/><path d="M344 426c4 3 4 9 2 13-4-3-1-9-2-13zM360 426c8-2 19 7 14 14-7 10-23-6-14-14m1 5c2 4 5 8 10 7v-4l-10-3zM414 440c-3-13 20-2 12 7h-4c-3 2-5-5-8-7zM444 434h3l2 12c-9 9-8-6-5-12zM466 435c6 3 14 9 10 17-3 3-17-2-12-6h-4l1-4c4 2 7 8 11 6 3-6-15-8-6-13zM507 443c-2-3-1-6 3-7 3 4 8 7 10 12l-4 2c-3-2-7-4-9-7zM402 457c-10 4-10-14-2-16-1 6-1 11 2 16zM541 442a462 462 0 0 1 5 2c4 4 5 14-3 14-4-3-11-6-11-12 5-4 7 4 10 6l2-1-3-9zM352 460c8-1 12 7 16 11-2 11-23-3-16-11zM447 464c7-2 13 9 6 12-9 6-21-11-6-12m5 10c1-12-12 1 0 0zM519 479c0-5-3-12 2-15l10 7c2 5-6 14-9 7l-3 1m1-9c0 4 3 5 6 6-1-3-2-6-6-6zM483 467c7 0 15 8 11 14-7 4-19-9-11-14zM542 475c1-8 13-6 10 1v3c-4 2-7-1-10-4zM426 478c-1-4-2-9 4-8-1 6 2 13 7 16 4 0 11-2 8 4-4 0-9 2-12-3l-3 1-4-8v-2zM531 488c2-10 16 2 9 8-6 9-19-12-9-8m1 2l5 2-2-5-3 3zM396 486l9 2 3 6c-2 10-23 6-22-3l17 5c-1-4-6-5-9-6l2-4zM511 487c9-6 9 10 2 11-7 3-5-5-4-9h3l-1-2zM462 498c3-3 9-3 6 2-1 8-14 4-10-3l4 1zM523 500c6-1 13 6 9 11-6 5-15 1-20-3 0-6 7-7 11-8m-4 6c2 4 13 3 6-1l-1 2-1-3-4 2zM416 511c0-10 14-15 19-7 11-3 1 17-3 5-7-8-8-1-16 2zM483 511l5-4c1 5 6 7 11 7-1 3-4 5-7 6l-9-9z"/></g><g fill="#fd7877"><path d="M509 336c14-8 40 0 40 19l11 13-4 7-2 1 4 2-1 3 4-1-1 3 3 3c-3 1-4 4-4 7l-3-1 3 5-3 5 3 3-7-1 9 6c-2 2-4 5-7 6-12-28-28-54-45-80zM478 347l20-9c4 5 6 20 14 12l16 26-5-1 2 3h-3c-2-2-6-3-9-4l-7 3 2 2-6-2 1 2-11-1v4c-3 2-6 3-9 2l-6 2c5-5 3-14-5-15l4 10h-4l-1-5h-5c0 5 3 8 7 9l-1 3-7-2-3 5c5 2 10 1 15 1l2-1 5 3 2-1c6 5 11-2 17-1l-2 3 5 4 1-3 6-2c4 5 11 3 16 4l1-2 8 2 2 1 5 12-6 2c-3-3-7-5-10-2h-2c-5 1-11 2-16 5v-3l-1-1c0 5-6 3-9 1-2-5-4-13-11-13h-4v-2h-11l1-2c-8 0-26-7-19 8h-2c-3-7-3-15 2-21l-1-2v-1l2 1c10-3 2-19 15-18 8-1 6-7 1-11l4-5m21 26c2-6-1-14-8-14l-1-2c-10 5 0 19 9 16z"/><path d="M487 407c4-5 11 1 10 7-5 0-8-4-10-7z"/></g><g fill="#f3d9cd"><path d="M560 368c22 18 16 52 0 72l-6-24c3-1 5-4 7-6l-9-6 7 1-3-3 3-5-3-5 3 1c0-3 1-6 4-7l-3-3 1-3-4 1 1-3-4-2 2-1 4-7zM450 418l5-1c8 6 17 14 28 9v3c3 0 6 2 8 4l13 6v4h3c2 3 6 5 9 7-7 5-17 6-25 5 7-1 14 0 20-4-4-1-7-3-10-6-3 1-3-2-2-4l-4 1c-3-4-8-8-14-9l1-2-7 1 1-2c-8 2-15-3-22-6l2 3 5 13c-6-6-8-14-11-22z"/></g><path fill="#f94247" d="M506 377l7-3c-1 4 5 7 7 10l-8 1-2-5h-3c0 13 19 12 15-2h3l-2-3 5 1c3 4 3 9 4 14l2-1 4 9-8-2-1 2c-5-1-12 1-16-4l-6 2-1 3-5-4 2-3c-6-1-11 6-17 1l-2 1-5-3-2 1c-5 0-10 1-15-1l3-5 7 2 1-3 4 1 6-2c3 1 6 0 9-2v-4a683 683 0 0 0 10-1l6 2-2-2z"/><path fill="#faaba3" d="M457 404c-7-15 11-8 19-8l-1 2h11v2h4c-12 8 4 26 11 13 3 2 9 4 9-1l1 1v3c5-3 11-4 16-5h2c0 5 0 11 6 12 6 3 7-6 4-10l6-2c4 7 8 15 8 23l-3 1-2 4v-7c-5 2-4 8 0 11l-2 1-1-2h-4l3 9-2 1c-3-2-5-10-10-6l-12 2c-2-5-7-8-10-12-4 1-5 4-3 7h-3v-4l-13-6c-2-2-5-4-8-4v-3c-11 5-20-3-28-9 1-3 2-7-1-10l1-3h2m22 19c-1-2-2-5-4-6l1-9c-10 0-5 19 3 15z"/></svg>