<svg width="1067" height="1067" viewBox="0 0 800 800" xmlns="http://www.w3.org/2000/svg"><g fill="#050505"><path d="M260 237c10-9 25-5 37-3 12 0 16 12 22 20 0 10-14 16-24 15l-1 2c3 5 3 12 7 16 24-23 50-47 84-53l5 6c-33-1-59 25-81 47-10 6-5 19-1 27 12 5 19-9 29-13-3 10-15 19-26 19 2 3 5 8 9 9 7-5 15-14 25-11l-1-4 4-2c10 7 16 19 27 25 3 8-5 16-6 24 3 0 8 0 8 5-8-5-16 4-16 12-1 4-1 10-6 9-13-3-23 11-36 6l-3-15c6 0 4 8 8 12 11-1 20-10 31-8 3-15 11-27 17-41-8-8-17-14-23-23-3 6-6 15 4 16-3 4-8 0-11-2l1-11c-8 2-16 6-19 13 9 5 21 6 26 16 1 6-1 15-8 16l5-13c-3-8-11-9-19-10-16-9-30-25-29-45l-2-1c-2-14-12-29-3-42l5 1-3 9c7 1 13-5 18-8-1-4-3-7-5-9-6-11-21-9-32-12-15 21-9 50-5 74 0 14 11 24 22 30 7 4 10 13 19 15 4 3 16-3 16 5-12 4-26-1-32-12-14-10-31-22-29-41-3-24-7-48 3-70-10 0-11 10-11 17-10 27 3 55 13 79 4 14 18 20 29 28 11 1 28 6 29 20l-3-1 1-3c-6-5-12-11-20-10-11 0-17-12-28-15 9 10 22 16 35 21-2 7-10 2-16 1 7 12-9 23 0 33 13-3 28-5 39 5v-8l4 1-2 10h2l-5 6c-7-15-28-16-40-9-13-12 2-26 0-40-16-11-33-24-41-42-14 15-23 36-16 57 5 10-10 13-11 23 0 20 7 40 18 57 9 14 27 16 42 21 14 29 50 34 78 39 24 7 48 0 71 7 36 3 75 10 109-6 14-9 25-29 21-45 17-17 40-32 41-58-5-30-24-57-40-82-17-24-41-43-69-54l-35-27c6 13 18 30 8 44 0-21-9-41-25-55a48 48 0 0 0-59-9c14-20 47-10 62 5l12 12 2-3c20 16 39 33 64 42 15 13 30 24 42 40 15 22 27 45 39 69 1 10 4 21 1 31-6 20-24 32-37 47-1 22-15 49-40 52-41 11-82 2-123-2-16 2-32 0-47-4-29-6-68-11-80-42-35 3-53-32-57-61-2-9-4-20 3-28l-1-1c10-5 6-16 4-24-2-19 9-36 21-50-8-29-6-60 5-88m17 111c-10-18-17-36-21-56-4 20 5 43 21 56z"/><path d="M290 256c1-5 3-12 9-13v3c-4 2-6 6-6 10h-3zM279 283c-4-12-5-27 4-36-5 18 0 36 0 54 4 13 16 20 24 29 9 12 22 21 37 25-2 5-10 1-14 0-16-10-28-25-42-38-9-9-9-23-9-34zM374 278c-5-9 5-22 14-24-5 8-11 15-14 24zM337 301c5-8 13-14 22-17 4 4-1 11 3 16 12 11 25 22 39 31-2 3-6 5-10 6 1-11-11-14-18-20-5-10-20-14-18-27-6 3-11 9-18 11zM412 332c3-3 8-5 12-4 11 1 24 2 31 11-10-4-19-8-30-7-4-2-9 3-13 0zM402 333c5 4-6 10-7 14-5 14-13 29-8 44 1 6-7 4-11 5-6 0-13 10-19 4 3-7 25-5 18-13v-2l7 1c-2-19 8-39 20-53zM274 390l6-2c-5 11-22 3-31 6v-5c8 1 16 2 25 1zM406 419c-9-4-18-19-11-27 2 28 34 33 56 42 33 18 75 15 108 32l-11-2c-49-8-98-22-142-45zM347 407l4-1 1 3-5 1v-3zM314 450l3-1c-3 9-8 28-20 25 7-6 15-14 17-24zM363 500c26 2 40-21 53-40-7 23-27 48-54 44l1-4z"/></g><path fill="#fff28a" d="M477 235c22-8 54-6 64 19l-5-5-6-1 1-3c-8 2-16 1-23 0l-1 5-2-4-2 3 2 2c-10 6-4-11-13-10l2-2-6-1-1 1h-6v-3h-4v-1z"/><g fill="#fee960"><path d="M452 247c7-6 16-10 25-12v1h4v3h6l1-1 6 1-2 2c9-1 3 16 13 10l-2-2 2-3 2 4 1-5c7 1 15 2 23 0l-1 3 6 1 5 5a50 50 0 0 1 10 16l8 6c-4 8-12 11-16 19l-2-1-2-8-9 12c-25-9-44-26-64-42l-2 3-12-12zM449 251c16 14 25 34 25 55 10-14-2-31-8-44l35 27-3 7-1 1-2-3-3 1 4-7h-5l-1 16-3 1-3 7-2-6-6 18h-3l4 3c-4 5-3 11-1 16l-2 1 2 6-3-2-4 5 5-2c-2 6-7 6-10 2l-1 2 2 1-4 4c4 0 8-1 10 3 3 6 11 3 16 1 0-4 3-7 7-8l4 4-1-4 4 1-1 4h5l5 7 1-4 5 1 2-1c12-1 25-1 36-7-3 3-7 5-11 6-28 5-57 10-84 1-15-5-32-16-34-32 11-1 20 3 30 7-7-9-20-10-31-11-4-26 9-56 25-77z"/></g><g fill="#fee61d"><path d="M551 270l-1-1c14 5 32 13 32 29-5 7-1 19-10 23 2 6 5 13 0 17-12-16-27-27-42-40l9-12 2 8 2 1c4-8 12-11 16-19l-8-6zM491 288h5l-4 7 3-1 2 3 1-1 3-7c28 11 52 30 69 54-3 7-10 10-16 14-11 6-24 6-36 7l-2 1-5-1-1 4-5-7h-5l1-4-4-1 1 4-4-4c-4 1-7 4-7 8-5 2-13 5-16-1-2-4-6-3-10-3l4-4-2-1 1-2c3 4 8 4 10-2l-5 2 4-5 3 2a432 432 0 0 1 0-7c-2-5-3-11 1-16a565 565 0 0 0-1-3l6-18 2 6 3-7 3-1 1-16z"/></g></svg>