<svg width="1067" height="1067" viewBox="0 0 800 800" xmlns="http://www.w3.org/2000/svg"><g fill="#030303"><path d="M331 213c16-4 33-3 49-3 11-1 15 10 19 18 8 8 1 19 6 28-7 23 23 33 33 48-14-9-29-20-37-35 1-18-2-37-12-53-14-8-31-4-47-3-18 1-9 31-30 29-19-6-40-23-59-9-18 10-22 35-43 40-18 6-42 17-45 39 12 9 29 10 40 20l22-17c-11 0-20-9-25-19h3c7 16 26 16 40 13-11-8-20-30-4-38-12 12-4 29 8 38 8-2 15-2 22-5l1 3c13 3 26-2 31-15 2 3 1 6-1 9 4-1 10-2 9-7-11-13-31-12-44-23-5-7-13-16-9-25l15-3 1 3-9 3c5 17 23 23 36 33 16-1 31-2 46 3-9-14-2-30-5-45 8 0 18 7 7 13-10 14 10 25 18 34-9-3-16-10-21-17 0 15 16 21 28 25 21 5 41 22 64 15 6 0 5-8 9-11 6-2 12 0 17 0 8 7 8 17 2 24 23 1 45 10 68 11 34 4 61 24 92 36 25 6 60 15 62 45-12 0-19-13-29-17-32-18-62-41-98-52-20-10-43-8-64-14 43 18 88 35 129 58 16 6 30 15 46 21v3c-40-13-76-38-115-53 3 10 7 21 15 28l-2 2c36 12 70 31 109 29l-2-2-1-2 9 3 3-3 5 11c-7 13-10 29-22 39-4 7-14 5-20 11l-3-1c-25 2-50 3-76-1l-42-6c-31-7-64-5-94 0-36 8-52 42-65 73 4 5 10 9 10 15h-3c2 5 5 10 5 15h-3c1-9-7-14-10-22v-5c-5 14-15 29-31 32-13 12-33 3-47 14l2 8c-6-3-7-12 0-14 16-5 35-2 48-15l2 2c6-2 8-10 14-11 3-7 9-14 7-22l3 1c11-23 19-49 41-64 36-21 80-17 120-12l27 4 22 3a263 263 0 0 0 78 0c13-6 23-18 27-31 0-5-6-7-6-1h-1c-7 6-16 10-24 13l-4 1c-16 4-32 5-49 5-13-5-28-5-42-7-9-2-19-4-29-4-21-3-42 1-63 2-23 9-50 13-68 31-17 19-35 40-43 65 3 4 1 13-4 12-1-4 3-8 1-11-6 9-21 5-30 0-12-9-35-9-42 7-5 8-1 19 8 21-20 1-14-28-1-34 12-3 25-4 36 3 9 6 30 7 30-8 4-6 10-12 12-20-17 2-35-5-47-17-4 4-7 10-12 13-10 1-23-4-30 5h-4c5-11 22-9 32-8 4-5 9-9 14-12l-1-5h2c1 7 5 10 11 12-2-4-5-8-5-13 9 17 33 19 49 12 6-5 9-14 16-19-4-19-23-25-39-25 18-5 36 6 42 22 21-21 52-31 81-34l14-3c-4-7-13-8-21-6-9 7-23 4-34 7-15 0-16-18-20-28-5 7 4 14 5 21 2 9 12 12 18 17-19 0-21-22-30-34 5-5 8-11 11-17 0 12 1 25 9 35 12 5 26-2 38-2l2-1c9-5 19-1 25 6 13 2 25-1 38 1l11 1-10-6c-11-6-3-23-15-27-18-13-36 17-54 5-6-10-15-17-22-27-32-4-49 30-79 33-6-5-13-6-19 1 5 5-5 5-6 9-5 10-5 22-9 33-8 2-18 0-24 9-2 6 2 16-7 20-18 3-34 15-44 31-10 26-8 60 15 78 14 7 28 14 44 15 6 2 11-2 13-8 6-10 22 4 27-8l5 1c9-15 31-13 38-29 19-26 3-60 19-87 6-10 18-16 30-15-14 4-27 13-32 28-6 26 3 57-15 80-7 12-23 11-32 20-3 4-7 8-12 9l-1 3c-8 1-16-4-22 0-3 9-14 13-23 10-17-6-36-9-49-22-16-24-21-58-5-84l-22 4v-3c8-3 17-4 26-4l4-5c-9-7-17 6-27 6-9 1-19 9-27 1-9-11 5-25-5-35-1-1-14-1-8-4 14-4 18 14 14 24 5-6 11-12 15-19-3-14-21-18-31-11 1 12-1 22-12 28-6 1-12-3-19-2-13 5-27-4-42-1-10 0-13-11-17-19-1-4-6-8-2-11 6 8 7 20 15 26l31 1c-7-2-15-15-9-21-1 18 20 22 34 22l-1-4c5 0 12 2 17-1 5-6-2-14 2-20 12-15 45 1 34 20-4 7-24 21-8 22l-5 4c19 5 36-17 55-9 7-10 20-11 31-16 6-6 0-16 7-22-15 12-35 5-52 11-7 5-11 13-12 22l-2-1c-1-15 12-28 27-27 22 0 46-5 60-23l-8 14c16 0 11-21 17-32-8 3-16 5-25 6-5 3-10 10-17 8-7-4-13-13-21-13v-2c-12-6-21 11-34 8-10 4-17-7-26-4v-2c3-1 6-2 9-1 12 9 29 3 39-5 5-4 11 0 16 2 19-4 38-7 55-15-11-5-20-16-32-17-19-1-39-6-55 4 11-17 38-6 55-7 15 0 24 15 38 18l1 3c-19 9-39 12-59 16 7 3 14 17 22 9 9-9 23-7 35-12 7-7 17-21 28-10 27 0 42-31 69-31-1-1-5-3-1-3 13-1 27 4 40 1l-2-3 3-2c-26-24-64-34-85-65 9 1 13 11 19 16 12 11 26 18 40 26 11 8 26 12 31 26l2-1c5 3 11 0 16 0 27-3 52 6 78 11-8-7-11-18-15-28-21-18-50 6-71-11-11-4-8-18-16-25h-6c-5 12 2 23 5 34 8 7 20 9 28 17-11 0-20-9-30-14-7-12-8-27-9-41 11-1 16-19 3-21-13-6-8 14-19 13-24 3-47 0-69-8-20 3-46 8-58 27-5 5-14 5-21 7-24-1-56 13-60 40-14 8-30 9-44 17-6 6 1 15-2 22-1 9 19-1 13 8h7v4c-6 0-11-2-16-4-12 2-22-9-33-4-7 5-5 17-13 22-13 1-26-12-39-6-7 8 0 20 1 30h-4c0-10-5-21-2-31 13-12 28 3 42 4 7-6 4-17 12-22 10-7 20 2 30 3-2-4-2-8 1-11-1-5-4-11 0-15 12-11 31-9 43-20 5-27 36-38 60-40l4-28c-20 0-40 1-59 7-10 4-16 14-25 19-13-10-29-12-41-22-4 12 8 23 17 30 15 11 34 7 52 11v3c-21-1-44-1-62-17-7 12-26 8-38 15-16 8 9 16 15 20 9 10-19 16-9 24 11 5 23-3 34-3-11 6-29 14-39 2-3-10 11-12 13-20-10-3-17-11-25-17 9-16 30-12 44-19 3-1 1-4 0-6l2-1c-7-7-10-16-9-25l-1-4 3-1c1-11 12-19 21-26 14-10 35-8 44-25 10-17 26-35 48-32 12 6 25 12 39 15 11-2 10-18 16-25m15 32v5l4-4-4-1m-86 3c-2 16 15 28 29 30-12-8-22-17-29-30m45 37c3 2 8 4 9 9 4-5 14-2 16-9-8-1-17-2-25 0m28 1c2 9-10 6-15 9-7 6-8 17-9 26-4-5-1-12 0-18l-14 7-5 27c13 0 24-9 30-20l39-14c16-3 29 9 44 7-23-9-46-18-70-24m140 43c3 13 13 24 27 26 12-1 24-5 36-2-20-8-41-20-63-24m154 44c19 14 41 23 58 39-6-26-37-31-58-39m-149 11c-12 4-25 5-37 2 3 6 8 11 13 16 19-1 39-3 58 2l2-2c7 5 18 4 27 8 10 5 20 7 30 10l77 19c8 0 16-1 22-4l-3-2 4-2h5l12-3c0-3-2-5-4-6-22 7-46-3-68-9-44-18-91-33-138-29m-19 21c5 15 22 6 32 1l-2-1h-30m62 5c6 6 2 17 9 22 3 6 11 6 16 9l-6 2c35 5 72 16 107 6l3-1v-4l2 4 12-6-14 2a1403 1403 0 0 1-97-27l-4 1-10-4c-5-3-12-3-18-4m155 24c3 0 8 0 10-3-3 0-7 1-10 3m-507 59c3 2 7 1 8-3l-8 3m162 11c9 6 20 9 31 7-11-1-21-4-31-7z"/><path d="M257 330c4-7 11-18 21-15l-1 3-11 4c-3 3-5 6-9 8zM230 319c4-3 7 4 2 5-14 7-9 32 8 28l-1 3c-22 2-25-27-9-36zM328 338c24-4 48 8 64 24h3c1 5 21 15 11 16-21-19-45-41-75-37-12 2-9 19 0 23l-1 3c-6 1-15-2-19 3l-40 7c17-7 35-11 53-14-6-8-9-23 4-25zM502 370c9 4 16-9 25-5 9 3 19 10 20 20-8-7-16-20-29-15-9 8-24 5-33-3l17 3zM174 367c18-1 40 14 55-2 0 7-7 12-14 11-20-1-42-11-59 2 3-8 11-9 18-12v1z"/><path d="M175 388c2-8 11-14 19-14v3c-8 1-12 8-19 11zM347 396c23-3 45-6 66-16-7 12-26 12-38 15-21 7-43 3-62-7-15 0-30-6-46-3l-1-2c-13 3-27 7-39 13 22-17 54-17 80-10l2-2c12 5 25 10 38 12zM450 392c44-7 88 1 129 15 7 3 14 7 21 7 13 8 28 8 41 14-22 0-42-10-62-17l-26-8c-33-12-68-12-103-8v-3zM380 434c6 11 21 11 31 17-11-1-30-4-31-17zM158 460c8-11 22-21 36-15 18 6 37 2 55 8l-7-1v2c-19-1-37-2-55-7-15-2-21 15-33 20-12-13-26-3-40 0v-4l23-7c8-3 14 10 21 4zM238 461c26-5 53-4 78-14-16 15-41 10-61 16-8 7-20 11-25 22h-2c3-11 14-16 22-22l-12 1v-3zM348 450c14-2 31 0 41 12 4 4 13 2 15 6-14 5-21-14-35-14l-2-1c-6 0-13 0-19-3zM260 492c4-5 9-9 15-12v3c-4 4-9 7-15 9zM188 496c10 0 4 11 1 16 0 9 13 7 18 12-7 2-16-1-20-7-5-8 6-15 1-21z"/></g><g fill="#cd4a50"><path d="M553 403l26 8-9 4 1 3v2c-10-3-20-5-30-10l12-7zM579 407c8 0 15 3 21 7-7 0-14-4-21-7zM555 419c31 9 63 18 95 25v4l-3 1c-1-7-7-5-11-4l-2-2-6 3 1-5-12 3-3-3-8 4-4-3-1 5h-4v-4l-7-1-2-6-2 1-1-4c-4 0-9-2-13 1l5 3-3 7c-3-2-6-5-10-6-3-7-10-11-9-19zM528 447c10 0 20 2 29 4l-6 1 5 7-8 2 1 2 7 5-27-4c-1-5-2-11-1-17zM530 469l42 6h-2l2 2-3 1 1 4-4 3 4-1 1 5-4-1v3l4 1-2 5 5-2 8 13c-1-8 6-11 12-6 2-5 5-10 9-13 2 4 3 8 2 13 6-2 10-6 9-13 5 0 10 3 15 5 2-3 5-7 4-11l3-2c2 4 5 4 9 3-2 5-6 6-9 1 1 4-1 7-3 10l-1 2-8 4-3-1-8 2 1 4-10-2v3l-8 3 1-3c-13 3 5 10 11 5v6h-5c-8 5-18-2-27-5a848 848 0 0 1-4 2c-10 5-17-8-10-16-17 0-30-14-32-30z"/></g><g fill="#574849"><path d="M579 411c20 7 40 17 62 17 10-1 20 3 30 3l-4 2-28-3 9 9-77-19v-2l-1-3 9-4zM648 453l4-1 4 19-8 1c7-4 3-14 0-19zM648 476l3 1c-3 9-9 17-16 24-9 5-20 7-27 15v-4c-6 5-24-2-11-5l-1 3 8-3v-3l10 2-1-4 8-2 3 1 8-4 1-2c2-3 4-6 3-10 3 5 7 4 9-1l3-8z"/></g><g fill="#f49195"><path d="M539 414l10 4 4-1 2 2c-1 8 6 12 9 19 4 1 7 4 10 6l3-7-5-3c4-3 9-1 13-1l1 4 2-1 2 6 7 1v4h4l1-5 4 3 8-4 3 3 12-3-1 5 6-3 2 2c4-1 10-3 11 4-35 10-72-1-107-6l6-2c-5-3-13-3-16-9l9-18zM599 458c17 0 33-1 49-5 3 5 7 15 0 19a263 263 0 0 1-73-2l2-4-11 2 1-3h27l-3-6c5 0 15 9 15 1l-5-1-2-1zM570 475h2c26 4 51 3 76 1l-3 8c-4 1-7 1-9-3l-3 2c1 4-2 8-4 11-5-2-10-5-15-5 1 7-3 11-9 13 1-5 0-9-2-13-4 3-7 8-9 13-6-5-13-2-12 6l-8-13-5 2 2-5-4-1v-3l4 1-1-5-4 1 4-3-1-4 3-1-2-2z"/></g><g fill="#eb7378"><path d="M529 437l10 6-11-1 1-5zM551 452l6-1c14 2 29 2 42 7l2 1 5 1c0 8-10-1-15-1l3 6h-27l-1 3 11-2-2 4 3 1-22-3-7-5-1-2 8-2-5-7z"/></g></svg>