<svg width="1067" height="1067" viewBox="0 0 800 800" xmlns="http://www.w3.org/2000/svg"><g fill="#050506"><path d="M562 278c21-14 48-16 72-9 37 15 73 56 56 99-12 27-29 55-55 71l-1 1c-12 7-26 15-41 12l1-3c39-4 69-35 86-69 15-24 14-58-8-78-23-34-70-42-105-23-5 3-11 3-17 3 1-5 8-3 12-4z"/><path d="M406 269c13-4 12 13 19 19 8 16 13 35 24 50 8 0 15 3 23 3 13-32 45-59 80-58-1 9-13 4-19 6-24 9-45 27-56 50 15 3 25 19 40 22 18 8 31 25 41 41-1-17 2-35 10-50-20 4-52-6-50-31 14 9 29 19 47 18 3-9 1-20-4-29-6-7-16-6-24-9 6-13 25-8 35-2 13 6 11 22 9 34 14-6 26-20 31-34-3-3-8-2-12 0-1 3-4 6-6 1l-2 8h-3c2-8 2-18 10-21 12-9 32 10 21 21-7 11-10 24-20 33 13-5 33-3 41 9-15-10-37-11-50 4-1 9 5 19 12 25 11 4 21-13 14-21l11 7 2 12c-3 12-18 16-28 16-15-3-18-20-21-33l2-4c-11 20-11 47-9 69 17 24 22 53 31 81 7 14 13 30 5 45-2 6-9 18-17 12 5-21 3-43-6-63-7-14-7-30-15-42-9-2-18 1-27-2 12 22 31 48 14 73-10 23-24 45-45 60a98 98 0 0 1-54 21c-19 0-37 3-55 5-21 2-42 0-62-8-33-5-59-36-61-69-35 11-77 6-103-22-17-21-40-38-56-61-20-38 8-82 40-104 29-30 75-42 114-27-1-5 1-10 2-15l-6-3c-2 2-4 5-7 5-12-11 11-21 18-11 7 7 3 18 0 26 6 1 14 3 17 8 9-2 12 16 19 7 23-25 63-29 92-12 7 4 15 6 23 7-6-10-13-19-16-31-2-11-14-16-22-23l1-4c27 10 25 42 44 58-9-16-13-34-23-49l-2 3-6-4 1-2-6-3 1-4 9 7c0-12-12-13-20-7l-1 6c-12-3 4-15 11-14m190 28c6-6 18-7 20 4-6 14-17 25-28 35 5 10 13-2 17-7 4-10 12-19 15-30-2-12-21-15-24-2m-52 2c6 3 12 4 19 5 12 5 16 21 11 32l-3-2c3-10 2-22-8-27 5 11 12 26 3 37-17-2-31-8-45-17 4 15 21 23 36 22 6-2 20 3 13 10l-1 2c-7 14-6 30-9 45l9 13c-1-19 2-38 5-57 3-7 7-20 16-19-2-2-5-3-8-3-4 3-4 15-11 12 1-6-2-17 8-16-2-10 4-21-3-30-8-8-22-13-32-7m-277 5c13-8 20 6 14 18 11-10-2-31-14-18m-94 44c-16 14-35 28-43 49-13 22-12 53 9 70 23 22 42 50 71 66 22 8 48 7 71 2 4-19 7-38 17-54 8-17 28-28 47-25-9-17-30-14-45-17 8-6 19-1 27-1 17 2 22 23 39 26-12-24-43-31-67-31 19-9 43 4 61 14 2-4 6-8 10-10-1-14-11-25-20-35-6-5 6-8 9-4 5 12 13 23 18 36 3-4 11-7 8-14-2-24-22-42-44-50-5-2-13-16-18-6-7 3-9 11-15 16 10-2 28-5 34 5l-7-2 2 5-3 1-2-2-1 2c-7-5-16-2-23 2 3 5 10 6 12 11 7 1 9 9 9 14-6-2-10-6-16-7 0-5 7-1 10-1-5-7-16-8-20-17-10 4 6 10 9 14-4 6-11 17-18 14l8-8c-7 2-18 4-21-6 0-2-1-10 5-9v11c6 1 12 1 17-3-4-5-9-9-14-3 1-9 13-8 13-16-6 3-9 9-15 12l-2-4-6-4c1 3 4 6 1 8-7 7 0 22 10 21-9 12-21-12-15-21l4-1c-9 0-26 4-34-8s0-26 1-38c7-1 1 8 3 12-1 14 14 24 27 23-4-11-11-20-10-32-1-10 10-16 11-25-35-11-76-5-104 20m171-20c-14 9-32 18-37 35-5 2-9 5-12 10 2 1 4 2 5 5l-8-2-3 2 2 3-1 6c9-5 19-12 24-22-5 2-8 9-15 9 2-10 23-13 26-25 3-11 16-15 26-19-6 8-22 10-22 23 11-9 22-21 37-18 18 11 40 8 60 13l15 4-1 5c5-1 11-9 15-4-6 4-10 9-14 14 15-9 31-18 49-16v3l-7 3c50 14 78 64 98 109 8 31 24 60 18 92 15-14 10-36 2-53-8-26-13-53-29-76-19-21-29-51-56-64-13 5-19-18-33-18-10-6-18 6-27 4l5-6c-5-1-10-2-16-1-10-5-22-2-31-8a81 81 0 0 0-70-8m-62 2c6 12-9 23-4 35l10 8c9-8 19-15 24-25-7-10-19-14-30-18m-4 5c-13 12-10 33 2 45l5-4-12-9c0-3 0-7-2-10 3-6 10-15 7-22m54 21c13 11 31 16 42 30 11 9 13 23 16 36 6-5 14-8 21-10 7-1 6-13 4-18-6-16 10-26 23-30l1-6c-25-11-54-5-77-19-11 3-23 7-30 17m252 1c1 14 12 44 31 30-14-2-28-14-28-31l-3 1m-115 2c-10 14-10 39 8 46 26 2 48 18 61 40 7 11 21 8 32 9-8-15-14-30-23-44-16-14-27-35-49-41-10-3-17-16-29-10m-7 3c-8 3-15 7-21 12h-2l-10 13c-4-6 4-13 8-17-16 1-22 20-15 33l4 6 3-1c-4-5-6-10-6-17l-2 1 1-2v-4c9 2 5 16 12 22 11-3 23-3 35-4-13-11-10-27-7-42m160 4c0 3-1 7-3 9v2l-5 5c6-1 11-6 13-12l-5-4m-376 5c-4 16 18 28 29 19-11-3-26-6-29-19m107 28c0 4 4 7 7 10 0-4-2-10-7-10m84 12c-1 19 5 37 1 55 14-4 20-18 33-23 7-4 17-15 25-7 3-4 6 0 5 3-17 0-25 17-37 26h1c-4 1-6 4-9 6 20-2 49-2 58 20 1 6 4 12 4 19-1-4-3-9-6-12l-4-11c-7-11-22-12-34-12l-1-2c-12 3-25 3-37 7-6-1-10 3-14 6v1c-7 4-15 1-23 0-1-8-10-14-6-23-4 1-8-1-12-3-6 10 8 18 15 22-10 8-21-12-23-20-11 8 3 20 12 22-8 5-18-7-21-15-14-10-35-15-49-2-19 16-24 42-28 65 1 54 62 80 108 77l18-1c25-3 52-1 75-10l15-7v-1c7-4 14-9 20-15 17-14 25-34 33-53v-1c7-10 6-25 0-35-13-23-24-49-46-66a97 97 0 0 0-73-10m-9 1l5 15c1-5 0-10-1-15h-4m-6 35c7 4 8 13 10 20l2 1c1-10 3-20-1-30l-1 7h-2c0-11-1-22-6-31-3 10 3 22-2 33m-44-11v20c6 1 11 4 16 6l11-17c4-6-3-14 2-20l3 9h2c-3 7 4 10 9 12-2-10 2-22-4-31-17 0-27 12-39 21m-5 0c0 3 0 6 2 10l-2-10m102 9h-3c-14 9-24 28-41 26l-1 5c27 0 39-30 62-39-7-2-12 5-17 8m-108 8c6 6 3-9 3-12-5 2-10 9-3 12m42-8c2 8-9 11-11 19-5 7 4 14 4 21h14l-2-2c2-4 4-7 8-8 0 3-2 5-3 8l5-2c7-14 3-33-15-36z"/></g><g fill="#fab4a6"><path d="M456 471c3-2 5-5 9-6 36 0 69 20 87 51-6 5-11-1-15-5l-2-1c-8-5-14-13-21-19-9-22-38-22-58-20z"/><path d="M436 480c12-4 25-4 37-7l1 2c12 0 27 1 34 12v3c-5-4-11-6-15-11a678 678 0 0 0-8 12l-5 4-3-3h-14l4 1v3l-6-5c-4 0-7-1-11-3l-2 6-7-4-1 3-3-4 2-2-3-7zM427 486l8-2 1 5-6-1v-1l-3-1zM378 554c3 0 7 1 10 3l1-2c4 5 11 6 16 10l1 2 2-1v3l3-1c3 8 7 0 3-4l4 5c4 0 9 1 13 4l-2 4 4-2 1 7-7-5c-1 5-6 13-10 10l-1 2-3-2-5 1-2-5-7-1h-2l1-5c-7 2-8-5-10-9l-2 1c1-4-4-6-7-7l-1-8zM372 568l3 1 1 2c12 6 20 19 34 22v2c5 3 3 9 1 13l2 1-18 1c-9-13-17-27-23-42z"/></g><g fill="#fe9486"><path d="M493 479c4 5 10 7 15 11v-3l4 11-7 1 3 5-4-2-3-1-1-2-3 1 5 8-6-2 1 3-3 1 5 5-7-2 1-3-5 2-4-9c-3 2-1 5 1 7l-5 5-4-2c-5 0-11 0-15 3l-1-2-9-2h-2l-1-1c-2 2-5 3-9 1v3c-2-2-4-5-3-9-3-2-6-4-8 0l-1-1c-4-3-9-1-13 1 2 5-2 6-6 6l1-2c-4 1-7 0-10-2 2-7 10-8 16-9 5-3 8-8 11-13l-4 2v-1-1c4-3 8-7 14-6l3 7-2 2 3 4 1-3 7 4 2-6c4 2 7 3 11 3l6 5v-3l-4-1h14l3 3 5-4 3 2c1-4 3-7 6-10l-3 1 2-5m-66 7l3 1v1l6 1-1-5-8 2z"/><path d="M514 491c7 6 13 14 21 19l2 1c4 4 9 10 15 5l4 6v1c-8 19-16 39-33 53-1-3 1-6 3-8-2-4-3-9-7-10l2-3h-6c-1-1-4-2-6-1h-4v-7c-2 3-4 5-8 5l1-2c-2 1-4 0-6-1l4-1 1-1-6-4 6-1-3-2 1-3 4-1v-2l-2 1v-2c4-1 10-3 9 3l14-1 13 8 3-2c-2-1-5-2-5-5-4-4-10-6-15-9 6-1 11 3 17 5l1-4-2-1v-2c-4-1-5-4-7-7l3-4c-3-2-6-2-9-2l-1-2c0-7-3-13-4-19z"/><path d="M514 589c21-15 35-37 45-60 3 18 16 48-5 60-9 14-22 26-37 34l-3-2c3-3 2-8 0-11l6-3v-7c-3-3-5-7-6-11zM472 586l2 7c5 1 10 4 14 6-23 9-50 7-75 10l-2-1c2-4 4-10-1-13v-2l16 8c5 2 11-6 14 0 4-1 8-1 11 2v-3h2v-4h4l-1-3 3-3 5-2a696 696 0 0 0 1 2l2 3 1-2h2l2-5zM405 615c18-2 36-5 55-5l1 3c5-3 12-1 12 5l-4 1 1 4 12 3 1 3 4 4-3 1h2c-18 5-39 5-56-4-8-5-15-13-25-15z"/></g><g fill="#fe2b20"><path d="M422 488l4-2c-3 5-6 10-11 13-6 1-14 2-16 9 3 2 6 3 10 2l-1 2c4 0 8-1 6-6 4-2 9-4 13-1a75 75 0 0 0 4 1l1 5h2l5 10h-2l-1 10c7 3 16 5 17 14 2 8 12 2 16 8 8-3 16-1 16 8l-7 1 2 8h-5l2 9c-4-1-7 0-10 3l-3-6 1 4c-6-3-13-5-18-11h7c-3-3-9-4-10-9l7-3-6-3 5 1 2-5-6 1 1-7-3-3-5 5-3-2-1 3-6-7-1 3h-3v4l-3-3-3 2c1-5-2-15-7-7v-5c-4 6-10-1-16 1l1 7c5-2 6 4 10 6 2 4 3 8 8 8v-3l7 4v-3l6 2 2 1h3c-5 7-16 6-20-1l-2 8-5-4c-11-3-20-12-32-12l-3-2c-5 10 4 18 13 20v3c3 2 5 4 6 8l-6-3 2-2-11-3-3-1c-5-17-13-37 1-53 13-15 36-12 49-27z"/><path d="M490 559c3-3 11-4 11 3 2-2 5-3 9-3l1-2v1h8c4 1 5 6 7 10-2 2-4 5-3 8-6 6-13 11-20 15l-5-1 2-4-5 2c-3-3-6-3-9-2l2-3-4-3 1 3-3-2-2-1c3-3 4-8 1-12 6 1 4-8 9-9z"/></g><g fill="#fe6d5c"><path d="M505 499l7-1c3 3 5 8 6 12l1 2c3 0 6 0 9 2l-3 4c2 3 3 6 7 7v2l2 1-1 4c-6-2-11-6-17-5 5 3 11 5 15 9 0 3 3 4 5 5l-3 2-13-8-14 1c1-6-5-4-9-3v2l2-1v2l-4 1-1 3 3 2-6 1 6 4-1 1-4 1c2 1 4 2 6 1l-1 2c4 0 6-2 8-5v7h4c2-1 5 0 6 1h6l-2 3h-8v-1l-1 2c-4 0-7 1-9 3 0-7-8-6-11-3-5 1-3 10-9 9 3 4 2 9-1 12l2 1 3 2-1-3 4 3-2 3c3-1 6-1 9 2l5-2-2 4 5 1v1l-15 7c-4-2-9-5-14-6l-2-7-2 5h-2l-1 2-2-3-2 3 1-5-5 2-3 3 1 3h-4v4h-2v3c-3-3-7-3-11-2-3-6-9 2-14 0l-16-8c-14-3-22-16-34-22l-1-2 11 3-2 2 6 3c-1-4-3-6-6-8v-3c-9-2-18-10-13-20l3 2c12 0 21 9 32 12l5 4 2-8c4 7 15 8 20 1h-3l-2-1a524 524 0 0 0-6 1l-7-4v3c-5 0-6-4-8-8-4-2-5-8-10-6l-1-7c6-2 12 5 16-1v5c5-8 8 2 7 7l3-2 3 3v-4h3l1-3 6 7 1-3 3 2 5-5 3 3-1 7 6-1-2 5-5-1 6 3-7 3c1 5 7 6 10 9h-7c5 6 12 8 18 11l-1-4 3 6c3-3 6-4 10-3l-2-9h5l-2-8 7-1c0-9-8-11-16-8-4-6-14 0-16-8-1-9-10-11-17-14l1-10h2l-5-10h-2l-1-5h-3c2-4 5-2 8 0-1 4 1 7 3 9v-3c4 2 7 1 9-1l1 1h2l9 2 1 2c4-3 10-3 15-3l4 2 5-5c-2-2-4-5-1-7l4 9 5-2-1 3 7 2-5-5 3-1-1-3 6 2-5-8 3-1 1 2 3 1 4 2-3-5m-127 55l1 8c3 1 8 3 7 7l2-1c2 4 3 11 10 9l-1 5h2l7 1 2 5 5-1 3 2 1-2c4 3 9-5 10-10l7 5-1-7-4 2 2-4c-4-3-9-4-13-4l-4-5c4 4 0 12-3 4l-3 1v-3l-2 1-1-2c-5-4-12-5-16-10l-1 2c-3-2-7-3-10-3zM460 610c19-2 39-8 54-21 1 4 3 8 6 11v7l-6 3c2 3 3 8 0 11l3 2c-9 6-20 9-31 11h-2l3-1-4-4-1-3-12-3-1-4 4-1c0-6-7-8-12-5l-1-3z"/></g></svg>