<svg width="1067" height="1067" viewBox="0 0 800 800" xmlns="http://www.w3.org/2000/svg"><g fill="#0b0a09"><path d="M348 250c27-4 56-4 80 10 10 2 19-6 29-4 21 0 36 17 54 26 17 15 39 24 52 43 13 14 11 40 31 48 3 8 18 9 14 19-4 12-15 18-24 25-18 20-8 51-25 72-9 6-19 10-30 12-16 10-33 24-53 24-15-7-25 9-39 13-24 7-48-4-72 3-39-4-76-23-106-48-14-12-23-27-29-44-6-13-21-16-32-23-10-13-5-29 4-41l-3-2c13-7 12-22 19-33 7-25 22-48 43-64 25-20 58-24 87-36m-19 12c-47 7-94 36-106 84-6 13-9 27-18 39 5-1 11 0 16-2 21 13 48 11 70 0 8 2 16 1 23-1v3c-7 2-14 7-21 2-13 3-27 12-41 8-16 3-29-11-45-8-6 5-10 13-11 21 11-2 22 4 33-1-7-7-18-4-26-2 0-9 14-5 20-4 17 6 36 2 53 1-18 12-42-1-60 12 37 10 78 12 115 2l21-5c4-1 8-3 13-2l1-2c20-5 40-16 60-12 15-4 31-4 46-6-10 8-26 3-37 9-9 5-19-3-28 1-14 4-30 7-43 13-11 2-23 3-33 8 11 3 24 2 35-2 46-24 101-14 151-22l1 1h10c23-1 53 6 70-12-17 11-37 8-56 11 15-9 39-1 53-15-3-7-11-7-16-11-7-15-11-32-22-45-14-18-35-27-52-41-16-8-30-22-48-24-11-1-21 9-32 3-30-12-66-16-96-1m270 128l2 3c-20 15-46 15-70 15v-1h-4c-13-4-27-3-40-2l4-2c-37 0-74 2-110 11-10 7-21 10-33 11-17-1-35-1-52 1 18 13 43 9 64 3 41-10 83-12 125-16-35 12-75 6-111 16l-18 4c-8 1-15 6-23 5-13-1-27-1-39-7-13-8-29-1-43-6-13-5-27-3-39-9-4 0-17 1-11 7 10 6 23 10 31 20 8 23 22 47 45 57 27 20 60 35 93 36 23-7 45 6 68-2 10-4 18-12 29-14 23 6 43-11 61-23 21 0 38-18 38-38 1-20 7-42 24-52 5-5 15-10 12-18l-3 1m-70 10h-19v1l20 3c17-1 36 4 52-4-18 3-35 2-53 0m-333 9l3 6c2-1 5-2 6-4l-7 1-2-3z"/><path d="M261 329c20-12 43-27 67-23-22 3-44 11-63 24-4 12-16 17-26 23 5-11 21-11 22-24zM449 310c18-12 37 0 55 6 14 9 21 26 35 34-3 5-11-4-14-6a73 73 0 0 0-76-34zM332 324c16 11 32-7 48-5-11 5-28 11-42 12-11-12-26 3-38 6v-3c10-5 21-10 32-10zM353 360c7-3 14-2 22-1l5 1c-4 3-10 1-15 2l-26 5-1-3 15-4zM446 359c19 2 37-4 56 1 14 1 29-1 43 3-13 2-28-1-42 1-19-6-38 1-56-1l-1-4zM256 388c8-2 19-7 25-3-7 3-16 4-24 6l-1-3zM233 385c7 0 17-1 23 3-7 2-19 4-23-3zM231 411c16-2 31 5 47 4 10 3 21-3 31 2-16 5-34 0-50-1-9-4-21 2-28-5zM530 427l16-2-1 3-18 3c-12 3-25 4-36 9 13 0 26-5 39-6l8 2-10 1c-13 1-31 12-41 3-8 2-15 6-23 9l2 2c-7 3-14 7-21 2-12-6-25-3-38-4l-1-4c10 0 22 3 31-2 15 6 31 1 45-6 16-3 32-8 48-10zM238 439c31 3 61 18 93 13 7-2 4 3-1 4-31 5-61-10-92-14v-3z"/><path d="M491 446l36-7h2l-5 5-33 5v-3zM471 447c6-1 14-6 18-2l-18 5v-3zM474 466c14-4 28-11 43-9v1l-7 2c-12 2-24 4-35 9l-1-3zM515 482c13-1 24-11 36-10-10 7-22 11-34 14-6 11-18 27-32 26 12-7 25-16 30-30zM315 495c17 2 31 16 49 13 17 7 33 1 49-5-15 20-44 10-65 8-11-6-24-7-33-16zM425 521c14 0 25-9 36-17-6 11-26 25-36 17z"/></g><g fill="#bd8d52"><path d="M440 324c12 1 22-10 35-5 19 2 28 22 28 39l-1 2c-19-5-37 1-56-1l1 4c18 2 37-5 56 1 8 10 20 18 24 31l-9-14-3 2-5-4 1 3-12-2 1 2-8-1 3-4h-3l-6-2c-1 2-3 4-5 4l2-5c-5 0-13 2-15-4l-8 2c2 3 5 5 9 5v1l2 3-3 1 7 3 1 2 7 3 4-3c4 3 9 4 14 4l1-6 3 5 5-3c1 4 4 6 7 9-50 8-105-2-151 22l4-4-6-2c13-6 29-9 43-13 9-4 19 4 28-1 11-6 27-1 37-9-15 2-31 2-46 6-20-4-40 7-60 12l-2-1 4-3-2-5c3 2 6 0 8-1l-4-1c6 1 5-3 2-5 5-1 16-7 6-8 4-11 2-25 11-34h-3l-1-6 3-1 1 4c12-6 26-3 37-11l-3-4-3 2-4-4c9 3 16-5 24-5z"/><path d="M381 414c36-9 73-11 110-11l-4 2c13-1 27-2 40 2v3c-2 3-3 7-7 8l2-3-13-2 1 4-7-1-5 1-1-3-6 4-6-5c-42 4-84 6-125 16l1-3-13-1c12-1 23-4 33-11z"/></g><g fill="#d4ba90"><path d="M368 333c15-8 32-8 48-4l4 4 3-2 3 4c-11 8-25 5-37 11l-1-4-3 1 1 6h3c-9 9-7 23-11 34 10 1-1 7-6 8 3 2 4 6-2 5l4 1c-2 1-5 3-8 1l2 5-4 3 2 1-1 2c-5-1-9 1-13 2l4-2v-3l2-1-4-2c4-2 4-7 3-10l5-1v-2l-6-2 5-1 2-2h-4c3-3 8-6 6-12l6 2-2-3 2-6h-3l1 3-8-1 3-3-4 1 5-4c5-1 11 1 15-2l-5-1 4-1v-4h-4l6-3c0-3-1-6-3-7v-2l-8 3-1 3c-3-2-4-6-5-10l7-1-3-1v-3zM331 420c10-5 22-6 33-8l6 2-4 4c-11 4-24 5-35 2zM356 433l18-4 6 6c-7 2-7 7 0 7v3l-1 2 5 5c-1 4 3 5 6 6-2 6 4 12 9 8l1 4c3 0 7 1 9 3l-2 1c1 4 6 5 10 6l-3 1 3 3h-3l1 3 5-2-3 3 3 1a80 80 0 0 0-11 5c-4-3-9-4-14-4 3-4 9-3 13-4l-3-5-4 4c-3-5-9-5-14-8v-2l-10-7 2-4h-6l4-3-4-1c-2-3-4-4-7-4l-1 3c-4-2-1-5 1-7l-7-4 5-3-7-4 6-2-4-1 2-5h-5z"/></g><g fill="#e4d5b7"><path d="M350 347c6-5 10-12 18-14v3l3 1-7 1c1 4 2 8 5 10l1-3 8-3v2c2 1 3 4 3 7l-6 3h4v4l-4 1c-8-1-15-2-22 1l-3-3 5-2-4-3 5-1v-2l-6-2zM333 438c8 1 15-4 23-5h5l-2 5 4 1-6 2 7 4-5 3 7 4c-2 2-5 5-1 7l1-3c3 0 5 1 7 4l4 1-4 3h6l-2 4 10 7v2c5 3 11 3 14 8l4-4 3 5c-4 1-10 0-13 4-11-3-25-5-31-16-13-4-24-11-34-18 5-1 8-6 1-4l-1-4 3-2-2-5 4-2-2-1z"/></g><g fill="#efead7"><path d="M339 367l26-5-5 4 4-1-3 3 8 1-1-3h3l-2 6 2 3-6-2c2 6-3 9-6 12h4l-2 2-5 1 6 2v2l-5 1c1 3 1 8-3 10l4 2-2 1v3l-4 2-21 5-1-5 5-2c-7-1-1-11-8-14l7-2-3-5 3-6-5-2c4 0 9-1 10-5l-3-3h7l-4-5zM296 426c17-2 35-2 52-1l13 1-1 3c-21 6-46 10-64-3z"/></g><g fill="#a45e16"><path d="M460 372l8-2c2 6 10 4 15 4l-2 5c2 0 4-2 5-4l6 2h3l-3 4 8 1-1-2 12 2-1-3 5 4 3-2 9 14 1 2h-10l-1-1c-3-3-6-5-7-9l-5 3-3-5-1 6c-5 0-10-1-14-4l-4 3-7-3-1-2-7-3 3-1-2-3v-1c-4 0-7-2-9-5zM510 400h19l1 4-20-3v-1zM527 407h4v1c0 7-2 13-1 19-16 2-32 7-48 10-14 7-30 12-45 6-9 5-21 2-31 2l1 4c13 1 26-2 38 4 7 5 14 1 21-2l-2-2c8-3 15-7 23-9 10 9 28-2 41-3l-1 2-36 7v3l33-5-1 2c-4 2-7 6-6 11-15-2-29 5-43 9l1 3c11-5 23-7 35-9-4 8-14 6-19 13a84 84 0 0 1-66 18c-4-1-7 0-10 2l-3-1 8-3-3-1 3-3-5 2-1-3h3l-3-3 3-1c-4-1-9-2-10-6l2-1c-2-2-6-3-9-3l-1-4c-5 4-11-2-9-8-3-1-7-2-6-6l-5-5 1-2v-1-2c-7 0-7-5 0-7l-6-6c36-10 76-4 111-16l6 5 6-4 1 3 5-1 7 1-1-4 13 2-2 3c4-1 5-5 7-8v-3m-56 40v3l18-5c-4-4-12 1-18 2z"/><path d="M491 440c11-5 24-6 36-9l3 3c-13 1-26 6-39 6z"/></g></svg>