<svg xmlns="http://www.w3.org/2000/svg" viewBox="0 0 400 400"><g fill="#fff"><path d="M243.2 0h3.6c16 7.9 33.8 11.7 49.6 20.6C325.9 35.8 362.9 24 383.9 0h1.6a73.8 73.8 0 0 1-88.8 23.3C279.7 13.2 259.4 11 243.2 0z" opacity=".4"/><path d="M316 0h2.7c-4.2 5.4-9 10.3-14.7 14.1 3.6-5 7.3-10.1 12-14.1zM366.6 0h3.5c-8 7.2-18.8 9.8-28 15.1l-1.3-2.2c8.4-4.7 17.6-7.7 25.8-12.9zM143.8 8.7c16.2-3.4 28.4 11 31.9 25.3-9.8 29-58.6 28.7-64.3-2.4 4.4-13 17.7-24.2 32.4-22.9m-27.8 21c5.7.6 12 4 17.3.4 9.5.1 18.6 6.6 28.1 3.7l-6.7-3.2c4.8-3.3 11.4 2.3 16.5-1.6-6.4-25.2-48.4-23.5-55.2.7m.7 4.8l2.4 7.9c5.2 1.6 9.4 5 13.5 8.6l1.4-3.3c2 1.4 4.1 3 5.7 5 10.5 2 22-2 27.4-11.6a211 211 0 0 0-14 2l-1.5-3.8c-11.7-1.5-23-6-34.9-4.8zM0 35.2a49 49 0 0 1 29.6-19.1c0 2.3-.3 4.6-.6 7 14.8-7.5 34.1-4.6 45.5 7.5 5.8 16.7 20.6 38.6 2.6 53.2 2.3 2.9 3.9 7 .2 9.5A66.3 66.3 0 0 1 47 106c7.2-11 24.5-5.1 31.4-17.7-7-3.2-9.6 7.8-16 9 6-8 13.3-15.7 13.7-26.2-9.2 2.7-18.3 6-27.3 9.6l5.4 2.8c-1.7 8.8-5 17.3-11 24.1-7.9 5-17.6-.8-25.6 3 10.3 5 20.6 2.4 30-3-6.2 9.7-19 9.4-28.6 5.7-5.6 8-12.8 14.5-18.9 22V133c2-3.5 4.4-6.9 6.6-10.4A31.4 31.4 0 0 1 0 118v-2.8c2 2.7 5.3 4 8.4 5.2 10.5-8.2-5.5-9.6-8.4-16.3v-2.6c5.2 12.5 21.2 9 23-3.7C28 84.3 8.3 85.1 0 87V71.3c.9.7 1.8 1.3 2.8 1.7 9-10.4 17.5-21.9 20.3-35.6-7.9 1-16.4 1.2-23.1 6v-2.8C7.5 38 23.4 28.8 26.5 39c4.7-1.6 9.5-3 14.4-4l-1.6 5.5c6.3-.5 11.6-3.4 12.9-10-6.4-.8-12.8-.3-18.7 2.5l-.6-2c6-3.1 12.3-6 17.3-10.7C37 21.3 24.2 26.5 14 35l-1.1-2c5.1-4.3 12-7 14.3-13.9C16.7 23.3 6 29 0 39v-3.8m44.7-7.9c3.1.4 6.3.7 9.4 1.2 2.8-.8 5.5-1.6 8.2-2.7-5.1-4.5-12.7-2.1-17.6 1.5M50.9 38c6.6 7.2 17-.4 18.3-8.6-7.7-2-15.8.9-18.3 8.6m19.9 14.4c1.2-6.1 2-12.5.4-18.6-8.2 3-3.5 13.3-.5 18.6m5.5 4c5.7-4.8 1-13.3-1.5-18.7a30.6 30.6 0 0 0 1.5 18.7m-54.4-6.7c6.4-.2 9.4-6.6 13.1-10.8-5.7 1.5-13.5 3.4-13 10.8m7.7-.7c7.7-.4 8.5 6 5.3 10.9 9.4-1.9 17.4-8.4 17.2-18.7-8-1-17.8.7-22.5 7.8m20.1 6.6c3.2-.3 6.4-.3 9.5-.4l1 4 6-7.5c1.6-17.3-16.3-7-16.5 4m-31.5.7C14.4 66 .7 71.6 3.2 83.2c7 1.7 17.4-1.3 22 6 2.7 6.2-1.8 12.5-3.9 18 7.3 1.2 10.8-7.3 16-11h3c-3 4.6-7.3 8.1-11.5 11.7 15.2 3.2 19.7-11.7 23-23-9-3.3-18.4 3-27.7 2.1-1.3-12.1 10.3-22.3 9.6-34.6-5.6-.2-12.8-2.4-15.5 4m34.9 19.7c12.4-.4 22-9.6 19.8-22.3C61.4 55 57.3 67.1 53.1 76.1m19-6.9c3.6-.7 5.2-3.8 6.2-7l2.4-.2c-2 5.5-3.3 11.2-3.5 17 4.7-6.3 6.9-16.6 3.9-23.7-5 1.5-7.4 8.9-9 14m-37.6-6.8C30.5 69.6 29 78 25 85c17 1.6 32.3-10 32-27.8a51 51 0 0 0-22.4 5.3z" opacity=".4"/><path d="M119.7 27c2.6-5.2 12.3-14.7 17.4-7.6-5-.7-9.6 1.8-13.5 4.9 4.6.5 9.3.2 13.8 1.7-4.1 5-12.2.8-17.7 1zM154.4 16.7c5.7 1.6 12.2 3.8 13.9 10.1-4-2.4-7.6-5.4-11.9-7.3l2.8 4.4c-5-.5-10.3-.8-14.7-3.3 3.1-1.7 6.7-.3 10.1-.2l-.2-3.7zM396.7 30.1c1 1 2.2 1.9 3.3 2.8v9.6c-12 6.8-19.6 22.8-14.4 36 3.7-8.9 6-18.7 14.4-24.5v2.7c-9.4 11.2-22.6 36.8-3.3 44.7a104 104 0 0 1 3.3-19.7V104l-5-1.2c-4.2 6-9.5 11.3-12.7 18-2.5 8.5 11.4 21.2 17.7 11.7v3.5c-9.2 7.6-21.3-5-20.6-14.6 2.8-7 8-12.5 12.7-18.3a50.5 50.5 0 0 1-7.3-47.3c6.1-7.6 7.1-17.5 11.9-25.8zM120 35.3c7.5 1.2 14.9 3.7 22.6 4V41c-4.5 1-9.3 1-13.4-1.5L132 44c-5.6 0-9.6-4.1-12-8.7zM197.3 50.3c16-19.3 43.5-15 65.6-13.2 7.6 1.3 16.6.7 22.4 6.6 6-.5 13-3.8 18.3.4-3.2 5.3-11 1.8-16 4.4a90 90 0 0 1-55 22.4c-19.2 7.2-40.4 2.5-60-1 6-9.4 19-10 24.7-19.6m29.3-13.1c9.2 2.1 15.7 14.2 25.5 10.3-3-2.5-6.3-4.8-9.3-7.4 9.3-.8 13.6 12.4 23.5 6.8a11.1 11.1 0 0 0-6-4.3c0-1.3.2-2.5.4-3.8-11.4.7-22.8.2-34-1.6m-32 19.7c5.6 3.3 12.7 1.1 18-.8-.6-2.9-5.9-4.1-8.6-5.6 2.4-5.6 9.2 4 13.2 5.4 2.6-.7 5.1-1.5 7.6-2.4-3.3-1.4-5.9-4-7.1-7.4l2.6.4c4.8 8.5 15 5.7 22.7 4.3-3.5-7.3-14.2-5.8-17.3-12.6a44.2 44.2 0 0 0-31 18.7m67.4-16.7c3.2 2.1 6.3 4.5 9.4 6.7 3.5-.8 7.2-1.6 10.8-2.6-6-3.8-13.3-4.4-20.2-4.1M252 62.7c2.3-4 4.6-8 6.3-12.4C245 48.6 239.1 56.8 236 68c13.4-1 30-4.3 34.8-19.1-12.3-4-10.2 13.4-18.8 13.8m21.7-13.5c-2 3-3.8 6-5.6 9 7.4-1 21.7-11.8 5.6-9M220 70.1l-4.9-1.3.1-2.5c5.4-1.3 8.7-5.4 10.9-10.3-10.9-.4-16 6.2-22.1 13.1.9-3.3 2.4-6.3 4-9.3-9.1 3.2-18.3 6-27.2 9.7 8.6 2.3 17.6-.8 26.1 2.5 12.5 2 31.8-1.3 31-17.9-9.7-.5-13.7 9.1-18 16m-41-3.3C185 65.1 191 63.3 197 61l-3.2-2.9c-5 2.8-10.2 5.6-15 8.7zM0 54.9c2.4-4.2 6.2-7.3 10.2-9.9C8 50.1 3.8 53.8 0 57.6V55zM139.8 48.1c5.4.7 11 .8 16.2-1.3l-.3 2.9c-5 .2-13.8 4.7-16-1.6zM319 67.8c5.1-1.3 9.9-5 14.7-6 0 6 1 11.9.8 17.9-.8 15 20.5 14.1 24 27 .6 17-13.2 36-31.4 36-10.7-2.5-24-2.8-30.4-13.4-12.7-11-4.6-32.9 10.1-37.4 11.5-1.8 2.8-18.8 12.8-22.3l-.7-1.8m-.8 23.4l-2.4-3.2c-4.4 10.4-12.2 19.6-17.5 29.2-3.9-10 5.6-17.8 12.1-23.9-13.6 2.7-22 19.7-14.4 31.8l3 .7c1.4-3 1.8-7.3 5-9.2 1.4 5.1 0 10.6 1.9 15.5L304 134c3.5 1.8 7.3 3 11.2 3.3-1.6-8.5 4.3-14.8 9.4-20.6-.9 4.6-2.4 9-3.6 13.4l-3.3-1.8c-2.7 22 34.7 10 29.9-7.7-.9-2-1.8-3.9-2.5-5.9 4 1.6 5 6.1 6.8 9.6 4.2-6 3-13-1.8-18.3l2-2.1c-6.4-3.5-12.7-7.1-18.4-11.7 2.5 5 6 9.4 9.4 13.8-6.2-2.1-9.4-7.4-12.2-12.9-.3 7 9 13.9 5.4 20.2-2.9-5.5-5.2-11.2-7.2-17.1-4 2-8.5 1.7-6.7-4.8-4.3 9.3-9 21-11.1 29.3-2.6-16.6 15-32 11.5-50.1-4 6-3.4 13.7-4.7 20.6zM128.7 85.4l4-.6c14.4 12.4-4 26.5-11 37 6.1-5.3 14.2-5 21.4-7.6 1.3 3.8 3.8 7 6.1 10.2 7.6-1.2 4.1-9.7-2.3-8.2 3.7-7.4 9.6 2 10.1 6.6 15.3-2.5 20.4 14 28.9 23-17.9-17-50-14-66.3 4.7h-3.1a71.5 71.5 0 0 0-2.6 75.6c9.5 26.5 33.3 43.4 50.2 64.8 3.2 2.7 2.4 6.4 1.5 9.8 3.7 4.8 2 13-4.3 14.2 1-4.1 7.8-8.3 2.3-12.2 1.5 4.7-.8 8.4-5.8 9.2l2.3 3.3c-2.6 1.8-5.4 3.5-8.7 3.3l-3.7 3.2h-2.6a132 132 0 0 1 1.8-3.8l-5.1 1c1.1-6.8 11 .2 11.4-6.4A223 223 0 0 1 107 260c-10.7-16.6-28.6-29.2-32.4-49.6-5.7-14.7-6.5-30.7-8.8-46.2-.7-5.6-4.2-11.8-.7-17.2 4.3 1.8 8-.7 11.2-3.2 0 5.4-5.5 6.6-10 6.5 4 28.8 3.5 63 28.7 82.7A124.7 124.7 0 0 1 82 126c4.4 2.7 11 6.2 15.8 3 2.5-5.3-1.1-11.8-5.3-15.2-.8 4.8-1.9 9.6-3.5 14.3h-2.7c2.4-5.9 3.2-12.2 5-18.2 4 2.5 7 6.1 9 10.3 7.5-10.6 14.4-21.6 22-32.1 2.5 4.5 8.9 8.7 12.4 2.5l-6-5.1m-6.6 7.7c-21.2 21-28 50.5-22.7 79.3 1.6-31 24.1-53.7 37.8-79.1-4.7 3.2-10.5 3-15.1-.2m-3.5 33.4a101.2 101.2 0 0 0-17 57.4c5.2-24 17-56.5 45.8-58.6-5.2-14-21.1-4.4-28.8 1.2m.3 20.3a58 58 0 0 1 55.5-12c-2.9-6-9-11-16.2-9.7-15 2-32.7 6.2-39.3 21.7m-36-17.8c-10.5 37.9-5 81.2 20.7 111.6 6.6-1.2 12.5 1.4 17.7 5.3-6.3-11.2-11.3-23-16.1-35 .8 6.3 3 12.1 4.7 18.1-9.8-8.9-4.6-25.3-8.5-37.2a140.8 140.8 0 0 1-3.6-59.9c-5.2 0-10.7.4-15-3m13 109.3c-6.1-6.3-11.8-13-16.6-20.3 2.2 8.2 8.6 17.5 16.6 20.3m-.5 2.8c19.3 23 33.8 50.7 58.6 68.1 5-4 14-11.1 7.8-17.6-13.6-13.5-24.6-29.6-39-42l-.1 3.6c-4-1.8-8-3.5-10.9-6.8l6.6.4c-6.6-5.4-15.2-4.1-23-5.7z" opacity=".4"/><path d="M323.3 99.2h3c.6 3.6.7 7.5-.6 11.1a41.8 41.8 0 0 1-2.4-11zM230.3 119.2c7.2-7.8 18.1 0 27.4-2 4.4 5.6 11.4 7.6 17.5 11-2.2 2.9-5 5.3-7.7 7.8 1 4 2 8.3-.3 12.1.9 3.9 1.9 7.8 3 11.6 13.2-4 23.8 11 24.7 22.7 9.4 42.2-26 78.5-62.1 93.4-11 8.2-23.5 11.8-36 16.6 1.9 4.5 2.9 11.2-3.6 12 1.7-3.7 3.4-7.4 1.6-11.5-7.1 1.6-10.6 8.7-15.7 13.1 2.8-18.6 28.3-14 33.8-30.2 16-31.1 51.3-55.4 44.8-94.6-4-9.3 12.2-16.3 2.4-24.2-6-13.3-27.6-10.7-34.5-.3 3.3 8.2 1.5 14.6-5.6 20.2 9 4.8-3.5 9-4.9 15.1a84 84 0 0 1-18.8 5.6c3.4 6.2-1.8 9.7-8 9.7a86 86 0 0 1-3.4-29c4.1-3.2 11.1-1.2 14.3-4.9-4.4-3-11-10.3-4.7-14.7 6.4-3.5 7-16.4 15.8-14 .2-4.5.2-9-.3-13.5 2.3-3.3 6-3.3 9.6-2.4 1.8-4.8 6.2-6.5 11-5.2-.2-1.4-.2-3-.3-4.4m4.8-1.2c0 6.1-4.9 10-10.4 8.3-1.7 4.8-6.9 5.2-11.3 5.1.6 5.3.8 10.8-1.6 15.6a393 393 0 0 1-4.8-.7c-5.7 8.4-19.5 20.5-3.9 27l-4.4 4.3c-15.5-5-16 26-4 25.9-6.4-11.7 13.4-9 18.8-14 1.8-3 4-5.9 6.4-8.5-6.6-5.5 3.2-10.5 6.4-15a151 151 0 0 0-4.4-3.5c.8-6.3 4.3-12 5.3-18.3l-7.3.8c-.6-2.1-1.2-4.7 1.6-5.3l.5 3c4.5-4.1 9.4 1.6 7.5 6.4a66.2 66.2 0 0 1 20.9-3.4C259 147.4 261 158 268 162c-3.6-12.1-15.8-17.3-24-25 4.3.4 8.2 2.8 11.6 5.4-1.4-3.5-1-7.3-1-11-4.7-2.2-4.3-6.8-2.7-11a1587 1587 0 0 1-16.8-2.4m19.2 2.2l-1.2 5.7 4.7 6.3-1.9 5.6c2.6 3.3 5.5 6.9 10 7.2a114 114 0 0 0-1.6-10c10-3.3 5.4-11.3-3-9.3l-3.7-5.7-3.3.2m13.3 44.2c-13.4 9.7-5.6 28-8.5 41.8l6.1-1.1-.8 2.3-6.9 1.8c8.3-1 8 6.6-.1 4.2-13 26-34.7 46.3-47.4 72.5 9.1-4.8 17.8-10.4 27-15l-.9-7.3c2 1.3 2.6 3.5 3.5 5.6 1-1.7 2-3.4 2.6-5.2l2 4c13.4-8.1 26.3-18.3 34.9-31.6-3-1.3-7.1-1.8-8.3-5.4l7.2 2.1-3.1-5c2.5 1 5 2.5 7.8 3 11.7-13.4 12.6-32.4 10-49.1-4 2.9-8.6 5.2-13.6 3.4l1.6-3c-.9-.7-1.8-1.5-2.8-2.1 4.7.6 9.5.3 14-1.4-2.3-10.4-13.8-23.3-24.3-14.5zM355.3 167.5c3.8-11.7 21.9-1 19.4 8.6 2 22.2-33.8 25.4-39 5.3l3-.4 2.8 4.3a18 18 0 0 0 13.8-17.8m10.7-1.8c7.1 9.2 1.8 19.6-6.3 26 11.8-.3 17.5-21 6.3-26m-1.6 2.9c1.9 6.8-3 16-1.6 3.6-2 1.8-4.2 3.4-6.6 4.6-3.4 4-7.4 7.6-11.3 11 11.4 8.2 28.8-7.7 19.5-19.2z" opacity=".4"/><path d="M210.5 175.8c5.3 8.7-7.4 10.8-12.6 13.8 1.7-6.9 12.8-5.3 12.6-13.8zM2 219.8c11.7-13.6 33.2-15 45.2-1C59.4 227.2 58 242.2 59 255 42.6 267.3 20 262.4 8 245.8c-6.5-7.5-2.8-17.6-6-26m12-5.8c-8.4 5.3 5.8 9.7 9 13-2.6-.4-5-1-7.6-1.6 5.6 9.4 18.6 8.4 26.1 15.8l-.4 2c4.7 2.9 9.4 5.6 14.3 8 6.5-22-19.7-48.3-41.4-37.1m-8 13.8a27.6 27.6 0 0 0 15.5 26.8 11 11 0 0 1 7-1v4c5.3-.1 11.3-1.4 15.9 2l6.5-5.6-2.8-1.9c-4.6 3.6-11.5 4-15.5-.7h5.6L32 249c-1.9-2.3-5.3-3.8-5.7-7 6.8 2.4 12.5 7.3 19.5 9.1-1-1-2.9-3.3-3.8-4.4-8.3-.7-14.2-7.8-22-10.2-6.2 3.9-9.4-6-13.9-8.6z" opacity=".4"/><path d="M15.7 214.2c5.2.7 13.7-1.7 16.6 4.5-5.7-1.3-11.3-3.3-17.2-2l.6-2.5zM24 218c4.8 1.4 10 3.5 13 7.7-5-.8-10.3-3.2-13-7.7zM335.5 225.1c1.3-8.8 18.2-8.6 17.4 1.1-1.9 27.1-18.8 51-18 78.6 12 2.1 24.9 2.9 35 10.2a58.5 58.5 0 0 1 15 85h-2.6a56.4 56.4 0 0 0 10.8-48 55.4 55.4 0 0 0-60.9-43 26 26 0 0 1-24.8-9.7c-15.5-4.2-32-4.9-48-6-37.2 5-52.3 56.6-31.7 85.3-3.5-21.3-2.6-44.8 9.6-63.3 17.4-18.6 45.4-16.5 68.5-15.3l.1 2c-21.8-.1-47.3-3.3-64.8 13.1-13 16.1-13.6 38.5-12 58.3-1.3 12.2 10.4 19.5 18.5 26.6H244c-32.2-21-37.7-70.7-9.9-97.7 14.9-15.4 38-11.3 57.1-8.4 6.8 1.4 16.3 1 19.8-6.1 11.4-19.3 25-39.3 24.4-62.7m8.7-4.5c5 20.5-4.5 43.7-13.9 60.7 1.4-4.8 3.3-9.4 3.7-14.4-2.3 2.4-2.4 5.8-3.3 8.9l-2.8.1c2.2-8 6.5-15.4 8.7-23.4-7.4 10.7-9.5 24-17.9 34.3l7.2-4.9c.3 8-8.4 14.4-6 22.3 2.5-5.2 4.6-10.6 7.4-15.6l2 2.8 1.7-.3 2.1 8.2c.2-25.7 15.5-48 17.8-73.2.5-3.7-4.1-4.5-6.7-5.5m-4.2 25.7c6-6.6 4-17.2 1.5-24.8 0 8.3-.1 16.6-1.5 24.8m-1.9-22c.3 9.2-2 18-4.2 27 7.9-6.5 3.8-18.4 5.3-27h-1M312 302.1l4.7 1.7c.1-5.8 2.9-11 5.5-15.9-6.2 2.4-6.4 9.6-10.2 14.2zM45 228.9c7.2.8 10 10.7 7.7 16.8-5-.8-10.4-5.8-12.8-10.6 4.4 1.5 7.6 5 11.2 7.8.4-5.6-3-10-6.2-14zM11 240c4 4 7.6 8.6 13.2 10.4-5.6 3.4-12.9-4.6-13.1-10.5zM51.7 295.5c28.9-8 54 22.1 44 49.1-6.7 20.3-37.4 33.8-54.5 17-32.2-10.1-21.5-63.8 10.5-66.1m-17.5 11.7c-14.8 13.4-14 43.3 5.8 51.8-9.7-18.1-6.8-45.6 17.4-48-2-2.4-4.2-4.8-6.4-7 4.2-.5 6.5 3 8.4 6.1 4.2-2.3 6.3-7.7 11.6-7.9-6 4.9-7.9 17.6-17.9 13.5-22.5 3-18 33.8-6.7 46.9 12.7 10 29.6.8 40.8-7.4 15.1-17.4 7.9-52.3-16.9-56.6-12.3-2.8-27-1.3-36 8.6z" opacity=".4"/><path d="M266.2 391.4c-14.2-35 6.9-78.1 44.8-84.5-5.3 5.8-14 6.2-20.1 11a55.7 55.7 0 0 0-24.8 61c.3 4 3.7 9 .1 12.5zM335.8 310.8c12-.7 17.9 12.7 25.4 20 18 17.3 26.7 50 7 69.2h-2.4c27.4-29.9-1.7-72.3-30-89.2zM325 330c15.4 21.3 10.7 51-6.7 70h-2.4c18.7-19.6 18.5-46.5 9-70zM169.4 338.1c4.3 0 5.6 5.8 7.4 9 2-3 2.5-8.4 7-7.8-4.8 12.6 2 22 3 34.8-4.6-.6-6.5-5.5-9.3-8.6 5.4 9.8-2 15.6-11 17-11.8 14.6-42-3.3-30.9-19.9-3-8 8-10.5 8-17.9 8 1 20.2-10.8 23.7 1.1l1.7-1.8 3.4 2.6c-1-2.8-2.7-5.4-3-8.5m2 28.6l-1.7 4.3 5.6-.9c-1.5 6-7.2 2.7-11.3 1.7-5.6 7 2.4 11.2 6.4 4.4l4.5.9c3.2-3.6 2.2-10.7-3.5-10.4z" opacity=".4"/></g></svg>
