<svg xmlns="http://www.w3.org/2000/svg" viewBox="0 0 1000 1000"><style type="text/css">  
	.st0{fill:none;stroke:#ffd;stroke-width:11;stroke-linecap:round;stroke-linejoin:round;stroke-miterlimit:10;}
	.group {opacity:0.35;}
</style>
<g class="group"><path class="st0" d="M82.7 221.9c-5.8 13.3-16.3 15.2-29 11.1 -5 6.6-4.1 14.7-2.3 20.6 8.4 26.9 7.9 55 12.3 82.5 3.5 22.3 6.5 44.8 13.4 66.3 5.2 16.3 12.7 31.4 15.1 49 2.2 15.8 15.2 28 25.3 40.5 35.9 44.3 71.8 88.6 103.8 135.8 18.8 27.6 41.3 51.7 66.4 73.7 6.4 5.6 12.4 11.9 17.2 18.8 5.2 7.5 12.3 10.6 20.4 12.9"/><path class="st0" d="M645.8 426.9c-15.5 32.3-33 62.9-57.4 89.9 -21.9 24.1-35.1 55.1-55.8 80 -14.7 17.6-21.8 39.1-35.2 57 -3.8 5.1-6.9 8.3-13.2 10.1 -13.7 3.9-27.6 8.2-40.4 14.5 -16.5 8.2-28 22.2-36.2 38.7"/><path class="st0" d="M309.4 161.3c-4.3 6.3-11.7 4.4-17.4 5.5 -34.8 6.6-60.4 25.8-76.1 56.8 -9.6 19.1-24.3 35.3-30.8 56.1 -7.6 24.1-16.7 47.7-14.3 73.7"/><path class="st0" d="M105.8 168.5c-13.2 25.4-12.1 53.3-14.9 80.8 -2.4 24.6-2.3 49.1-2.5 73.7 -0.2 34.6 11 66.3 22.5 98.4 9.3 25.8 21.3 49.3 38.2 70.5 3.5 4.4 6.5 8.6 5.7 14.5"/><path class="st0" d="M165 356.2c5.3 9.6 2.3 20.5 4.7 30.2 12.3 49.9 30.5 97.5 57.4 141.6 1.8 2.9 4.4 6 3 10.1"/><path class="st0" d="M159.2 515c7.6 5 13.9 12.2 25 5.1 2.6-1.7 12.7 2 18.2 5.2 20.5 12 41.5 22.3 57 42.6 22.4 29.5 47.9 56.7 74.2 83 9.3 9.3 18.4 19.2 25.4 31.1 6.3 10.7 0.8 15.7-3.2 23.6 -5.1 10.1-16.7 15-19.6 27.2 -1.5 6.4 0.2 10.2 3.9 14.7 -3.3 3.8-5.8 8-10.6 9.9"/><path class="st0" d="M254.5 38.6c11.4 3.8 13 16.6 21.3 23.5 2 1.6 1.4 8.2-1 12.7 -7.8 14.5-14.3 29.6-26 41.9 -20.2 21.6-36.8 46.3-50.1 72.3 -16.2 31.7-28.6 65.4-35.3 100.8 -1.5 8.2 3.8 17.5-4.3 24.6"/><path class="st0" d="M664.6 428.4c-5.9-0.4-12.1 1.3-18.5-3 -1.9-10.6 2-21.2 3.1-31.6 2.2-22.7 4.4-45.5 1.8-67.8 -3.1-26.5 26.5-53.9 48.3-57.6 4.6-0.8 9.3-0.6 14.6 2.3 22 12.1 37.4 30.1 42.7 53.9 9.7 44 10.8 88.5-7.3 131.1 -1.8 4.3 0.6 10.6-5.2 13.2"/><path class="st0" d="M533.2 208.9c0.3 3.5-1.5 7.7 2.4 9.8 6.4 2.4 7.6-4.8 12.4-5.6 5.5 0.5 7.3 6.2 9.8 7.8 1.1 20.6-18.7 33.9-15.9 54.6 3.5 4.1 11.9 3.4 11.5 13 -8.9 9.7-15.5 22.8-27.6 30.5 0.6 9.5 8.8 8.9 14 14.1 -11.9 7.7-22.4 17.3-25.5 31.1 -12.2 7-27 3.3-36.3 14.8 -1.7 2.1-8.3 0.4-12.6 0.3 -6.5-0.2-10.8 3-12.9 8.7 -1.9 5.3 2.2 8.4 5.7 11.5 -3.3 13.4-18.7-0.9-22.1 12 -7.5-13.4-11.1-54.2-8.2-84.8 10.9-2.3 20.4-11.8 33.4-6.4 4.4-2.6 9.1-4.9 12-11.1 -8.6-7.1-18-13.5-25-22.5 3.3-4.5 0-9.4-0.3-14.1 15.8-9 24.5-24.1 33.3-39 7.2-12.2 7.2-12.3 20.2-8.2 11.4-14.3 4.1-30 2.9-45.2 2.3-4.8 8.5-3.5 10.4-7.6 11.2 3.8 20 7.2 24.7-8.1 2.8-9.1 12.2-7.1 20.4-1.6 3-6.6 18.8-6.8 6.5-18.7"/><path class="st0" d="M673.2 279.7c-13.1-18.5-22-40.7-44.8-50.4 -6.4-2.7-13-6.3-20.3-0.3 -6.9 5.7-15.1-2.8-23.1 1.3 -9.6 4.9-20.1 7.9-30.2 11.8"/><path class="st0" d="M726.6 493.3c-3.2 13.3-13.2 22.3-21.8 31.6 -30.6 32.7-61.8 65.6-103.9 83.5 -28.8 12.2-55 27.8-81 44.6 -6.2 4-14.5 10.8-24.2 6.3"/><path class="st0" d="M121.7 165.6c8.8-14.1 7.4-31.2 12.4-46.5 17.7 9 27.7 34.6 24.1 52.4 -2.7 13.7-4.3 28.2-5.2 41.8 -2.2 33.5-7.8 67.9 4.7 101 3.4 8.9 0.1 18.4 2.7 27.5 1.1 3.8 0.9 8 3.1 11.5"/><path class="st0" d="M396 195.9c-4.8-0.9-9.6-1-14.6-2.4 -48.3-13-94.7-9.3-136.9 19.8 -10.1 6.9-19.9 14.5-27.5 24.4"/><path class="st0" d="M230 50.1c-8.7 16.3-21.9 29.2-32.1 44.5 -12.5 18.8-21.7 39.8-37.2 56.5"/><path class="st0" d="M309.4 158.4c-8.2-7.3-15.4-15.2-17.9-26.9 -3.6 4.1-8.5 3.6-10.9 3.4 -21.2-2.2-36.4 9.5-52.1 20.6 -1.8 1.3-4.7 1.1-7.1 1.6"/><path class="st0" d="M137.6 513.6c6.7-1.3 13.9 4.8 22-2.2 -23.8-11.5-37.6-31.8-52.3-51.2 -5-6.6-4.3-17.3-14.5-20.2"/><path class="st0" d="M608.3 200.3c23.4 7.3 40.5 23 54.7 42 7.4 10 20.8 16.5 20.4 31.6"/><path class="st0" d="M570.7 142.5c3.2-3 6.5-6 10.3-9.6 16.7 9.4 35.9 5.6 53.1 8.5 0.6 9.9-1 16.7-5.6 23.1 2.4 5.9 9 7.9 13.8 13.5 3.7 6.6-1.8 12.7-3 17.3 2.4 21.8 20.8 25 34 34.8 -3.5 8.9 10.2 16.1 4.3 26.5"/><path class="st0" d="M422 220.5c-12.1-5.8-19-16.9-25.9-27.5 -11-17.2-21.2-34.7-44.9-36.1 -13.2-0.7-26.1 0.6-39 2.9"/><path class="st0" d="M674.7 226.2c5.4-5.9 0.8-13.9 4.7-20.8 -2.3-3.5-4.7-7.4-7.5-11.7 8.9-6.2 18.2-12.6 24.5-22.4 -11.5-5.9-20.2-19.4-35.8-11.6 -5.4-11.5-9.4-23.3-24.8-18.8"/><path class="st0" d="M172.2 413.9c-3 22.7 7.8 42.5 13 63.5"/><path class="st0" d="M110.2 169.9c13.4 11.8 29 9.8 44.8 7.2"/><path class="st0" d="M230 57.3c17.6 12.9 26.1 13.2 37.5 1.4"/><path class="st0" d="M359.9 707c11 16.7 10.2 20.6-7.2 36.1"/><path class="st0" d="M749.7 331.6c-11.9 3.8-23.8 6.8-36.1 1.4"/><path class="st0" d="M749.7 337.4c-9 7.2-19.5 7.7-30.3 7.2"/><path class="st0" d="M501.4 323c0 4.3 0 8.7 0 13 -8.1 11.7-27.1 5.4-33.2 20.2"/><path class="st0" d="M335.4 730.1c-5.1-1.2-8 1.7-10.9 5.3 4.1 9.6 5.1 17.3-7.8 19.4 -6.1 1-6.7 9.8-13 11.4"/><path class="st0" d="M693.4 491.9c8.7 4.7 17.6 8.7 27.4 10.1"/><path class="st0" d="M309.4 131c3.1 0.1 3.7-3.1 6.8-4.8 5 5.6 10.1 11.5 13.8 15.6 3.2 7.3-2 9.8-3.2 13.7"/><path class="st0" d="M225.7 552.5c-7.5-6.9-15.7-12.6-26-14.4"/><path class="st0" d="M456.7 676.7c0.9 7.8-4.4 16.8 4.3 22.9 -2.2 5.1-4.6 9.8-10.1 11.8"/><path class="st0" d="M705 483.2c5.9 7.6 14 9.6 24.2 8.3 4.1-6.1 8.7-13 13.3-19.9"/><path class="st0" d="M352.7 715.7c3.9 13.4 0 19.2-11.5 17.3"/><path class="st0" d="M648.7 412.5c6.3 0.6 13 4.8 18.8-1.4"/><path class="st0" d="M583.7 593c1.9 6.3 3.9 12.5 5.8 18.8"/><path class="st0" d="M309.4 756.1c-2-1.3-2.8-4.3-6-4.4 -3.6 1.9-6.7 5.4-11.3 5.9"/><path class="st0" d="M745.4 318.6c-5 1.4-8.7 6.2-14.4 5.8"/><path class="st0" d="M599.6 595.8c-1.4 4.1 1.7 6.8 2.9 10.1"/></g></svg>