<svg xmlns="http://www.w3.org/2000/svg" version="1.1" x="0" y="0" width="100" height="100" viewBox="0 0 100 100" enable-background="new 0 0 100 100" xml:space="preserve"><defs><rect x="0.4" y="0.4" width="98.9" height="99.2"/></defs><clipPath><use overflow="visible"/></clipPath><g clip-path="url(#SVGID_2_)"><defs><rect x="0.4" y="0.4" width="98.9" height="99.2"/></defs><clipPath><use overflow="visible"/></clipPath><path clip-path="url(#SVGID_4_)" fill="#FFFFFF" d="M96.5 77.6c-0.2 0-0.3 0-0.5 0h-1.8 -0.4c-0.1 0-0.3 0-0.4-0.1 -0.1 0-0.1-0.1-0.1-0.2 0-0.1 0-0.1 0-0.2s0-0.1 0.1-0.2c0-0.1 0.1-0.1 0.1-0.2 0.2-0.4 0.6-0.7 1-0.9 0.1 0 0.1 0 0.2 0 0.1 0 0.1 0 0.2 0 0 0 0.1 0 0.1 0 0 0 0.1 0 0.1 0 0.4 0 0.8 0.1 1 0.2 0.2 0.2 0.4 0.4 0.6 0.7 0 0.1 0.1 0.2 0.1 0.3 0.1 0.2 0.1 0.3 0 0.4C96.8 77.6 96.6 77.6 96.5 77.6M99.2 78.3c0-0.1 0-0.2 0-0.3 0-0.1 0-0.2 0-0.3 0-0.1-0.1-0.3-0.1-0.4 0-0.1-0.1-0.3-0.1-0.4 0-0.1-0.1-0.2-0.1-0.3 0-0.1-0.1-0.2-0.1-0.3 -0.1-0.1-0.2-0.3-0.2-0.4 -0.1-0.1-0.2-0.2-0.2-0.4 -0.1 0-0.1-0.1-0.1-0.1 -0.1-0.1-0.2-0.2-0.3-0.2 -0.1-0.1-0.2-0.2-0.3-0.2 -0.3-0.2-0.7-0.4-1-0.5s-0.9-0.2-1.4-0.2c-0.1 0-0.2 0-0.2 0s-0.2 0-0.2 0c-0.2 0-0.3 0.1-0.5 0.1 -0.2 0-0.3 0.1-0.5 0.1 -1.1 0.5-1.9 1.2-2.3 2.4 -0.1 0.1-0.1 0.3-0.1 0.5 0 0.2-0.1 0.3-0.1 0.5l0 0.4v0.2c0 0.1 0 0.1 0 0.2 0 0.1 0 0.1 0 0.2 0 0.1 0 0.3 0 0.4 0 0.1 0 0.3 0.1 0.4 0 0 0 0.1 0 0.1 0 0 0 0.1 0 0.1 0.1 0.1 0.1 0.3 0.1 0.4 0 0.1 0.1 0.2 0.1 0.4 0.2 0.4 0.4 0.7 0.7 1 0.3 0.3 0.6 0.5 0.9 0.7 0.1 0.1 0.2 0.1 0.3 0.1 0.1 0 0.2 0.1 0.3 0.1 0.1 0.1 0.2 0.1 0.3 0.1 0.1 0 0.2 0.1 0.4 0.1 0.1 0 0.1 0 0.2 0 0.1 0 0.1 0 0.2 0 0.1 0 0.1 0 0.2 0 0.1 0 0.1 0 0.2 0 0.1 0 0.1 0 0.2 0 0.1 0 0.1 0 0.2 0h0.2c0 0 0.1 0 0.1 0 0 0 0.1 0 0.1 0 0.1 0 0.3-0.1 0.4-0.1 0.1 0 0.2 0 0.4-0.1 0.4-0.1 0.8-0.3 1.1-0.5 0.3-0.2 0.6-0.5 0.8-0.8 0.1-0.1 0.2-0.2 0.2-0.4s0.1-0.3 0.2-0.4c0-0.1 0-0.1 0-0.2 0-0.1 0-0.1-0.1-0.1 0 0-0.1-0.1-0.2-0.1h-0.2c-0.1 0-0.1 0-0.2 0s-0.1 0-0.2 0c-0.1 0-0.3 0-0.5 0 -0.2 0-0.3 0-0.4 0.1 -0.1 0-0.2 0.1-0.2 0.2 -0.1 0.1-0.1 0.1-0.2 0.2 -0.1 0.1-0.2 0.2-0.3 0.3 -0.1 0.1-0.3 0.2-0.4 0.2 -0.1 0-0.2 0.1-0.3 0.1 -0.1 0-0.2 0.1-0.3 0.1h-0.1c-0.1 0-0.2 0-0.4 0 -0.1 0-0.3 0-0.4 0 -0.1 0-0.2-0.1-0.3-0.1s-0.2-0.1-0.3-0.1c-0.2-0.1-0.4-0.3-0.5-0.4 -0.1-0.2-0.2-0.4-0.3-0.6 0-0.1 0-0.1 0-0.2 0-0.1 0-0.1 0-0.2 0-0.1 0-0.1 0-0.2 0-0.1 0-0.1 0.1-0.1 0 0 0.1-0.1 0.2-0.1 0.1 0 0.1 0 0.2 0h0.2 3.9c0.1 0 0.2 0 0.3 0 0.1 0 0.2 0 0.4 0 0.1 0 0.2 0 0.3 0 0.1 0 0.2 0 0.2-0.1 0.1 0 0.1-0.1 0.1-0.2 0-0.1 0-0.2 0-0.3V78.3zM90.1 74.2c-0.1 0-0.2 0-0.2 0 -0.1 0-0.2 0.1-0.3 0.1 -0.1 0-0.2 0.1-0.3 0.1 -0.1 0.1-0.2 0.1-0.3 0.2 -0.1 0.1-0.2 0.1-0.3 0.2 0 0-0.1 0.1-0.1 0.1 0 0-0.1 0.1-0.1 0.1 -0.1 0.1-0.1 0.1-0.2 0.2 0 0.1-0.1 0.1-0.2 0.2 0 0 0 0-0.1 0 0 0 0 0-0.1 0 -0.1 0-0.1 0-0.1-0.1 0-0.1 0-0.2-0.1-0.2 0-0.1 0-0.2 0-0.3 0-0.1 0-0.2-0.1-0.2 -0.1-0.1-0.1-0.1-0.2-0.2 -0.1 0-0.2 0-0.3 0h-0.8c-0.1 0-0.3 0-0.4 0 -0.1 0-0.2 0.1-0.2 0.2 0 0.1-0.1 0.1-0.1 0.2v0.3 1.2 4.5 1.1c0 0.1 0 0.2 0 0.3 0 0.1 0 0.2 0.1 0.2 0 0.1 0.1 0.1 0.1 0.1 0.1 0 0.1 0 0.2 0.1h0.2c0.1 0 0.1 0 0.2 0h0.7 0.2c0.1 0 0.1 0 0.2 0h0.1c0.1 0 0.1 0 0.2 0 0 0 0.1 0 0.1-0.1 0.1-0.1 0.1-0.2 0.1-0.3 0-0.1 0-0.2 0-0.4v-1.4 -1c0-0.1 0-0.2 0-0.3 0-0.1 0-0.2 0-0.2v-0.3c0 0 0-0.1 0-0.1 0 0 0-0.1 0-0.1 0-0.1 0-0.2 0-0.2 0-0.1 0-0.2 0-0.2 0-0.1 0-0.2 0.1-0.3 0-0.1 0.1-0.2 0.1-0.3 0.1-0.1 0.1-0.2 0.2-0.3 0.1-0.1 0.1-0.2 0.2-0.3 0.1-0.1 0.2-0.2 0.4-0.3s0.3-0.2 0.5-0.2c0.1 0 0.1 0 0.2 0 0.1 0 0.1 0 0.2 0 0.1 0 0.2 0 0.3 0 0.1 0 0.2 0 0.3 0 0.1 0 0.2 0 0.3 0 0.1 0 0.1-0.1 0.2-0.1 0-0.1 0.1-0.2 0.1-0.4 0-0.1 0-0.3 0-0.4v-0.6c0-0.2 0-0.4-0.1-0.4 -0.1-0.1-0.1-0.1-0.2-0.1 -0.1 0-0.2 0-0.3 0C90.3 74.2 90.2 74.2 90.1 74.2M76.5 74.4c-0.1 0-0.2 0.1-0.2 0.1 -0.1 0.1-0.1 0.2-0.1 0.4 0 0.2 0 0.4 0 0.5v2.2c0 0.4 0 0.8 0 1.1 0 0.4 0 0.7 0 1.1s0.1 0.7 0.1 1c0.1 0.3 0.2 0.6 0.3 0.8 0.2 0.4 0.5 0.6 0.9 0.8 0.1 0 0.1 0 0.1 0.1 0 0 0.1 0 0.1 0.1 0.1 0 0.2 0.1 0.4 0.1 0.1 0 0.2 0 0.4 0.1 0.1 0 0.1 0 0.2 0s0.1 0 0.2 0c0 0 0.1 0 0.2 0 0.1 0 0.2 0 0.2 0 0 0 0.1 0 0.1 0 0 0 0.1 0 0.1 0 0.1 0 0.2 0 0.2 0 0.1 0 0.2 0 0.2 0 0.3-0.1 0.6-0.2 0.9-0.4 0.1 0 0.1-0.1 0.1-0.1 0 0 0.1-0.1 0.1-0.1 0.1 0 0.1-0.1 0.2-0.1 0.1-0.1 0.1-0.1 0.2-0.1 0 0 0 0 0.1 0 0 0 0.1 0 0.1 0 0 0 0.1 0 0.1 0.1 0 0.1 0 0.1 0.1 0.2 0 0.1 0 0.1 0 0.2 0 0.1 0 0.1 0.1 0.1 0.1 0.1 0.1 0.1 0.2 0.1 0.1 0 0.2 0 0.3 0h0.9c0.1 0 0.2 0 0.3 0s0.2-0.1 0.2-0.1c0-0.1 0.1-0.1 0.1-0.2v-0.3 -1.1V76.3v-1.2c0-0.1 0-0.3 0-0.4 0-0.1-0.1-0.2-0.1-0.2 -0.1 0-0.1-0.1-0.2-0.1h-0.3 -0.8c-0.1 0-0.3 0-0.4 0 -0.1 0-0.2 0.1-0.2 0.2 0 0.1-0.1 0.1-0.1 0.2v0.3 1 1.9c0 0.3 0 0.6 0 0.9 0 0.3 0 0.5-0.1 0.8s-0.1 0.4-0.2 0.6c-0.1 0.2-0.3 0.3-0.5 0.5 -0.1 0.1-0.3 0.2-0.5 0.2 0 0-0.1 0-0.1 0 0 0-0.1 0-0.1 0 0 0-0.1 0-0.1 0s-0.1 0-0.2 0c-0.1 0-0.1 0-0.1 0 0 0-0.1 0-0.1 0 -0.3-0.1-0.6-0.3-0.7-0.5 -0.2-0.2-0.3-0.5-0.3-0.8 0-0.3 0-0.7 0-1.1v-2.4 -1.1c0-0.1 0-0.2 0-0.3s0-0.2-0.1-0.3c0-0.1-0.1-0.1-0.2-0.1 -0.1 0-0.2 0-0.3 0H76.7C76.6 74.4 76.6 74.4 76.5 74.4M71.8 71.9c0 0-0.1 0-0.1 0 -0.1 0-0.2 0.1-0.2 0.2 0 0.1 0 0.1 0 0.2v0.3 1c0 0.1 0 0.2 0 0.3 0 0.1 0 0.2-0.1 0.3 -0.1 0.1-0.1 0.2-0.3 0.2 -0.1 0-0.3 0-0.4 0 -0.1 0-0.1 0-0.1 0 0 0-0.1 0-0.1 0 -0.2 0-0.3 0.1-0.3 0.2 0 0.1 0 0.3 0 0.5v0.3c0 0.1 0 0.2 0.1 0.2 0 0.1 0.1 0.1 0.2 0.1 0.1 0.1 0.3 0.1 0.5 0s0.3 0 0.4 0c0.1 0 0.2 0.1 0.2 0.3 0 0.1 0 0.1 0 0.2 0 0.1 0 0.1 0 0.2v0.8 2.4 0.6c0 0.1 0 0.1 0 0.2 0 0.1 0 0.1 0 0.1v0.2c0 0 0 0 0 0.1 0 0 0 0.1 0 0.1 0 0.1 0 0.1 0 0.1 0 0 0 0.1 0 0.1 0.1 0.2 0.2 0.5 0.3 0.7 0 0 0 0 0.1 0.1s0.1 0.1 0.1 0.1c0 0 0.1 0.1 0.1 0.1 0 0 0.1 0.1 0.1 0.1 0.1 0.1 0.2 0.1 0.3 0.1 0.1 0 0.2 0.1 0.3 0.1 0.1 0 0.1 0 0.2 0 0.1 0 0.1 0 0.2 0 0.1 0 0.1 0 0.2 0 0.1 0 0.1 0 0.2 0h0.2c0 0 0.1 0 0.1 0 0.1 0 0.1 0 0.2 0 0.1 0 0.1 0 0.2 0 0.1 0 0.1 0 0.2 0 0 0 0.1 0 0.1 0 0 0 0.1 0 0.1 0h0.2c0.1 0 0.1 0 0.1 0 0 0 0.1 0 0.1 0 0.2-0.1 0.3-0.2 0.3-0.4s0-0.4 0-0.6v-0.3c0-0.1 0-0.2-0.1-0.2 -0.1-0.1-0.1-0.1-0.2-0.1 -0.1 0-0.2 0-0.3 0h-0.2c0 0-0.1 0-0.1 0 0 0-0.1 0-0.1 0 -0.1 0-0.2 0-0.3-0.1 -0.1 0-0.2-0.1-0.2-0.1 -0.1-0.1-0.2-0.3-0.2-0.5 0-0.2 0-0.4 0-0.7V77.7v-1c0-0.1 0-0.1 0-0.2 0-0.1 0-0.1 0-0.2 0-0.1 0.1-0.2 0.1-0.2 0-0.1 0.1-0.1 0.2-0.1 0 0 0.1 0 0.1 0 0 0 0.1 0 0.1 0 0 0 0.1 0 0.1 0 0.1 0 0.1 0 0.1 0 0.2 0 0.4 0 0.6 0 0.2 0 0.3-0.1 0.3-0.3 0-0.1 0-0.1 0-0.2s0-0.1 0-0.2c0-0.2 0-0.3 0-0.5 0-0.1-0.1-0.2-0.2-0.3C75.1 74.4 75 74.4 74.9 74.4h-0.2c-0.2 0-0.4 0-0.6 0 -0.2 0-0.3-0.1-0.4-0.2 0-0.1-0.1-0.1-0.1-0.2 0-0.1 0-0.1 0-0.2v-0.2c0-0.1 0-0.1 0-0.2 0-0.1 0-0.1 0-0.2v-0.7 -0.2c0-0.1 0-0.1 0-0.2 -0.1-0.1-0.1-0.2-0.3-0.2 -0.1 0-0.3 0-0.4 0h-1.1C71.9 71.9 71.8 71.9 71.8 71.9M67.3 71.2c0 0-0.1 0-0.1 0 0 0-0.1 0-0.1 0.1 0 0-0.1 0.1-0.1 0.1 -0.1 0.1-0.1 0.2-0.1 0.4 0 0.2 0 0.4 0 0.5v2.2 6 1.4c0 0.1 0 0.2 0 0.3 0 0.1 0 0.2 0.1 0.2 0.1 0.1 0.1 0.1 0.2 0.1 0.1 0 0.2 0 0.3 0h0.8c0.1 0 0.2 0 0.2 0 0.1 0 0.2 0 0.2 0 0.1 0 0.2-0.1 0.3-0.2 0.1-0.1 0.1-0.2 0.1-0.4 0-0.2 0-0.3 0-0.4v-2.4 -5.7 -1.4c0-0.1 0-0.3 0-0.4 0-0.1 0-0.2-0.1-0.3 -0.1-0.1-0.1-0.1-0.2-0.1 -0.1 0-0.2 0-0.3 0h-1.2C67.3 71.2 67.3 71.2 67.3 71.2M57.8 74.4c-0.1 0-0.2 0.1-0.2 0.1 -0.1 0.1-0.1 0.2-0.1 0.4 0 0.2 0 0.4 0 0.5v2.2c0 0.4 0 0.8 0 1.1 0 0.4 0 0.7 0 1.1s0.1 0.7 0.1 1c0.1 0.3 0.2 0.6 0.3 0.8 0.2 0.4 0.5 0.6 0.9 0.8 0.1 0 0.1 0 0.1 0.1 0 0 0.1 0 0.1 0.1 0.1 0 0.2 0.1 0.4 0.1 0.1 0 0.2 0 0.4 0.1 0.1 0 0.1 0 0.2 0 0.1 0 0.1 0 0.2 0 0 0 0.1 0 0.2 0 0.1 0 0.2 0 0.2 0 0 0 0.1 0 0.1 0s0.1 0 0.1 0c0.1 0 0.2 0 0.2 0 0.1 0 0.2 0 0.2 0 0.3-0.1 0.6-0.2 0.9-0.4 0.1 0 0.1-0.1 0.1-0.1 0 0 0.1-0.1 0.1-0.1 0.1 0 0.1-0.1 0.2-0.1 0.1-0.1 0.1-0.1 0.2-0.1 0 0 0 0 0.1 0s0.1 0 0.1 0c0 0 0.1 0 0.1 0.1 0 0.1 0 0.1 0.1 0.2 0 0.1 0 0.1 0 0.2 0 0.1 0 0.1 0.1 0.1 0.1 0.1 0.1 0.1 0.2 0.1s0.2 0 0.3 0h0.9c0.1 0 0.2 0 0.3 0 0.1 0 0.2-0.1 0.2-0.1 0-0.1 0.1-0.1 0.1-0.2v-0.3 -1.1V76.3v-1.2c0-0.1 0-0.3 0-0.4 0-0.1-0.1-0.2-0.1-0.2 -0.1 0-0.1-0.1-0.2-0.1h-0.3 -0.8c-0.1 0-0.3 0-0.4 0 -0.1 0-0.2 0.1-0.2 0.2 0 0.1-0.1 0.1-0.1 0.2v0.3 1 1.9c0 0.3 0 0.6 0 0.9 0 0.3 0 0.5-0.1 0.8 0 0.2-0.1 0.4-0.2 0.6 -0.1 0.2-0.3 0.3-0.5 0.5 -0.1 0.1-0.3 0.2-0.5 0.2 0 0-0.1 0-0.1 0 0 0-0.1 0-0.1 0 0 0-0.1 0-0.1 0 -0.1 0-0.1 0-0.2 0s-0.1 0-0.1 0c0 0-0.1 0-0.1 0 -0.3-0.1-0.6-0.3-0.7-0.5 -0.2-0.2-0.3-0.5-0.3-0.8 0-0.3 0-0.7 0-1.1v-2.4 -1.1c0-0.1 0-0.2 0-0.3 0-0.1 0-0.2-0.1-0.3 0-0.1-0.1-0.1-0.2-0.1 -0.1 0-0.2 0-0.3 0h-1.2C57.9 74.4 57.8 74.4 57.8 74.4M52 74.2c-0.1 0-0.2 0-0.2 0 -0.2 0-0.3 0.1-0.5 0.1 -0.2 0-0.3 0.1-0.5 0.1 -0.6 0.2-1 0.5-1.4 0.9 -0.4 0.4-0.7 0.8-0.9 1.4 -0.1 0.2-0.1 0.3-0.1 0.5 0 0.2-0.1 0.4-0.1 0.6 0 0.1 0 0.1 0 0.2 0 0.1 0 0.1 0 0.2 0 0 0 0.1 0 0.1 0 0 0 0.1 0 0.1 0 0.1 0 0.1 0 0.2s0 0.1 0 0.2v0.3c0 0.1 0 0.2 0 0.2s0 0.2 0 0.2c0 0.1 0 0.1 0 0.1 0 0 0 0.1 0 0.1 0 0.1 0.1 0.2 0.1 0.3 0 0.1 0.1 0.2 0.1 0.3 0.2 0.5 0.5 0.9 0.8 1.3 0.3 0.3 0.8 0.6 1.3 0.8 0.1 0 0.2 0.1 0.3 0.1s0.2 0.1 0.3 0.1c0.1 0 0.1 0 0.2 0 0.1 0 0.1 0 0.2 0 0.1 0 0.1 0 0.2 0 0.1 0 0.1 0 0.2 0 0.1 0 0.1 0 0.2 0 0.1 0 0.2 0 0.2 0h0.2c0.1 0 0.1 0 0.2 0s0.1 0 0.2 0c0.1 0 0.2-0.1 0.4-0.1 0.1 0 0.2 0 0.3-0.1 1-0.3 1.7-0.9 2.1-1.7 0.1-0.3 0.3-0.6 0.4-0.9 0-0.1 0-0.2 0-0.2s0-0.1-0.1-0.2c0 0-0.1 0-0.1 0 0 0-0.1 0-0.1 0H55.8c-0.1 0-0.1 0-0.2 0 -0.1 0-0.2 0-0.2 0 -0.1 0-0.3 0-0.5 0s-0.4 0-0.5 0.1c-0.1 0.1-0.2 0.1-0.2 0.2s-0.1 0.2-0.1 0.3c0 0.1 0 0.1-0.1 0.2 0 0.1-0.1 0.1-0.1 0.2 -0.2 0.3-0.4 0.5-0.7 0.6 -0.1 0-0.1 0-0.2 0.1 -0.1 0-0.1 0-0.2 0.1H52.5c0 0-0.1 0-0.1 0h-0.1c-0.2 0-0.3 0-0.5-0.1 -0.1 0-0.2-0.1-0.4-0.1 -0.1 0-0.1-0.1-0.2-0.1 -0.2-0.1-0.3-0.3-0.4-0.5 -0.1-0.2-0.2-0.4-0.3-0.7 0-0.1 0-0.1 0-0.2 0-0.1 0-0.1 0-0.2 0 0 0-0.1 0-0.2 0-0.1 0-0.3 0-0.4 0-0.2 0-0.3 0-0.4 0 0 0-0.1 0-0.1 0 0 0-0.1 0-0.1 0-0.1 0.1-0.3 0.1-0.4 0-0.1 0.1-0.3 0.1-0.4 0.1-0.3 0.3-0.5 0.5-0.7 0.2-0.2 0.4-0.3 0.8-0.4 0.1 0 0.3-0.1 0.5-0.1h0.2c0.1 0 0.1 0 0.2 0 0.1 0 0.1 0 0.2 0 0.2 0.1 0.3 0.1 0.5 0.2 0.1 0.1 0.2 0.2 0.3 0.3 0.1 0.1 0.1 0.2 0.2 0.3 0.1 0.1 0.1 0.2 0.1 0.3 0 0.1 0.1 0.2 0.2 0.2 0.1 0 0.1 0.1 0.2 0.1h0.3 0.8c0.1 0 0.3 0 0.4 0 0.1 0 0.2-0.1 0.2-0.2 0-0.1 0-0.1 0-0.2 0-0.1 0-0.2-0.1-0.2 -0.1-0.3-0.2-0.6-0.4-0.9 -0.3-0.5-0.8-0.9-1.4-1.2 -0.6-0.3-1.3-0.4-2.2-0.4C52.2 74.2 52.1 74.2 52 74.2M44.6 79.7c0 0.1 0 0.2 0 0.2 0 0.1 0 0.2 0 0.2 -0.1 0.3-0.2 0.5-0.4 0.7 -0.2 0.2-0.4 0.3-0.7 0.4 -0.2 0.1-0.4 0.1-0.6 0.1 -0.2 0-0.4 0-0.6 0 -0.2 0-0.3-0.1-0.5-0.2 -0.1-0.1-0.3-0.2-0.3-0.3 -0.1-0.1-0.2-0.3-0.2-0.4 0-0.3 0-0.6 0.2-0.8 0.2-0.2 0.3-0.3 0.6-0.4 0.1 0 0.2-0.1 0.2-0.1 0.1 0 0.2 0 0.2-0.1 0.1 0 0.3-0.1 0.4-0.1 0.1 0 0.3 0 0.4-0.1 0.1 0 0.1 0 0.1 0 0.1 0 0.2 0 0.3 0 0.1 0 0.2 0 0.2 0 0 0 0.1 0 0.1 0 0 0 0.1 0 0.1 0 0.1 0 0.2 0 0.2 0.1 0 0 0.1 0.1 0.1 0.1s0 0.1 0 0.2c0 0.1 0 0.1 0 0.2 0 0.1 0 0.1 0 0.2V79.7zM46.9 81.9c0 0 0-0.1 0-0.1 0-0.2-0.1-0.4-0.1-0.6v-0.6 -3.6c0-0.2 0-0.5 0-0.7 0-0.2-0.1-0.4-0.1-0.6 -0.1-0.3-0.3-0.6-0.5-0.8 -0.2-0.2-0.5-0.4-0.8-0.5 -0.3-0.1-0.7-0.2-1.1-0.2 -0.4 0-0.8-0.1-1.3 0 0 0-0.1 0-0.2 0 -0.1 0-0.2 0-0.2 0 -0.1 0-0.3 0.1-0.4 0.1 -0.1 0-0.3 0-0.4 0.1 -0.2 0.1-0.4 0.1-0.6 0.2 -0.2 0.1-0.4 0.2-0.6 0.3 -0.1 0-0.1 0.1-0.1 0.1 0 0-0.1 0.1-0.1 0.1 0 0-0.1 0.1-0.1 0.1 -0.1 0.1-0.2 0.2-0.3 0.3 0 0.1-0.1 0.1-0.1 0.2 0 0.1-0.1 0.1-0.1 0.2 -0.1 0.1-0.1 0.2-0.1 0.3 0 0.1-0.1 0.2-0.1 0.3 0 0 0 0.1 0 0.1 0 0.1 0 0.1 0 0.2 0 0.1 0.1 0.2 0.2 0.2 0 0 0 0 0.1 0 0 0 0.1 0 0.1 0h0.1c0 0 0.1 0 0.1 0 0.1 0 0.1 0 0.2 0h0.6 0.3c0.1 0 0.2 0 0.3 0 0.1 0 0.2-0.1 0.2-0.2 0-0.1 0.1-0.2 0.1-0.3 0-0.1 0.1-0.1 0.1-0.2 0.1-0.1 0.1-0.1 0.2-0.2 0.1 0 0.1-0.1 0.2-0.1s0.1-0.1 0.2-0.1c0.1 0 0.2-0.1 0.3-0.1 0.1 0 0.3 0 0.4 0 0.1 0 0.3 0 0.4 0 0.1 0 0.2 0 0.3 0.1 0.3 0.1 0.6 0.3 0.7 0.7 0 0 0 0.1 0 0.1 0 0 0 0.1 0 0.1v0.1c0 0 0 0.1 0 0.1 0 0 0 0 0 0.1 0 0 0 0 0 0.1 0 0.1-0.1 0.2-0.2 0.3 -0.1 0.1-0.3 0.2-0.5 0.3 -0.2 0-0.4 0.1-0.6 0.1 -0.1 0-0.2 0-0.2 0s-0.1 0-0.2 0c-0.1 0-0.2 0-0.2 0 -0.1 0-0.1 0-0.2 0 -0.1 0-0.2 0-0.3 0 -0.1 0-0.2 0-0.3 0 -0.1 0-0.3 0.1-0.4 0.1 -0.1 0-0.3 0.1-0.4 0.1 -0.4 0.1-0.7 0.3-0.9 0.4 -0.2 0.2-0.4 0.4-0.6 0.7 -0.1 0.1-0.1 0.2-0.1 0.3 0 0.1-0.1 0.2-0.1 0.4 0 0.1 0 0.2 0 0.3 0 0 0 0.1 0 0.2 0 0.1 0 0.2 0 0.2 0 0.1 0 0.1 0 0.2 0 0.1 0 0.1 0 0.2 0 0.1 0 0.2 0.1 0.3 0 0.1 0.1 0.2 0.1 0.2 0.1 0.3 0.3 0.6 0.5 0.7 0.2 0.2 0.5 0.3 0.8 0.5 0.1 0 0.2 0.1 0.3 0.1 0.1 0 0.2 0 0.3 0.1 0.1 0 0.1 0 0.2 0 0.1 0 0.1 0 0.2 0h0.1c0.1 0 0.2 0 0.3 0h0.2c0 0 0.1 0 0.1 0 0 0 0.1 0 0.1 0 0.1 0 0.1 0 0.2 0 0.1 0 0.1 0 0.2 0 0.2 0 0.3-0.1 0.5-0.1 0.1 0 0.3-0.1 0.4-0.2 0.1 0 0.1-0.1 0.2-0.1 0.1 0 0.1-0.1 0.2-0.1 0.1 0 0.1 0 0.2-0.1 0 0 0.1-0.1 0.2-0.1 0.1 0 0.1 0 0.1 0 0 0 0.1 0 0.1 0.1 0.1 0.1 0.1 0.1 0.2 0.2 0 0.1 0.1 0.1 0.2 0.2 0.1 0 0.1 0.1 0.2 0.1 0.1 0 0.2 0 0.3 0h0.9 0.3c0.1 0 0.2 0 0.2 0 0.1 0 0.2-0.1 0.2-0.2 0-0.1 0-0.2 0-0.4C46.9 82 46.9 81.9 46.9 81.9M29.7 74.2c-0.1 0-0.1 0-0.1 0 -0.1 0-0.2 0-0.3 0 -0.1 0-0.2 0-0.3 0.1 -0.2 0.1-0.3 0.1-0.5 0.2 -0.2 0.1-0.3 0.2-0.5 0.3 -0.1 0.1-0.2 0.1-0.2 0.2 -0.1 0.1-0.2 0.1-0.3 0.1 0 0 0 0-0.1-0.1 0 0 0 0 0-0.1 0 0 0 0 0-0.1 0 0 0-0.1 0-0.1 0-0.1 0-0.2-0.1-0.3 0-0.1-0.1-0.1-0.2-0.2 -0.1 0-0.1 0-0.2 0 -0.1 0-0.2 0-0.2 0h-0.7 -0.2c-0.1 0-0.1 0-0.2 0h-0.1c-0.1 0-0.2 0.1-0.3 0.1 0 0.1-0.1 0.1-0.1 0.2 0 0.1 0 0.2 0 0.3v1 3.9 1.9c0 0.2 0 0.3 0 0.5 0 0.1 0.1 0.2 0.2 0.3 0.1 0 0.1 0.1 0.2 0.1 0.1 0 0.2 0 0.3 0h0.8c0.1 0 0.3 0 0.4 0 0.1 0 0.2-0.1 0.2-0.2 0-0.1 0-0.2 0-0.3v-0.3 -1 -2.2c0-0.3 0-0.6 0-0.8 0-0.2 0-0.5 0.1-0.7 0-0.2 0.1-0.4 0.2-0.6 0.1-0.2 0.2-0.3 0.4-0.4 0.2-0.1 0.3-0.2 0.5-0.3 0 0 0 0 0.1 0 0 0 0 0 0.1 0 0.1 0 0.2-0.1 0.3 0 0.1 0 0.1 0 0.1 0 0 0 0.1 0 0.1 0 0.2 0.1 0.4 0.1 0.5 0.2 0.1 0.1 0.2 0.2 0.3 0.3 0.1 0.2 0.2 0.4 0.2 0.7 0 0.3 0 0.6 0 0.9v2.5 1.4c0 0.1 0 0.3 0 0.4 0 0.1 0.1 0.2 0.2 0.3 0.1 0 0.1 0 0.2 0 0.1 0 0.2 0 0.3 0h0.9c0.1 0 0.2 0 0.3 0s0.2-0.1 0.2-0.1c0.1-0.1 0.1-0.1 0.1-0.3v-0.3 -1.2V78.6c0-0.4 0-0.8 0.1-1.2 0-0.4 0.1-0.7 0.3-0.9 0.1-0.2 0.4-0.4 0.7-0.5 0.1 0 0.1 0 0.2 0 0.1 0 0.1 0 0.2 0 0.1 0 0.1 0 0.2 0 0.1 0 0.1 0 0.2 0 0 0 0.1 0 0.1 0 0 0 0.1 0 0.1 0 0.2 0.1 0.4 0.2 0.5 0.3 0.1 0.1 0.2 0.2 0.2 0.3 0 0.1 0.1 0.3 0.1 0.4 0 0 0 0.1 0 0.1 0 0 0 0.1 0 0.1 0 0.1 0 0.1 0 0.2v0.2 0.1c0 0.1 0 0.1 0 0.2 0 0.1 0 0.1 0 0.2v0.7 2.2 0.9 0.3c0 0.1 0 0.2 0 0.2 0 0.1 0.1 0.2 0.2 0.2 0.1 0 0.3 0 0.4 0h0.8c0.1 0 0.2 0 0.3 0 0.1 0 0.2 0 0.2-0.1 0 0 0.1-0.1 0.1-0.2 0-0.1 0-0.2 0-0.3 0-0.1 0-0.2 0-0.3 0-0.1 0-0.2 0-0.3v-3.1V77.4c0-0.1 0-0.2 0-0.2 0-0.1 0-0.2 0-0.2v-0.2c0-0.1 0-0.1 0-0.2 0-0.1 0-0.1 0-0.2 0-0.1 0-0.2-0.1-0.3 0-0.1-0.1-0.2-0.1-0.3 -0.2-0.5-0.6-0.9-1-1.2 -0.1-0.1-0.2-0.1-0.4-0.2 -0.1 0-0.3-0.1-0.4-0.1 -0.1 0-0.1 0-0.1 0 0 0-0.1 0-0.1 0 -0.1 0-0.2 0-0.3 0 -0.1 0-0.2 0-0.4 0 -0.1 0-0.3 0-0.4 0 -0.1 0-0.2 0-0.3 0.1 -0.2 0.1-0.4 0.2-0.6 0.2 -0.2 0.1-0.3 0.2-0.5 0.3 -0.1 0.1-0.2 0.2-0.3 0.3 -0.1 0.1-0.2 0.2-0.3 0.2 -0.1 0-0.1 0-0.2 0 0 0-0.1-0.1-0.1-0.1 -0.1-0.1-0.2-0.2-0.2-0.3s-0.1-0.2-0.2-0.2c-0.2-0.2-0.5-0.3-0.8-0.4 -0.3-0.1-0.6-0.1-1-0.1C29.8 74.2 29.7 74.2 29.7 74.2M23.5 74.2c-0.1 0-0.2 0-0.2 0 -0.1 0-0.2 0.1-0.3 0.1 -0.1 0-0.2 0.1-0.3 0.1 -0.1 0.1-0.2 0.1-0.3 0.2 -0.1 0.1-0.2 0.1-0.3 0.2 0 0-0.1 0.1-0.1 0.1 0 0-0.1 0.1-0.1 0.1 -0.1 0.1-0.1 0.1-0.2 0.2 0 0.1-0.1 0.1-0.2 0.2 0 0 0 0-0.1 0 0 0 0 0-0.1 0 -0.1 0-0.1 0-0.2-0.1 0-0.1 0-0.2-0.1-0.2 0-0.1 0-0.2 0-0.3 0-0.1 0-0.2-0.1-0.2 -0.1-0.1-0.1-0.1-0.2-0.2 -0.1 0-0.2 0-0.3 0h-0.8c-0.1 0-0.3 0-0.4 0 -0.1 0-0.2 0.1-0.2 0.2 0 0.1-0.1 0.1-0.1 0.2v0.3 1.2 4.5 1.1c0 0.1 0 0.2 0 0.3 0 0.1 0 0.2 0.1 0.2 0 0.1 0.1 0.1 0.1 0.1 0.1 0 0.1 0 0.2 0.1h0.2c0.1 0 0.1 0 0.2 0h0.7 0.2c0.1 0 0.1 0 0.2 0h0.1c0.1 0 0.1 0 0.2 0 0 0 0.1 0 0.1-0.1 0.1-0.1 0.1-0.2 0.1-0.3 0-0.1 0-0.2 0-0.4v-1.4 -1c0-0.1 0-0.2 0-0.3 0-0.1 0-0.2 0-0.2v-0.3c0 0 0-0.1 0-0.1 0 0 0-0.1 0-0.1 0-0.1 0-0.2 0-0.2 0-0.1 0-0.2 0-0.2 0-0.1 0-0.2 0.1-0.3 0-0.1 0.1-0.2 0.1-0.3 0.1-0.1 0.1-0.2 0.2-0.3 0.1-0.1 0.1-0.2 0.2-0.3 0.1-0.1 0.2-0.2 0.4-0.3 0.2-0.1 0.3-0.2 0.5-0.2 0.1 0 0.1 0 0.2 0 0.1 0 0.1 0 0.2 0 0.1 0 0.2 0 0.3 0 0.1 0 0.2 0 0.3 0 0.1 0 0.2 0 0.3 0 0.1 0 0.1-0.1 0.2-0.1 0-0.1 0.1-0.2 0.1-0.4 0-0.1 0-0.3 0-0.4v-0.6c0-0.2 0-0.4-0.1-0.4 -0.1-0.1-0.1-0.1-0.2-0.1 -0.1 0-0.2 0-0.3 0C23.7 74.2 23.6 74.2 23.5 74.2M15.1 77.6c-0.2 0-0.3 0-0.5 0h-1.8 -0.4c-0.1 0-0.3 0-0.4-0.1 -0.1 0-0.1-0.1-0.1-0.2 0-0.1 0-0.1 0-0.2 0-0.1 0-0.1 0.1-0.2 0-0.1 0.1-0.1 0.1-0.2 0.2-0.4 0.6-0.7 1-0.9 0.1 0 0.1 0 0.2 0 0.1 0 0.1 0 0.2 0 0 0 0.1 0 0.1 0 0 0 0.1 0 0.1 0 0.4 0 0.8 0.1 1 0.2 0.2 0.2 0.4 0.4 0.6 0.7 0 0.1 0.1 0.2 0.1 0.3 0.1 0.2 0.1 0.3 0 0.4C15.4 77.6 15.3 77.6 15.1 77.6M17.8 78.3c0-0.1 0-0.2 0-0.3 0-0.1 0-0.2 0-0.3 0-0.1-0.1-0.3-0.1-0.4s-0.1-0.3-0.1-0.4c0-0.1-0.1-0.2-0.1-0.3 0-0.1-0.1-0.2-0.1-0.3 -0.1-0.1-0.2-0.3-0.2-0.4 -0.1-0.1-0.2-0.2-0.2-0.4 -0.1 0-0.1-0.1-0.1-0.1 -0.1-0.1-0.2-0.2-0.3-0.2 -0.1-0.1-0.2-0.2-0.3-0.2 -0.3-0.2-0.7-0.4-1-0.5 -0.4-0.1-0.9-0.2-1.4-0.2 -0.1 0-0.2 0-0.2 0 -0.1 0-0.2 0-0.2 0 -0.2 0-0.3 0.1-0.5 0.1 -0.2 0-0.3 0.1-0.5 0.1 -1.1 0.5-1.9 1.2-2.3 2.4 -0.1 0.1-0.1 0.3-0.1 0.5 0 0.2-0.1 0.3-0.1 0.5l0 0.4v0.2c0 0.1 0 0.1 0 0.2 0 0.1 0 0.1 0 0.2 0 0.1 0 0.3 0 0.4 0 0.1 0 0.3 0.1 0.4 0 0 0 0.1 0 0.1 0 0 0 0.1 0 0.1 0.1 0.1 0.1 0.3 0.1 0.4 0 0.1 0.1 0.2 0.1 0.4 0.2 0.4 0.4 0.7 0.7 1 0.3 0.3 0.6 0.5 0.9 0.7 0.1 0.1 0.2 0.1 0.3 0.1 0.1 0 0.2 0.1 0.3 0.1 0.1 0.1 0.2 0.1 0.3 0.1 0.1 0 0.2 0.1 0.4 0.1 0.1 0 0.1 0 0.2 0 0.1 0 0.1 0 0.2 0 0.1 0 0.1 0 0.2 0 0.1 0 0.1 0 0.2 0 0.1 0 0.1 0 0.2 0 0.1 0 0.1 0 0.2 0h0.2c0 0 0.1 0 0.1 0s0.1 0 0.1 0c0.1 0 0.3-0.1 0.4-0.1 0.1 0 0.2 0 0.4-0.1 0.4-0.1 0.8-0.3 1.1-0.5 0.3-0.2 0.6-0.5 0.8-0.8 0.1-0.1 0.2-0.2 0.2-0.4 0.1-0.1 0.1-0.3 0.2-0.4 0-0.1 0-0.1 0-0.2 0-0.1 0-0.1-0.1-0.1 0 0-0.1-0.1-0.2-0.1h-0.2c-0.1 0-0.1 0-0.2 0 -0.1 0-0.1 0-0.2 0 -0.1 0-0.3 0-0.5 0 -0.2 0-0.3 0-0.4 0.1C15.7 80.2 15.7 80.2 15.6 80.3c-0.1 0.1-0.1 0.1-0.2 0.2 -0.1 0.1-0.2 0.2-0.3 0.3 -0.1 0.1-0.3 0.2-0.4 0.2 -0.1 0-0.2 0.1-0.3 0.1 -0.1 0-0.2 0.1-0.3 0.1h-0.1c-0.1 0-0.2 0-0.4 0 -0.1 0-0.3 0-0.4 0 -0.1 0-0.2-0.1-0.3-0.1 -0.1 0-0.2-0.1-0.3-0.1 -0.2-0.1-0.4-0.3-0.5-0.4 -0.1-0.2-0.2-0.4-0.3-0.6 0-0.1 0-0.1 0-0.2 0-0.1 0-0.1 0-0.2 0-0.1 0-0.1 0-0.2 0-0.1 0-0.1 0.1-0.1 0 0 0.1-0.1 0.2-0.1 0.1 0 0.1 0 0.2 0h0.2 3.9c0.1 0 0.2 0 0.3 0 0.1 0 0.2 0 0.4 0 0.1 0 0.2 0 0.3 0 0.1 0 0.2 0 0.2-0.1 0.1 0 0.1-0.1 0.1-0.2s0-0.2 0-0.3V78.3zM6.5 78.9C6.5 79 6.5 79.1 6.5 79.1c0 0.1-0.1 0.3-0.1 0.4 0 0.1-0.1 0.3-0.1 0.4 -0.1 0.3-0.2 0.5-0.4 0.7 -0.2 0.2-0.4 0.3-0.6 0.4 -0.1 0-0.2 0.1-0.3 0.1 -0.1 0-0.2 0-0.3 0.1 -0.1 0-0.1 0-0.2 0 -0.1 0-0.1 0-0.2 0 0 0-0.1 0-0.1 0 0 0-0.1 0-0.1 0 -0.2-0.1-0.4-0.1-0.5-0.2 -0.2-0.1-0.4-0.3-0.6-0.5 -0.1-0.2-0.2-0.4-0.3-0.8 0-0.1 0-0.1 0-0.2 0-0.1 0-0.1 0-0.2 0 0 0-0.1 0-0.2 0 0 0-0.1 0-0.1v-0.1 -0.2c0-0.1 0-0.1 0-0.2 0-0.1 0-0.1 0-0.2 0-0.1 0-0.1 0-0.2 0-0.1 0-0.2 0-0.2 0-0.1 0-0.2 0-0.3 0-0.1 0-0.2 0-0.3 0.1-0.3 0.2-0.6 0.4-0.8 0.2-0.2 0.4-0.4 0.6-0.5 0.1 0 0.1-0.1 0.2-0.1 0.1 0 0.1 0 0.2-0.1 0 0 0.1 0 0.1 0 0 0 0.1 0 0.1 0h0.3c0.1 0 0.2 0 0.3 0 0.4 0.1 0.7 0.2 0.9 0.4 0.2 0.2 0.4 0.5 0.5 0.8 0 0.1 0.1 0.2 0.1 0.3 0 0.1 0 0.2 0.1 0.3 0 0.1 0 0.1 0 0.2 0 0.1 0 0.1 0 0.2v0.1c0 0.1 0 0.1 0 0.2 0 0.1 0 0.2 0 0.2C6.5 78.8 6.5 78.9 6.5 78.9M8.8 78.2c0-0.1 0-0.1 0-0.2 0-0.1 0-0.1 0-0.2 0-0.1-0.1-0.3-0.1-0.4 0-0.1 0-0.3-0.1-0.4 0-0.1 0-0.1-0.1-0.2 0-0.1 0-0.1-0.1-0.2 -0.1-0.1-0.1-0.3-0.2-0.4 0 0 0-0.1 0-0.1 0 0 0-0.1 0-0.1 -0.1-0.1-0.1-0.2-0.2-0.3 -0.1-0.1-0.1-0.2-0.2-0.3 0-0.1-0.1-0.1-0.1-0.2 0 0-0.1-0.1-0.1-0.2 -0.3-0.3-0.7-0.5-1.1-0.7s-0.9-0.3-1.5-0.2c0 0-0.1 0-0.1 0 0 0-0.1 0-0.1 0 -0.1 0-0.2 0-0.3 0 -0.1 0-0.2 0-0.3 0.1 -0.2 0.1-0.3 0.1-0.5 0.2 -0.1 0.1-0.3 0.2-0.4 0.3 -0.1 0.1-0.1 0.1-0.2 0.2 -0.1 0.1-0.2 0.1-0.3 0.1 0 0 0 0-0.1-0.1C2.6 75 2.6 75 2.5 74.9c0-0.1-0.1-0.2-0.1-0.2s0-0.1-0.1-0.2c-0.1-0.1-0.1-0.1-0.2-0.1H1.8 1 0.8c-0.1 0-0.1 0-0.2 0 -0.1 0-0.1 0.1-0.2 0.1 -0.1 0.1-0.1 0.2-0.1 0.3 0 0.1 0 0.3 0 0.4v9.4c0 0.2 0 0.4 0 0.6 0 0.2 0.1 0.3 0.3 0.3H0.8c0 0 0.1 0 0.1 0h0.1 0.4c0.1 0 0.2 0 0.3 0 0.1 0 0.2 0 0.3 0 0.1 0 0.2 0 0.3 0 0.1 0 0.1-0.1 0.2-0.1 0.1-0.1 0.1-0.2 0.1-0.3 0-0.1 0-0.3 0-0.4v-1.6c0-0.1 0-0.2 0-0.4 0-0.1 0-0.3 0-0.4 0-0.1 0-0.1 0-0.2s0-0.1 0.1-0.1c0.1-0.1 0.1 0 0.2 0s0.1 0.1 0.2 0.1c0.1 0.1 0.1 0.1 0.2 0.2s0.1 0.1 0.2 0.1c0.1 0.1 0.3 0.1 0.4 0.2 0.2 0 0.3 0.1 0.5 0.1 0.1 0 0.1 0 0.2 0 0.1 0 0.1 0 0.2 0h0.2c0.1 0 0.2 0 0.2 0h0.1c0.1 0 0.1 0 0.2 0 0.1 0 0.1 0 0.2 0 0.1 0 0.2 0 0.3-0.1 0.1 0 0.2-0.1 0.3-0.1 0.1-0.1 0.2-0.1 0.3-0.2 0.1 0 0.2-0.1 0.3-0.2 0.1 0 0.1-0.1 0.2-0.1 0.1 0 0.1-0.1 0.2-0.1l0.1-0.1c0.1-0.1 0.2-0.2 0.2-0.2 0.1-0.1 0.1-0.2 0.2-0.3 0.1-0.1 0.2-0.3 0.3-0.5 0.1-0.2 0.1-0.3 0.2-0.5 0-0.1 0.1-0.2 0.1-0.3s0-0.2 0.1-0.3c0-0.1 0.1-0.2 0.1-0.3 0-0.1 0-0.2 0.1-0.3v-0.2c0-0.1 0-0.1 0-0.3 0-0.1 0-0.2 0-0.3V78.2z"/><g opacity="0.6" clip-path="url(#SVGID_4_)"><defs><rect x="3.8" y="90.1" width="89.2" height="10.4"/></defs><clipPath><use overflow="visible"/></clipPath><path clip-path="url(#SVGID_6_)" fill="#FFFFFF" d="M80.9 90.9c-0.1 0-0.2 0-0.3 0 -0.1 0-0.1 0-0.2 0 -0.1 0-0.1 0-0.2 0 -0.1 0-0.3 0.1-0.4 0.1 -0.1 0-0.3 0.1-0.4 0.1 -0.3 0.1-0.6 0.3-0.8 0.5 -0.2 0.2-0.4 0.4-0.6 0.8 0 0.1-0.1 0.2-0.1 0.3 0 0.1-0.1 0.2-0.1 0.3 0 0.1 0 0.1 0 0.1 0 0 0 0.1 0 0.1 0 0.1 0 0.2 0 0.3 0 0.1 0 0.2 0 0.3 0 0.1 0 0.2 0.1 0.3 0.1 0.4 0.4 0.7 0.7 0.9 0.3 0.2 0.5 0.3 0.8 0.4 0.3 0.1 0.6 0.2 1 0.3 0.1 0 0.2 0 0.3 0 0.1 0 0.2 0 0.3 0 0.2 0.1 0.4 0.1 0.7 0.2 0.2 0.1 0.4 0.1 0.6 0.2 0.1 0.1 0.3 0.1 0.4 0.2 0.1 0.1 0.2 0.2 0.3 0.3 0 0 0 0.1 0.1 0.2s0 0.1 0 0.2c0 0.2-0.1 0.3-0.1 0.4 -0.1 0.1-0.2 0.2-0.3 0.3 -0.1 0.1-0.3 0.1-0.4 0.2 -0.1 0-0.1 0-0.2 0 0 0-0.1 0-0.2 0 -0.1 0-0.2 0-0.3 0 -0.1 0-0.2 0-0.3 0 -0.1 0-0.1 0-0.2 0 -0.1 0-0.1 0-0.2 0 -0.2-0.1-0.3-0.1-0.4-0.2 -0.1-0.1-0.2-0.1-0.4-0.2 0 0-0.1-0.1-0.2-0.2 -0.1-0.1-0.1-0.2-0.1-0.2 -0.1-0.1-0.1-0.2-0.1-0.3 0-0.1-0.1-0.2-0.2-0.2 -0.1 0-0.1 0-0.2 0h-0.3 -0.8 -0.2c-0.1 0-0.1 0-0.2 0 -0.1 0-0.1 0.1-0.2 0.2 0 0.1 0 0.1 0 0.2 0 0.1 0 0.2 0 0.2 0 0.1 0 0.2 0.1 0.3 0.1 0.3 0.2 0.5 0.4 0.7 0.2 0.3 0.5 0.5 0.8 0.7 0.3 0.2 0.7 0.3 1.1 0.4 0.1 0 0.2 0.1 0.4 0.1s0.3 0 0.4 0c0 0 0.1 0 0.1 0 0 0 0.1 0 0.1 0 0.1 0 0.2 0 0.3 0 0.2 0 0.3 0 0.3 0h0.3c0.1 0 0.2 0 0.3 0s0.2 0 0.3 0c0.1 0 0.3-0.1 0.4-0.1 0.1 0 0.3-0.1 0.4-0.1 0.3-0.1 0.6-0.3 0.8-0.4 0.2-0.2 0.5-0.4 0.6-0.6 0.2-0.2 0.3-0.5 0.4-0.8 0-0.1 0-0.1 0-0.2 0-0.1 0-0.1 0-0.2V97c0-0.1 0-0.2 0-0.3 0-0.1 0-0.2 0-0.3 0-0.1 0-0.2-0.1-0.2 0-0.1 0-0.1-0.1-0.2 -0.1-0.2-0.2-0.4-0.4-0.6 -0.2-0.1-0.3-0.3-0.6-0.4 -0.1-0.1-0.2-0.1-0.3-0.1 -0.1 0-0.2-0.1-0.3-0.1 -0.2-0.1-0.4-0.2-0.7-0.2 -0.2-0.1-0.5-0.1-0.7-0.2 -0.3 0-0.5-0.1-0.7-0.2 -0.2-0.1-0.5-0.1-0.7-0.2 -0.1-0.1-0.3-0.1-0.4-0.2 -0.1-0.1-0.2-0.2-0.3-0.3 0 0 0-0.1-0.1-0.2 0-0.1 0-0.1 0-0.2 0-0.2 0.1-0.3 0.2-0.4 0.1-0.1 0.3-0.2 0.4-0.2 0.1 0 0.1 0 0.2 0 0 0 0.1 0 0.2 0h0.1c0.1 0 0.2 0 0.3 0s0.3 0 0.3 0c0.1 0 0.3 0.1 0.4 0.1 0.1 0 0.2 0.1 0.3 0.2 0.1 0.1 0.1 0.1 0.2 0.2s0.1 0.2 0.1 0.2c0 0.1 0.1 0.1 0.1 0.2 0.1 0.1 0.1 0.1 0.2 0.1 0.1 0 0.1 0 0.2 0 0.1 0 0.1 0 0.2 0h0.7 0.2c0.1 0 0.1 0 0.2 0 0.1 0 0.1-0.1 0.2-0.1 0-0.1 0-0.1 0-0.2 0-0.1 0-0.1 0-0.2 0-0.1-0.1-0.3-0.2-0.4 -0.1-0.1-0.1-0.2-0.2-0.4 -0.3-0.5-0.8-0.8-1.4-1 -0.6-0.2-1.3-0.3-2.1-0.3C81.1 90.9 81 90.9 80.9 90.9M73.3 90.9c-0.1 0-0.1 0-0.1 0 -0.1 0-0.2 0-0.3 0 -0.1 0-0.2 0-0.3 0.1 -0.4 0.1-0.7 0.3-1 0.5 -0.1 0.1-0.2 0.1-0.2 0.2 -0.1 0.1-0.2 0.1-0.3 0.1 0 0-0.1 0-0.1 0 0 0 0 0-0.1-0.1 0 0 0-0.1 0-0.1 0 0 0-0.1 0-0.1 0-0.1 0-0.2-0.1-0.2 0-0.1-0.1-0.1-0.2-0.1 -0.1 0-0.1 0-0.2 0 -0.1 0-0.2 0-0.2 0h-0.7 -0.2c-0.1 0-0.1 0-0.2 0h-0.1c-0.1 0-0.1 0-0.2 0 0 0-0.1 0-0.1 0.1 -0.1 0.1-0.1 0.1-0.1 0.2 0 0.1 0 0.2 0 0.3v0.8 3.5 2.2c0 0.2 0 0.3 0 0.5 0 0.2 0 0.3 0.1 0.4 0.1 0.1 0.1 0.1 0.3 0.1 0.1 0 0.2 0 0.4 0h0.8c0.2 0 0.3 0 0.4 0 0.1 0 0.2-0.1 0.3-0.2 0-0.1 0-0.1 0-0.2v-0.3 -1V95.7c0-0.6 0-1.1 0.1-1.6 0.1-0.5 0.3-0.8 0.6-1.1 0.2-0.1 0.3-0.2 0.6-0.3 0 0 0.1 0 0.1 0 0 0 0.1 0 0.1 0 0 0 0.1 0 0.2 0 0.1 0 0.1 0 0.2 0 0.1 0 0.1 0 0.2 0 0.1 0 0.1 0 0.2 0 0.3 0.1 0.5 0.2 0.7 0.4 0.2 0.2 0.3 0.5 0.3 0.9 0 0.3 0 0.7 0 1.1v2.4 1.1c0 0.1 0 0.2 0 0.3 0 0.1 0 0.2 0.1 0.2 0.1 0.1 0.1 0.1 0.2 0.1 0.1 0 0.2 0 0.3 0h0.9 0.3c0.1 0 0.2 0 0.2 0 0.1-0.1 0.2-0.2 0.2-0.4 0-0.2 0-0.4 0-0.6v-2.6 -1.4 -0.5c0-0.2 0-0.3 0-0.5 0 0 0-0.1 0-0.1 0-0.1 0-0.1 0-0.2 0-0.1 0-0.2 0-0.2 0-0.1-0.1-0.3-0.1-0.4 0-0.1-0.1-0.3-0.2-0.4 -0.2-0.4-0.6-0.7-1-0.9s-1-0.3-1.6-0.3C73.4 90.9 73.4 90.9 73.3 90.9M65.1 95.7v0.2c0 0 0 0.1 0 0.1 0 0 0 0.1 0 0.1 0 0.1-0.1 0.2-0.1 0.3 0 0.1-0.1 0.2-0.1 0.3 -0.1 0.3-0.3 0.5-0.4 0.7s-0.4 0.3-0.7 0.4c-0.1 0-0.2 0.1-0.2 0.1s-0.2 0-0.3 0h-0.1c0 0-0.1 0-0.1 0 0 0-0.1 0-0.1 0 0 0-0.1 0-0.1 0 0 0-0.1 0-0.1 0 -0.1 0-0.2 0-0.3-0.1 -0.1 0-0.2-0.1-0.2-0.1 -0.3-0.2-0.5-0.3-0.6-0.5 -0.1-0.2-0.2-0.5-0.3-0.8 0-0.1 0-0.2 0-0.2 0-0.1 0-0.2 0-0.2v-0.1c0-0.1 0-0.2 0-0.3 0-0.1 0-0.3 0-0.3v-0.2c0-0.1 0-0.1 0-0.2 0-0.1 0-0.2 0.1-0.4 0-0.1 0-0.2 0.1-0.3 0.1-0.3 0.2-0.5 0.4-0.8 0.2-0.2 0.4-0.4 0.6-0.5 0.1 0 0.1-0.1 0.2-0.1 0.1 0 0.1 0 0.2-0.1 0 0 0.1 0 0.1 0 0 0 0.1 0 0.1 0 0.1 0 0.2 0 0.3 0 0.1 0 0.2 0 0.3 0 0.1 0 0.1 0 0.2 0.1 0.1 0 0.1 0 0.2 0.1 0.3 0.1 0.5 0.3 0.6 0.5 0.2 0.2 0.3 0.4 0.4 0.7 0 0.1 0.1 0.2 0.1 0.3 0 0.1 0 0.2 0.1 0.3 0 0 0 0.1 0 0.1 0 0.1 0 0.1 0 0.2 0 0.1 0 0.1 0 0.2v0.1c0 0.1 0 0.1 0 0.2 0 0.1 0 0.2 0 0.2C65.1 95.6 65.1 95.6 65.1 95.7M67.4 94.8c0-0.1 0-0.1 0-0.2 0 0 0-0.1 0-0.1 0 0 0-0.1 0-0.1 0-0.1 0-0.2-0.1-0.3 0-0.1 0-0.2-0.1-0.3 -0.1-0.1-0.1-0.3-0.1-0.4 0-0.1-0.1-0.3-0.2-0.4 -0.1-0.1-0.1-0.2-0.2-0.3 -0.1-0.1-0.1-0.2-0.2-0.3 -0.1-0.1-0.2-0.2-0.3-0.3 -0.1-0.1-0.2-0.2-0.4-0.3 -0.4-0.2-0.8-0.4-1.2-0.6 -0.5-0.1-1-0.2-1.6-0.2 -0.1 0-0.1 0-0.2 0s-0.2 0-0.2 0c-0.2 0-0.3 0.1-0.5 0.1 -0.1 0-0.3 0.1-0.4 0.1 -0.1 0.1-0.2 0.1-0.4 0.1 -0.1 0-0.2 0.1-0.3 0.1 -0.4 0.2-0.7 0.5-1 0.8 -0.3 0.3-0.5 0.7-0.7 1.1 -0.1 0.1-0.1 0.3-0.1 0.4 0 0.1-0.1 0.3-0.1 0.4 0 0.1 0 0.1 0 0.2 0 0 0 0.1 0 0.2 0 0.1 0 0.1 0 0.2 0 0.1 0 0.1 0 0.2v0.1c0 0.1 0 0.2 0 0.3 0 0.1 0 0.2 0 0.3v0.1c0 0 0 0.1 0 0.1 0 0.1 0 0.2 0 0.3 0 0.1 0 0.2 0 0.3 0 0.1 0 0.1 0 0.1 0 0 0 0.1 0 0.1 0 0.1 0.1 0.2 0.1 0.3 0 0.1 0.1 0.2 0.1 0.3 0.2 0.4 0.4 0.8 0.7 1.1 0.3 0.3 0.6 0.6 1 0.8 0.1 0.1 0.2 0.1 0.3 0.2 0.1 0 0.2 0.1 0.4 0.1 0.1 0 0.2 0.1 0.3 0.1 0.1 0 0.2 0 0.3 0.1 0.1 0 0.1 0 0.1 0 0 0 0.1 0 0.1 0 0.1 0 0.1 0 0.2 0 0.1 0 0.1 0 0.2 0h0.2c0.1 0 0.2 0 0.3 0 0.1 0 0.2 0 0.3 0 0 0 0.1 0 0.1 0 0 0 0.1 0 0.1 0 0.1 0 0.1 0 0.2 0 0.1 0 0.1 0 0.2 0 0.1 0 0.3-0.1 0.4-0.1 0.1 0 0.3-0.1 0.4-0.1 0.5-0.2 1-0.5 1.3-0.8 0.4-0.3 0.7-0.7 0.9-1.2 0.1-0.1 0.1-0.2 0.1-0.3 0-0.1 0.1-0.2 0.1-0.4 0-0.1 0-0.1 0-0.2 0-0.1 0-0.1 0-0.2 0-0.1 0-0.2 0-0.3 0-0.1 0-0.2 0-0.3v-0.2c0-0.1 0-0.2 0-0.3 0-0.1 0-0.2 0-0.3C67.3 94.9 67.3 94.8 67.4 94.8M49.4 90.9c-0.1 0-0.1 0-0.1 0 -0.1 0-0.2 0-0.3 0 -0.1 0-0.2 0-0.3 0.1 -0.2 0.1-0.3 0.1-0.5 0.2 -0.2 0.1-0.3 0.2-0.5 0.3 -0.1 0.1-0.2 0.1-0.2 0.2 -0.1 0.1-0.2 0.1-0.3 0.1 0 0 0 0-0.1-0.1 0 0 0 0 0-0.1 0 0 0 0 0-0.1 0 0 0-0.1 0-0.1 0-0.1 0-0.2-0.1-0.3 0-0.1-0.1-0.1-0.2-0.2 -0.1 0-0.1 0-0.2 0 -0.1 0-0.2 0-0.2 0h-0.7 -0.2c-0.1 0-0.1 0-0.2 0h-0.1c-0.1 0-0.2 0.1-0.3 0.1 0 0.1-0.1 0.1-0.1 0.2 0 0.1 0 0.2 0 0.3v1 3.9 1.9c0 0.2 0 0.3 0 0.5 0 0.1 0.1 0.2 0.2 0.3 0.1 0 0.1 0.1 0.2 0.1 0.1 0 0.2 0 0.3 0h0.8c0.2 0 0.3 0 0.4 0 0.1 0 0.2-0.1 0.2-0.2 0-0.1 0-0.2 0-0.3v-0.3 -1 -2.2c0-0.3 0-0.6 0-0.8 0-0.2 0-0.5 0.1-0.7 0-0.2 0.1-0.4 0.2-0.6 0.1-0.2 0.2-0.3 0.4-0.4 0.2-0.1 0.3-0.2 0.5-0.3 0 0 0 0 0.1 0 0 0 0 0 0.1 0 0.1 0 0.2-0.1 0.3 0 0.1 0 0.1 0 0.1 0 0 0 0.1 0 0.1 0 0.2 0.1 0.4 0.1 0.5 0.2 0.1 0.1 0.2 0.2 0.3 0.3 0.1 0.2 0.2 0.4 0.2 0.7 0 0.3 0 0.6 0 0.9v2.5 1.4c0 0.1 0 0.3 0 0.4 0 0.1 0.1 0.2 0.2 0.3 0.1 0 0.1 0 0.2 0 0.1 0 0.2 0 0.3 0h0.9c0.1 0 0.2 0 0.3 0 0.1 0 0.2-0.1 0.2-0.1 0.1-0.1 0.1-0.1 0.1-0.3v-0.3 -1.2 -2.1c0-0.4 0-0.8 0.1-1.2 0-0.4 0.1-0.7 0.3-0.9 0.1-0.2 0.4-0.4 0.7-0.5 0.1 0 0.1 0 0.2 0 0.1 0 0.1 0 0.2 0 0.1 0 0.1 0 0.2 0 0.1 0 0.1 0 0.2 0 0 0 0.1 0 0.1 0 0 0 0.1 0 0.1 0 0.2 0.1 0.4 0.2 0.5 0.3 0.1 0.1 0.2 0.2 0.2 0.3 0 0.1 0.1 0.3 0.1 0.4 0 0 0 0.1 0 0.1 0 0 0 0.1 0 0.1 0 0.1 0 0.1 0 0.2v0.2 0.1c0 0.1 0 0.1 0 0.2 0 0.1 0 0.1 0 0.2v0.7 2.2 0.9 0.3c0 0.1 0 0.2 0 0.2 0 0.1 0.1 0.2 0.2 0.2 0.1 0 0.3 0 0.4 0h0.9c0.1 0 0.2 0 0.3 0 0.1 0 0.2 0 0.2-0.1 0 0 0.1-0.1 0.1-0.2s0-0.2 0-0.3c0-0.1 0-0.2 0-0.3 0-0.1 0-0.2 0-0.3v-3.1 -0.9c0-0.1 0-0.2 0-0.2 0-0.1 0-0.2 0-0.2v-0.2c0-0.1 0-0.1 0-0.2 0-0.1 0-0.1 0-0.2 0-0.1 0-0.2-0.1-0.3 0-0.1-0.1-0.2-0.1-0.3 -0.2-0.5-0.6-0.9-1-1.2 -0.1-0.1-0.2-0.1-0.4-0.2 -0.1 0-0.3-0.1-0.4-0.1 -0.1 0-0.1 0-0.1 0 0 0-0.1 0-0.1 0 -0.1 0-0.2 0-0.3 0 -0.1 0-0.3 0-0.4 0 -0.1 0-0.3 0-0.4 0 -0.1 0-0.2 0-0.3 0.1 -0.2 0.1-0.4 0.2-0.6 0.2 -0.2 0.1-0.3 0.2-0.5 0.3 -0.1 0.1-0.2 0.2-0.3 0.3 -0.1 0.1-0.2 0.2-0.3 0.2 -0.1 0-0.1 0-0.2 0 0 0-0.1-0.1-0.1-0.1 -0.1-0.1-0.2-0.2-0.2-0.3 -0.1-0.1-0.1-0.2-0.2-0.2 -0.2-0.2-0.5-0.3-0.8-0.4 -0.3-0.1-0.6-0.1-1-0.1C49.5 90.9 49.4 90.9 49.4 90.9M35 90.9c-0.1 0-0.1 0-0.1 0 -0.1 0-0.2 0-0.3 0s-0.2 0-0.3 0.1c-0.2 0.1-0.3 0.1-0.5 0.2s-0.3 0.2-0.5 0.3c-0.1 0.1-0.2 0.1-0.2 0.2 -0.1 0.1-0.2 0.1-0.3 0.1 0 0 0 0-0.1-0.1 0 0 0 0 0-0.1 0 0 0 0 0-0.1 0 0 0-0.1 0-0.1 0-0.1 0-0.2-0.1-0.3 0-0.1-0.1-0.1-0.2-0.2 -0.1 0-0.1 0-0.2 0 -0.1 0-0.2 0-0.2 0h-0.7 -0.2c-0.1 0-0.1 0-0.2 0h-0.1c-0.1 0-0.2 0.1-0.3 0.1 0 0.1-0.1 0.1-0.1 0.2 0 0.1 0 0.2 0 0.3v1 3.9 1.9c0 0.2 0 0.3 0 0.5 0 0.1 0.1 0.2 0.2 0.3 0.1 0 0.1 0.1 0.2 0.1 0.1 0 0.2 0 0.3 0h0.8c0.1 0 0.3 0 0.4 0s0.2-0.1 0.2-0.2c0-0.1 0-0.2 0-0.3v-0.3 -1 -2.2c0-0.3 0-0.6 0-0.8 0-0.2 0-0.5 0.1-0.7 0-0.2 0.1-0.4 0.2-0.6 0.1-0.2 0.2-0.3 0.4-0.4 0.2-0.1 0.3-0.2 0.5-0.3 0 0 0 0 0.1 0 0 0 0 0 0.1 0 0.1 0 0.2-0.1 0.3 0 0.1 0 0.1 0 0.1 0 0 0 0.1 0 0.1 0 0.2 0.1 0.4 0.1 0.5 0.2 0.1 0.1 0.2 0.2 0.3 0.3 0.1 0.2 0.2 0.4 0.2 0.7 0 0.3 0 0.6 0 0.9v2.5 1.4c0 0.1 0 0.3 0 0.4 0 0.1 0.1 0.2 0.2 0.3 0.1 0 0.1 0 0.2 0 0.1 0 0.2 0 0.3 0h0.9c0.1 0 0.2 0 0.3 0 0.1 0 0.2-0.1 0.2-0.1 0.1-0.1 0.1-0.1 0.1-0.3v-0.3 -1.2 -2.1c0-0.4 0-0.8 0.1-1.2 0-0.4 0.1-0.7 0.3-0.9 0.1-0.2 0.4-0.4 0.7-0.5 0.1 0 0.1 0 0.2 0 0.1 0 0.1 0 0.2 0 0.1 0 0.1 0 0.2 0 0.1 0 0.1 0 0.2 0 0 0 0.1 0 0.1 0 0 0 0.1 0 0.1 0 0.2 0.1 0.4 0.2 0.5 0.3 0.1 0.1 0.2 0.2 0.2 0.3 0 0.1 0.1 0.3 0.1 0.4 0 0 0 0.1 0 0.1 0 0 0 0.1 0 0.1 0 0.1 0 0.1 0 0.2v0.2 0.1c0 0.1 0 0.1 0 0.2s0 0.1 0 0.2v0.7 2.2 0.9 0.3c0 0.1 0 0.2 0 0.2 0 0.1 0.1 0.2 0.2 0.2 0.1 0 0.3 0 0.4 0h0.8c0.1 0 0.2 0 0.3 0 0.1 0 0.2 0 0.2-0.1 0 0 0.1-0.1 0.1-0.2 0-0.1 0-0.2 0-0.3 0-0.1 0-0.2 0-0.3 0-0.1 0-0.2 0-0.3v-3.1 -0.9c0-0.1 0-0.2 0-0.2 0-0.1 0-0.2 0-0.2v-0.2c0-0.1 0-0.1 0-0.2 0-0.1 0-0.1 0-0.2 0-0.1 0-0.2-0.1-0.3 0-0.1-0.1-0.2-0.1-0.3 -0.2-0.5-0.6-0.9-1-1.2 -0.1-0.1-0.2-0.1-0.4-0.2 -0.1 0-0.3-0.1-0.4-0.1 -0.1 0-0.1 0-0.1 0 0 0-0.1 0-0.1 0 -0.1 0-0.2 0-0.3 0 -0.1 0-0.2 0-0.4 0 -0.1 0-0.3 0-0.4 0 -0.1 0-0.2 0-0.3 0.1 -0.2 0.1-0.4 0.2-0.6 0.2 -0.2 0.1-0.3 0.2-0.5 0.3 -0.1 0.1-0.2 0.2-0.3 0.3 -0.1 0.1-0.2 0.2-0.3 0.2 -0.1 0-0.1 0-0.2 0 0 0-0.1-0.1-0.1-0.1 -0.1-0.1-0.2-0.2-0.2-0.3 -0.1-0.1-0.1-0.2-0.2-0.2 -0.2-0.2-0.5-0.3-0.8-0.4 -0.3-0.1-0.6-0.1-1-0.1C35.1 90.9 35.1 90.9 35 90.9M26.8 95.7v0.2c0 0 0 0.1 0 0.1 0 0 0 0.1 0 0.1 0 0.1-0.1 0.2-0.1 0.3 0 0.1-0.1 0.2-0.1 0.3 -0.1 0.3-0.3 0.5-0.4 0.7 -0.2 0.2-0.4 0.3-0.7 0.4 -0.1 0-0.2 0.1-0.2 0.1 -0.1 0-0.2 0-0.3 0h-0.1c0 0-0.1 0-0.1 0 0 0-0.1 0-0.1 0 0 0-0.1 0-0.1 0 0 0-0.1 0-0.1 0 -0.1 0-0.2 0-0.3-0.1 -0.1 0-0.2-0.1-0.2-0.1 -0.3-0.2-0.5-0.3-0.6-0.5 -0.1-0.2-0.2-0.5-0.3-0.8 0-0.1 0-0.2 0-0.2 0-0.1 0-0.2 0-0.2v-0.1c0-0.1 0-0.2 0-0.3 0-0.1 0-0.3 0-0.3v-0.2c0-0.1 0-0.1 0-0.2 0-0.1 0-0.2 0.1-0.4s0-0.2 0.1-0.3c0.1-0.3 0.2-0.5 0.4-0.8 0.2-0.2 0.4-0.4 0.6-0.5 0.1 0 0.1-0.1 0.2-0.1 0.1 0 0.1 0 0.2-0.1 0 0 0.1 0 0.1 0 0 0 0.1 0 0.1 0 0.1 0 0.2 0 0.3 0s0.2 0 0.3 0c0.1 0 0.1 0 0.2 0.1 0.1 0 0.1 0 0.2 0.1 0.3 0.1 0.5 0.3 0.6 0.5s0.3 0.4 0.4 0.7c0 0.1 0.1 0.2 0.1 0.3 0 0.1 0 0.2 0.1 0.3 0 0 0 0.1 0 0.1 0 0.1 0 0.1 0 0.2 0 0.1 0 0.1 0 0.2v0.1c0 0.1 0 0.1 0 0.2 0 0.1 0 0.2 0 0.2C26.8 95.6 26.8 95.6 26.8 95.7M29 94.8c0-0.1 0-0.1 0-0.2 0 0 0-0.1 0-0.1 0 0 0-0.1 0-0.1 0-0.1 0-0.2-0.1-0.3 0-0.1 0-0.2-0.1-0.3 -0.1-0.1-0.1-0.3-0.1-0.4 0-0.1-0.1-0.3-0.2-0.4 -0.1-0.1-0.1-0.2-0.2-0.3 -0.1-0.1-0.1-0.2-0.2-0.3 -0.1-0.1-0.2-0.2-0.3-0.3 -0.1-0.1-0.2-0.2-0.4-0.3 -0.4-0.2-0.8-0.4-1.2-0.6 -0.5-0.1-1-0.2-1.6-0.2 -0.1 0-0.1 0-0.2 0 -0.1 0-0.2 0-0.2 0 -0.2 0-0.3 0.1-0.5 0.1 -0.1 0-0.3 0.1-0.4 0.1 -0.1 0.1-0.2 0.1-0.4 0.1 -0.1 0-0.2 0.1-0.3 0.1 -0.4 0.2-0.7 0.5-1 0.8 -0.3 0.3-0.5 0.7-0.7 1.1 -0.1 0.1-0.1 0.3-0.1 0.4 0 0.1-0.1 0.3-0.1 0.4 0 0.1 0 0.1 0 0.2 0 0 0 0.1 0 0.2 0 0.1 0 0.1 0 0.2 0 0.1 0 0.1 0 0.2v0.1c0 0.1 0 0.2 0 0.3 0 0.1 0 0.2 0 0.3v0.1c0 0 0 0.1 0 0.1 0 0.1 0 0.2 0 0.3 0 0.1 0 0.2 0 0.3 0 0.1 0 0.1 0 0.1 0 0 0 0.1 0 0.1 0 0.1 0.1 0.2 0.1 0.3 0 0.1 0.1 0.2 0.1 0.3 0.2 0.4 0.4 0.8 0.7 1.1 0.3 0.3 0.6 0.6 1 0.8 0.1 0.1 0.2 0.1 0.3 0.2 0.1 0 0.2 0.1 0.4 0.1 0.1 0 0.2 0.1 0.3 0.1 0.1 0 0.2 0 0.3 0.1 0.1 0 0.1 0 0.1 0 0 0 0.1 0 0.1 0 0.1 0 0.1 0 0.2 0 0.1 0 0.1 0 0.2 0h0.2c0.1 0 0.2 0 0.3 0 0.1 0 0.2 0 0.3 0 0 0 0.1 0 0.1 0 0 0 0.1 0 0.1 0 0.1 0 0.1 0 0.2 0 0.1 0 0.1 0 0.2 0 0.1 0 0.3-0.1 0.4-0.1 0.1 0 0.3-0.1 0.4-0.1 0.5-0.2 1-0.5 1.3-0.8 0.4-0.3 0.7-0.7 0.9-1.2 0.1-0.1 0.1-0.2 0.1-0.3 0-0.1 0.1-0.2 0.1-0.4 0-0.1 0-0.1 0-0.2 0-0.1 0-0.1 0-0.2 0-0.1 0-0.2 0-0.3 0-0.1 0-0.2 0-0.3v-0.2c0-0.1 0-0.2 0-0.3 0-0.1 0-0.2 0-0.3C29 94.9 29 94.8 29 94.8M15.3 90.9c-0.1 0-0.2 0-0.2 0 -0.2 0-0.3 0.1-0.5 0.1 -0.2 0-0.3 0.1-0.5 0.1 -0.6 0.2-1 0.5-1.4 0.9 -0.4 0.4-0.7 0.8-0.9 1.4 -0.1 0.2-0.1 0.3-0.1 0.5 0 0.2-0.1 0.4-0.1 0.6 0 0.1 0 0.1 0 0.2 0 0.1 0 0.1 0 0.2 0 0 0 0.1 0 0.1 0 0 0 0.1 0 0.1 0 0.1 0 0.1 0 0.2s0 0.1 0 0.2v0.3c0 0.1 0 0.2 0 0.2s0 0.2 0 0.2c0 0.1 0 0.1 0 0.1s0 0.1 0 0.1c0 0.1 0.1 0.2 0.1 0.3 0 0.1 0.1 0.2 0.1 0.3 0.2 0.5 0.5 0.9 0.8 1.3 0.3 0.3 0.8 0.6 1.3 0.8 0.1 0 0.2 0.1 0.3 0.1 0.1 0 0.2 0.1 0.3 0.1 0.1 0 0.1 0 0.2 0 0.1 0 0.1 0 0.2 0 0.1 0 0.1 0 0.2 0 0.1 0 0.1 0 0.2 0 0.1 0 0.1 0 0.2 0 0.1 0 0.2 0 0.2 0h0.2c0.1 0 0.1 0 0.2 0 0.1 0 0.1 0 0.2 0 0.1 0 0.2-0.1 0.4-0.1 0.1 0 0.2 0 0.3-0.1 1-0.3 1.7-0.9 2.1-1.7 0.1-0.3 0.3-0.6 0.4-0.9 0-0.1 0-0.2 0-0.2 0-0.1-0.1-0.1-0.1-0.2 0 0-0.1 0-0.1 0 0 0-0.1 0-0.1 0h-0.1c-0.1 0-0.1 0-0.2 0 -0.1 0-0.2 0-0.2 0 -0.1 0-0.3 0-0.5 0 -0.2 0-0.4 0-0.5 0.1 -0.1 0.1-0.2 0.1-0.2 0.2 0 0.1-0.1 0.2-0.1 0.3 0 0.1 0 0.1-0.1 0.2 0 0.1-0.1 0.1-0.1 0.2 -0.2 0.3-0.4 0.5-0.7 0.6 -0.1 0-0.1 0-0.2 0.1 -0.1 0-0.1 0-0.2 0.1h-0.1c0 0-0.1 0-0.1 0h-0.1c-0.2 0-0.3 0-0.5-0.1 -0.1 0-0.2-0.1-0.4-0.1 -0.1 0-0.1-0.1-0.2-0.1 -0.2-0.1-0.3-0.3-0.4-0.5 -0.1-0.2-0.2-0.4-0.3-0.7 0-0.1 0-0.1 0-0.2 0-0.1 0-0.1 0-0.2 0 0 0-0.1 0-0.2 0-0.1 0-0.3 0-0.4 0-0.2 0-0.3 0-0.4 0 0 0-0.1 0-0.1s0-0.1 0-0.1c0-0.1 0.1-0.3 0.1-0.4 0-0.1 0.1-0.3 0.1-0.4 0.1-0.3 0.3-0.5 0.5-0.7 0.2-0.2 0.4-0.3 0.8-0.4 0.1 0 0.3-0.1 0.5-0.1h0.2c0.1 0 0.1 0 0.2 0 0.1 0 0.1 0 0.2 0 0.2 0.1 0.3 0.1 0.5 0.2 0.1 0.1 0.2 0.2 0.3 0.3 0.1 0.1 0.1 0.2 0.2 0.3 0.1 0.1 0.1 0.2 0.1 0.3 0 0.1 0.1 0.2 0.2 0.2 0.1 0 0.1 0.1 0.2 0.1h0.3 0.8c0.1 0 0.3 0 0.4 0 0.1 0 0.2-0.1 0.2-0.2 0-0.1 0-0.1 0-0.2 0-0.1 0-0.2-0.1-0.2 -0.1-0.3-0.2-0.6-0.4-0.9 -0.3-0.5-0.8-0.9-1.4-1.2 -0.6-0.3-1.3-0.4-2.2-0.4C15.5 90.9 15.4 90.9 15.3 90.9"/></g><g opacity="0.6" clip-path="url(#SVGID_4_)"><defs><rect x="18.1" y="-0.5" width="68.9" height="65"/></defs><clipPath><use overflow="visible"/></clipPath><path clip-path="url(#SVGID_8_)" fill="#FFFFFF" d="M45.8 0.4L45.7 9.1c13.4 0.1 24.8 11 24.8 25.3C70.5 40 68.2 45 64.6 48.7c-3.2 7.5-10.2 13.1-18.5 14.4 1.2 0.2 2.5 0.3 3.8 0.3 16 0.1 29.2-12.9 29.2-29C79.2 15.4 63.9 0.5 45.8 0.4M46.3 18.5c-11 0-20.3 9.4-20.4 20.7 0 3.3 0.6 6.5 1.8 9.3 3.7 3.8 8.9 6.2 14.6 6.2 1.3 0 2.6-0.2 3.8-0.5 -6.7-1.7-11.6-7.8-11.6-15 0-6.5 5.5-12.1 11.7-12.1l0-4.6L46.3 18.5z"/></g><path clip-path="url(#SVGID_4_)" fill="#FFFFFF" d="M42.3 63.4c-16-0.1-29-13.2-29-29.2C13.4 15.1 27.6 0.4 45.8 0.4l2.8 4.5 -2.9 4.1C32.3 9.1 22 19.9 22 34.2c0 11.3 9.1 20.5 20.3 20.5 8.5 0 15.5-6.9 15.5-15.4 0-6.5-5.4-12.2-11.6-12.2l-2.7-4.3 2.7-4.3c11 0 20.3 9.6 20.2 20.9C66.5 52.7 55.6 63.5 42.3 63.4"/></g></svg>