<svg xmlns="http://www.w3.org/2000/svg" viewBox="0 0 1442 314"><path fill="none" d="M0 0h1441.1v313.4H0z"/><g fill="#040404"><path d="M514.2 12.9c-.2-3.8-10-10-1.7-8.3 21.6 14-7.8 35.6-13.4 47.2a47.6 47.6 0 0 1 29.8-8.9c-2.6 6.4 6 15.2 11.2 8.8.6-4-3.4-8.7-7.6-7 2.3-12.2 11.4 2.5 11 8.8 18.9-4 26.8 16.2 37.7 27.7-2.5 4.5-7.7-2-9.2-5-24.7-15.4-58.7-6.9-77.8 13.6l-1-2c17-22 49-26.6 74-17.8-3.3-7-8.6-14.3-17.5-13.7-22 .6-47.7 8.3-56.7 30.8-5.2 8.8-11.2 17.5-13 27.8a60 60 0 0 0-3.8 25.8c2.3 35.9 20.8 69.5 45.6 94.8 9.4 17.5 37 28 34.5 49.5 4.2 5.8 1 14.7-6 16 3.3-3.5 9.5-13.1 1.4-14.8 3 4.6-.6 15.5-6.6 11 8.3 4.2-7.8 14.5-1.7 6 1.6-10-16.3 15.9-11.6 3.5.7-4.3-6.4 2.5-7.3-.5 2-7.9 17 2 14-8.3-28.6-22.3-49-53.4-70.6-82.5-28-27.2-38.7-66.5-41-105 0-7.7-10.6-29.4 5.9-25 3.8.8 3-5.9 6.6-5 1.3 7.5-7.6 8.2-12.8 8.3 4.5 38.4 6 83.7 39.6 109.4a143.1 143.1 0 0 1-27.7-88.9c.6-4.8 1.6-9.5 1.9-14.3.7-12.7-.2-28.8 8-38.6 3.5 5.1 13.6 9.7 19.8 4.3 3-6.8-2.3-15-7.2-19.2-4 3.4.3 17.5-7.3 18.6 2.8-7 2.2-15 4.7-22 7.2-4.2 8.3 9.7 13.7 12 8.5-14.2 16.5-29.3 28.2-41 .7 6.2 10.5 10.2 13.9 3.9m-15.6 2.2c-12.4 16.7-28.5 34-27.6 56-3.8 11.2-2.6 25.5-2 38-3 6.8 2.4 4 2 1.6 1-11.6 5.6-22.3 10.2-32.7 6-24.3 30.7-38.7 36.4-62.5-5.6 5.1-12.8 2.4-19-.4m-16.5 67c-7 16.4-10.3 34.8-9.8 52.6 3-15.1 6.5-34 17.8-46.9 5.9-18.3 23.6-29.7 42.2-31.7-3.4-2.7-6-6-8.3-9.8-20.5.1-36.5 17-42 35.8m-37.4-.1c-1.5 5.7-.2 11.7-1.4 17.5-1.5 8.3-1.6 17-1 25.4 2.7 28.9 13.3 58 33 79.3 8.4.8 16 3.2 22.9 8-8.1-15-17-30-20-47.2-4.6 7.8 6 18 3.4 24.8-10-13.4-5-33.1-10.6-48.6-4.1-22.8-9-46.4-3.1-69.5 3.5-12.3-13.1-1.9-18.6-9.8-4.1 5.7-5 13.3-4.6 20.1m-1.4 93.4c3.4 11 11.6 23.6 23 27.8a136 136 0 0 1-23-27.8m20.2 29.6c22.2 27.4 40.6 58.8 67.4 82.5 7 14.6 21.2-1.3 22.4-10.2-7.2-15.5-23.2-24.5-33-38.2-9.3-13.8-22.4-26.4-38.8-30.6-6.4 4.3-11.7-2.8-18-3.5m86 84c-7.3 7.7 5.3 4.6 0 0zM639 54.9c0-5.5 2.7-11.2 9-11.7 10.4 7.3 26.6-2.5 33.4 10.3 11.4.2 20.6 10.8 5.3 16.8 4.2 8.3-3.2 22.5 5.8 30.3 17.4-3 30 17.3 30.3 32.8 10.2 47.8-27.6 89-66.2 110.9-19.7 6-34.3 23.4-55.3 25.5-5.7.4-7 7.4-4.3 11.5 1.7 3.4-7.5 9.6-5 3.5 5.9-3-1.5-7.6 1.3-12.4-9.3 2.4-14.2 11.6-20 17.5 3.5-17 22-20.9 35.2-26.5 7.5-11.6 14.2-23.5 23-34.4l5-8.9c10.8-14.8 23.7-28.4 31.8-45 11-19-.2-42.4 8.7-61.4 12-9.9-2.8-22.7-12-27.8-12.4-.3-32.1 1-33.5 17.7 11.2 4.5-.6 12.8-5.3 18.3-3.4 4 6.8 4 3.7 8.4-8.4 4-10.3 15.2-20.8 15.4-4 4.2-15.5.6-14.5 7.8 7 6.6-6.4 5.8-10.3 8.9-6-11.5-2-25-3.8-37.4 5.6-3.7 12.6-3.2 18.7-5-2-6.4-16.1-9.9-8.3-19.1 10.6-3.6 9.3-22.1 22-20.3 2-9.4-3-24.9 13-19.8 1.4-6.6 7.2-9.2 13-6m6.7-7.7c-3.3 3-2.5 13.5-9.5 10.9-7-4.7-6.1 10.5-14.2 5.4-11.3-1.5-.7 15.3-7 20.4-11.4-3.4-10.5 13.8-19.1 17.6-8 4 1 12.9 6 15.3 2.3 10-9.4 4.9-14.5 8.2-9.2 3.5-1.2 15.1-2.5 22.5-1.8 6 0 14 8 9.9-8.2-15.7 23.6-8.7 26.6-21.2 1.2-5.3 12-6.6 3.8-10-6.7-7.4 18-13.8 6.5-20.7-9-9.3 9.2-15.6 4.4-25.3-3.8 1.4-9.8 3.5-9.5-3 1.4-5.8 2.7 4.6 6 1 6.2-3.4 10 4.6 6.6 9.6 12.6-3.3 28.5-8.5 39 2.6 3.5 4.3 5.5 11.8 11 13.6a61.3 61.3 0 0 0-31.5-31.4c1.8-4.6 13.8 6.6 16 6-6.8-5.5 3.7-13.9-4.6-17.4-5.4-1.7 3.4-13.2-3.5-11.7-6.2 1.7-12-2.3-18-2.3m25 2c-6.2 8.8 7 13 2 22-.2 6.4 7 11 12.6 11.5 2-5-.1-9.5-2.7-13.6 5.5-1.7 15.4-9.8 4-11.6-9.2 3.7-9.2-8-16-8.3m3.8 31.9c3.3 4.4 6.9 8.6 11 12.1-.6-6.4-5.1-10.4-11-12m2.9 39.8c-1 12.4.6 25-2 37.4-.7 4.7 6.7 1.6 8.4 3.7-2.2 2.5-9-1.3-8.2 3.1-1.3 4.1 11.6 1.3 4.6 3.8-6.3-1.7-8.6 4.3-9.6 9-3.5 5.1-6.5 10.6-9 16.2-3.4 1.7-5.1 5.3-7.3 8.1-6 6.1-10.2 14-15.8 20.6a14 14 0 0 0-3.1 6.2 186 186 0 0 0-22.2 34.9c12.2-5.8 23.6-13.2 35.2-20-.3-2.6-3.6-6.3 0-8 .7 3.8 6 11 4.6 3.4 16.6.8 34.8-22.4 48-35.8 5.4-6.4-9-4.4-8.4-10.1 4.4.9 8 4.5 12.6 4.4.2-3.9-7.6-2.2-7.7-6.7 3.6 1 7.6 4.7 10.8.8 11-17.6 16.6-40.6 10.5-60.7-5 2-10.3 4.5-15.5 2.2 3.8-3.2 11 .4 13.2-4.5-4.6 1.4-12.1 3.8-15-.8 6.2 2.1 11.5-.8 17.3-1.7-1-8.7-8.3-14.7-13.6-21.1-10.8-8.3-24.5 5.6-27.8 15.6z"/><path d="M611.3 110c7.3-1-1 7.3 0 0zm.4 12.2c11.5 5-8 15.2-12.8 17.3-1.2-6.2 6.9-7.6 11.5-9.3 4.5-1.4-2-6.3 1.3-8zm101.2.3c7.6 1.8-12.8 4.2 0 0zm-698.6 6.1c29-.9 66.2 2.6 79.8 32.6 14 21.3 2.5 50.1-17 63.7-12.5 4.8-25.6 8-38.8 9.6 2.6 15.4-11.3 41.5 10.4 46.4-3.5 12-17.2 6.2-26.4 6.6-6.5-1.8-14.6 4.5-20-.8-.3-7.8 11.7-6.2 14.5-11.5 2.5-44.7-1.1-89.7 1-134.5-11.6 5.5-15.6-11.7-3.4-12m1.9 2.8c-10.8 2-3.7 9.4 4.6 7.7-1.4 43.3.9 88.8-.5 133 1.8 9-9 8.7-13.1 13 12.2-3.6 25.4 2.2 37.2-2.2-1.8-4.4-8.8-3.7-10.2-8.4 1.2-14.3-.5-28.8 1.5-43 13-.2 25-5.5 37.3-8.7 13.9-7.3 21.5-23.1 24-38.1a53 53 0 0 0-45.8-50.2c-11.7-.8-23.3-3.2-35-3v-.1zm111-1c3.9 0 7.4 2.1 10.9 3.8 6.9 46.1-7.5 93.7-1 140.2 7-.7 19.5 3.5 13.3 12-13.4.6-28.4 3.5-41-1.6-4.6-8.3 13.8-5.6 9.6-14.8-5.3-41.7 8.9-84.2-1.5-125.5-3-1.2-9.7 2.4-9.1-3.6-2.7-13.5 11.8-6.3 18.8-10.5m-.7 2.9c-9-3-22.4 10-7 8.1 9.4 42.6-2 86.6 2.5 129.6 3.4 8-8.8 6.6-8.7 12.3 11.6.4 23.6.9 35-.3-.4-8.3-13.6-2.2-16-8.8-1.8-40.1 6.3-79.9 5.3-120 .4-8.2.5-22.4-11.1-21v.1zm924.9-2.7c7.3.4 15-2.7 22 .7 1.5 50.4-5.1 100.7-2 151 4.3 2 11.5 2 11.9 8.4-6.8 5.5-16.8 2-25 4.1-5.4-.3-1.6-14.5-8.7-9.5-26.1 19.2-67.7-3-64-35.8-8.3-35.4 33.6-72.4 67-53.8 2.3 5.8-5.8 1.2-8.4.1-27.2-8.5-56.6 17-56.3 44.6 1.3 8 .7 16.1 2.7 24 7.9 18.5 30.5 30.6 49.8 21.6 6-1.1 13.7-9.5 18.5-8-7.8 15.6 9.7 15.6 20.3 11.8.3-5-7.3-1.8-10.5-3.4-5.7-50.7 3.7-101.4 1.4-152.3-7-2.3-17-1-24.2 1 3.8 2.6 11.5-1.5 14 3.5.5 18.8-3.4 37.4-1.6 56.3 1 2.6-2.7 3-3 .6-.5-17.7-.2-35.4 1.6-53-.5-8.7-14.4 1-14.8-7.6-.1-5.1 5.8-4 9.3-4.3zm124.2-.2c3.6.1 10.8-1.6 12 3.4 1.3 48.5-7 97.4-2 145.9 6.3-3.3 15.4 5.8 7.4 9.2-10 1.6-30.4 7.3-26.5-9.6-17.3 12-43.8 16.9-60.4.7-16.4-21-15.3-54.2 5-72.2 14.7-12.9 36-14 54.3-9.1 0-19.2 2.8-38.3 1.7-57.5-5-3.2-14.6 1.3-16-7.2 7-4.6 16.5-2 24.5-3.6m1.4 3c-6.6 1.6-15.7-1.1-21 2.6 5 2.2 14.5-1.7 15.2 6.4-1.7 19.3-1.8 38.8-2 58.3-21.6-3.6-48.5-3.2-62 17.3-13.7 16-10 38.7-1.3 56.1 14.3 18.5 43.5 15 59.5 1 3.4-5.5-3.7.3-5.7 1.2-13.7 11.6-40 6.3-44.6-12.2-9.5-19-1.6-42.3 13.8-55.7 12-4.8 29.4-5.4 40 2.9 2 17.7 3.4 36 2.6 53.9-5.2 5.6-1.2 13.8-1.2 20.9a34 34 0 0 0 21.8-.7c.7-5.5-7.3.5-10-2.6-4-48.5 1.9-98.3 1.9-147.2-1.1-3-4.5-2.5-7-2.1m-38.2 74.8c-23 7-30 38.9-18.6 58.6 10.6 22.8 52.9 11 49-14 1-13.4-4.6-26-2.1-39.3-7-6.6-19.3-5.8-28.3-5.3zm-380.7-77.2c28.4.3 66.2-1.3 83 26.8 9.7 17.3 3.2 44.8-16.5 50 29.6 7.4 43.2 50 22 73.5-21 20.6-53.3 13-79.6 12.4-6.8-1.4-16.6 3.2-22-2.6-3.3-9 12.7-8 10.4-17.2 3.6-36.9 0-74 5.2-110.8 1.2-7.2 2.6-19.2-7.8-18.8-7.2-1.9-.7-9.1 2.4-2.3 13.7-1.1 8.3 14.3 8 22.8-6.4 38.5 0 77.9-5.2 116.5-2.4 2-14.5 6.1-7.1 9.3 30.4-2.9 66.8 10.4 92.7-11.4 22.7-25 3.9-68.7-29.5-70.3 9.4-6.5 26.6-8.8 26-24.3 7-18.7-7.6-38-25-43.8a195 195 0 0 0-55-7c-5.4 9.8-12.4 1-2-2.8z"/><path d="M34.9 139.2a57 57 0 0 1 39 12c8.3 9.9 8.3 23.6 8 35.7 1.3 23.8-24 44.6-46.3 39.5-1.8-28.8-.4-58.2-.7-87.2m2.6 1.9c1 27.6-.2 55.5.5 83.1 37.3 3.5 52.3-44.7 33-71-8.7-8.6-21.8-10.7-33.5-12.1zm354-.9c12 3.6-1.5 24.3 5 31.5 6.5 2.7 21.9-1.3 19.6 10.5-4.3 4.8-14-1.4-19.7 3-4 23.3-2.7 47-3.4 70.4-2.6 10.3 4.4 24.8 16.9 21 7.8-3.5 9.8 10 3.2 12.3-11 3.4-25.7 6.6-33.6-4.3-13.3-28.5-8.8-61-9.5-91.5 2.8-13.8-23 4-20.6-10.8 2.2-9.9 16.4-4 20.6-12.2-4-15.1 13.2-20.7 21.5-29.9m.4 4c-7.3 8.8-22.7 13.8-19 27.9-3.4 8.8-20.5 3-20.4 13.6 6.8 0 14.8-2.8 20.7.5 1 32-4.5 65.6 9 95.8 6.2 10.6 19.3 5.7 28.6 3.8 4.7-1.3 2.4-9.4-3.2-6-10.5 1.3-17.8-8.8-18.2-18.3 1.4-25.6 1-51.3 3.3-76.8 2.3-8.1 18.3 1 19.7-6.5-6-3-13.6-1.4-20-3.5-1.8-9.3 3.3-23.3-.5-30.4v-.1zm394.4-4.2c12.5 2.8 28 2 37 13 17 20.9 3.8 59.4-26 57.1 10 4.3 28.9 5 34 19 10.4 17.8 10.6 46.7-9.1 57.9-13.5 0-28.7 4.5-41.6.3 1-22.3-3.2-45 .6-67 .2-6.6 7.6-7.3 12.2-9.6-3.7-1.1-11 .4-11.6-5.2-.8-22 2.8-43.9 4.4-65.5m3.5 5.1a222 222 0 0 0-3.7 61.3c12.5 1.6 29.3 0 36.7-12.2 4.7-11.5 6.2-25.3 0-36.7-7.4-10.2-21.1-12.5-33-12.4m.4 70.3a14 14 0 0 0-4.7 1.9c-6.7 22.3 0 45.7-2 68.6 15.2-3.4 38.4 6.4 46.5-11.3 15-27.3-6.2-66.5-39.8-59.2zm439.7-54c8.7-2.8 12.2 6.8 13.3 13.3-4.3 7-15.5 12-20.6 3-6-5.6-.4-16.3 7.3-16.3m1.6 3c-10 1.2-9.6 16 1.3 14.6 11.5-1 6.8-14.3-1.3-14.6zm-968.4 20c7.7-1.2 15.4.7 23-.3 8.2.8-.7 19.7 7.8 14.3 13.7-12 40-12 46.3 7.9 2.9 24.2 1.6 48.8 3 73.2 5.9-2.5 10.8 6.2 3.8 8.7-10.2 1.8-21-.6-31.1 1.7-7.2-5.2 3-11.6 8.4-11 1.8-23.2 5-49.9-6.5-71.3-8.7-11.4-21.7-1-30.4 4.3 5.7-14.6 30.5-17 36-1 8 20.4 5 43.1 5.6 64.7 1 8.5-11 5.2-11.6 11.4 9-1 18.3-.8 27.5-1 4.9-2 2-6.4-3.4-4.2-4.3-23-1-49.4-4.2-73.6-5.8-19.3-30.5-17.4-43.3-6.6-11.2 8.3 0-18.5-13-14.7-4.8.4-29.1-2.1-15.8 4.4 8.6 29 3.5 59.4 3 89-2.6 1.6-12.1 8.1-2.3 6.5 8.5-2.1 24.2 3 28.3-3.5-8.1 0-14.1-5.8-10.8-14.7 3-14.8 4-29.7 2.2-44.7.9-1.8-2-14.2 3.3-10.2a397 397 0 0 1-2.2 59.2c-2.2 9.3 18 6 9.4 15.1-12 2.3-25 .5-37.3 1.9-4.2-5 2.4-8.6 6-11 2.6-28.3 5.7-58.1-2.5-85.8-7.8-.5-7-9.5.8-8.7zm1153.5 1.8c12-.5 8.3 19.5.7 23.9-10.8-.8-3.2-15.5-11.8-19-9.3-1.6-25.7 5-20.2 16.8 14.4 20.2 45.9 26.6 50 54.5-1 28.7-38.3 40.9-61 28-14.6 7-11.6-16.8-8.7-24 5.7-7.4 10.5 7.2 8 11.6 10.5 10 35.3 9.4 38.4-8.2.2-28.4-36.7-33.8-41.2-59.8 2-22.5 28.7-23 45.8-23.8m1 3.1c-12.8-2.2-1.8 9.3-3.5 15.7 5.8 7 9.7-15.8 3.6-15.7m-37 7.9c-5 5-8.6 13.1-4.4 19.7 7.2 16.4 28.8 20 35 37.2 4 8 6.8 19.3-.6 26.3-9.2 10.5-25 8-36.2 2.6-7.7-2.4-.3-12.5-6.1-16.1-1.8 6.3-2 13-1.7 19.6 19 6.2 48.2 10.6 61.8-10.5 9.2-12.8-1-27.5-10-37.1-12.8-11.5-32.2-17.3-38-35.3-1.8-.6 3.8-8.3 0-6.4h.2zm-1187-8.7c17.8-1 40 9.3 39.6 29.7 4.6 19.2-7.1 47.5 9.7 60.6 2.6 13.9-19.7 16.6-21 2.6-4.2-7 3.2-5.9 3.6.4.5 9.4 15.6 7.3 14.7-1.7.4-3.1-6-.6-6.7-4.5-7-21.9 2.3-45.9-6-67.6-9.3-16.2-36.3-23.2-50-8.7-3.6 5-3.7 12-2.4 17.7 4.3 6.3 15.9.5 17.2-5.9-1.2-6.8-11.1-.4-10.8-7.8 11-14.3 42-4.6 37.9 15.5-.6 4.9 6 18-3.8 15.9-23.6-10.8-59.7 14.2-47.6 40.6 12 20.5 39.6 6.6 54.2-3.3-11 15.3-35 20.2-51.7 13-26.4-26.5 14.6-65.6 43.8-54 6.2 3.1 1.7-6.6 2.7-10 4.4-17.5-22-29-33-16.3 5-1.6 12.7 1.5 11.3 7.8-3.7 7.5-13.6 12.3-21.7 8.3-10-14.3 4-33.1 20-32.3zm682.7 2.5c7.8 4.1 17 .6 25.5 2.3 5.5 24.8-4.5 53.7 9.3 76.8 4.5 10.6 17.9 7 25 1.6 9-18.7 7.3-40.3 8.3-60.5 1-7.8-12.7-5.7-11-13.7 6.8-8 19.6-.1 28.7-3.3 5 18 .4 36.8 2.8 55.2 0 10.5-4.4 22.6 1.9 32.1 4.2 1.8 9.4 4.6 8.4 10.1-12.8 5.2-39.4 8-30.7-14.3-9.5 14.6-33.2 23.3-48 9.3-21.4-19.4-12.4-50.5-13-75.9 4-10.8-15.2-9.6-7.2-19.6m1.9 4c-1 5 5.5 1.6 7.5 4.6 4.4 24.4-7.5 52.8 6.4 75.5 5.7 10.6 18 17.5 30 14 10.9-1.6 16-12.5 23.3-19.3 4.8 4 .2 13.7 1.8 19.5 7.3 2.2 15.9 4.2 23 .3 0-5.6-10.8-4.7-9.7-12.2-.5-26.4 2.8-53-.5-79.3-7.5 0-15.7-2.4-22.7 0-1.5 6.3 9.7 1.9 9.5 7.6.6 22.3 2 46.3-7.5 67.2-7 7.3-19 11-28 4-18.6-22.5-8.4-54.2-13-79.9-6.4-2-13.4-1.1-20.1-2zm434.6-3.8c21.6-2.4 42.7 23.3 34.3 43.7-20 4.9-41.7-.5-61.5 5.8-1.5 14.2 6 33.2 22 35 13 3 29 .3 38-10.6 2.7-3.3 8.5.6 6.3 4.3-8.4 20-34.7 25.6-54 22-38-8.8-50.3-65.1-22.8-90.7 10.5-8.7 24.9-8.4 37.7-9.5m-11.8 4.2c-46.4.2-48.7 71.8-11.8 88.5 19.2 10.5 51 5 59.3-16.7-12.2 14.2-34.7 17.2-51.4 9a46.7 46.7 0 0 1-15.7-39.2c21-4.6 42.8-.1 63.7-4.3 6-24-21.2-45.4-44-37.3h-.1zm-262.1 4c6.8-1.1 14.7 1.6 18.5 7.5-1.4 19.3 3 38.9-1.1 58-4.7 16-27.1 20.8-40 12.1-15.7-14-12.6-36.6-9-55 4.7-13 18.8-19.7 31.6-22.6m-1.8 3c-11 4.8-24.3 9.5-27.6 22.5-2.8 16.3-4.6 35.8 8 48.7 10.2 7.7 26.2 4.9 33.8-5.1 5.7-20 3.3-41.1 2-61.5-3.3-4.4-10.8-5.8-16.2-4.7v.1z"/><path d="M1316.6 200.4c13.7-.1 23 13.7 23.7 26.5-18.5 2-38 3.8-56.8 4.9-1-17.5 14.8-34.3 33-31.4m-3.7 4.1c-14.3-1.9-22.5 11.3-26.4 23 16.3.9 32.4-2.2 48.6-3.8 1.7-11.6-10.8-22.7-22.2-19.2zm-84.1-3c4.2-.5 10-.4 12.4 3.9 6.3 25-.6 51 1.9 76.2 4.6 1.6 10.9 3.2 10.6 9.2a99.2 99.2 0 0 1-40.1 1c-4.2-6.1 4-9 8.4-10.6 2.6-22.6-3.4-45.2-.7-67.9-5 2.8-11-1.3-9.7-6.8 3.3-6 11.6-4 17.2-5m2 3c-4.8 3.3-16.3-2.3-15.3 5.4 4.6-1.5 10-.7 9.5 5.4-3.7 21.9 2.5 43.9.9 65.8-.6 5.3-9 3.6-9.3 7.9 10.8 0 22.3 2.3 32.8-1-1.3-3.8-9.1-.5-9.3-5.9-2.6-20.1 3-40.4-.3-60.6.3-6.5.6-18.7-9-17zm-743.2 9c4.6.3 10 3.1 11.8 7.6-3.1-2.3-15.4-6.6-11.8-7.6zm-286.6 22c5.8-.4 12.4.6 16.9 4.6-1 9.1 6 27-6 30.7-9.5 10.3-30 14.5-38.7 1-5-18 9.7-35.4 27.8-36.3m1.9 2c-15.7 2-31.1 15-26.7 32.3 9.9 14.7 33 5.8 39.5-7.6 0-9.8 3-27.6-12.8-24.7z"/></g><g fill="#92cb48"><path d="M468.9 109.1c-.5-12.5-1.7-26.8 2-38 2.3 3.7 7.4 3.8 10.3 6.9a101.7 101.7 0 0 0-10 32.7c.2 2.4-5.2 5.2-2.3-1.6z"/><path d="M444.6 82c11 3.8 10.3-13.1 23.2-10.3-6 23-1 46.7 3 69.6-8.3-4.7-19.6-6-25.5-14.2 4.7.7 12.5 8.2 14.6 1.2-3.6-1.2-4.3-4 0-2.4-1.3-5.4-3.5-22.5-14.7-20.6-.5-2 .5-5.1-2-5.8 1.2-5.8-.1-11.8 1.4-17.5z"/></g><g fill="#78b62e"><path d="M472.3 134.7c-.5-17.8 2.8-36.2 9.8-52.6.8 3.7 4.9 4.6 8 5.7-11.3 13-14.8 31.8-17.8 46.9z"/><path d="M480 115c2.8-9.9 20-6.2 18-18.2 13.7 18.1-1.2 41.7-21.8 44-.8-9 .9-17.6 4-25.9l-.1.1z"/></g><path fill="#a4d858" d="M480 115c1.8-10.4 7.8-19.1 13-28l.3.8 1 2c1 2.4 3.5 4.3 3.8 7 2 12-15.3 8.3-18 18.1v.1zm-41.5-5.8c-.6-4.6-2-11.6 1.9-14.3-.3 4.8-1.3 9.5-2 14.3zm4.8-9.7c2.4.7 1.4 3.8 2 5.8 11-1.9 13.3 15.2 14.7 20.6-4.4-1.6-3.7 1.2-.1 2.4-2 7-10-.5-14.6-1.2l-3-2.1c-.6-8.4-.5-17 1-25.4v-.1z"/><path fill="#ffa25a" d="M648 175.9c6.5-1.4 14.4-6.3 20.3-.8-8.1 16.6-21 30.2-32 45-13-8.8-2.3-23.8-1-35.6 1.5-6 18.5-4.1 7.7-7.4l5-1.2zm6 26.2c2.3-2.8 4-6.4 7.3-8.1 5.5 6 16.5-.5 18 10.4-8.3.7-17.8 3.1-25.2-2.3z"/><path fill="#fed0a1" d="M619 195.5c4.2-12 13.2-25.1 29-19.6l-5 1.2c10.8 3.3-6.2 1.4-7.5 7.4-1.5 11.8-12.2 26.9 1 35.6l-5 8.9c-3.3-4.3-9.6-5.3-12.3-10-2.6-7.8 2.5-15.9 0-23.5h-.1zm16.2 33.4a14 14 0 0 1 3-6.2c3.8 2.3 6.6 5.6 9.6 8.6a20 20 0 0 1-12.5-2.3l-.1-.1z"/><path fill="#fe7519" d="M661.3 194a112 112 0 0 1 9-16.2c1 7.8 4 15 9.7 20.8 6 18.8-15 34.4-32.2 32.7-3-3-5.8-6.3-9.5-8.6 5.6-6.6 10-14.5 15.8-20.6 7.4 5.4 16.9 3 25.3 2.3-1.6-10.9-12.6-4.3-18-10.4h-.1z"/></svg>