<?xml version="1.0" encoding="utf-8"?>
<!-- Generator: Adobe Illustrator 15.0.0, SVG Export Plug-In . SVG Version: 6.00 Build 0)  -->
<!DOCTYPE svg PUBLIC "-//W3C//DTD SVG 1.1//EN" "http://www.w3.org/Graphics/SVG/1.1/DTD/svg11.dtd">
<svg version="1.1" id="Ebene_1" xmlns="http://www.w3.org/2000/svg" xmlns:xlink="http://www.w3.org/1999/xlink" x="0px" y="0px"
	 width="100px" height="100px" viewBox="0 0 100 100" enable-background="new 0 0 100 100" xml:space="preserve">
<g>
	<path fill="#FFFFFF" d="M10.125,100c-1.552,0-2.908-0.133-4.064-0.396c-1.159-0.26-2.121-0.615-2.892-1.069
		c-0.767-0.459-1.345-1.003-1.73-1.62c-0.381-0.615-0.573-1.293-0.573-2.02c0-0.549,0.116-1.025,0.354-1.443
		c0.238-0.404,0.576-0.75,1.007-1.023c0.432-0.273,0.945-0.482,1.535-0.609c0.594-0.143,1.25-0.208,1.968-0.208
		c0,1.068,0.126,1.998,0.365,2.782c0.246,0.793,0.589,1.443,1.026,1.958c0.439,0.528,0.967,0.907,1.575,1.159
		c0.61,0.246,1.28,0.376,2.012,0.376c0.707,0,1.338-0.093,1.887-0.282c0.548-0.188,1.014-0.449,1.399-0.773
		c0.386-0.317,0.676-0.697,0.877-1.146c0.204-0.436,0.303-0.906,0.303-1.407c0-0.487-0.063-0.932-0.188-1.349
		c-0.132-0.413-0.366-0.811-0.706-1.193c-0.345-0.389-0.812-0.785-1.411-1.183c-0.597-0.393-1.37-0.843-2.306-1.307
		c-0.975-0.509-1.831-1.032-2.569-1.556c-0.739-0.524-1.354-1.101-1.851-1.72c-0.492-0.614-0.865-1.292-1.117-2.024
		c-0.248-0.734-0.375-1.561-0.375-2.482c0-1.051,0.228-2.014,0.679-2.888c0.45-0.878,1.097-1.63,1.938-2.269
		c0.843-0.63,1.861-1.123,3.06-1.466c1.193-0.343,2.536-0.515,4.023-0.515c1.392,0,2.605,0.095,3.643,0.299
		c1.038,0.207,1.898,0.484,2.59,0.838c0.691,0.364,1.207,0.771,1.545,1.251c0.343,0.481,0.513,0.987,0.513,1.536
		c0,0.941-0.382,1.688-1.151,2.236c-0.768,0.541-2.025,0.81-3.771,0.81c0-0.534-0.056-1.078-0.166-1.649
		c-0.108-0.566-0.304-1.086-0.585-1.561c-0.282-0.474-0.66-0.867-1.135-1.163c-0.472-0.314-1.078-0.465-1.813-0.465
		c-0.499,0-0.994,0.075-1.491,0.217c-0.492,0.153-0.937,0.37-1.323,0.667c-0.393,0.299-0.71,0.673-0.954,1.12
		c-0.245,0.448-0.367,0.983-0.367,1.601c0,0.613,0.106,1.142,0.311,1.57c0.209,0.428,0.518,0.834,0.934,1.203
		c0.415,0.368,0.932,0.727,1.555,1.078c0.625,0.35,1.355,0.736,2.197,1.151c1.89,0.96,3.286,2.018,4.191,3.169
		c0.902,1.162,1.354,2.488,1.354,3.982c0,1.232-0.241,2.336-0.726,3.307c-0.479,0.975-1.169,1.785-2.063,2.447
		c-0.898,0.66-1.983,1.16-3.251,1.517C13.122,99.828,11.698,100,10.125,100"/>
	<path fill="#FFFFFF" d="M34.051,97.346c0.611,0,1.193-0.078,1.741-0.244c0.549-0.16,1.057-0.383,1.526-0.648
		c0.47-0.266,0.891-0.571,1.264-0.9c0.373-0.341,0.692-0.686,0.96-1.036c0.146,0.169,0.264,0.392,0.348,0.661
		c0.086,0.264,0.126,0.546,0.126,0.845c0,0.415-0.146,0.862-0.435,1.323c-0.295,0.475-0.743,0.906-1.347,1.294
		c-0.604,0.39-1.374,0.722-2.308,0.974c-0.932,0.258-2.04,0.387-3.321,0.387c-1.147,0-2.227-0.143-3.238-0.441
		s-1.899-0.743-2.665-1.346c-0.763-0.589-1.363-1.342-1.801-2.253c-0.441-0.907-0.66-1.972-0.66-3.182
		c0-0.868,0.122-1.778,0.367-2.72c0.245-0.945,0.605-1.871,1.092-2.781c0.477-0.907,1.076-1.76,1.79-2.582
		c0.714-0.811,1.54-1.525,2.481-2.145c0.939-0.608,1.991-1.1,3.156-1.456c1.165-0.356,2.437-0.539,3.813-0.539
		c1.796,0,3.186,0.366,4.176,1.084c0.987,0.72,1.481,1.729,1.481,3.03c0,0.944-0.281,1.854-0.842,2.717
		c-0.562,0.869-1.333,1.632-2.323,2.287c-0.99,0.656-2.167,1.171-3.531,1.561c-1.368,0.391-2.856,0.584-4.466,0.584h-0.679
		c-0.243,0-0.481-0.013-0.715-0.039c-0.035,0.233-0.055,0.457-0.06,0.697c-0.007,0.227-0.01,0.444-0.01,0.64
		c0,1.353,0.339,2.396,1.014,3.13C31.666,96.978,32.689,97.346,34.051,97.346 M35.371,82.655c-0.61,0-1.188,0.218-1.739,0.639
		c-0.548,0.433-1.041,0.989-1.482,1.669c-0.438,0.684-0.815,1.453-1.133,2.301c-0.32,0.854-0.55,1.686-0.697,2.522h0.33
		c0.929,0,1.791-0.118,2.593-0.349c0.799-0.223,1.493-0.557,2.084-0.979c0.589-0.433,1.054-0.935,1.391-1.534
		c0.337-0.588,0.501-1.252,0.501-1.99c0-0.721-0.156-1.279-0.48-1.675C36.414,82.856,35.958,82.655,35.371,82.655"/>
	<path fill="#FFFFFF" d="M48.796,83.973c0-0.434-0.154-0.744-0.455-0.932c-0.311-0.188-0.815-0.281-1.523-0.281h-0.675l0.329-1.861
		h8.292l-0.788,4.806h0.183c0.428-0.851,0.854-1.593,1.288-2.23c0.436-0.636,0.912-1.169,1.43-1.606
		c0.516-0.431,1.109-0.754,1.766-0.98c0.658-0.215,1.428-0.331,2.306-0.331c1.331,0,2.317,0.229,2.964,0.696
		c0.648,0.469,0.972,1.15,0.972,2.035c0,1.205-0.375,2.112-1.133,2.695c-0.759,0.599-1.854,0.898-3.292,0.898
		c0-0.533-0.03-0.996-0.088-1.433c-0.052-0.423-0.148-0.79-0.288-1.091c-0.142-0.307-0.331-0.527-0.568-0.697
		c-0.239-0.156-0.537-0.234-0.892-0.234c-0.352,0-0.726,0.126-1.115,0.404c-0.393,0.266-0.777,0.635-1.173,1.104
		c-0.391,0.465-0.769,1.02-1.142,1.662s-0.732,1.345-1.07,2.096c-0.342,0.758-0.652,1.557-0.932,2.393
		c-0.281,0.832-0.52,1.674-0.715,2.521l-1.43,6.056h-5.654l3.184-14.069c0.038-0.188,0.082-0.447,0.139-0.764
		C48.769,84.504,48.796,84.219,48.796,83.973"/>
	<path fill="#FFFFFF" d="M73.295,97.216c0.393,0,0.75-0.069,1.081-0.207c0.327-0.128,0.708-0.329,1.134-0.598l0.894,1.183
		c-0.288,0.296-0.624,0.594-1.003,0.871c-0.381,0.293-0.803,0.553-1.273,0.782c-0.472,0.235-0.991,0.417-1.562,0.545
		C71.988,99.934,71.361,100,70.676,100c-1.438,0-2.541-0.316-3.312-0.951c-0.765-0.629-1.15-1.515-1.15-2.638
		c0-1.004,0.204-2.396,0.602-4.17l3.258-14.355c0.037-0.142,0.077-0.302,0.111-0.461c0.035-0.155,0.064-0.301,0.09-0.452
		c0.022-0.14,0.045-0.262,0.057-0.367c0.01-0.105,0.016-0.175,0.016-0.219c0-0.318-0.035-0.569-0.107-0.766
		c-0.076-0.194-0.188-0.348-0.35-0.455c-0.156-0.09-0.365-0.169-0.621-0.199c-0.257-0.035-0.562-0.055-0.915-0.055h-0.788
		l0.352-1.841h9.054l-4.465,19.208c-0.145,0.636-0.266,1.234-0.366,1.786c-0.096,0.552-0.146,1.067-0.146,1.562
		c0,0.514,0.115,0.9,0.341,1.174C72.56,97.078,72.88,97.216,73.295,97.216"/>
	<path fill="#FFFFFF" d="M79.002,92.655c0-0.884,0.109-1.784,0.331-2.72c0.222-0.934,0.552-1.849,0.994-2.743
		c0.446-0.911,1.006-1.765,1.675-2.562c0.673-0.799,1.463-1.51,2.37-2.105c0.912-0.609,1.942-1.092,3.097-1.441
		c1.15-0.349,2.43-0.528,3.834-0.528c1.07,0,2.084,0.137,3.033,0.417c0.955,0.277,1.784,0.713,2.49,1.306
		c0.711,0.599,1.271,1.36,1.685,2.288c0.415,0.929,0.624,2.042,0.624,3.342c0,0.844-0.102,1.718-0.313,2.644
		c-0.206,0.929-0.526,1.837-0.96,2.724c-0.434,0.895-0.98,1.75-1.646,2.564c-0.666,0.817-1.451,1.525-2.352,2.151
		c-0.904,0.608-1.93,1.103-3.076,1.465C89.64,99.82,88.36,100,86.943,100c-1.17,0-2.246-0.146-3.223-0.449
		c-0.974-0.307-1.811-0.76-2.507-1.363c-0.692-0.615-1.235-1.387-1.628-2.309C79.197,94.957,79.002,93.889,79.002,92.655
		 M87.622,97.49c0.671,0,1.277-0.179,1.821-0.536c0.544-0.364,1.029-0.829,1.464-1.421c0.435-0.591,0.81-1.257,1.126-2.002
		c0.314-0.753,0.576-1.531,0.777-2.338c0.203-0.791,0.355-1.573,0.455-2.336c0.106-0.773,0.158-1.471,0.158-2.081
		c0-1.377-0.254-2.37-0.76-2.972c-0.508-0.613-1.2-0.9-2.078-0.9c-0.633,0-1.219,0.166-1.754,0.504
		c-0.539,0.336-1.023,0.805-1.456,1.367c-0.435,0.568-0.817,1.219-1.146,1.952c-0.328,0.737-0.608,1.493-0.832,2.288
		c-0.227,0.789-0.391,1.567-0.505,2.352c-0.108,0.772-0.161,1.49-0.161,2.146c0,1.414,0.254,2.439,0.768,3.055
		C86.012,97.176,86.721,97.49,87.622,97.49"/>
	<path fill="#FFFFFF" d="M66.666,39.002c-0.021,0-0.045-0.01-0.062-0.048c-0.02-0.031-0.114-0.276-0.217-0.569
		c-0.658-1.926-2.062-4.634-3.347-6.445c-0.922-1.299-3.155-3.597-4.687-4.831c-2.192-1.758-5.008-3.609-9.12-6.007
		c-3.17-1.854-5.919-3.785-8.175-5.734c-2.491-2.158-3.793-3.684-4.978-5.831c-1.674-3.051-2.688-5.915-2.78-7.871
		c-0.022-0.44-0.005-0.648,0.047-0.702c0.072-0.08,0.193,0.053,0.459,0.499c0.881,1.483,2.227,3.123,3.603,4.369
		c2.48,2.246,5.298,4.125,9.129,6.084c3.091,1.578,7.655,4.03,9.05,4.85c3.47,2.058,7.031,4.866,9.776,7.699
		c0.571,0.586,1.729,1.874,1.854,2.056c0.005,0.009,0.005,0.016,0.003,0.03c-0.011,0.061-0.188,0.199-0.515,0.394
		c-1.065,0.626-2.026,1.451-2.505,2.159c-0.043,0.061-0.064,0.097-0.07,0.107c0.03-0.008,0.184-0.143,0.328-0.273
		c0.689-0.63,1.725-1.292,2.764-1.771l0.4-0.182l0.004,0.005l0.569,0.751c0.81,1.067,1.322,1.803,1.715,2.465
		c0.154,0.267,0.333,0.585,0.335,0.597c0,0.026-0.141,0.072-0.193,0.083c-0.412,0.114-1.61,0.763-2.135,1.167
		c-0.506,0.391-0.941,0.825-0.944,0.913c0,0.003,0,0.006,0.003,0.007h0.002c0.043,0,0.256-0.062,0.513-0.155
		c0.726-0.27,1.615-0.429,2.438-0.429c0.447,0,0.845,0.049,1.192,0.134c0.463,0.119,1.314,0.447,1.316,0.533
		c0,0.043-0.387,0.252-0.596,0.36c-1.084,0.569-2.311,1.446-3.123,2.23c-0.972,0.929-1.631,1.95-1.856,2.895
		C66.789,38.873,66.73,39.002,66.666,39.002"/>
	<path fill="#FFFFFF" d="M66.338,50.353l-1.615-3.653c0.258-4.974-1.399-9.153-2.836-11.788c-0.852-1.384-1.809-2.712-2.852-3.935
		c-1.413-1.578-3.103-3.105-5.028-4.569c-1.509-1.042-3.674-2.496-5.448-3.464c-0.026-0.019-2.846-1.702-5.426-3.595
		c-3.177-2.214-5.264-4.741-6.222-6.048c-0.978-1.271-1.935-2.938-2.691-4.689c-0.903-2.087-1.487-4.207-1.695-6.14l0.016-0.002
		c0.007,0.032,0.676,3.996,3.046,7.992c1.121,1.803,2.675,3.659,4.616,5.515l0.007-0.005c0.027,0.015,2.318,2.029,4.147,3.29
		c0.221,0.153,0.778,0.518,0.778,0.518c0.966,0.629,2.229,1.445,2.764,1.741c0.041,0.028,4.32,2.574,8.084,5.437
		c1.896,1.438,3.815,3.213,5.004,4.629c0.012,0.014,1.013,1.153,2.115,3.197c1.018,1.875,2.336,4.933,2.826,8.775l0.425,6.793
		L66.338,50.353z"/>
	<path fill="#FFFFFF" d="M64.475,42.441L64.475,42.441c-0.046,0-0.234-0.262-0.398-0.527l-0.015-0.022
		c-1.073-1.72-2.896-3.381-4.532-4.125c-0.541-0.25-1.624-0.554-2.229-0.628c-0.195-0.03-0.576-0.051-0.966-0.051
		c-0.153,0-0.298,0.004-0.431,0.01l-0.881,0.039v-0.008l-0.017-0.511c-0.042-1.054-0.581-2.156-1.481-3.021l-0.252-0.26l0.01-0.004
		l0.262-0.111c0.506-0.243,1.354-0.438,2.211-0.513c0.579-0.046,0.65-0.085,0.654-0.101c-0.006-0.016-0.106-0.05-0.936-0.068
		c-0.057-0.002-0.119-0.004-0.178-0.004c-0.622,0-1.275,0.099-2.055,0.311l-0.485,0.123l-0.003-0.001l-0.551-0.374
		c-0.679-0.453-1.81-1.104-2.764-1.588c-0.251-0.125-0.721-0.38-0.723-0.419c-0.002-0.084,1.26-0.395,2.12-0.531
		c0.922-0.167,2.002-0.255,2.961-0.255c0.553,0,1.037,0.036,1.404,0.086c0.051,0.011,0.093,0.016,0.127,0.016
		c0.035,0,0.041-0.009,0.041-0.009c-0.023-0.016-0.307-0.078-0.691-0.14c-0.789-0.132-1.654-0.192-2.572-0.192
		c-1.349,0-2.719,0.136-3.96,0.399l-0.589,0.133V30.09L46.33,29.43c-3.532-1.904-5.202-2.934-7.438-4.622
		c-1.067-0.816-3.59-3.128-4.361-4c-0.534-0.618-1.328-1.583-1.329-1.657c-0.006-0.015-0.204-0.318-0.509-0.779
		c-1.822-2.735-2.765-5.54-2.882-8.577c-0.087-2.289,0.252-4.332,1.095-6.592C31.293,2.16,32.429,0.006,32.598,0
		c0.052,0,0.117,1.328,0.119,1.379c0.045,1.047,0.107,1.603,0.244,2.285c0.566,2.837,1.754,5.708,3.536,8.518
		c0.537,0.854,1.458,2.142,1.999,2.816c1.614,2.007,6.226,5.572,10.5,8.146c3.099,1.861,4.063,2.492,6.073,3.979
		c1.72,1.271,3.111,2.567,4.372,4.069c1.158,1.379,2.207,3,3.039,4.682c0.832,1.68,1.453,3.429,1.797,5.066
		c0.223,1.081,0.277,1.426,0.227,1.491C64.491,42.439,64.483,42.441,64.475,42.441"/>
	<path fill="#FFFFFF" d="M65.008,50.555h-0.015c-1.812-0.109-5.514-0.383-9.976-1.122c-5.382-0.9-10.257-2.18-14.484-3.824
		c-1.714-0.653-4.208-1.723-6.377-3.014c-2.671-1.598-4.127-3.124-4.337-4.522c-0.082-0.803,0.26-1.493,1.012-2.064
		c1.155-0.883,2.968-1.412,5.702-1.672c0.031-0.002,3.428-0.227,5.997-0.495c1.39-0.127,2.458-0.301,3.166-0.527
		c0.134-0.022,0.323-0.083,0.502-0.169c0.196-0.104,0.313-0.226,0.346-0.367c0.03-0.103,0.002-0.212-0.065-0.312
		c-1.299-1.014-4.234-1.831-7.071-2.617c-0.166-0.056-0.331-0.097-0.497-0.149c-2.989-0.838-6.525-1.702-8.637-2.231
		c-0.748-0.186-1.339-0.327-1.672-0.41l0.002-0.015c0.04,0.005,4.07,0.584,8.415,1.521c2.549,0.559,4.71,1.125,6.412,1.695
		c2.132,0.726,3.564,1.438,4.242,2.132c0.181,0.236,0.245,0.458,0.188,0.648c-0.077,0.278-0.398,0.539-0.954,0.746
		c-0.013,0.004-0.026,0.006-0.04,0.012c-0.006,0.002-0.01,0.006-0.02,0.01c-1.531,0.544-4.325,1.035-8.309,1.458
		c-0.015,0.002-1.522,0.11-3.026,0.47c-1.38,0.345-3.044,0.958-3.09,2.003c0,1.114,1.38,2.535,3.877,3.987
		c2.545,1.485,6.094,2.916,10,4.021c5.118,1.453,10.885,2.213,17.146,2.267h0.002v0.003L65.008,50.555z"/>
	<path fill="#FFFFFF" d="M79.035,45.684c-0.798,0-1.449-0.629-1.479-1.413c-0.033-0.806,0.609-1.493,1.424-1.529
		c0.022-0.002,0.039-0.002,0.059-0.002c0.801,0,1.452,0.623,1.477,1.416c0.02,0.394-0.122,0.768-0.393,1.057
		c-0.271,0.29-0.637,0.452-1.029,0.47C79.074,45.684,79.055,45.684,79.035,45.684"/>
	<path fill="#FFFFFF" d="M64.144,62.736c-0.28,0-0.629-0.006-0.962-0.016c-3.446-0.068-7.137-0.796-10.666-2.101
		c-4.662-1.732-7.666-3.144-11.097-5.206c-3.412-2.052-7.251-4.043-10.024-5.215c-2.799-1.176-5.437-2.065-7.839-2.658
		c-2.405-0.593-4.646-0.892-6.662-0.892c-0.243,0-0.488,0.002-0.723,0.012c-1.81,0.063-3.305,0.332-4.567,0.802
		c-0.204,0.083-0.388,0.128-0.449,0.128c-0.013,0-0.021-0.002-0.027-0.007c-0.005-0.003-0.008-0.01-0.006-0.02
		c0.004-0.104,0.307-0.39,0.769-0.736c1.282-0.949,3.304-1.677,5.544-1.982c0.702-0.096,1.731-0.157,2.902-0.157
		c1.529,0,3.005,0.093,3.95,0.246c2.548,0.402,5.983,1.486,10.205,3.213c1.57,0.644,5.201,2.27,6.587,2.945
		c1.589,0.77,3.491,1.598,4.835,2.118c2.098,0.796,7.007,2.421,8.909,2.936c2.043,0.56,4.199,0.875,6.6,0.983
		c0.212,0.01,0.46,0.014,0.736,0.014c1.868,0,4.594-0.209,5.607-0.432c1.547-0.334,2.157-0.501,3.455-0.945
		c2.1-0.736,3.574-1.496,6.311-3.28c2.398-1.558,3.451-2.373,5.141-3.953c0.674-0.63,0.947-0.845,1.725-1.326
		c0.651-0.399,1.406-0.759,1.969-0.938l0.377-0.123l-0.256-0.166c-1.131-0.681-2.117-1.685-2.927-2.969
		c-0.45-0.698-1.372-1.569-2.06-1.929c-0.965-0.508-1.683-0.692-2.73-0.692c-0.143,0-0.291,0.005-0.455,0.012
		c-1.496,0.07-2.6,0.396-4.371,1.319c-0.549,0.288-0.845,0.441-0.932,0.441c-0.016,0-0.027-0.007-0.029-0.018
		c-0.027-0.067,0.219-0.301,0.81-0.846c0.415-0.38,0.994-0.866,1.3-1.084c0.779-0.549,1.961-1.143,2.75-1.393
		c0.606-0.189,0.793-0.21,1.814-0.258c0.367-0.019,0.592-0.027,0.77-0.027c0.41,0,0.627,0.04,0.949,0.111
		c1.613,0.37,2.773,1.131,4.147,2.697c1.757,2.02,3.548,3.434,4.788,3.77c0.137,0.038,0.395,0.114,0.395,0.149
		c0.004,0.044-0.363,0.233-0.557,0.328c-0.836,0.4-2.539,1.443-3.371,2.058c-1.826,1.334-3.412,3.012-4.982,5.274
		c-1.479,2.12-3.697,4.287-5.943,5.793c-3.039,2.036-6.318,3.297-10.028,3.871C65.122,62.699,64.799,62.736,64.144,62.736"/>
</g>
</svg>
